<svg width="707" height="673" viewBox="0 0 707 673" fill="none" xmlns="http://www.w3.org/2000/svg">
<g filter="url(#filter0_b_243_6294)">
<rect width="356.362" height="226.492" rx="16.624" transform="matrix(0.621305 0.783569 -0.993396 -0.114738 272.877 346.804)" fill="url(#paint0_linear_243_6294)" fill-opacity="0.2"/>
<rect x="-0.485986" y="0.873556" width="353.75" height="223.88" rx="15.3179" transform="matrix(0.621305 0.783569 -0.993396 -0.114738 273.561 348.159)" stroke="url(#paint1_linear_243_6294)" stroke-opacity="0.75" stroke-width="2.61219"/>
<rect x="-0.485986" y="0.873556" width="353.75" height="223.88" rx="15.3179" transform="matrix(0.621305 0.783569 -0.993396 -0.114738 273.561 348.159)" stroke="url(#paint2_linear_243_6294)" stroke-opacity="0.75" stroke-width="2.61219"/>
</g>
<g filter="url(#filter1_b_243_6294)">
<rect width="356.362" height="226.492" rx="16.624" transform="matrix(0.621305 0.783569 -0.993396 -0.114738 296.49 295.818)" fill="url(#paint3_linear_243_6294)" fill-opacity="0.2"/>
<rect x="-0.485986" y="0.873556" width="353.75" height="223.88" rx="15.3179" transform="matrix(0.621305 0.783569 -0.993396 -0.114738 297.174 297.173)" stroke="url(#paint4_linear_243_6294)" stroke-opacity="0.75" stroke-width="2.61219"/>
<rect x="-0.485986" y="0.873556" width="353.75" height="223.88" rx="15.3179" transform="matrix(0.621305 0.783569 -0.993396 -0.114738 297.174 297.173)" stroke="url(#paint5_linear_243_6294)" stroke-opacity="0.75" stroke-width="2.61219"/>
</g>
<g filter="url(#filter2_b_243_6294)">
<rect width="356.362" height="226.492" rx="16.624" transform="matrix(0.621305 0.783569 -0.993396 -0.114738 319.449 239.548)" fill="url(#paint6_linear_243_6294)" fill-opacity="0.2"/>
<rect x="-0.485986" y="0.873556" width="353.75" height="223.88" rx="15.3179" transform="matrix(0.621305 0.783569 -0.993396 -0.114738 320.133 240.903)" stroke="url(#paint7_linear_243_6294)" stroke-opacity="0.75" stroke-width="2.61219"/>
<rect x="-0.485986" y="0.873556" width="353.75" height="223.88" rx="15.3179" transform="matrix(0.621305 0.783569 -0.993396 -0.114738 320.133 240.903)" stroke="url(#paint8_linear_243_6294)" stroke-opacity="0.75" stroke-width="2.61219"/>
</g>
<path d="M119.501 171.735C117.976 169.001 124.427 158.547 128.683 159.135C136.722 184.489 329.684 413.869 344.817 425.541C359.951 437.214 560.734 444.783 560.676 448.755C560.611 453.135 554.29 461.922 551.125 462.634C547.96 463.347 430.641 452.978 385.945 449.516C341.249 446.054 336.374 444.888 329.705 436.243C317.032 419.814 127.811 186.637 119.501 171.735Z" fill="#4A70B9"/>
<g clip-path="url(#clip0_243_6294)">
<rect width="356.362" height="226.492" rx="16.6233" transform="matrix(0.634211 0.77316 -0.995162 -0.0982518 342.106 178.584)" fill="#96BAFF"/>
<g filter="url(#filter3_f_243_6294)">
<circle r="111.168" transform="matrix(0.634211 0.77316 -0.995162 -0.0982518 394.474 410.389)" fill="#892CDC"/>
</g>
<g filter="url(#filter4_f_243_6294)">
<circle r="151.168" transform="matrix(0.634211 0.77316 -0.995162 -0.0982518 333.315 211.305)" fill="#BC6FF1" fill-opacity="0.6"/>
</g>
<path d="M187.543 202.332C189.212 202.497 190.693 202.843 191.986 203.37C193.295 203.906 194.389 204.71 195.268 205.782C196.147 206.854 196.293 207.561 195.704 207.902C195.13 208.252 194.009 208.345 192.34 208.18C190.651 208.013 189.147 207.661 187.829 207.125C186.527 206.597 185.436 205.796 184.556 204.724C183.677 203.652 183.529 202.942 184.112 202.593C184.71 202.252 185.854 202.165 187.543 202.332ZM191.306 206.92C192.088 206.998 192.715 207.022 193.188 206.992C193.667 206.971 193.977 206.857 194.118 206.65C194.268 206.445 194.15 206.106 193.1100 205.633C193.375 205.161 192.909 204.788 192.365 204.513C191.831 204.24 191.259 204.036 190.651 203.9C190.049 203.771 189.358 203.669 188.576 203.592C187.765 203.512 187.116 203.482 186.627 203.503C186.139 203.523 185.824 203.637 185.683 203.843C185.548 204.057 185.674 204.401 186.062 204.873C186.449 205.345 186.91 205.718 187.445 205.991C187.986 206.272 188.562 206.477 189.173 206.606C189.785 206.736 190.496 206.84 191.306 206.92ZM195.967 209.764C196.901 209.898 197.819 210.233 198.721 210.77C199.629 211.314 200.396 211.969 201.023 212.733C201.454 213.258 201.705 213.7 201.778 214.058C201.85 214.417 201.759 214.673 201.504 214.827C201.249 214.981 200.861 215.032 200.339 214.981C199.741 214.922 199.128 214.748 198.501 214.458C197.873 214.169 197.346 213.845 196.918 213.486L196.86 213.48C197.049 213.905 197.014 214.218 196.753 214.42C196.503 214.623 196.02 214.689 195.306 214.618C194.737 214.562 194.147 214.411 193.537 214.165C192.927 213.918 192.329 213.584 191.743 213.161C191.166 212.739 190.65 212.25 190.195 211.695C189.531 210.886 189.249 210.244 189.349 209.772C189.465 209.308 190.009 209.107 190.982 209.169L191.997 210.406C191.51 210.385 191.216 210.497 191.116 210.742C191.025 210.988 191.173 211.347 191.561 211.82C191.936 212.277 192.384 212.645 192.906 212.924C193.437 213.204 193.958 213.369 194.469 213.419C195.145 213.486 195.484 213.365 195.487 213.055C195.506 212.754 195.233 212.258 194.667 211.568L194.427 211.276L195.788 211.41L196.037 211.714C196.544 212.322 197.053 212.796 197.562 213.136C198.078 213.483 198.605 213.683 199.146 213.737C199.609 213.782 199.88 213.702 199.96 213.497C200.049 213.292 199.918 212.976 199.568 212.548C199.224 212.128 198.816 211.789 198.346 211.528C197.885 211.269 197.433 211.097 196.991 211.012L195.967 209.764ZM210.732 221.358L192.025 216.7L190.992 215.44L209.69 220.087L210.732 221.358ZM201.079 222.386C202.471 223.185 203.591 223.816 204.441 224.278C205.306 224.75 206.133 225.152 206.92 225.484C207.707 225.817 208.381 226.011 208.94 226.066C209.519 226.123 209.884 226.059 210.034 225.874C210.189 225.697 210.08 225.379 209.705 224.922C209.342 224.48 208.876 224.117 208.306 223.833C207.752 223.558 207.165 223.383 206.545 223.308L205.53 222.071C206.649 222.202 207.697 222.54 208.676 223.084C209.671 223.637 210.478 224.292 211.099 225.049C211.77 225.867 212.003 226.475 211.799 226.876C211.602 227.283 211.02 227.439 210.055 227.344C209.36 227.276 208.576 227.071 207.702 226.729C206.844 226.397 206.002 226.014 205.177 225.581C204.367 225.157 203.39 224.619 202.244 223.969L201.25 223.405L204.175 226.97L202.8 226.834L198.316 221.369L199.518 221.488L201.079 222.386ZM205.65 228.006L206.895 228.129L216.971 232.597L218.244 234.149L211.455 233.478L212.313 234.524L210.88 234.383L210.022 233.337L207.822 233.12L206.789 231.86L208.989 232.077L205.65 228.006ZM215.578 232.779L208.291 229.621L210.468 232.275L215.578 232.779Z" fill="white"/>
<path d="M178.189 183.974L171.037 181.715L170.484 181.04L174.862 179.919L175.374 180.543L171.557 181.459L177.683 183.357L178.189 183.974ZM176.403 186.82L174.801 184.867L173.224 184.38L172.717 183.764L179.778 185.949L180.331 186.624L175.922 187.671L175.416 187.054L176.403 186.82ZM176.878 186.714L179.126 186.192L175.55 185.094L176.878 186.714ZM177.593 189.022L178.879 190.59L178.267 190.529L176.501 188.376L182.267 188.946L182.746 189.53L177.593 189.022ZM185.022 192.304L179.256 191.735L178.777 191.15L184.542 191.719L185.022 192.304ZM186.983 194.695C187.384 195.184 187.611 195.594 187.666 195.926C187.729 196.263 187.621 196.505 187.34 196.65C187.062 196.8 186.628 196.846 186.038 196.787C185.448 196.729 184.856 196.582 184.263 196.346C183.678 196.115 183.122 195.808 182.595 195.426C182.078 195.048 181.618 194.615 181.218 194.126L180.074 192.732L185.839 193.301L186.983 194.695ZM181.838 194.187C182.313 194.766 182.87 195.226 183.511 195.569C184.158 195.913 184.837 196.119 185.548 196.19C186.265 196.26 186.698 196.161 186.848 195.893C187.001 195.628 186.842 195.209 186.371 194.635L185.707 193.825L181.174 193.378L181.838 194.187ZM169.452 182.244L168.84 182.183L167.839 180.962L162.686 180.453L162.206 179.869L167.359 180.377L166.352 179.15L166.964 179.21L169.452 182.244ZM172.874 186.414L167.108 185.845L166.629 185.26L169.243 185.518L167.371 183.237L164.757 182.979L164.278 182.394L170.043 182.963L170.523 183.548L167.992 183.298L169.863 185.58L172.394 185.83L172.874 186.414ZM169.862 189.202L171.344 188.368L170.765 187.661L168.407 187.428L167.928 186.844L173.693 187.413L174.879 188.859C175.156 189.197 175.316 189.475 175.357 189.691C175.401 189.912 175.344 190.068 175.185 190.159C175.026 190.249 174.784 190.279 174.459 190.246C174.062 190.207 173.638 190.083 173.187 189.873C172.74 189.667 172.32 189.382 171.929 189.016L170.437 189.903L169.862 189.202ZM171.368 187.721L172.075 188.582C172.335 188.899 172.629 189.146 172.958 189.325C173.292 189.503 173.627 189.609 173.963 189.642C174.305 189.676 174.505 189.623 174.562 189.483C174.623 189.347 174.522 189.119 174.258 188.797L173.552 187.936L171.368 187.721ZM177.369 191.894L173.721 191.534C173.208 191.484 172.907 191.543 172.817 191.711C172.73 191.883 172.83 192.143 173.114 192.49C173.395 192.833 173.739 193.113 174.145 193.33C174.555 193.552 175.016 193.688 175.529 193.739L179.177 194.099L179.657 194.683L176.017 194.324C175.538 194.277 175.071 194.162 174.617 193.979C174.169 193.797 173.759 193.57 173.388 193.297C173.021 193.028 172.707 192.735 172.447 192.418C172.187 192.101 172.032 191.822 171.981 191.581C171.933 191.344 172.011 191.167 172.213 191.049C172.424 190.936 172.77 190.903 173.25 190.95L176.889 191.31L177.369 191.894Z" fill="white"/>
<circle r="14.5454" transform="matrix(0.634211 0.77316 -0.995162 -0.0982518 343.791 389.144)" fill="#E33A24"/>
<circle r="14.5454" transform="matrix(0.634211 0.77316 -0.995162 -0.0982518 356.969 405.21)" fill="#F8CB2E" fill-opacity="0.8"/>
<path d="M210.508 188.671L202.22 187.853C201.194 187.752 200.183 187.428 199.187 186.88C198.198 186.342 197.38 185.678 196.733 184.89C196.087 184.102 195.861 183.493 196.056 183.063C196.258 182.642 196.871 182.482 197.897 182.584L199.11 184.062C198.609 184.02 198.288 184.079 198.144 184.238C198.008 184.406 198.095 184.678 198.404 185.055C198.713 185.432 199.098 185.734 199.557 185.96C200.028 186.188 200.511 186.326 201.007 186.375L209.295 187.193L210.508 188.671ZM205.246 195.268C204.564 194.437 204.183 193.694 204.103 193.041C204.041 192.397 204.288 191.913 204.844 191.59C205.418 191.277 206.268 191.176 207.393 191.287C208.517 191.398 209.692 191.699 210.915 192.19C212.146 192.689 213.294 193.31 214.36 194.053C215.443 194.806 216.326 195.598 217.008 196.429C217.697 197.269 218.072 198.011 218.134 198.654C218.214 199.308 217.973 199.792 217.41 200.107C216.847 200.421 216.003 200.523 214.878 200.412C213.753 200.301 212.573 199.999 211.338 199.507C210.115 199.016 208.961 198.395 207.878 197.642C206.812 196.899 205.935 196.107 205.246 195.268ZM206.884 195.429C207.369 196.021 207.972 196.565 208.693 197.061C209.426 197.558 210.217 197.967 211.068 198.288C211.936 198.617 212.795 198.824 213.644 198.908C214.494 198.992 215.129 198.933 215.551 198.73C215.98 198.536 216.175 198.225 216.138 197.796C216.1 197.367 215.839 196.857 215.354 196.266C214.869 195.674 214.265 195.131 213.544 194.634C212.823 194.138 212.033 193.725 211.176 193.396C210.325 193.076 209.475 192.874 208.626 192.79C207.777 192.706 207.132 192.761 206.693 192.954C206.271 193.156 206.073 193.471 206.1 193.899C206.137 194.328 206.399 194.838 206.884 195.429ZM228.69 210.837L217.193 209.702L215.991 208.237L221.02 208.733L217.572 204.531L212.543 204.034L211.341 202.569L222.839 203.704L224.04 205.169L219.111 204.682L222.558 208.885L227.488 209.372L228.69 210.837ZM225.849 220.255L224.647 218.79L229.617 215.229L221.031 214.381L219.829 212.916L231.343 214.053L232.545 215.518L227.592 219.08L236.161 219.926L237.363 221.392L225.849 220.255ZM246.165 232.141C246.945 233.092 247.39 233.899 247.499 234.564C247.626 235.238 247.406 235.724 246.84 236.022C246.293 236.331 245.434 236.427 244.265 236.312C243.096 236.196 241.92 235.899 240.736 235.42C239.56 234.949 238.445 234.331 237.391 233.566C236.355 232.81 235.448 231.957 234.667 231.006L232.274 228.088L243.772 229.223L246.165 232.141ZM236.206 231.157C237.063 232.203 238.085 233.04 239.269 233.669C240.454 234.297 241.708 234.677 243.032 234.808C244.366 234.94 245.18 234.764 245.473 234.281C245.766 233.798 245.484 233.034 244.626 231.989L243.435 230.536L235.015 229.705L236.206 231.157ZM244.029 242.548C243.348 241.717 242.967 240.975 242.887 240.321C242.825 239.677 243.072 239.194 243.628 238.871C244.202 238.557 245.051 238.456 246.176 238.567C247.301 238.678 248.475 238.979 249.699 239.47C250.93 239.969 252.078 240.591 253.143 241.334C254.227 242.086 255.11 242.878 255.791 243.709C256.48 244.549 256.856 245.291 256.918 245.935C256.998 246.589 256.756 247.073 256.193 247.387C255.63 247.702 254.786 247.803 253.661 247.692C252.536 247.581 251.357 247.28 250.122 246.788C248.898 246.297 247.745 245.675 246.661 244.922C245.595 244.179 244.718 243.388 244.029 242.548ZM245.667 242.71C246.152 243.301 246.755 243.845 247.477 244.341C248.209 244.839 249.001 245.248 249.851 245.568C250.72 245.898 251.579 246.105 252.428 246.189C253.277 246.272 253.912 246.213 254.334 246.011C254.1100 245.817 254.959 245.505 254.921 245.076C254.883 244.647 254.622 244.137 254.137 243.546C253.652 242.955 253.049 242.411 252.327 241.915C251.606 241.418 250.817 241.006 249.959 240.677C249.109 240.357 248.259 240.155 247.409 240.071C246.56 239.987 245.916 240.041 245.476 240.234C245.054 240.437 244.857 240.752 244.883 241.18C244.921 241.609 245.182 242.119 245.667 242.71ZM261.302 252.299L257.927 251.966L260.457 255.051L258.919 254.899L256.389 251.814L252.865 251.466L255.712 254.937L254.173 254.785L250.125 249.849L261.639 250.986L265.687 255.921L264.149 255.77L261.302 252.299Z" fill="white"/>
<path d="M240.983 191.536C240.797 191.411 240.623 191.288 240.462 191.165C240.315 191.05 240.179 190.931 240.054 190.806C240.21 191.052 240.284 191.272 240.276 191.466L240.379 192.885L238.68 192.203L238.576 190.784C238.572 190.678 238.578 190.578 238.593 190.485C238.613 190.398 238.652 190.325 238.71 190.266C238.505 190.323 238.225 190.333 237.87 190.298L235.587 190.073L234.654 188.935L236.924 189.16C237.09 189.176 237.256 189.198 237.424 189.227C237.597 189.261 237.77 189.305 237.942 189.357C237.768 189.275 237.596 189.182 237.426 189.076C237.256 188.971 237.081 188.859 236.9 188.741L234.509 187.105L235.283 186.659L237.682 188.304C238.064 188.566 238.37 188.809 238.599 189.033C238.464 188.813 238.394 188.593 238.389 188.374L238.286 186.955L239.985 187.637L240.076 189.054C240.08 189.161 240.072 189.258 240.052 189.344C240.04 189.432 240.008 189.508 239.955 189.574C240.16 189.517 240.435 189.506 240.783 189.54L243.078 189.767L244.011 190.905L241.741 190.68C241.567 190.663 241.394 190.637 241.221 190.602C241.053 190.574 240.88 190.53 240.703 190.472C240.882 190.56 241.056 190.657 241.227 190.1100C241.397 190.868 241.572 190.98 241.753 191.098L244.143 192.734L243.369 193.18L240.983 191.536ZM248.017 200.111C247.831 199.986 247.658 199.863 247.497 199.741C247.349 199.626 247.213 199.506 247.088 199.381C247.244 199.627 247.318 199.847 247.31 200.041L247.413 201.46L245.714 200.778L245.61 199.36C245.607 199.253 245.612 199.153 245.627 199.06C245.647 198.973 245.686 198.9 245.744 198.841C245.54 198.898 245.259 198.909 244.904 198.873L242.621 198.648L241.688 197.511L243.958 197.735C244.124 197.751 244.29 197.773 244.458 197.802C244.631 197.837 244.804 197.88 244.976 197.933C244.802 197.851 244.63 197.757 244.46 197.651C244.29 197.546 244.115 197.434 243.934 197.316L241.543 195.68L242.318 195.234L244.716 196.879C245.099 197.142 245.404 197.384 245.633 197.608C245.498 197.388 245.428 197.168 245.423 196.949L245.32 195.531L247.019 196.212L247.11 197.63C247.114 197.736 247.106 197.833 247.086 197.92C247.074 198.007 247.042 198.083 246.989 198.149C247.194 198.093 247.47 198.081 247.817 198.116L250.112 198.342L251.045 199.48L248.775 199.256C248.601 199.238 248.428 199.213 248.255 199.178C248.087 199.149 247.915 199.106 247.737 199.047C247.916 199.135 248.091 199.232 248.261 199.338C248.431 199.443 248.606 199.555 248.787 199.673L251.177 201.309L250.403 201.755L248.017 200.111ZM255.051 208.686C254.865 208.562 254.692 208.438 254.531 208.316C254.383 208.201 254.247 208.081 254.122 207.957C254.278 208.202 254.352 208.422 254.344 208.616L254.447 210.035L252.748 209.354L252.645 207.935C252.641 207.828 252.646 207.728 252.661 207.635C252.681 207.549 252.72 207.476 252.778 207.416C252.574 207.473 252.294 207.484 251.938 207.449L249.655 207.223L248.722 206.086L250.993 206.31C251.158 206.326 251.325 206.349 251.492 206.377C251.665 206.412 251.838 206.455 252.01 206.508C251.836 206.426 251.664 206.332 251.494 206.227C251.324 206.121 251.149 206.01 250.968 205.891L248.578 204.256L249.352 203.809L251.75 205.455C252.133 205.717 252.438 205.96 252.667 206.183C252.532 205.963 252.462 205.744 252.458 205.525L252.354 204.106L254.054 204.787L254.145 206.205C254.148 206.312 254.14 206.408 254.12 206.495C254.108 206.582 254.076 206.659 254.023 206.724C254.228 206.668 254.504 206.657 254.851 206.691L257.146 206.918L258.079 208.055L255.809 207.831C255.635 207.814 255.462 207.788 255.289 207.753C255.121 207.725 254.949 207.681 254.771 207.622C254.95 207.711 255.125 207.808 255.295 207.913C255.465 208.018 255.64 208.13 255.821 208.248L258.212 209.884L257.437 210.33L255.051 208.686ZM262.085 217.261C261.899 217.137 261.726 217.013 261.565 216.891C261.417 216.776 261.281 216.656 261.156 216.532C261.312 216.778 261.386 216.998 261.378 217.192L261.481 218.61L259.782 217.929L259.679 216.51C259.675 216.403 259.68 216.304 259.695 216.211C259.715 216.124 259.754 216.051 259.812 215.992C259.608 216.048 259.328 216.059 258.972 216.024L256.689 215.799L255.756 214.661L258.027 214.885C258.192 214.902 258.359 214.924 258.526 214.952C258.699 214.987 258.872 215.031 259.044 215.083C258.87 215.001 258.698 214.907 258.528 214.802C258.358 214.697 258.183 214.585 258.002 214.467L255.612 212.831L256.386 212.385L258.785 214.03C259.167 214.292 259.472 214.535 259.701 214.758C259.566 214.538 259.497 214.319 259.492 214.1L259.388 212.681L261.088 213.363L261.179 214.78C261.183 214.887 261.174 214.983 261.154 215.07C261.142 215.157 261.11 215.234 261.058 215.3C261.262 215.243 261.538 215.232 261.885 215.266L264.181 215.493L265.114 216.63L262.843 216.406C262.669 216.389 262.496 216.363 262.323 216.328C262.155 216.3 261.983 216.256 261.805 216.197C261.984 216.286 262.159 216.383 262.329 216.488C262.499 216.594 262.674 216.705 262.855 216.824L265.246 218.459L264.472 218.906L262.085 217.261ZM273.281 230.91C273.095 230.786 272.922 230.662 272.761 230.54C272.613 230.425 272.477 230.305 272.352 230.181C272.508 230.426 272.582 230.646 272.574 230.84L272.677 232.259L270.978 231.578L270.875 230.159C270.871 230.052 270.876 229.952 270.891 229.859C270.911 229.773 270.95 229.7 271.008 229.64C270.804 229.697 270.524 229.708 270.168 229.673L267.885 229.447L266.952 228.31L269.222 228.534C269.388 228.55 269.554 228.573 269.722 228.601C269.895 228.636 270.068 228.679 270.24 228.732C270.066 228.65 269.894 228.556 269.724 228.451C269.554 228.345 269.379 228.233 269.198 228.115L266.807 226.48L267.582 226.033L269.98 227.679C270.363 227.941 270.668 228.184 270.897 228.407C270.762 228.187 270.692 227.967 270.688 227.748L270.584 226.33L272.284 227.011L272.374 228.429C272.378 228.536 272.37 228.632 272.35 228.719C272.338 228.806 272.306 228.883 272.253 228.948C272.458 228.892 272.734 228.881 273.081 228.915L275.376 229.142L276.309 230.279L274.039 230.055C273.865 230.038 273.692 230.012 273.519 229.977C273.351 229.949 273.179 229.905 273.001 229.846C273.18 229.935 273.355 230.032 273.525 230.137C273.695 230.242 273.87 230.354 274.051 230.472L276.442 232.108L275.667 232.554L273.281 230.91ZM280.315 239.485C280.129 239.361 279.956 239.237 279.795 239.115C279.647 239 279.511 238.88 279.386 238.756C279.542 239.002 279.616 239.221 279.608 239.416L279.711 240.834L278.012 240.153L277.909 238.734C277.905 238.627 277.91 238.527 277.925 238.434C277.945 238.348 277.984 238.275 278.042 238.216C277.838 238.272 277.558 238.283 277.202 238.248L274.919 238.023L273.986 236.885L276.257 237.109C276.422 237.126 276.589 237.148 276.756 237.176C276.929 237.211 277.102 237.255 277.274 237.307C277.1 237.225 276.928 237.131 276.758 237.026C276.588 236.921 276.413 236.809 276.232 236.69L273.842 235.055L274.616 234.609L277.014 236.254C277.397 236.516 277.702 236.759 277.931 236.982C277.796 236.762 277.727 236.543 277.722 236.324L277.618 234.905L279.318 235.587L279.409 237.004C279.413 237.111 279.404 237.207 279.384 237.294C279.372 237.381 279.34 237.458 279.287 237.524C279.492 237.467 279.768 237.456 280.115 237.49L282.411 237.717L283.344 238.854L281.073 238.63C280.899 238.613 280.726 238.587 280.553 238.552C280.385 238.524 280.213 238.48 280.035 238.421C280.214 238.51 280.389 238.607 280.559 238.712C280.729 238.818 280.904 238.929 281.085 239.048L283.476 240.683L282.701 241.13L280.315 239.485ZM287.349 248.061C287.163 247.936 286.99 247.813 286.829 247.69C286.681 247.575 286.545 247.456 286.42 247.331C286.576 247.577 286.65 247.797 286.642 247.991L286.745 249.41L285.046 248.728L284.943 247.309C284.939 247.203 284.944 247.103 284.959 247.01C284.98 246.923 285.019 246.85 285.076 246.791C284.872 246.848 284.592 246.858 284.236 246.823L281.953 246.598L281.02 245.46L283.291 245.684C283.456 245.701 283.623 245.723 283.79 245.752C283.963 245.786 284.136 245.83 284.308 245.882C284.134 245.8 283.963 245.707 283.793 245.601C283.622 245.496 283.447 245.384 283.267 245.266L280.876 243.63L281.65 243.184L284.049 244.829C284.431 245.091 284.736 245.334 284.965 245.557C284.83 245.337 284.761 245.118 284.756 244.899L284.652 243.48L286.352 244.162L286.443 245.579C286.447 245.686 286.439 245.783 286.418 245.869C286.406 245.957 286.374 246.033 286.322 246.099C286.526 246.042 286.802 246.031 287.149 246.065L289.445 246.292L290.378 247.429L288.107 247.205C287.934 247.188 287.76 247.162 287.587 247.127C287.42 247.099 287.247 247.055 287.069 246.997C287.248 247.085 287.423 247.182 287.593 247.287C287.1100 247.393 287.938 247.505 288.119 247.623L290.51 249.259L289.736 249.705L287.349 248.061ZM294.383 256.636C294.198 256.511 294.024 256.388 293.863 256.266C293.716 256.151 293.579 256.031 293.454 255.906C293.61 256.152 293.684 256.372 293.676 256.566L293.78 257.985L292.08 257.303L291.977 255.885C291.973 255.778 291.979 255.678 291.993 255.585C292.014 255.498 292.053 255.425 292.11 255.366C291.906 255.423 291.626 255.434 291.27 255.398L288.987 255.173L288.054 254.036L290.325 254.26C290.49 254.276 290.657 254.298 290.825 254.327C290.998 254.362 291.17 254.405 291.342 254.458C291.169 254.376 290.997 254.282 290.827 254.176C290.657 254.071 290.481 253.959 290.301 253.841L287.91 252.205L288.684 251.759L291.083 253.404C291.465 253.667 291.771 253.909 291.999 254.133C291.865 253.913 291.795 253.693 291.79 253.474L291.687 252.055L293.386 252.737L293.477 254.155C293.481 254.261 293.473 254.358 293.452 254.444C293.441 254.532 293.408 254.608 293.356 254.674C293.56 254.618 293.836 254.606 294.184 254.641L296.479 254.867L297.412 256.005L295.141 255.781C294.968 255.1100 294.794 255.737 294.621 255.703C294.454 255.674 294.281 255.631 294.104 255.572C294.283 255.66 294.457 255.757 294.627 255.863C294.797 255.968 294.973 256.08 295.153 256.198L297.544 257.834L296.77 258.28L294.383 256.636ZM305.579 270.285C305.393 270.16 305.22 270.037 305.059 269.914C304.911 269.799 304.775 269.68 304.65 269.555C304.806 269.801 304.88 270.021 304.872 270.215L304.975 271.634L303.276 270.952L303.173 269.533C303.169 269.427 303.174 269.327 303.189 269.234C303.209 269.147 303.248 269.074 303.306 269.015C303.102 269.071 302.822 269.082 302.466 269.047L300.183 268.822L299.25 267.684L301.521 267.908C301.686 267.925 301.853 267.947 302.02 267.975C302.193 268.01 302.366 268.054 302.538 268.106C302.364 268.024 302.193 267.93 302.022 267.825C301.852 267.72 301.677 267.608 301.496 267.49L299.106 265.854L299.88 265.408L302.279 267.053C302.661 267.315 302.966 267.558 303.195 267.781C303.06 267.561 302.991 267.342 302.986 267.123L302.882 265.704L304.582 266.386L304.673 267.803C304.677 267.91 304.668 268.007 304.648 268.093C304.636 268.181 304.604 268.257 304.552 268.323C304.756 268.266 305.032 268.255 305.379 268.289L307.675 268.516L308.608 269.653L306.337 269.429C306.163 269.412 305.99 269.386 305.817 269.351C305.649 269.323 305.477 269.279 305.299 269.221C305.478 269.309 305.653 269.406 305.823 269.511C305.993 269.617 306.168 269.729 306.349 269.847L308.74 271.483L307.966 271.929L305.579 270.285ZM312.613 278.86C312.428 278.735 312.254 278.612 312.093 278.49C311.946 278.375 311.809 278.255 311.684 278.13C311.84 278.376 311.914 278.596 311.906 278.79L312.01 280.209L310.31 279.527L310.207 278.108C310.203 278.002 310.209 277.902 310.223 277.809C310.244 277.722 310.283 277.649 310.34 277.59C310.136 277.647 309.856 277.657 309.5 277.622L307.217 277.397L306.284 276.26L308.555 276.484C308.72 276.5 308.887 276.522 309.055 276.551C309.228 276.586 309.4 276.629 309.572 276.682C309.399 276.599 309.227 276.506 309.057 276.4C308.887 276.295 308.711 276.183 308.531 276.065L306.14 274.429L306.914 273.983L309.313 275.628C309.695 275.891 310.001 276.133 310.229 276.357C310.095 276.137 310.025 275.917 310.02 275.698L309.917 274.279L311.616 274.961L311.707 276.379C311.711 276.485 311.703 276.582 311.682 276.668C311.671 276.756 311.638 276.832 311.586 276.898C311.79 276.841 312.066 276.83 312.413 276.865L314.709 277.091L315.642 278.229L313.371 278.005C313.198 277.987 313.024 277.961 312.851 277.927C312.684 277.898 312.511 277.855 312.333 277.796C312.513 277.884 312.687 277.981 312.857 278.087C313.027 278.192 313.203 278.304 313.383 278.422L315.774 280.058L315 280.504L312.613 278.86ZM319.648 287.435C319.462 287.31 319.288 287.187 319.127 287.065C318.98 286.95 318.843 286.83 318.718 286.706C318.874 286.951 318.948 287.171 318.94 287.365L319.044 288.784L317.344 288.102L317.241 286.684C317.237 286.577 317.243 286.477 317.258 286.384C317.278 286.298 317.317 286.225 317.375 286.165C317.17 286.222 316.89 286.233 316.534 286.198L314.252 285.972L313.318 284.835L315.589 285.059C315.754 285.075 315.921 285.098 316.089 285.126C316.262 285.161 316.434 285.204 316.607 285.257C316.433 285.175 316.261 285.081 316.091 284.976C315.921 284.87 315.745 284.758 315.565 284.64L313.174 283.004L313.948 282.558L316.347 284.204C316.729 284.466 317.035 284.709 317.264 284.932C317.129 284.712 317.059 284.492 317.054 284.273L316.951 282.855L318.65 283.536L318.741 284.954C318.745 285.06 318.737 285.157 318.717 285.244C318.705 285.331 318.672 285.408 318.62 285.473C318.824 285.417 319.1 285.406 319.448 285.44L321.743 285.667L322.676 286.804L320.405 286.58C320.232 286.563 320.058 286.537 319.885 286.502C319.718 286.473 319.545 286.43 319.368 286.371C319.547 286.46 319.721 286.557 319.891 286.662C320.061 286.767 320.237 286.879 320.417 286.997L322.808 288.633L322.034 289.079L319.648 287.435ZM326.682 296.01C326.496 295.886 326.322 295.762 326.161 295.64C326.014 295.525 325.878 295.405 325.753 295.281C325.909 295.527 325.983 295.746 325.975 295.941L326.078 297.359L324.379 296.678L324.275 295.259C324.271 295.152 324.277 295.052 324.292 294.959C324.312 294.873 324.351 294.8 324.409 294.741C324.204 294.797 323.924 294.808 323.569 294.773L321.286 294.547L320.353 293.41L322.623 293.634C322.789 293.651 322.955 293.673 323.123 293.701C323.296 293.736 323.468 293.78 323.641 293.832C323.467 293.75 323.295 293.656 323.125 293.551C322.955 293.445 322.78 293.334 322.599 293.215L320.208 291.58L320.982 291.133L323.381 292.779C323.1100 293.041 324.069 293.284 324.298 293.507C324.163 293.287 324.093 293.068 324.088 292.849L323.985 291.43L325.684 292.112L325.775 293.529C325.779 293.636 325.771 293.732 325.751 293.819C325.739 293.906 325.707 293.983 325.654 294.049C325.858 293.992 326.134 293.981 326.482 294.015L328.777 294.242L329.71 295.379L327.44 295.155C327.266 295.138 327.093 295.112 326.92 295.077C326.752 295.049 326.579 295.005 326.402 294.946C326.581 295.035 326.755 295.132 326.925 295.237C327.096 295.343 327.271 295.454 327.451 295.573L329.842 297.208L329.068 297.654L326.682 296.01ZM336.017 314.091C334.454 313.936 332.985 313.67 331.611 313.293C330.25 312.922 329.004 312.468 327.871 311.931C326.745 311.401 325.737 310.802 324.848 310.136C323.973 309.476 323.237 308.784 322.641 308.057C322.046 307.331 321.674 306.674 321.527 306.087C321.393 305.507 321.515 305.026 321.894 304.644C322.272 304.262 322.931 303.999 323.87 303.856C324.817 303.713 326.072 303.719 327.635 303.873C329.207 304.028 330.673 304.291 332.034 304.662C333.394 305.032 334.638 305.483 335.765 306.013C336.892 306.544 337.89 307.136 338.76 307.788C339.644 308.449 340.384 309.142 340.979 309.868C341.575 310.594 341.942 311.25 342.081 311.837C342.234 312.431 342.121 312.919 341.743 313.301C341.37 313.689 340.713 313.955 339.775 314.099C338.841 314.248 337.588 314.246 336.017 314.091ZM334.001 311.633C335.299 311.761 336.314 311.793 337.045 311.729C337.775 311.666 338.29 311.534 338.589 311.333C338.893 311.138 339.013 310.89 338.948 310.589C338.891 310.288 338.72 309.964 338.436 309.617C338.156 309.276 337.781 308.935 337.311 308.593C336.854 308.259 336.273 307.945 335.569 307.651C334.864 307.357 334.025 307.094 333.052 306.862C332.084 306.636 330.95 306.459 329.652 306.331C328.353 306.203 327.336 306.167 326.6 306.225C325.869 306.288 325.352 306.417 325.047 306.612C324.743 306.806 324.617 307.051 324.668 307.345C324.733 307.647 324.906 307.968 325.185 308.308C325.47 308.656 325.843 308.999 326.305 309.34C326.775 309.682 327.363 310 328.068 310.294C328.778 310.594 329.62 310.861 330.593 311.093C331.566 311.324 332.702 311.504 334.001 311.633ZM341.554 316.393C342.493 316.574 343.399 316.835 344.271 317.175C345.151 317.516 345.975 317.913 346.742 318.367C347.523 318.828 348.24 319.336 348.892 319.89C349.559 320.452 350.145 321.041 350.651 321.658C351.178 322.301 351.532 322.867 351.714 323.358C351.91 323.855 351.947 324.267 351.825 324.591C351.712 324.917 351.453 325.148 351.049 325.285C350.65 325.429 350.124 325.469 349.47 325.404C348.9 325.348 348.353 325.247 347.83 325.1C347.321 324.962 346.829 324.783 346.353 324.565C345.878 324.347 345.415 324.088 344.965 323.79C344.515 323.492 344.073 323.162 343.64 322.8C343.986 323.602 343.98 324.174 343.623 324.517C343.265 324.859 342.561 324.979 341.511 324.875C340.618 324.787 339.722 324.58 338.825 324.256C337.927 323.931 337.064 323.527 336.234 323.043C335.412 322.56 334.644 322.018 333.93 321.416C333.221 320.82 332.603 320.201 332.076 319.559C331.501 318.858 331.104 318.258 330.884 317.758C330.663 317.258 330.598 316.835 330.687 316.489C330.776 316.144 331.003 315.865 331.369 315.653C331.735 315.441 332.224 315.277 332.835 315.16L334.255 316.266C334.63 316.557 334.878 316.817 334.999 317.048C335.133 317.286 335.113 317.446 334.938 317.529C334.743 317.616 334.56 317.713 334.39 317.82C334.225 317.934 334.109 318.076 334.044 318.247C333.987 318.419 333.994 318.626 334.064 318.869C334.148 319.119 334.338 319.425 334.633 319.784C334.965 320.189 335.337 320.551 335.751 320.869C336.172 321.188 336.601 321.461 337.037 321.687C337.479 321.92 337.905 322.101 338.315 322.23C338.738 322.366 339.119 322.451 339.459 322.484C339.889 322.527 340.248 322.53 340.538 322.494C340.836 322.458 341.016 322.34 341.08 322.14C341.144 321.939 341.072 321.634 340.864 321.224C340.662 320.82 340.271 320.264 339.692 319.558L341.875 319.773C342.363 320.359 342.832 320.851 343.28 321.249C343.729 321.648 344.161 321.971 344.577 322.219C345.007 322.474 345.424 322.663 345.829 322.786C346.233 322.908 346.634 322.989 347.031 323.028C347.875 323.112 348.366 322.992 348.504 322.669C348.642 322.346 348.46 321.879 347.959 321.269C347.727 320.986 347.46 320.72 347.158 320.472C346.863 320.224 346.542 319.995 346.194 319.783C345.859 319.579 345.514 319.4 345.161 319.247C344.807 319.094 344.455 318.971 344.105 318.877C343.635 318.73 343.264 318.561 342.992 318.369C342.726 318.183 342.494 317.933 342.297 317.618L341.554 316.393ZM347.859 335.381C348.07 335.638 348.141 335.831 348.072 335.96C348.017 336.096 347.836 336.149 347.53 336.119L345.694 335.938L337.85 326.375L338.867 326.476C339.074 326.496 339.316 326.55 339.592 326.636C339.881 326.73 340.178 326.859 340.481 327.025L349.411 331.796C350.164 332.195 350.865 332.553 351.514 332.871C352.167 333.196 352.777 333.472 353.344 333.699C353.91 333.926 354.444 334.109 354.945 334.247C355.459 334.392 355.952 334.488 356.424 334.534C356.854 334.577 357.191 334.566 357.434 334.501C357.686 334.438 357.85 334.327 357.925 334.169C358.006 334.017 357.998 333.822 357.9 333.582C357.815 333.349 357.647 333.078 357.394 332.77C357.162 332.487 356.892 332.218 356.584 331.963C356.29 331.716 355.971 331.489 355.628 331.284C355.293 331.08 354.949 330.901 354.595 330.748C354.242 330.595 353.89 330.472 353.539 330.378C353.069 330.231 352.701 330.065 352.434 329.879C352.168 329.694 351.933 329.44 351.731 329.119L350.988 327.894C351.928 328.075 352.833 328.336 353.705 328.676C354.585 329.017 355.409 329.414 356.176 329.868C356.957 330.329 357.674 330.837 358.327 331.391C358.993 331.953 359.579 332.543 360.085 333.16C360.612 333.802 360.97 334.378 361.16 334.887C361.357 335.396 361.388 335.819 361.253 336.154C361.117 336.489 360.822 336.731 360.367 336.881C359.913 337.031 359.301 337.068 358.531 336.993C357.87 336.927 357.194 336.79 356.505 336.58C355.822 336.377 355.118 336.121 354.394 335.813C353.676 335.512 352.937 335.168 352.178 334.78C351.419 334.392 350.638 333.987 349.836 333.565L343.127 330.015C343.491 330.328 343.823 330.636 344.123 330.937C344.437 331.245 344.705 331.535 344.926 331.805L347.859 335.381ZM361.904 341.632C360.903 341.533 360.301 341.657 360.099 342.003C359.91 342.357 360.118 342.903 360.725 343.642C361.041 344.027 361.402 344.379 361.806 344.697C362.211 345.014 362.635 345.289 363.076 345.522C363.518 345.754 363.967 345.94 364.424 346.08C364.885 346.226 365.331 346.32 365.761 346.363C366.249 346.411 366.636 346.396 366.922 346.318C367.216 346.24 367.408 346.109 367.499 345.923C367.59 345.737 367.584 345.503 367.482 345.221C367.386 344.946 367.195 344.635 366.91 344.288C366.615 343.928 366.27 343.596 365.876 343.291C365.49 342.987 365.076 342.719 364.634 342.486C364.193 342.254 363.737 342.064 363.267 341.917C362.805 341.771 362.351 341.676 361.904 341.632ZM358.902 344.241C359.165 344.368 359.419 344.487 359.664 344.6C359.908 344.713 360.15 344.822 360.389 344.929C359.861 344.581 359.368 344.208 358.911 343.808C358.463 343.41 358.065 342.998 357.717 342.574C357.321 342.092 357.041 341.63 356.877 341.189C356.712 340.748 356.698 340.368 356.833 340.051C356.976 339.734 357.274 339.495 357.726 339.333C358.192 339.178 358.855 339.143 359.715 339.228C360.518 339.307 361.365 339.497 362.258 339.798C363.151 340.099 364.033 340.484 364.905 340.954C365.777 341.424 366.606 341.967 367.392 342.582C368.178 343.197 368.86 343.857 369.44 344.564C370.025 345.278 370.405 345.903 370.579 346.44C370.759 346.983 370.752 347.428 370.558 347.775C370.368 348.129 369.997 348.375 369.443 348.516C368.894 348.662 368.186 348.693 367.317 348.607C366.1100 348.552 366.206 348.462 365.647 348.336C365.092 348.216 364.528 348.066 363.955 347.885C363.389 347.705 362.808 347.497 362.211 347.261C361.615 347.025 361.004 346.767 360.379 346.487L351.905 342.718C351.617 342.589 351.313 342.409 350.993 342.176C350.682 341.945 350.413 341.691 350.186 341.414L348.391 339.226L358.902 344.241Z" fill="#FDFDFD"/>
<path d="M500.029 405.477C500.712 406.309 501.101 407.016 501.196 407.597C501.308 408.187 501.116 408.612 500.62 408.873C500.141 409.143 499.39 409.227 498.367 409.126C497.344 409.025 496.315 408.765 495.279 408.346C494.25 407.934 493.274 407.393 492.352 406.724C491.446 406.062 490.652 405.316 489.969 404.483L487.875 401.931L497.935 402.924L500.029 405.477ZM491.315 404.616C492.065 405.531 492.959 406.263 493.995 406.814C495.032 407.364 496.129 407.696 497.287 407.81C498.455 407.926 499.167 407.772 499.424 407.35C499.68 406.927 499.433 406.258 498.683 405.344L497.64 404.073L490.273 403.346L491.315 404.616ZM503.257 415.996C502.958 415.966 502.675 415.925 502.409 415.871L498.526 411.136C497.92 411.111 497.559 411.244 497.443 411.536C497.328 411.828 497.467 412.214 497.861 412.693C498.427 413.383 499.198 413.907 500.175 414.265L501.309 415.649C500.422 415.389 499.539 414.988 498.66 414.447C497.797 413.914 497.068 413.283 496.471 412.556C495.985 411.964 495.718 411.448 495.668 411.009C495.634 410.579 495.815 410.259 496.211 410.05C496.623 409.85 497.239 409.79 498.06 409.871C498.88 409.952 499.703 410.15 500.53 410.466C501.373 410.79 502.153 411.202 502.872 411.7C503.598 412.206 504.209 412.762 504.707 413.369C505.187 413.954 505.45 414.459 505.498 414.884C505.545 415.309 505.373 415.619 504.984 415.815C504.605 416.012 504.029 416.072 503.257 415.996ZM502.68 414.709C503.282 414.762 503.631 414.641 503.727 414.347C503.823 414.054 503.671 413.663 503.272 413.176C502.909 412.734 502.415 412.337 501.79 411.986C501.175 411.636 500.534 411.4 499.867 411.279L502.68 414.709ZM507.949 418.797C508.513 419.052 509.07 419.38 509.619 419.778C510.183 420.185 510.656 420.621 511.037 421.086C511.486 421.633 511.723 422.112 511.748 422.521C511.774 422.93 511.577 423.231 511.159 423.424C510.75 423.617 510.146 423.675 509.345 423.596C508.544 423.517 507.72 423.318 506.874 423.001C506.038 422.684 505.257 422.283 504.531 421.798C503.82 421.321 503.244 420.813 502.801 420.273C502.408 419.793 502.178 419.378 502.111 419.027C502.051 418.683 502.12 418.421 502.318 418.241L501.16 418.127L500.109 416.845L510.82 417.902L511.872 419.184L507.949 418.797ZM508.275 422.291C508.825 422.346 509.224 422.302 509.472 422.161C509.736 422.029 509.849 421.827 509.812 421.554C509.79 421.29 509.644 420.993 509.374 420.664C509.109 420.341 508.751 420.023 508.299 419.71C507.853 419.404 507.353 419.141 506.801 418.921C506.254 418.709 505.705 418.575 505.155 418.521C504.605 418.467 504.193 418.505 503.92 418.637C503.662 418.777 503.544 418.979 503.566 419.243C503.593 419.514 503.739 419.811 504.004 420.133C504.274 420.463 504.632 420.781 505.078 421.087C505.54 421.401 506.049 421.665 506.606 421.878C507.168 422.099 507.725 422.237 508.275 422.291ZM515.928 426.01C515.737 425.778 515.679 425.593 515.752 425.456C515.826 425.318 516.012 425.264 516.311 425.294C516.61 425.323 516.926 425.427 517.258 425.604C517.589 425.782 517.851 425.987 518.041 426.219C518.226 426.444 518.281 426.625 518.208 426.1100C518.134 426.9 517.948 426.954 517.649 426.924C517.35 426.895 517.034 426.791 516.702 426.614C516.371 426.436 516.113 426.235 515.928 426.01ZM515.388 426.536L507.412 425.748L506.361 424.466L514.336 425.254L515.388 426.536ZM516.649 429.582L512.234 429.146C511.935 429.116 511.761 429.147 511.712 429.239C511.679 429.339 511.77 429.52 511.985 429.783L512.631 430.57L511.256 430.434L510.426 429.422C509.952 428.845 509.1100 428.42 509.858 428.147C509.954 427.873 510.392 427.775 511.174 427.853L515.588 428.289L514.989 427.558L516.335 427.69L516.935 428.421L518.918 428.617L519.979 429.91L517.996 429.715L519.232 431.222L517.885 431.089L516.649 429.582Z" fill="white"/>
<rect width="50.6317" height="33.436" rx="8.69415" transform="matrix(0.634211 0.77316 -0.995162 -0.0982518 297.275 191.791)" fill="#E8AB27"/>
<mask id="mask0_243_6294" style="mask-type:alpha" maskUnits="userSpaceOnUse" x="267" y="189" width="59" height="42">
<rect width="50.6317" height="33.436" rx="8.69415" transform="matrix(0.634211 0.77316 -0.995162 -0.0982518 297.276 191.791)" fill="#EBEBEB"/>
</mask>
<g mask="url(#mask0_243_6294)">
<rect x="-0.261513" y="0.488979" width="18.6126" height="9.69631" rx="2.17354" transform="matrix(0.634211 0.77316 -0.995162 -0.0982518 296.456 191.052)" fill="#E8AB27" fill-opacity="0.3" stroke="#FDF0AD" stroke-width="1.44902"/>
<rect x="-0.261513" y="0.488979" width="18.6126" height="9.69631" rx="2.17354" transform="matrix(0.634211 0.77316 -0.995162 -0.0982518 285.366 189.958)" fill="#E8AB27" fill-opacity="0.3" stroke="#FDF0AD" stroke-width="1.44902"/>
<rect x="-0.261513" y="0.488979" width="18.6126" height="9.69631" rx="2.17354" transform="matrix(0.634211 0.77316 -0.995162 -0.0982518 307.176 216.548)" fill="#E8AB27" fill-opacity="0.3" stroke="#FDF0AD" stroke-width="1.44902"/>
<rect x="-0.261513" y="0.488979" width="18.6126" height="9.69631" rx="2.17354" transform="matrix(0.634211 0.77316 -0.995162 -0.0982518 274.272 188.862)" fill="#E8AB27" fill-opacity="0.3" stroke="#FDF0AD" stroke-width="1.44902"/>
<rect x="-0.261513" y="0.488979" width="18.6126" height="9.69631" rx="2.17354" transform="matrix(0.634211 0.77316 -0.995162 -0.0982518 296.084 215.452)" fill="#E8AB27" fill-opacity="0.3" stroke="#FDF0AD" stroke-width="1.44902"/>
</g>
<path d="M309.424 207.924C309.17 207.614 308.642 207.332 308.244 207.292C307.846 207.253 307.728 207.472 307.982 207.781L309.424 207.924ZM314.041 215.167C314.295 215.477 314.823 215.759 315.221 215.799C315.62 215.838 315.737 215.619 315.483 215.31L314.041 215.167ZM307.982 207.781L314.041 215.167L315.483 215.31L309.424 207.924L307.982 207.781Z" fill="#FDF0AD"/>
<path d="M279.954 205.014C279.7 204.705 279.171 204.422 278.773 204.383C278.375 204.343 278.258 204.562 278.512 204.872L279.954 205.014ZM284.57 212.258C284.824 212.567 285.353 212.85 285.751 212.889C286.149 212.928 286.266 212.71 286.012 212.4L284.57 212.258ZM278.512 204.872L284.57 212.258L286.012 212.4L279.954 205.014L278.512 204.872Z" fill="#FDF0AD"/>
</g>
<path d="M162.845 108.987C161.32 106.252 167.771 95.7985 172.026 96.3869C180.065 121.741 373.028 351.121 388.161 362.793C403.294 374.465 604.078 382.035 604.019 386.007C603.955 390.387 597.633 399.173 594.468 399.886C591.303 400.599 473.985 390.229 429.289 386.767C384.593 383.306 379.718 382.14 373.049 373.495C360.376 357.066 171.154 123.888 162.845 108.987Z" fill="#1A1ACF"/>
<g clip-path="url(#clip1_243_6294)">
<rect width="356.362" height="226.492" rx="16.6233" transform="matrix(0.634211 0.77316 -0.995162 -0.0982518 385.523 116.463)" fill="#5252FF"/>
<circle r="144.934" transform="matrix(0.634211 0.77316 -0.995162 -0.0982518 323.373 167.54)" fill="white" fill-opacity="0.1"/>
<circle r="177.142" transform="matrix(0.634211 0.77316 -0.995162 -0.0982518 348.836 162.672)" fill="white" fill-opacity="0.1"/>
<path d="M217.646 121.628L211.43 121.015C210.66 120.939 209.902 120.696 209.155 120.285C208.413 119.881 207.8 119.384 207.315 118.792C206.83 118.201 206.661 117.745 206.807 117.422C206.958 117.107 207.419 116.987 208.188 117.063L209.097 118.171C208.722 118.14 208.481 118.184 208.373 118.303C208.271 118.429 208.336 118.633 208.568 118.916C208.8 119.199 209.088 119.425 209.433 119.595C209.786 119.766 210.148 119.869 210.52 119.906L216.736 120.52L217.646 121.628ZM213.699 126.576C213.188 125.952 212.903 125.396 212.842 124.905C212.796 124.423 212.981 124.06 213.398 123.818C213.829 123.582 214.466 123.507 215.309 123.59C216.153 123.673 217.034 123.899 217.952 124.267C218.875 124.642 219.736 125.108 220.535 125.665C221.348 126.229 222.01 126.823 222.521 127.447C223.038 128.076 223.319 128.633 223.366 129.116C223.426 129.606 223.245 129.969 222.822 130.205C222.4 130.441 221.767 130.517 220.923 130.434C220.08 130.351 219.195 130.124 218.269 129.755C217.351 129.387 216.486 128.921 215.673 128.356C214.874 127.799 214.216 127.206 213.699 126.576ZM214.928 126.697C215.292 127.14 215.744 127.548 216.285 127.921C216.834 128.294 217.428 128.6 218.066 128.841C218.717 129.088 219.361 129.243 219.998 129.306C220.635 129.369 221.112 129.324 221.428 129.173C221.75 129.027 221.896 128.794 221.868 128.472C221.84 128.15 221.644 127.768 221.28 127.324C220.917 126.881 220.464 126.473 219.923 126.101C219.382 125.728 218.79 125.419 218.147 125.172C217.509 124.932 216.871 124.781 216.235 124.718C215.598 124.655 215.114 124.696 214.784 124.84C214.468 124.992 214.32 125.229 214.34 125.549C214.368 125.871 214.564 126.254 214.928 126.697ZM231.282 138.253L222.659 137.401L221.758 136.303L225.53 136.675L222.944 133.523L219.172 133.15L218.271 132.052L226.894 132.903L227.795 134.002L224.098 133.637L226.684 136.789L230.381 137.154L231.282 138.253ZM229.152 145.316L228.25 144.217L231.977 141.547L225.538 140.911L224.637 139.812L233.272 140.665L234.174 141.1100L230.459 144.435L236.886 145.07L237.787 146.169L229.152 145.316ZM244.389 154.23C244.974 154.944 245.307 155.55 245.389 156.048C245.484 156.553 245.32 156.918 244.895 157.142C244.484 157.373 243.841 157.445 242.964 157.359C242.087 157.272 241.205 157.049 240.317 156.69C239.435 156.337 238.598 155.873 237.808 155.299C237.032 154.732 236.351 154.092 235.766 153.379L233.971 151.191L242.594 152.042L244.389 154.23ZM236.92 153.493C237.563 154.277 238.328 154.905 239.217 155.376C240.106 155.848 241.046 156.133 242.039 156.231C243.04 156.33 243.65 156.198 243.87 155.836C244.089 155.474 243.878 154.901 243.235 154.117L242.341 153.027L236.026 152.404L236.92 153.493ZM242.787 162.036C242.276 161.413 241.99 160.856 241.93 160.366C241.884 159.883 242.069 159.52 242.486 159.278C242.916 159.043 243.553 158.967 244.397 159.05C245.241 159.134 246.121 159.359 247.039 159.727C247.962 160.102 248.823 160.568 249.622 161.125C250.435 161.69 251.097 162.284 251.609 162.907C252.125 163.537 252.407 164.093 252.453 164.576C252.513 165.066 252.332 165.429 251.91 165.665C251.488 165.901 250.855 165.977 250.011 165.894C249.167 165.811 248.282 165.585 247.356 165.216C246.439 164.848 245.573 164.381 244.761 163.817C243.962 163.259 243.304 162.666 242.787 162.036ZM244.015 162.157C244.379 162.601 244.831 163.009 245.373 163.381C245.922 163.754 246.516 164.061 247.153 164.301C247.805 164.548 248.449 164.703 249.086 164.766C249.723 164.829 250.199 164.785 250.516 164.633C250.837 164.488 250.984 164.254 250.956 163.932C250.928 163.611 250.732 163.228 250.368 162.785C250.004 162.341 249.552 161.933 249.011 161.561C248.47 161.189 247.877 160.879 247.234 160.633C246.596 160.392 245.959 160.241 245.322 160.178C244.685 160.115 244.202 160.156 243.872 160.301C243.556 160.452 243.407 160.689 243.427 161.01C243.456 161.331 243.652 161.714 244.015 162.157ZM255.742 169.349L253.21 169.1L255.108 171.413L253.954 171.299L252.057 168.986L249.414 168.725L251.549 171.327L250.395 171.213L247.359 167.512L255.994 168.365L259.03 172.066L257.876 171.952L255.742 169.349Z" fill="white"/>
<path d="M381.208 325.487C382.639 325.628 383.908 325.925 385.016 326.376C386.138 326.836 387.076 327.525 387.829 328.444C388.583 329.363 388.708 329.968 388.203 330.261C387.712 330.561 386.75 330.64 385.319 330.499C383.872 330.356 382.583 330.055 381.453 329.595C380.337 329.142 379.402 328.456 378.648 327.537C377.894 326.618 377.767 326.009 378.267 325.71C378.78 325.418 379.76 325.344 381.208 325.487ZM384.434 329.42C385.104 329.486 385.641 329.506 386.047 329.481C386.457 329.463 386.723 329.365 386.844 329.188C386.973 329.012 386.871 328.721 386.539 328.316C386.207 327.911 385.808 327.591 385.341 327.356C384.883 327.122 384.393 326.947 383.872 326.83C383.356 326.72 382.1100 326.632 382.093 326.566C381.399 326.498 380.842 326.472 380.423 326.49C380.004 326.508 379.735 326.605 379.614 326.782C379.498 326.966 379.606 327.26 379.939 327.665C380.271 328.069 380.666 328.389 381.124 328.623C381.587 328.864 382.081 329.04 382.605 329.15C383.13 329.261 383.739 329.351 384.434 329.42ZM388.429 331.857C389.23 331.971 390.016 332.259 390.789 332.719C391.567 333.186 392.225 333.747 392.1100 334.402C393.132 334.852 393.347 335.23 393.409 335.538C393.471 335.845 393.393 336.065 393.174 336.197C392.956 336.329 392.623 336.373 392.176 336.329C391.664 336.278 391.138 336.129 390.6 335.881C390.062 335.633 389.61 335.355 389.244 335.047L389.194 335.042C389.356 335.406 389.326 335.675 389.103 335.848C388.888 336.022 388.474 336.078 387.862 336.018C387.374 335.97 386.869 335.84 386.346 335.629C385.823 335.418 385.311 335.131 384.808 334.768C384.313 334.406 383.871 333.988 383.481 333.512C382.912 332.818 382.67 332.269 382.756 331.864C382.855 331.466 383.322 331.294 384.156 331.347L385.026 332.407C384.608 332.389 384.357 332.485 384.271 332.695C384.193 332.906 384.32 333.214 384.652 333.619C384.973 334.011 385.358 334.327 385.804 334.566C386.26 334.805 386.706 334.947 387.145 334.99C387.724 335.047 388.015 334.943 388.017 334.678C388.034 334.419 387.799 333.995 387.314 333.403L387.109 333.153L388.275 333.268L388.488 333.528C388.924 334.05 389.359 334.456 389.796 334.747C390.238 335.045 390.69 335.216 391.153 335.262C391.55 335.301 391.783 335.233 391.851 335.056C391.928 334.881 391.816 334.61 391.515 334.243C391.22 333.884 390.871 333.592 390.467 333.369C390.072 333.147 389.685 333 389.306 332.927L388.429 331.857ZM401.084 341.795L385.05 337.802L384.164 336.722L400.191 340.705L401.084 341.795ZM392.811 342.676C394.003 343.36 394.964 343.901 395.692 344.298C396.434 344.702 397.142 345.046 397.817 345.331C398.492 345.617 399.069 345.783 399.549 345.83C400.045 345.879 400.357 345.824 400.486 345.666C400.619 345.514 400.525 345.242 400.204 344.85C399.893 344.47 399.493 344.159 399.005 343.916C398.53 343.68 398.027 343.53 397.495 343.466L396.626 342.406C397.584 342.518 398.483 342.808 399.322 343.274C400.175 343.748 400.867 344.31 401.399 344.959C401.974 345.659 402.174 346.181 401.999 346.524C401.83 346.873 401.331 347.007 400.504 346.926C399.909 346.867 399.236 346.691 398.487 346.399C397.751 346.113 397.03 345.785 396.323 345.414C395.629 345.051 394.791 344.59 393.809 344.032L392.957 343.549L395.464 346.605L394.285 346.489L390.442 341.804L391.472 341.906L392.811 342.676ZM396.728 347.493L397.795 347.598L406.432 351.428L407.523 352.758L401.704 352.183L402.44 353.08L401.211 352.959L400.476 352.062L398.59 351.876L397.705 350.796L399.59 350.983L396.728 347.493ZM405.238 351.584L398.992 348.877L400.858 351.152L405.238 351.584Z" fill="white"/>
<path d="M373.447 136.11C374.13 136.942 374.519 137.649 374.614 138.23C374.725 138.82 374.533 139.245 374.038 139.507C373.559 139.776 372.807 139.86 371.785 139.759C370.762 139.659 369.732 139.398 368.697 138.979C367.667 138.568 366.692 138.027 365.77 137.357C364.864 136.696 364.069 135.949 363.387 135.117L361.293 132.564L371.353 133.557L373.447 136.11ZM364.733 135.25C365.483 136.164 366.377 136.897 367.413 137.447C368.45 137.997 369.547 138.329 370.705 138.444C371.873 138.559 372.585 138.405 372.841 137.983C373.098 137.56 372.851 136.892 372.101 135.977L371.058 134.706L363.691 133.979L364.733 135.25ZM376.675 146.629C376.376 146.6 376.093 146.558 375.827 146.504L371.944 141.77C371.337 141.744 370.977 141.878 370.861 142.169C370.746 142.461 370.885 142.847 371.279 143.327C371.844 144.016 372.616 144.54 373.592 144.899L374.727 146.282C373.84 146.022 372.957 145.621 372.078 145.08C371.215 144.547 370.486 143.917 369.889 143.189C369.403 142.597 369.135 142.082 369.086 141.643C369.052 141.212 369.233 140.892 369.629 140.683C370.041 140.483 370.657 140.423 371.478 140.504C372.298 140.585 373.121 140.784 373.948 141.099C374.79 141.424 375.571 141.835 376.29 142.333C377.015 142.839 377.627 143.395 378.125 144.003C378.605 144.587 378.868 145.092 378.915 145.517C378.962 145.942 378.791 146.253 378.402 146.448C378.023 146.645 377.447 146.705 376.675 146.629ZM376.098 145.342C376.7 145.395 377.049 145.274 377.145 144.981C377.241 144.687 377.089 144.297 376.69 143.809C376.327 143.367 375.833 142.97 375.208 142.619C374.592 142.269 373.951 142.033 373.285 141.912L376.098 145.342ZM381.367 149.43C381.931 149.686 382.488 150.013 383.036 150.411C383.601 150.819 384.074 151.255 384.455 151.719C384.904 152.267 385.141 152.745 385.166 153.154C385.191 153.563 384.995 153.864 384.577 154.057C384.168 154.251 383.563 154.308 382.1100 154.229C381.962 154.15 381.138 153.952 380.292 153.634C379.456 153.317 378.675 152.916 377.949 152.431C377.238 151.954 376.662 151.446 376.219 150.906C375.825 150.426 375.595 150.011 375.529 149.66C375.469 149.316 375.538 149.055 375.736 148.874L374.578 148.76L373.526 147.478L384.238 148.535L385.29 149.817L381.367 149.43ZM381.692 152.925C382.242 152.979 382.642 152.936 382.89 152.795C383.153 152.662 383.267 152.46 383.23 152.188C383.208 151.924 383.062 151.627 382.792 151.297C382.527 150.974 382.169 150.657 381.717 150.343C381.271 150.037 380.771 149.774 380.218 149.554C379.672 149.342 379.123 149.209 378.573 149.154C378.023 149.1 377.611 149.139 377.338 149.27C377.08 149.41 376.962 149.612 376.983 149.876C377.011 150.147 377.157 150.444 377.421 150.767C377.692 151.096 378.05 151.414 378.496 151.72C378.958 152.035 379.467 152.298 380.024 152.512C380.586 152.733 381.142 152.87 381.692 152.925ZM389.346 156.644C389.155 156.411 389.097 156.226 389.17 156.089C389.244 155.951 389.43 155.897 389.729 155.927C390.028 155.957 390.344 156.06 390.676 156.237C391.007 156.415 391.269 156.62 391.459 156.852C391.644 157.077 391.699 157.258 391.626 157.396C391.552 157.533 391.366 157.587 391.067 157.558C390.768 157.528 390.452 157.425 390.12 157.247C389.788 157.07 389.53 156.869 389.346 156.644ZM388.806 157.169L380.83 156.382L379.778 155.1L387.754 155.887L388.806 157.169ZM390.067 160.215L385.652 159.779C385.353 159.75 385.179 159.781 385.13 159.872C385.097 159.972 385.188 160.154 385.403 160.416L386.049 161.203L384.674 161.068L383.844 160.055C383.37 159.478 383.181 159.053 383.276 158.78C383.371 158.507 383.81 158.409 384.591 158.486L389.006 158.922L388.407 158.191L389.753 158.324L390.353 159.055L392.336 159.25L393.396 160.544L391.413 160.348L392.649 161.855L391.303 161.722L390.067 160.215Z" fill="white"/>
<circle r="14.5454" transform="matrix(0.634211 0.77316 -0.995162 -0.0982518 534.025 341.519)" fill="#E33A24"/>
<circle r="14.5454" transform="matrix(0.634211 0.77316 -0.995162 -0.0982518 547.203 357.584)" fill="#F8CB2E" fill-opacity="0.8"/>
<path d="M252.35 126.251C252.164 126.126 251.991 126.002 251.83 125.88C251.682 125.765 251.546 125.646 251.421 125.521C251.577 125.767 251.651 125.987 251.643 126.181L251.746 127.599L250.047 126.918L249.943 125.499C249.94 125.392 249.945 125.293 249.96 125.2C249.98 125.113 250.019 125.04 250.077 124.981C249.873 125.037 249.593 125.048 249.237 125.013L246.954 124.788L246.021 123.65L248.291 123.874C248.457 123.891 248.623 123.913 248.791 123.941C248.964 123.976 249.137 124.02 249.309 124.072C249.135 123.99 248.963 123.896 248.793 123.791C248.623 123.686 248.448 123.574 248.267 123.456L245.876 121.82L246.651 121.374L249.049 123.019C249.432 123.281 249.737 123.524 249.966 123.747C249.831 123.527 249.761 123.308 249.757 123.089L249.653 121.67L251.352 122.352L251.443 123.769C251.447 123.876 251.439 123.973 251.419 124.059C251.407 124.147 251.375 124.223 251.322 124.289C251.527 124.232 251.803 124.221 252.15 124.255L254.445 124.482L255.378 125.619L253.108 125.395C252.934 125.378 252.761 125.352 252.588 125.317C252.42 125.289 252.248 125.245 252.07 125.186C252.249 125.275 252.424 125.372 252.594 125.477C252.764 125.583 252.939 125.695 253.12 125.813L255.51 127.448L254.736 127.895L252.35 126.251ZM259.384 134.826C259.198 134.701 259.025 134.578 258.864 134.456C258.716 134.341 258.58 134.221 258.455 134.096C258.611 134.342 258.685 134.562 258.677 134.756L258.78 136.175L257.081 135.493L256.978 134.074C256.974 133.968 256.979 133.868 256.994 133.775C257.014 133.688 257.053 133.615 257.111 133.556C256.907 133.613 256.627 133.623 256.271 133.588L253.988 133.363L253.055 132.225L255.326 132.45C255.491 132.466 255.658 132.488 255.825 132.517C255.998 132.551 256.171 132.595 256.343 132.648C256.169 132.565 255.997 132.472 255.827 132.366C255.657 132.261 255.482 132.149 255.301 132.031L252.911 130.395L253.685 129.949L256.083 131.594C256.466 131.856 256.771 132.099 257 132.323C256.865 132.103 256.795 131.883 256.791 131.664L256.687 130.245L258.387 130.927L258.478 132.344C258.481 132.451 258.473 132.548 258.453 132.634C258.441 132.722 258.409 132.798 258.356 132.864C258.561 132.807 258.837 132.796 259.184 132.831L261.48 133.057L262.413 134.195L260.142 133.97C259.968 133.953 259.795 133.927 259.622 133.893C259.454 133.864 259.282 133.821 259.104 133.762C259.283 133.85 259.458 133.947 259.628 134.053C259.798 134.158 259.973 134.27 260.154 134.388L262.545 136.024L261.77 136.47L259.384 134.826ZM266.418 143.401C266.232 143.276 266.059 143.153 265.898 143.031C265.75 142.916 265.614 142.796 265.489 142.672C265.645 142.917 265.719 143.137 265.711 143.331L265.814 144.75L264.115 144.068L264.012 142.65C264.008 142.543 264.013 142.443 264.028 142.35C264.048 142.264 264.087 142.191 264.145 142.131C263.941 142.188 263.661 142.199 263.305 142.164L261.022 141.938L260.089 140.801L262.36 141.025C262.525 141.041 262.692 141.064 262.859 141.092C263.032 141.127 263.205 141.17 263.377 141.223C263.203 141.141 263.032 141.047 262.861 140.942C262.691 140.836 262.516 140.724 262.335 140.606L259.945 138.97L260.719 138.524L263.118 140.17C263.5 140.432 263.805 140.674 264.034 140.898C263.899 140.678 263.83 140.458 263.825 140.239L263.721 138.821L265.421 139.502L265.512 140.92C265.516 141.026 265.507 141.123 265.487 141.21C265.475 141.297 265.443 141.374 265.391 141.439C265.595 141.383 265.871 141.372 266.218 141.406L268.514 141.632L269.447 142.77L267.176 142.546C267.002 142.529 266.829 142.503 266.656 142.468C266.488 142.439 266.316 142.396 266.138 142.337C266.317 142.426 266.492 142.522 266.662 142.628C266.832 142.733 267.007 142.845 267.188 142.963L269.579 144.599L268.805 145.045L266.418 143.401ZM273.452 151.976C273.267 151.852 273.093 151.728 272.932 151.606C272.785 151.491 272.648 151.371 272.523 151.247C272.679 151.492 272.753 151.712 272.745 151.906L272.849 153.325L271.149 152.644L271.046 151.225C271.042 151.118 271.048 151.018 271.062 150.925C271.083 150.839 271.122 150.766 271.179 150.707C270.975 150.1100 270.695 150.774 270.339 150.739L268.056 150.513L267.123 149.376L269.394 149.6C269.559 149.616 269.726 149.639 269.894 149.667C270.067 149.702 270.239 149.746 270.411 149.798C270.238 149.716 270.066 149.622 269.896 149.517C269.726 149.411 269.55 149.3 269.37 149.181L266.979 147.546L267.753 147.099L270.152 148.745C270.534 149.007 270.84 149.25 271.068 149.473C270.934 149.253 270.864 149.034 270.859 148.815L270.756 147.396L272.455 148.077L272.546 149.495C272.55 149.602 272.542 149.698 272.521 149.785C272.509 149.872 272.477 149.949 272.425 150.015C272.629 149.958 272.905 149.947 273.252 149.981L275.548 150.208L276.481 151.345L274.21 151.121C274.037 151.104 273.863 151.078 273.69 151.043C273.523 151.015 273.35 150.971 273.172 150.912C273.352 151.001 273.526 151.098 273.696 151.203C273.866 151.308 274.042 151.42 274.222 151.539L276.613 153.174L275.839 153.62L273.452 151.976ZM284.648 165.625C284.462 165.5 284.289 165.377 284.128 165.255C283.98 165.14 283.844 165.02 283.719 164.895C283.875 165.141 283.949 165.361 283.941 165.555L284.044 166.974L282.345 166.292L282.242 164.874C282.238 164.767 282.243 164.667 282.258 164.574C282.278 164.487 282.317 164.415 282.375 164.355C282.171 164.412 281.891 164.423 281.535 164.387L279.252 164.162L278.319 163.025L280.59 163.249C280.755 163.265 280.922 163.288 281.089 163.316C281.262 163.351 281.435 163.394 281.607 163.447C281.433 163.365 281.261 163.271 281.091 163.165C280.921 163.06 280.746 162.948 280.565 162.83L278.175 161.194L278.949 160.748L281.348 162.393C281.73 162.656 282.035 162.898 282.264 163.122C282.129 162.902 282.06 162.682 282.055 162.463L281.951 161.045L283.651 161.726L283.742 163.144C283.746 163.25 283.737 163.347 283.717 163.434C283.705 163.521 283.673 163.598 283.621 163.663C283.825 163.607 284.101 163.595 284.448 163.63L286.744 163.856L287.677 164.994L285.406 164.77C285.232 164.753 285.059 164.727 284.886 164.692C284.718 164.663 284.546 164.62 284.368 164.561C284.547 164.649 284.722 164.746 284.892 164.852C285.062 164.957 285.237 165.069 285.418 165.187L287.809 166.823L287.035 167.269L284.648 165.625ZM291.682 174.2C291.497 174.076 291.323 173.952 291.162 173.83C291.014 173.715 290.878 173.595 290.753 173.471C290.909 173.716 290.983 173.936 290.975 174.13L291.079 175.549L289.379 174.868L289.276 173.449C289.272 173.342 289.277 173.242 289.292 173.149C289.313 173.063 289.352 172.99 289.409 172.931C289.205 172.987 288.925 172.998 288.569 172.963L286.286 172.737L285.353 171.6L287.624 171.824C287.789 171.84 287.956 171.863 288.123 171.891C288.296 171.926 288.469 171.97 288.641 172.022C288.468 171.94 288.296 171.846 288.126 171.741C287.956 171.635 287.78 171.524 287.6 171.405L285.209 169.77L285.983 169.323L288.382 170.969C288.764 171.231 289.07 171.474 289.298 171.697C289.164 171.477 289.094 171.258 289.089 171.039L288.986 169.62L290.685 170.301L290.776 171.719C290.78 171.826 290.772 171.922 290.751 172.009C290.739 172.096 290.707 172.173 290.655 172.238C290.859 172.182 291.135 172.171 291.482 172.205L293.778 172.432L294.711 173.569L292.44 173.345C292.267 173.328 292.093 173.302 291.92 173.267C291.753 173.239 291.58 173.195 291.402 173.136C291.581 173.225 291.756 173.322 291.926 173.427C292.096 173.532 292.271 173.644 292.452 173.762L294.843 175.398L294.069 175.844L291.682 174.2ZM298.717 182.776C298.531 182.651 298.357 182.527 298.196 182.405C298.049 182.29 297.912 182.171 297.787 182.046C297.943 182.292 298.017 182.512 298.009 182.706L298.113 184.124L296.413 183.443L296.31 182.024C296.306 181.917 296.312 181.818 296.327 181.725C296.347 181.638 296.386 181.565 296.444 181.506C296.239 181.562 295.959 181.573 295.603 181.538L293.32 181.313L292.387 180.175L294.658 180.399C294.823 180.416 294.99 180.438 295.158 180.466C295.331 180.501 295.503 180.545 295.675 180.597C295.502 180.515 295.33 180.421 295.16 180.316C294.99 180.211 294.814 180.099 294.634 179.981L292.243 178.345L293.017 177.899L295.416 179.544C295.798 179.806 296.104 180.049 296.333 180.272C296.198 180.052 296.128 179.833 296.123 179.614L296.02 178.195L297.719 178.877L297.81 180.294C297.814 180.401 297.806 180.497 297.786 180.584C297.774 180.671 297.741 180.748 297.689 180.814C297.893 180.757 298.169 180.746 298.517 180.78L300.812 181.007L301.745 182.144L299.474 181.92C299.301 181.903 299.127 181.877 298.954 181.842C298.787 181.814 298.614 181.77 298.437 181.711C298.616 181.8 298.79 181.897 298.96 182.002C299.13 182.108 299.306 182.219 299.486 182.338L301.877 183.973L301.103 184.42L298.717 182.776ZM305.751 191.351C305.565 191.226 305.391 191.103 305.23 190.98C305.083 190.866 304.947 190.746 304.822 190.621C304.978 190.867 305.051 191.087 305.043 191.281L305.147 192.7L303.447 192.018L303.344 190.599C303.34 190.493 303.346 190.393 303.361 190.3C303.381 190.213 303.42 190.14 303.478 190.081C303.273 190.138 302.993 190.148 302.638 190.113L300.355 189.888L299.422 188.75L301.692 188.975C301.858 188.991 302.024 189.013 302.192 189.042C302.365 189.076 302.537 189.12 302.71 189.172C302.536 189.09 302.364 188.997 302.194 188.891C302.024 188.786 301.848 188.674 301.668 188.556L299.277 186.92L300.051 186.474L302.45 188.119C302.832 188.381 303.138 188.624 303.367 188.848C303.232 188.628 303.162 188.408 303.157 188.189L303.054 186.77L304.753 187.452L304.844 188.869C304.848 188.976 304.84 189.073 304.82 189.159C304.808 189.247 304.776 189.323 304.723 189.389C304.927 189.332 305.203 189.321 305.551 189.356L307.846 189.582L308.779 190.72L306.509 190.495C306.335 190.478 306.162 190.452 305.989 190.418C305.821 190.389 305.648 190.346 305.471 190.287C305.65 190.375 305.824 190.472 305.994 190.578C306.164 190.683 306.34 190.795 306.52 190.913L308.911 192.549L308.137 192.995L305.751 191.351ZM316.946 204.999C316.761 204.875 316.587 204.751 316.426 204.629C316.279 204.514 316.142 204.394 316.017 204.27C316.173 204.516 316.247 204.736 316.239 204.93L316.343 206.348L314.643 205.667L314.54 204.248C314.536 204.141 314.542 204.042 314.556 203.949C314.577 203.862 314.616 203.789 314.673 203.73C314.469 203.786 314.189 203.797 313.833 203.762L311.55 203.537L310.617 202.399L312.888 202.623C313.053 202.64 313.22 202.662 313.388 202.69C313.561 202.725 313.733 202.769 313.905 202.821C313.732 202.739 313.56 202.645 313.39 202.54C313.22 202.435 313.044 202.323 312.864 202.205L310.473 200.569L311.247 200.123L313.646 201.768C314.028 202.03 314.334 202.273 314.562 202.496C314.428 202.276 314.358 202.057 314.353 201.838L314.25 200.419L315.949 201.101L316.04 202.518C316.044 202.625 316.036 202.721 316.015 202.808C316.004 202.895 315.971 202.972 315.919 203.038C316.123 202.981 316.399 202.97 316.747 203.004L319.042 203.231L319.975 204.368L317.704 204.144C317.531 204.127 317.357 204.101 317.184 204.066C317.017 204.038 316.844 203.994 316.667 203.935C316.846 204.024 317.02 204.121 317.19 204.226C317.36 204.332 317.536 204.443 317.716 204.562L320.107 206.197L319.333 206.644L316.946 204.999ZM323.981 213.575C323.795 213.45 323.621 213.327 323.46 213.204C323.313 213.089 323.176 212.97 323.052 212.845C323.207 213.091 323.281 213.311 323.273 213.505L323.377 214.924L321.677 214.242L321.574 212.823C321.57 212.717 321.576 212.617 321.591 212.524C321.611 212.437 321.65 212.364 321.708 212.305C321.503 212.362 321.223 212.372 320.867 212.337L318.585 212.112L317.652 210.974L319.922 211.199C320.087 211.215 320.254 211.237 320.422 211.266C320.595 211.3 320.767 211.344 320.94 211.396C320.766 211.314 320.594 211.221 320.424 211.115C320.254 211.01 320.078 210.898 319.898 210.78L317.507 209.144L318.281 208.698L320.68 210.343C321.062 210.605 321.368 210.848 321.597 211.072C321.462 210.851 321.392 210.632 321.387 210.413L321.284 208.994L322.983 209.676L323.074 211.093C323.078 211.2 323.07 211.297 323.05 211.383C323.038 211.471 323.005 211.547 322.953 211.613C323.157 211.556 323.433 211.545 323.781 211.579L326.076 211.806L327.009 212.944L324.739 212.719C324.565 212.702 324.391 212.676 324.219 212.641C324.051 212.613 323.878 212.569 323.701 212.511C323.88 212.599 324.054 212.696 324.224 212.801C324.394 212.907 324.57 213.019 324.75 213.137L327.141 214.773L326.367 215.219L323.981 213.575ZM331.015 222.15C330.829 222.025 330.655 221.902 330.494 221.78C330.347 221.665 330.211 221.545 330.086 221.42C330.242 221.666 330.316 221.886 330.308 222.08L330.411 223.499L328.712 222.817L328.608 221.399C328.604 221.292 328.61 221.192 328.625 221.099C328.645 221.012 328.684 220.939 328.742 220.88C328.537 220.937 328.257 220.948 327.902 220.912L325.619 220.687L324.686 219.55L326.956 219.774C327.122 219.79 327.288 219.812 327.456 219.841C327.629 219.876 327.801 219.919 327.974 219.972C327.8 219.89 327.628 219.796 327.458 219.69C327.288 219.585 327.113 219.473 326.932 219.355L324.541 217.719L325.315 217.273L327.714 218.918C328.096 219.181 328.402 219.423 328.631 219.647C328.496 219.427 328.426 219.207 328.421 218.988L328.318 217.57L330.017 218.251L330.108 219.669C330.112 219.775 330.104 219.872 330.084 219.959C330.072 220.046 330.04 220.122 329.987 220.188C330.191 220.132 330.467 220.12 330.815 220.155L333.11 220.381L334.043 221.519L331.773 221.295C331.599 221.277 331.426 221.252 331.253 221.217C331.085 221.188 330.912 221.145 330.735 221.086C330.914 221.174 331.088 221.271 331.258 221.377C331.429 221.482 331.604 221.594 331.784 221.712L334.175 223.348L333.401 223.794L331.015 222.15ZM338.049 230.725C337.863 230.601 337.69 230.477 337.529 230.355C337.381 230.24 337.245 230.12 337.12 229.996C337.276 230.241 337.35 230.461 337.342 230.655L337.445 232.074L335.746 231.393L335.642 229.974C335.638 229.867 335.644 229.767 335.659 229.674C335.679 229.588 335.718 229.515 335.776 229.455C335.571 229.512 335.291 229.523 334.936 229.488L332.653 229.262L331.72 228.125L333.99 228.349C334.156 228.365 334.322 228.388 334.49 228.416C334.663 228.451 334.836 228.494 335.008 228.547C334.834 228.465 334.662 228.371 334.492 228.266C334.322 228.16 334.147 228.049 333.966 227.93L331.575 226.295L332.35 225.848L334.748 227.494C335.13 227.756 335.436 227.999 335.665 228.222C335.53 228.002 335.46 227.782 335.455 227.564L335.352 226.145L337.051 226.826L337.142 228.244C337.146 228.351 337.138 228.447 337.118 228.534C337.106 228.621 337.074 228.698 337.021 228.1100C337.226 228.707 337.502 228.696 337.849 228.73L340.144 228.957L341.077 230.094L338.807 229.87C338.633 229.853 338.46 229.827 338.287 229.792C338.119 229.764 337.946 229.72 337.769 229.661C337.948 229.75 338.123 229.847 338.293 229.952C338.463 230.057 338.638 230.169 338.819 230.287L341.209 231.923L340.435 232.369L338.049 230.725ZM347.384 248.806C345.821 248.651 344.352 248.385 342.978 248.007C341.617 247.637 340.371 247.183 339.239 246.646C338.112 246.115 337.104 245.517 336.215 244.85C335.34 244.191 334.604 243.498 334.009 242.772C333.413 242.046 333.041 241.389 332.894 240.802C332.76 240.222 332.883 239.741 333.261 239.359C333.639 238.977 334.298 238.714 335.237 238.57C336.184 238.428 337.439 238.434 339.003 238.588C340.574 238.743 342.04 239.006 343.401 239.376C344.761 239.747 346.005 240.198 347.132 240.728C348.259 241.259 349.258 241.85 350.128 242.503C351.011 243.163 351.751 243.857 352.346 244.583C352.942 245.309 353.309 245.965 353.449 246.552C353.601 247.146 353.488 247.634 353.11 248.016C352.737 248.404 352.081 248.67 351.142 248.813C350.208 248.963 348.956 248.961 347.384 248.806ZM345.368 246.348C346.666 246.476 347.681 246.508 348.412 246.444C349.142 246.381 349.657 246.248 349.956 246.048C350.261 245.853 350.38 245.605 350.315 245.303C350.258 245.003 350.088 244.679 349.803 244.332C349.524 243.991 349.149 243.65 348.678 243.308C348.222 242.974 347.641 242.659 346.936 242.365C346.231 242.071 345.392 241.808 344.419 241.576C343.451 241.351 342.318 241.174 341.019 241.046C339.72 240.918 338.703 240.882 337.967 240.939C337.236 241.003 336.719 241.132 336.415 241.327C336.11 241.521 335.984 241.765 336.035 242.06C336.101 242.362 336.273 242.683 336.552 243.023C336.837 243.37 337.21 243.714 337.672 244.055C338.143 244.397 338.73 244.715 339.435 245.009C340.145 245.309 340.987 245.575 341.96 245.807C342.933 246.039 344.069 246.219 345.368 246.348ZM352.921 251.108C353.86 251.289 354.766 251.55 355.638 251.89C356.518 252.231 357.342 252.628 358.109 253.082C358.89 253.543 359.607 254.05 360.26 254.605C360.926 255.167 361.512 255.756 362.018 256.373C362.545 257.016 362.9 257.582 363.081 258.073C363.277 258.57 363.314 258.981 363.192 259.306C363.079 259.632 362.821 259.863 362.416 260C362.017 260.144 361.491 260.183 360.837 260.119C360.267 260.063 359.72 259.961 359.197 259.815C358.688 259.676 358.196 259.498 357.72 259.28C357.245 259.061 356.782 258.803 356.332 258.505C355.882 258.206 355.44 257.876 355.007 257.515C355.353 258.317 355.347 258.889 354.99 259.232C354.632 259.574 353.929 259.694 352.878 259.59C351.985 259.502 351.089 259.295 350.192 258.97C349.295 258.646 348.431 258.241 347.601 257.758C346.779 257.275 346.011 256.733 345.297 256.131C344.588 255.535 343.97 254.916 343.443 254.273C342.868 253.573 342.471 252.973 342.251 252.473C342.031 251.972 341.965 251.55 342.054 251.204C342.143 250.859 342.37 250.58 342.736 250.368C343.102 250.156 343.591 249.992 344.202 249.875L345.622 250.981C345.998 251.272 346.246 251.532 346.366 251.1100C346.5 252 346.48 252.161 346.305 252.244C346.11 252.331 345.928 252.428 345.757 252.535C345.592 252.649 345.477 252.791 345.411 252.962C345.355 253.133 345.361 253.341 345.431 253.584C345.515 253.834 345.705 254.139 346 254.499C346.332 254.904 346.705 255.266 347.118 255.584C347.539 255.903 347.968 256.176 348.405 256.402C348.846 256.635 349.272 256.816 349.682 256.945C350.105 257.081 350.487 257.166 350.826 257.199C351.256 257.242 351.616 257.245 351.905 257.208C352.203 257.173 352.383 257.055 352.447 256.854C352.511 256.654 352.439 256.349 352.232 255.938C352.03 255.535 351.639 254.979 351.059 254.272L353.242 254.488C353.73 255.074 354.199 255.566 354.647 255.964C355.096 256.363 355.528 256.686 355.944 256.934C356.374 257.189 356.791 257.378 357.196 257.5C357.601 257.623 358.001 257.704 358.398 257.743C359.242 257.827 359.733 257.707 359.871 257.384C360.009 257.061 359.827 256.594 359.327 255.983C359.095 255.701 358.827 255.435 358.525 255.187C358.23 254.939 357.909 254.71 357.561 254.498C357.226 254.294 356.882 254.115 356.528 253.962C356.175 253.809 355.823 253.686 355.472 253.592C355.002 253.445 354.631 253.276 354.359 253.083C354.093 252.898 353.861 252.647 353.664 252.333L352.921 251.108ZM359.227 270.096C359.437 270.353 359.508 270.546 359.439 270.675C359.384 270.811 359.203 270.864 358.897 270.834L357.061 270.653L349.217 261.09L350.235 261.191C350.441 261.211 350.683 261.265 350.959 261.351C351.248 261.444 351.545 261.574 351.848 261.74L360.778 266.51C361.531 266.91 362.232 267.268 362.881 267.586C363.534 267.911 364.145 268.186 364.711 268.414C365.277 268.641 365.811 268.823 366.312 268.961C366.827 269.107 367.319 269.203 367.791 269.249C368.221 269.292 368.558 269.281 368.801 269.216C369.053 269.152 369.217 269.042 369.293 268.884C369.374 268.732 369.365 268.536 369.267 268.296C369.183 268.064 369.014 267.793 368.761 267.485C368.529 267.202 368.259 266.933 367.951 266.678C367.657 266.431 367.338 266.204 366.995 265.999C366.66 265.795 366.316 265.616 365.962 265.463C365.609 265.31 365.257 265.187 364.906 265.093C364.436 264.946 364.068 264.78 363.802 264.594C363.535 264.409 363.301 264.155 363.098 263.834L362.355 262.609C363.295 262.79 364.2 263.051 365.072 263.391C365.952 263.732 366.776 264.129 367.544 264.583C368.325 265.044 369.041 265.552 369.694 266.106C370.36 266.668 370.946 267.257 371.452 267.874C371.979 268.517 372.338 269.093 372.527 269.602C372.725 270.111 372.756 270.534 372.62 270.869C372.484 271.204 372.189 271.446 371.734 271.596C371.28 271.746 370.668 271.783 369.899 271.707C369.237 271.642 368.562 271.505 367.873 271.295C367.189 271.091 366.485 270.836 365.761 270.528C365.043 270.227 364.304 269.882 363.545 269.494C362.786 269.106 362.005 268.702 361.203 268.28L354.494 264.73C354.858 265.043 355.19 265.35 355.49 265.652C355.804 265.96 356.072 266.25 356.293 266.519L359.227 270.096ZM373.271 276.347C372.27 276.248 371.669 276.372 371.466 276.718C371.277 277.071 371.486 277.618 372.092 278.357C372.408 278.742 372.769 279.094 373.174 279.411C373.579 279.729 374.002 280.004 374.443 280.237C374.885 280.469 375.334 280.655 375.791 280.795C376.253 280.941 376.699 281.035 377.129 281.078C377.617 281.126 378.003 281.111 378.289 281.033C378.583 280.955 378.775 280.824 378.866 280.638C378.957 280.452 378.951 280.218 378.849 279.936C378.753 279.661 378.562 279.35 378.277 279.003C377.982 278.643 377.637 278.311 377.243 278.006C376.857 277.702 376.443 277.434 376.001 277.201C375.56 276.969 375.104 276.779 374.634 276.632C374.172 276.486 373.718 276.391 373.271 276.347ZM370.269 278.956C370.532 279.083 370.786 279.202 371.031 279.315C371.275 279.428 371.517 279.537 371.756 279.644C371.228 279.296 370.736 278.923 370.279 278.523C369.83 278.125 369.432 277.713 369.084 277.289C368.688 276.807 368.409 276.345 368.244 275.904C368.08 275.462 368.065 275.083 368.2 274.766C368.343 274.449 368.641 274.21 369.093 274.048C369.559 273.893 370.222 273.858 371.082 273.943C371.885 274.022 372.732 274.212 373.625 274.513C374.518 274.814 375.4 275.199 376.272 275.669C377.144 276.139 377.973 276.681 378.759 277.296C379.545 277.911 380.228 278.572 380.807 279.279C381.393 279.993 381.772 280.618 381.947 281.155C382.126 281.698 382.119 282.143 381.925 282.49C381.736 282.843 381.364 283.09 380.81 283.23C380.262 283.377 379.553 283.408 378.685 283.322C378.13 283.267 377.573 283.177 377.014 283.051C376.46 282.931 375.896 282.781 375.322 282.6C374.756 282.42 374.175 282.212 373.578 281.976C372.982 281.74 372.371 281.482 371.746 281.202L363.273 277.433C362.984 277.304 362.68 277.123 362.361 276.891C362.049 276.659 361.78 276.406 361.553 276.129L359.758 273.941L370.269 278.956Z" fill="#FDFDFD"/>
<rect width="50.6317" height="33.436" rx="8.69415" transform="matrix(0.634211 0.77316 -0.995162 -0.0982518 310.537 126.693)" fill="#E8AB27"/>
<mask id="mask1_243_6294" style="mask-type:alpha" maskUnits="userSpaceOnUse" x="281" y="124" width="58" height="42">
<rect width="50.6317" height="33.436" rx="8.69415" transform="matrix(0.634211 0.77316 -0.995162 -0.0982518 310.537 126.693)" fill="#EBEBEB"/>
</mask>
<g mask="url(#mask1_243_6294)">
<rect x="-0.261513" y="0.488979" width="18.6126" height="9.69631" rx="2.17354" transform="matrix(0.634211 0.77316 -0.995162 -0.0982518 309.715 125.956)" fill="#E8AB27" fill-opacity="0.3" stroke="#FDF0AD" stroke-width="1.44902"/>
<rect x="-0.261513" y="0.488979" width="18.6126" height="9.69631" rx="2.17354" transform="matrix(0.634211 0.77316 -0.995162 -0.0982518 298.625 124.861)" fill="#E8AB27" fill-opacity="0.3" stroke="#FDF0AD" stroke-width="1.44902"/>
<rect x="-0.261513" y="0.488979" width="18.6126" height="9.69631" rx="2.17354" transform="matrix(0.634211 0.77316 -0.995162 -0.0982518 320.436 151.451)" fill="#E8AB27" fill-opacity="0.3" stroke="#FDF0AD" stroke-width="1.44902"/>
<rect x="-0.261513" y="0.488979" width="18.6126" height="9.69631" rx="2.17354" transform="matrix(0.634211 0.77316 -0.995162 -0.0982518 287.532 123.766)" fill="#E8AB27" fill-opacity="0.3" stroke="#FDF0AD" stroke-width="1.44902"/>
<rect x="-0.261513" y="0.488979" width="18.6126" height="9.69631" rx="2.17354" transform="matrix(0.634211 0.77316 -0.995162 -0.0982518 309.344 150.355)" fill="#E8AB27" fill-opacity="0.3" stroke="#FDF0AD" stroke-width="1.44902"/>
</g>
<path d="M322.686 142.827C322.432 142.517 321.904 142.235 321.505 142.195C321.107 142.156 320.99 142.375 321.244 142.684L322.686 142.827ZM327.303 150.07C327.556 150.38 328.085 150.662 328.483 150.702C328.881 150.741 328.998 150.522 328.745 150.213L327.303 150.07ZM321.244 142.684L327.303 150.07L328.745 150.213L322.686 142.827L321.244 142.684Z" fill="#FDF0AD"/>
<path d="M293.213 139.916C292.959 139.607 292.431 139.324 292.033 139.285C291.634 139.246 291.517 139.465 291.771 139.774L293.213 139.916ZM297.83 147.16C298.084 147.47 298.612 147.752 299.01 147.791C299.409 147.831 299.526 147.612 299.272 147.303L297.83 147.16ZM291.771 139.774L297.83 147.16L299.272 147.303L293.213 139.916L291.771 139.774Z" fill="#FDF0AD"/>
</g>
<defs>
<filter id="filter0_b_243_6294" x="29.1206" y="296.462" width="483.926" height="353.932" filterUnits="userSpaceOnUse" color-interpolation-filters="sRGB">
<feFlood flood-opacity="0" result="BackgroundImageFix"/>
<feGaussianBlur in="BackgroundImage" stdDeviation="13.0609"/>
<feComposite in2="SourceAlpha" operator="in" result="effect1_backgroundBlur_243_6294"/>
<feBlend mode="normal" in="SourceGraphic" in2="effect1_backgroundBlur_243_6294" result="shape"/>
</filter>
<filter id="filter1_b_243_6294" x="52.7338" y="245.476" width="483.926" height="353.932" filterUnits="userSpaceOnUse" color-interpolation-filters="sRGB">
<feFlood flood-opacity="0" result="BackgroundImageFix"/>
<feGaussianBlur in="BackgroundImage" stdDeviation="13.0609"/>
<feComposite in2="SourceAlpha" operator="in" result="effect1_backgroundBlur_243_6294"/>
<feBlend mode="normal" in="SourceGraphic" in2="effect1_backgroundBlur_243_6294" result="shape"/>
</filter>
<filter id="filter2_b_243_6294" x="75.6928" y="189.206" width="483.926" height="353.932" filterUnits="userSpaceOnUse" color-interpolation-filters="sRGB">
<feFlood flood-opacity="0" result="BackgroundImageFix"/>
<feGaussianBlur in="BackgroundImage" stdDeviation="13.0609"/>
<feComposite in2="SourceAlpha" operator="in" result="effect1_backgroundBlur_243_6294"/>
<feBlend mode="normal" in="SourceGraphic" in2="effect1_backgroundBlur_243_6294" result="shape"/>
</filter>
<filter id="filter3_f_243_6294" x="159.375" y="219.842" width="470.197" height="381.094" filterUnits="userSpaceOnUse" color-interpolation-filters="sRGB">
<feFlood flood-opacity="0" result="BackgroundImageFix"/>
<feBlend mode="normal" in="SourceGraphic" in2="BackgroundImageFix" result="shape"/>
<feGaussianBlur stdDeviation="51.9478" result="effect1_foregroundBlur_243_6294"/>
</filter>
<filter id="filter4_f_243_6294" x="51.0079" y="-10.4199" width="564.614" height="443.45" filterUnits="userSpaceOnUse" color-interpolation-filters="sRGB">
<feFlood flood-opacity="0" result="BackgroundImageFix"/>
<feBlend mode="normal" in="SourceGraphic" in2="BackgroundImageFix" result="shape"/>
<feGaussianBlur stdDeviation="51.9478" result="effect1_foregroundBlur_243_6294"/>
</filter>
<linearGradient id="paint0_linear_243_6294" x1="86.6649" y1="55.2198" x2="175.195" y2="-7.87962" gradientUnits="userSpaceOnUse">
<stop stop-color="#E9E9E9"/>
<stop offset="1" stop-color="white"/>
</linearGradient>
<linearGradient id="paint1_linear_243_6294" x1="-0.604872" y1="3.35144" x2="124.505" y2="108.671" gradientUnits="userSpaceOnUse">
<stop stop-color="white"/>
<stop offset="1" stop-color="white" stop-opacity="0"/>
</linearGradient>
<linearGradient id="paint2_linear_243_6294" x1="357.146" y1="223.171" x2="240.703" y2="119.652" gradientUnits="userSpaceOnUse">
<stop stop-color="white"/>
<stop offset="1" stop-color="white" stop-opacity="0"/>
</linearGradient>
<linearGradient id="paint3_linear_243_6294" x1="86.6649" y1="55.2198" x2="175.195" y2="-7.87962" gradientUnits="userSpaceOnUse">
<stop stop-color="#E9E9E9"/>
<stop offset="1" stop-color="white"/>
</linearGradient>
<linearGradient id="paint4_linear_243_6294" x1="-0.604872" y1="3.35144" x2="124.505" y2="108.671" gradientUnits="userSpaceOnUse">
<stop stop-color="white"/>
<stop offset="1" stop-color="white" stop-opacity="0"/>
</linearGradient>
<linearGradient id="paint5_linear_243_6294" x1="357.146" y1="223.171" x2="240.703" y2="119.652" gradientUnits="userSpaceOnUse">
<stop stop-color="white"/>
<stop offset="1" stop-color="white" stop-opacity="0"/>
</linearGradient>
<linearGradient id="paint6_linear_243_6294" x1="86.6649" y1="55.2198" x2="175.195" y2="-7.87962" gradientUnits="userSpaceOnUse">
<stop stop-color="#E9E9E9"/>
<stop offset="1" stop-color="white"/>
</linearGradient>
<linearGradient id="paint7_linear_243_6294" x1="-0.604872" y1="3.35144" x2="124.505" y2="108.671" gradientUnits="userSpaceOnUse">
<stop stop-color="white"/>
<stop offset="1" stop-color="white" stop-opacity="0"/>
</linearGradient>
<linearGradient id="paint8_linear_243_6294" x1="357.146" y1="223.171" x2="240.703" y2="119.652" gradientUnits="userSpaceOnUse">
<stop stop-color="white"/>
<stop offset="1" stop-color="white" stop-opacity="0"/>
</linearGradient>
<clipPath id="clip0_243_6294">
<rect width="356.362" height="226.492" rx="16.6233" transform="matrix(0.634211 0.77316 -0.995162 -0.0982518 342.106 178.584)" fill="white"/>
</clipPath>
<clipPath id="clip1_243_6294">
<rect width="356.362" height="226.492" rx="16.6233" transform="matrix(0.634211 0.77316 -0.995162 -0.0982518 385.523 116.463)" fill="white"/>
</clipPath>
</defs>
</svg>
