<svg width="48" height="49" viewBox="0 0 48 49" fill="none" xmlns="http://www.w3.org/2000/svg">
<g filter="url(#filter0_b_243_6478)">
<circle cx="24" cy="24.1543" r="24" fill="#9164FB"/>
</g>
<g clip-path="url(#clip0_243_6478)">
<path d="M32.3175 16.6453C30.7875 15.9553 29.1475 15.4453 27.4325 15.1553C27.4172 15.1524 27.4014 15.1543 27.3872 15.1607C27.3731 15.1672 27.3613 15.1778 27.3535 15.1913C27.1435 15.5603 26.9095 16.0413 26.7455 16.4213C24.9266 16.1495 23.0774 16.1495 21.2585 16.4213C21.0758 16.0002 20.8698 15.5895 20.6415 15.1913C20.6337 15.1777 20.622 15.1667 20.6079 15.16C20.5938 15.1532 20.578 15.1508 20.5625 15.1533C18.8485 15.4433 17.2085 15.9533 15.6775 16.6443C15.6643 16.6498 15.6531 16.6592 15.6455 16.6713C12.5335 21.2463 11.6805 25.7083 12.0995 30.1143C12.1006 30.1251 12.104 30.1355 12.1093 30.145C12.1147 30.1544 12.1219 30.1627 12.1305 30.1693C13.9469 31.4917 15.9728 32.4991 18.1235 33.1493C18.1385 33.1539 18.1545 33.1539 18.1695 33.1493C18.1845 33.1446 18.1977 33.1356 18.2075 33.1233C18.6703 32.5044 19.0804 31.8477 19.4335 31.1603C19.4384 31.1509 19.4412 31.1406 19.4418 31.13C19.4423 31.1194 19.4406 31.1088 19.4367 31.0989C19.4328 31.0891 19.4269 31.0802 19.4192 31.0728C19.4116 31.0655 19.4025 31.0598 19.3925 31.0563C18.7465 30.813 18.1206 30.5195 17.5205 30.1783C17.5097 30.1721 17.5006 30.1634 17.494 30.1529C17.4875 30.1423 17.4836 30.1303 17.4828 30.1179C17.482 30.1056 17.4843 30.0932 17.4895 30.0819C17.4947 30.0706 17.5026 30.0608 17.5125 30.0533C17.6385 29.9603 17.7645 29.8633 17.8845 29.7663C17.8953 29.7576 17.9083 29.752 17.9221 29.7503C17.9358 29.7485 17.9498 29.7506 17.9625 29.7563C21.8895 31.5203 26.1425 31.5203 30.0235 29.7563C30.0362 29.7502 30.0503 29.7479 30.0643 29.7495C30.0782 29.7511 30.0915 29.7565 30.1025 29.7653C30.2225 29.8633 30.3475 29.9603 30.4745 30.0533C30.4845 30.0606 30.4925 30.0703 30.4979 30.0815C30.5032 30.0927 30.5057 30.105 30.5051 30.1174C30.5045 30.1298 30.5008 30.1418 30.4945 30.1525C30.4881 30.1631 30.4791 30.172 30.4685 30.1783C29.8705 30.5223 29.2485 30.8133 28.5955 31.0553C28.5855 31.0589 28.51100 31.0647 28.5687 31.0721C28.561 31.0796 28.5551 31.0886 28.5512 31.0985C28.5473 31.1085 28.5456 31.1191 28.5462 31.1298C28.5467 31.1404 28.5496 31.1508 28.5545 31.1603C28.9145 31.8473 29.3265 32.5013 29.7795 33.1223C29.7889 33.135 29.802 33.1446 29.8171 33.1496C29.8321 33.1546 29.8483 33.1548 29.8635 33.1503C32.0178 32.5019 34.0471 31.4941 35.8655 30.1693C35.8744 30.1631 35.8818 30.1551 35.8873 30.1458C35.8928 30.1364 35.8963 30.1261 35.8975 30.1153C36.3975 25.0213 35.0595 20.5953 32.3485 16.6733C32.3418 16.6605 32.3308 16.6506 32.3175 16.6453ZM20.0205 27.4313C18.8385 27.4313 17.8635 26.3623 17.8635 25.0513C17.8635 23.7393 18.8195 22.6713 20.0205 22.6713C21.2305 22.6713 22.1965 23.7483 22.1775 25.0513C22.1775 26.3633 21.2215 27.4313 20.0205 27.4313ZM27.9955 27.4313C26.8125 27.4313 25.8385 26.3623 25.8385 25.0513C25.8385 23.7393 26.7935 22.6713 27.9955 22.6713C29.2055 22.6713 30.1715 23.7483 30.1525 25.0513C30.1525 26.3633 29.2065 27.4313 27.9955 27.4313Z" fill="white"/>
</g>
<defs>
<filter id="filter0_b_243_6478" x="-50" y="-49.8457" width="148" height="148" filterUnits="userSpaceOnUse" color-interpolation-filters="sRGB">
<feFlood flood-opacity="0" result="BackgroundImageFix"/>
<feGaussianBlur in="BackgroundImage" stdDeviation="25"/>
<feComposite in2="SourceAlpha" operator="in" result="effect1_backgroundBlur_243_6478"/>
<feBlend mode="normal" in="SourceGraphic" in2="effect1_backgroundBlur_243_6478" result="shape"/>
</filter>
<clipPath id="clip0_243_6478">
<rect width="24" height="24" fill="white" transform="translate(12 12.1543)"/>
</clipPath>
</defs>
</svg>
