<svg width="48" height="49" viewBox="0 0 48 49" fill="none" xmlns="http://www.w3.org/2000/svg">
<g filter="url(#filter0_b_243_6482)">
<circle cx="24" cy="24.1543" r="24" fill="#9164FB"/>
</g>
<path fill-rule="evenodd" clip-rule="evenodd" d="M19.465 13.2203C20.638 13.1663 21.012 13.1543 24 13.1543C26.988 13.1543 27.362 13.1673 28.534 13.2203C29.706 13.2733 30.506 13.4603 31.206 13.7313C31.939 14.0083 32.604 14.4413 33.154 15.0013C33.714 15.5503 34.146 16.2143 34.422 16.9483C34.694 17.6483 34.88 18.4483 34.934 19.6183C34.988 20.7933 35 21.1673 35 24.1543C35 27.1423 34.987 27.5163 34.934 28.6893C34.881 29.8593 34.694 30.6593 34.422 31.3593C34.146 32.0934 33.7133 32.7585 33.154 33.3083C32.604 33.8683 31.939 34.3003 31.206 34.51100C30.506 34.8483 29.706 35.0343 28.536 35.0883C27.362 35.1423 26.988 35.1543 24 35.1543C21.012 35.1543 20.638 35.1413 19.465 35.0883C18.295 35.0353 17.495 34.8483 16.795 34.51100C16.0609 34.3003 15.3958 33.8676 14.846 33.3083C14.2864 32.759 13.8533 32.0942 13.577 31.3603C13.306 30.6603 13.12 29.8603 13.066 28.6903C13.012 27.5153 13 27.1413 13 24.1543C13 21.1663 13.013 20.7923 13.066 19.6203C13.119 18.4483 13.306 17.6483 13.577 16.9483C13.8537 16.2144 14.2871 15.5496 14.847 15.0003C15.396 14.4408 16.0605 14.0077 16.794 13.7313C17.494 13.4603 18.294 13.2743 19.464 13.2203H19.465ZM28.445 15.2003C27.285 15.1473 26.937 15.1363 24 15.1363C21.063 15.1363 20.715 15.1473 19.555 15.2003C18.482 15.2493 17.9 15.4283 17.512 15.5793C16.999 15.7793 16.632 16.0163 16.247 16.4013C15.882 16.7563 15.6012 17.1886 15.425 17.6663C15.274 18.0543 15.095 18.6363 15.046 19.7093C14.993 20.8693 14.982 21.2173 14.982 24.1543C14.982 27.0913 14.993 27.4393 15.046 28.5993C15.095 29.6723 15.274 30.2543 15.425 30.6423C15.601 31.1193 15.882 31.5523 16.247 31.9073C16.602 32.2723 17.035 32.5533 17.512 32.7293C17.9 32.8803 18.482 33.0593 19.555 33.1083C20.715 33.1613 21.062 33.1723 24 33.1723C26.938 33.1723 27.285 33.1613 28.445 33.1083C29.518 33.0593 30.1 32.8803 30.488 32.7293C31.001 32.5293 31.368 32.2923 31.753 31.9073C32.118 31.5523 32.399 31.1193 32.575 30.6423C32.726 30.2543 32.905 29.6723 32.954 28.5993C33.007 27.4393 33.018 27.0913 33.018 24.1543C33.018 21.2173 33.007 20.8693 32.954 19.7093C32.905 18.6363 32.726 18.0543 32.575 17.6663C32.375 17.1533 32.138 16.7863 31.753 16.4013C31.3979 16.0364 30.9657 15.7555 30.488 15.5793C30.1 15.4283 29.518 15.2493 28.445 15.2003ZM22.595 27.5453C23.3797 27.8719 24.2534 27.916 25.0669 27.67C25.8805 27.424 26.5834 26.9032 27.0556 26.1965C27.5278 25.4899 27.7401 24.6412 27.656 23.7954C27.572 22.9496 27.197 22.1593 26.595 21.5593C26.2112 21.1758 25.7472 20.8821 25.2363 20.6994C24.7255 20.5168 24.1804 20.4497 23.6405 20.5029C23.1006 20.5562 22.5792 20.7285 22.1138 21.0074C21.6485 21.2864 21.2507 21.665 20.9493 22.1161C20.6479 22.5673 20.4502 23.0796 20.3705 23.6163C20.2908 24.1529 20.3312 24.7006 20.4885 25.2198C20.6459 25.739 20.9165 26.2169 21.2807 26.619C21.645 27.0211 22.0938 27.3375 22.595 27.5453ZM20.002 20.1563C20.527 19.6313 21.1503 19.2148 21.8363 18.9307C22.5223 18.6465 23.2575 18.5003 24 18.5003C24.7425 18.5003 25.4777 18.6465 26.1637 18.9307C26.8497 19.2148 27.473 19.6313 27.998 20.1563C28.523 20.6813 28.9395 21.3046 29.2236 21.9906C29.5078 22.6766 29.654 23.4118 29.654 24.1543C29.654 24.8968 29.5078 25.632 29.2236 26.318C28.9395 27.004 28.523 27.6273 27.998 28.1523C26.9377 29.2126 25.4995 29.8083 24 29.8083C22.5005 29.8083 21.0623 29.2126 20.002 28.1523C18.9417 27.092 18.346 25.6538 18.346 24.1543C18.346 22.6548 18.9417 21.2166 20.002 20.1563ZM30.908 19.3423C31.0381 19.2196 31.1423 19.072 31.2143 18.9083C31.2863 18.7446 31.3248 18.5681 31.3274 18.3892C31.33 18.2104 31.2967 18.0328 31.2295 17.8671C31.1622 17.7014 31.0624 17.5508 30.936 17.4243C30.8095 17.2979 30.6589 17.1981 30.4932 17.1308C30.3275 17.0636 30.1499 17.0303 29.9711 17.0329C29.7922 17.0355 29.6157 17.074 29.452 17.146C29.2883 17.218 29.1407 17.3222 29.018 17.4523C28.7793 17.7053 28.6486 18.0414 28.6537 18.3892C28.6588 18.737 28.7992 19.0692 29.0452 19.3151C29.2911 19.5611 29.6233 19.7015 29.9711 19.7066C30.3189 19.7117 30.655 19.581 30.908 19.3423Z" fill="white"/>
<defs>
<filter id="filter0_b_243_6482" x="-50" y="-49.8457" width="148" height="148" filterUnits="userSpaceOnUse" color-interpolation-filters="sRGB">
<feFlood flood-opacity="0" result="BackgroundImageFix"/>
<feGaussianBlur in="BackgroundImage" stdDeviation="25"/>
<feComposite in2="SourceAlpha" operator="in" result="effect1_backgroundBlur_243_6482"/>
<feBlend mode="normal" in="SourceGraphic" in2="effect1_backgroundBlur_243_6482" result="shape"/>
</filter>
</defs>
</svg>
