<svg width="48" height="49" viewBox="0 0 48 49" fill="none" xmlns="http://www.w3.org/2000/svg">
<g filter="url(#filter0_b_243_6486)">
<circle cx="24" cy="24.1543" r="24" fill="#9164FB"/>
</g>
<path d="M35.6435 17.0919C34.8085 17.4619 33.9115 17.7119 32.9685 17.8249C33.9415 17.2427 34.6694 16.3263 35.0165 15.2469C34.1023 15.7899 33.1018 16.1721 32.0585 16.3769C31.3569 15.6277 30.4276 15.1312 29.4148 14.9643C28.4021 14.7975 27.3626 14.9697 26.4577 15.4541C25.5529 15.9386 24.8333 16.7082 24.4107 17.6436C23.988 18.5789 23.886 19.6276 24.1205 20.6269C22.2682 20.5339 20.4561 20.0524 18.8019 19.2138C17.1477 18.3751 15.6883 17.198 14.5185 15.7589C14.1185 16.4489 13.8885 17.2489 13.8885 18.1009C13.8881 18.8679 14.0769 19.6231 14.4384 20.2996C14.7998 20.9761 15.3227 21.5529 15.9605 21.9789C15.2208 21.9553 14.4974 21.7554 13.8505 21.3959V21.4559C13.8504 22.5316 14.2225 23.5742 14.9037 24.4069C15.5848 25.2395 16.5331 25.8108 17.5875 26.0239C16.9013 26.2096 16.1818 26.2369 15.4835 26.1039C15.781 27.0295 16.3605 27.8389 17.1409 28.4188C17.9212 28.9987 18.8634 29.32 19.8355 29.3379C18.1853 30.6333 16.1474 31.336 14.0495 31.3329C13.6779 31.333 13.3066 31.3113 12.9375 31.2679C15.067 32.637 17.5458 33.3637 20.0775 33.3609C28.6475 33.3609 33.3325 26.2629 33.3325 20.1069C33.3325 19.9069 33.3275 19.7049 33.3185 19.5049C34.2298 18.8458 35.0164 18.0298 35.6415 17.0949L35.6435 17.0919Z" fill="white"/>
<defs>
<filter id="filter0_b_243_6486" x="-50" y="-49.8457" width="148" height="148" filterUnits="userSpaceOnUse" color-interpolation-filters="sRGB">
<feFlood flood-opacity="0" result="BackgroundImageFix"/>
<feGaussianBlur in="BackgroundImage" stdDeviation="25"/>
<feComposite in2="SourceAlpha" operator="in" result="effect1_backgroundBlur_243_6486"/>
<feBlend mode="normal" in="SourceGraphic" in2="effect1_backgroundBlur_243_6486" result="shape"/>
</filter>
</defs>
</svg>
