<svg width="470" height="466" viewBox="0 0 470 466" fill="none" xmlns="http://www.w3.org/2000/svg">
<path d="M12.7802 363.54C12.7802 362.94 12.8736 362.46 13.0602 362.1C13.2602 361.727 13.5269 361.46 13.8602 361.3C14.2069 361.14 14.5869 361.06 15.0002 361.06C15.4136 361.06 15.7869 361.14 16.1202 361.3C16.4536 361.46 16.7202 361.727 16.9202 362.1C17.1202 362.46 17.2202 362.94 17.2202 363.54C17.2202 364.127 17.1202 364.607 16.9202 364.98C16.7202 365.34 16.4536 365.607 16.1202 365.78C15.7869 365.94 15.4136 366.02 15.0002 366.02C14.5869 366.02 14.2069 365.94 13.8602 365.78C13.5269 365.607 13.2602 365.34 13.0602 364.98C12.8736 364.607 12.7802 364.127 12.7802 363.54ZM31.94 370.84V356.56H33.74V369.24H39.98V370.84H31.94ZM48.2483 359.94C49.5549 359.94 50.5216 360.227 51.1483 360.8C51.7749 361.373 52.0883 362.287 52.0883 363.54V370.84H50.8083L50.4683 369.32H50.3883C50.0816 369.707 49.7616 370.033 49.4283 370.3C49.1083 370.553 48.7349 370.74 48.3083 370.86C47.8949 370.98 47.3883 371.04 46.7883 371.04C46.1483 371.04 45.5683 370.927 45.0483 370.7C44.5416 370.473 44.1416 370.127 43.8483 369.66C43.5549 369.18 43.4083 368.58 43.4083 367.86C43.4083 366.793 43.8283 365.973 44.6683 365.4C45.5083 364.813 46.8016 364.493 48.5483 364.44L50.3683 364.38V363.74C50.3683 362.847 50.1749 362.227 49.7883 361.88C49.4016 361.533 48.8549 361.36 48.1483 361.36C47.5883 361.36 47.0549 361.447 46.5483 361.62C46.0416 361.78 45.5683 361.967 45.1283 362.18L44.5883 360.86C45.0549 360.607 45.6083 360.393 46.2483 360.22C46.8883 360.033 47.5549 359.94 48.2483 359.94ZM48.7683 365.66C47.4349 365.713 46.5083 365.927 45.9883 366.3C45.4816 366.673 45.2283 367.2 45.2283 367.88C45.2283 368.48 45.4083 368.92 45.7683 369.2C46.1416 369.48 46.6149 369.62 47.1883 369.62C48.0949 369.62 48.8483 369.373 49.4483 368.88C50.0483 368.373 50.3483 367.6 50.3483 366.56V365.6L48.7683 365.66ZM66.3592 360.12V370.84H64.9192L64.6592 369.42H64.5792C64.3526 369.793 64.0592 370.1 63.6992 370.34C63.3392 370.58 62.9459 370.753 62.5192 370.86C62.0926 370.98 61.6459 371.04 61.1792 371.04C60.3259 371.04 59.6059 370.907 59.0192 370.64C58.4459 370.36 58.0126 369.933 57.7192 369.36C57.4259 368.787 57.2792 368.047 57.2792 367.14V360.12H59.0592V367.02C59.0592 367.873 59.2526 368.513 59.6392 368.94C60.0259 369.367 60.6259 369.58 61.4392 369.58C62.2392 369.58 62.8659 369.433 63.3192 369.14C63.7859 368.833 64.1126 368.393 64.2992 367.82C64.4992 367.233 64.5992 366.527 64.5992 365.7V360.12H66.3592ZM76.9225 359.92C78.2025 359.92 79.1692 360.233 79.8225 360.86C80.4758 361.473 80.8025 362.473 80.8025 363.86V370.84H79.0625V363.98C79.0625 363.113 78.8692 362.467 78.4825 362.04C78.0958 361.613 77.4892 361.4 76.6625 361.4C75.4758 361.4 74.6558 361.733 74.2025 362.4C73.7492 363.067 73.5225 364.027 73.5225 365.28V370.84H71.7625V360.12H73.1825L73.4425 361.58H73.5425C73.7825 361.207 74.0758 360.9 74.4225 360.66C74.7825 360.407 75.1758 360.22 75.6025 360.1C76.0292 359.98 76.4692 359.92 76.9225 359.92ZM90.4258 371.04C89.4791 371.04 88.6324 370.847 87.8858 370.46C87.1524 370.073 86.5724 369.473 86.1458 368.66C85.7324 367.847 85.5258 366.807 85.5258 365.54C85.5258 364.22 85.7458 363.147 86.1858 362.32C86.6258 361.493 87.2191 360.887 87.9658 360.5C88.7258 360.113 89.5858 359.92 90.5458 359.92C91.0924 359.92 91.6191 359.98 92.1258 360.1C92.6324 360.207 93.0458 360.34 93.3658 360.5L92.8258 361.96C92.5058 361.84 92.1324 361.727 91.7058 361.62C91.2791 361.513 90.8791 361.46 90.5058 361.46C89.7858 361.46 89.1924 361.613 88.7258 361.92C88.2591 362.227 87.9124 362.68 87.6858 363.28C87.4591 363.88 87.3458 364.627 87.3458 365.52C87.3458 366.373 87.4591 367.1 87.6858 367.7C87.9124 368.3 88.2524 368.753 88.7058 369.06C89.1591 369.367 89.7258 369.52 90.4058 369.52C90.9924 369.52 91.5058 369.46 91.9458 369.34C92.3991 369.22 92.8124 369.073 93.1858 368.9V370.46C92.8258 370.647 92.4258 370.787 91.9858 370.88C91.5591 370.987 91.0391 371.04 90.4258 371.04ZM99.4952 360.1C99.4952 360.353 99.4818 360.613 99.4552 360.88C99.4418 361.147 99.4218 361.387 99.3952 361.6H99.5152C99.7418 361.227 100.028 360.92 100.375 360.68C100.722 360.44 101.108 360.26 101.535 360.14C101.962 360.007 102.402 359.94 102.855 359.94C103.722 359.94 104.442 360.08 105.015 360.36C105.602 360.627 106.042 361.047 106.335 361.62C106.628 362.193 106.775 362.94 106.775 363.86V370.84H105.035V363.98C105.035 363.113 104.842 362.467 104.455 362.04C104.068 361.613 103.462 361.4 102.635 361.4C101.835 361.4 101.208 361.553 100.755 361.86C100.302 362.153 99.9752 362.593 99.7752 363.18C99.5885 363.753 99.4952 364.46 99.4952 365.3V370.84H97.7352V355.64H99.4952V360.1ZM113.858 360.12V370.84H112.098V360.12H113.858ZM112.998 356.1C113.265 356.1 113.498 356.193 113.698 356.38C113.912 356.553 114.018 356.833 114.018 357.22C114.018 357.593 113.912 357.873 113.698 358.06C113.498 358.247 113.265 358.34 112.998 358.34C112.705 358.34 112.458 358.247 112.258 358.06C112.058 357.873 111.958 357.593 111.958 357.22C111.958 356.833 112.058 356.553 112.258 356.38C112.458 356.193 112.705 356.1 112.998 356.1ZM124.415 359.92C125.695 359.92 126.661 360.233 127.315 360.86C127.968 361.473 128.295 362.473 128.295 363.86V370.84H126.555V363.98C126.555 363.113 126.361 362.467 125.975 362.04C125.588 361.613 124.981 361.4 124.155 361.4C122.968 361.4 122.148 361.733 121.695 362.4C121.241 363.067 121.015 364.027 121.015 365.28V370.84H119.255V360.12H120.675L120.935 361.58H121.035C121.275 361.207 121.568 360.9 121.915 360.66C122.275 360.407 122.668 360.22 123.095 360.1C123.521 359.98 123.961 359.92 124.415 359.92ZM137.418 359.92C138.125 359.92 138.758 360.053 139.318 360.32C139.891 360.587 140.378 360.993 140.778 361.54H140.878L141.118 360.12H142.518V371.02C142.518 372.033 142.345 372.88 141.998 373.56C141.651 374.253 141.125 374.773 140.418 375.12C139.711 375.467 138.811 375.64 137.718 375.64C136.945 375.64 136.231 375.58 135.578 375.46C134.938 375.353 134.365 375.187 133.858 374.96V373.34C134.205 373.513 134.585 373.66 134.998 373.78C135.411 373.913 135.858 374.013 136.338 374.08C136.818 374.147 137.311 374.18 137.818 374.18C138.738 374.18 139.458 373.907 139.978 373.36C140.511 372.827 140.778 372.093 140.778 371.16V370.74C140.778 370.58 140.785 370.353 140.798 370.06C140.811 369.753 140.825 369.54 140.838 369.42H140.758C140.385 369.967 139.918 370.373 139.358 370.64C138.811 370.907 138.171 371.04 137.438 371.04C136.051 371.04 134.965 370.553 134.178 369.58C133.405 368.607 133.018 367.247 133.018 365.5C133.018 364.353 133.191 363.367 133.538 362.54C133.898 361.7 134.405 361.053 135.058 360.6C135.711 360.147 136.498 359.92 137.418 359.92ZM137.658 361.4C137.058 361.4 136.545 361.56 136.118 361.88C135.705 362.2 135.385 362.667 135.158 363.28C134.945 363.893 134.838 364.64 134.838 365.52C134.838 366.84 135.078 367.853 135.558 368.56C136.051 369.253 136.765 369.6 137.698 369.6C138.245 369.6 138.711 369.533 139.098 369.4C139.485 369.253 139.805 369.033 140.058 368.74C140.311 368.433 140.498 368.047 140.618 367.58C140.738 367.113 140.798 366.56 140.798 365.92V365.5C140.798 364.527 140.685 363.74 140.458 363.14C140.245 362.54 139.905 362.1 139.438 361.82C138.971 361.54 138.378 361.4 137.658 361.4ZM158.698 369.6C158.965 369.6 159.238 369.58 159.518 369.54C159.798 369.487 160.025 369.433 160.198 369.38V370.72C160.011 370.813 159.745 370.887 159.398 370.94C159.051 371.007 158.718 371.04 158.398 371.04C157.838 371.04 157.318 370.947 156.838 370.76C156.371 370.56 155.991 370.22 155.698 369.74C155.405 369.26 155.258 368.587 155.258 367.72V361.48H153.738V360.64L155.278 359.94L155.978 357.66H157.018V360.12H160.118V361.48H157.018V367.68C157.018 368.333 157.171 368.82 157.478 369.14C157.798 369.447 158.205 369.6 158.698 369.6ZM166.105 360.1C166.105 360.353 166.091 360.613 166.065 360.88C166.051 361.147 166.031 361.387 166.005 361.6H166.125C166.351 361.227 166.638 360.92 166.985 360.68C167.331 360.44 167.718 360.26 168.145 360.14C168.571 360.007 169.011 359.94 169.465 359.94C170.331 359.94 171.051 360.08 171.625 360.36C172.211 360.627 172.651 361.047 172.945 361.62C173.238 362.193 173.385 362.94 173.385 363.86V370.84H171.645V363.98C171.645 363.113 171.451 362.467 171.065 362.04C170.678 361.613 170.071 361.4 169.245 361.4C168.445 361.4 167.818 361.553 167.365 361.86C166.911 362.153 166.585 362.593 166.385 363.18C166.198 363.753 166.105 364.46 166.105 365.3V370.84H164.345V355.64H166.105V360.1ZM182.848 359.92C183.768 359.92 184.554 360.12 185.208 360.52C185.874 360.92 186.381 361.487 186.728 362.22C187.088 362.94 187.268 363.787 187.268 364.76V365.82H179.928C179.954 367.033 180.261 367.96 180.848 368.6C181.448 369.227 182.281 369.54 183.348 369.54C184.028 369.54 184.628 369.48 185.148 369.36C185.681 369.227 186.228 369.04 186.788 368.8V370.34C186.241 370.58 185.701 370.753 185.168 370.86C184.634 370.98 184.001 371.04 183.268 371.04C182.254 371.04 181.354 370.833 180.568 370.42C179.794 370.007 179.188 369.393 178.748 368.58C178.321 367.753 178.108 366.747 178.108 365.56C178.108 364.387 178.301 363.38 178.688 362.54C179.088 361.7 179.641 361.053 180.348 360.6C181.068 360.147 181.901 359.92 182.848 359.92ZM182.828 361.36C181.988 361.36 181.321 361.633 180.828 362.18C180.348 362.713 180.061 363.46 179.968 364.42H185.428C185.428 363.807 185.334 363.273 185.148 362.82C184.961 362.367 184.674 362.013 184.288 361.76C183.914 361.493 183.428 361.36 182.828 361.36ZM207.532 367.02C207.532 367.873 207.326 368.6 206.912 369.2C206.499 369.787 205.906 370.24 205.132 370.56C204.372 370.88 203.472 371.04 202.432 371.04C201.899 371.04 201.386 371.013 200.892 370.96C200.412 370.907 199.972 370.833 199.572 370.74C199.172 370.633 198.819 370.507 198.512 370.36V368.64C198.992 368.853 199.586 369.047 200.292 369.22C201.012 369.393 201.752 369.48 202.512 369.48C203.219 369.48 203.812 369.387 204.292 369.2C204.772 369.013 205.132 368.747 205.372 368.4C205.612 368.053 205.732 367.647 205.732 367.18C205.732 366.713 205.632 366.32 205.432 366C205.232 365.68 204.886 365.387 204.392 365.12C203.912 364.84 203.239 364.547 202.372 364.24C201.759 364.013 201.219 363.773 200.752 363.52C200.299 363.253 199.919 362.953 199.612 362.62C199.306 362.287 199.072 361.907 198.912 361.48C198.766 361.053 198.692 360.56 198.692 360C198.692 359.24 198.886 358.593 199.272 358.06C199.659 357.513 200.192 357.093 200.872 356.8C201.566 356.507 202.359 356.36 203.252 356.36C204.039 356.36 204.759 356.433 205.412 356.58C206.066 356.727 206.659 356.92 207.192 357.16L206.632 358.7C206.139 358.487 205.599 358.307 205.012 358.16C204.439 358.013 203.839 357.94 203.212 357.94C202.612 357.94 202.112 358.027 201.712 358.2C201.312 358.373 201.012 358.62 200.812 358.94C200.612 359.247 200.512 359.607 200.512 360.02C200.512 360.5 200.612 360.9 200.812 361.22C201.012 361.54 201.339 361.827 201.792 362.08C202.246 362.333 202.859 362.607 203.632 362.9C204.472 363.207 205.179 363.54 205.752 363.9C206.339 364.247 206.779 364.667 207.072 365.16C207.379 365.653 207.532 366.273 207.532 367.02ZM221.489 365.46C221.489 366.353 221.369 367.147 221.129 367.84C220.902 368.52 220.569 369.1 220.129 369.58C219.702 370.06 219.175 370.427 218.549 370.68C217.935 370.92 217.249 371.04 216.489 371.04C215.782 371.04 215.129 370.92 214.529 370.68C213.929 370.427 213.409 370.06 212.969 369.58C212.529 369.1 212.182 368.52 211.929 367.84C211.689 367.147 211.569 366.353 211.569 365.46C211.569 364.273 211.769 363.273 212.169 362.46C212.569 361.633 213.142 361.007 213.889 360.58C214.635 360.14 215.522 359.92 216.549 359.92C217.522 359.92 218.375 360.14 219.109 360.58C219.855 361.007 220.435 361.633 220.849 362.46C221.275 363.273 221.489 364.273 221.489 365.46ZM213.389 365.46C213.389 366.3 213.495 367.033 213.709 367.66C213.935 368.273 214.282 368.747 214.749 369.08C215.215 369.413 215.809 369.58 216.529 369.58C217.249 369.58 217.842 369.413 218.309 369.08C218.775 368.747 219.115 368.273 219.329 367.66C219.555 367.033 219.669 366.3 219.669 365.46C219.669 364.607 219.555 363.88 219.329 363.28C219.102 362.68 218.755 362.22 218.289 361.9C217.835 361.567 217.242 361.4 216.509 361.4C215.415 361.4 214.622 361.76 214.129 362.48C213.635 363.2 213.389 364.193 213.389 365.46ZM228.038 370.84H226.278V355.64H228.038V370.84ZM241.774 367.02C241.774 367.873 241.568 368.6 241.154 369.2C240.741 369.787 240.148 370.24 239.374 370.56C238.614 370.88 237.714 371.04 236.674 371.04C236.141 371.04 235.628 371.013 235.134 370.96C234.654 370.907 234.214 370.833 233.814 370.74C233.414 370.633 233.061 370.507 232.754 370.36V368.64C233.234 368.853 233.828 369.047 234.534 369.22C235.254 369.393 235.994 369.48 236.754 369.48C237.461 369.48 238.054 369.387 238.534 369.2C239.014 369.013 239.374 368.747 239.614 368.4C239.854 368.053 239.974 367.647 239.974 367.18C239.974 366.713 239.874 366.32 239.674 366C239.474 365.68 239.128 365.387 238.634 365.12C238.154 364.84 237.481 364.547 236.614 364.24C236.001 364.013 235.461 363.773 234.994 363.52C234.541 363.253 234.161 362.953 233.854 362.62C233.548 362.287 233.314 361.907 233.154 361.48C233.008 361.053 232.934 360.56 232.934 360C232.934 359.24 233.128 358.593 233.514 358.06C233.901 357.513 234.434 357.093 235.114 356.8C235.808 356.507 236.601 356.36 237.494 356.36C238.281 356.36 239.001 356.433 239.654 356.58C240.308 356.727 240.901 356.92 241.434 357.16L240.874 358.7C240.381 358.487 239.841 358.307 239.254 358.16C238.681 358.013 238.081 357.94 237.454 357.94C236.854 357.94 236.354 358.027 235.954 358.2C235.554 358.373 235.254 358.62 235.054 358.94C234.854 359.247 234.754 359.607 234.754 360.02C234.754 360.5 234.854 360.9 235.054 361.22C235.254 361.54 235.581 361.827 236.034 362.08C236.488 362.333 237.101 362.607 237.874 362.9C238.714 363.207 239.421 363.54 239.994 363.9C240.581 364.247 241.021 364.667 241.314 365.16C241.621 365.653 241.774 366.273 241.774 367.02ZM253.331 364.78C253.251 364.5 253.171 364.227 253.091 363.96C253.011 363.68 252.938 363.42 252.871 363.18C252.818 362.927 252.764 362.693 252.711 362.48C252.658 362.267 252.618 362.087 252.591 361.94H252.511C252.484 362.087 252.444 362.267 252.391 362.48C252.351 362.693 252.298 362.927 252.231 363.18C252.178 363.433 252.111 363.7 252.031 363.98C251.964 364.247 251.884 364.52 251.791 364.8L249.871 370.82H247.871L244.931 360.1H246.751L248.231 365.82C248.338 366.207 248.438 366.6 248.531 367C248.624 367.387 248.704 367.76 248.771 368.12C248.851 368.467 248.904 368.767 248.931 369.02H249.011C249.051 368.86 249.098 368.66 249.151 368.42C249.204 368.18 249.258 367.927 249.311 367.66C249.378 367.393 249.444 367.127 249.511 366.86C249.591 366.593 249.664 366.353 249.731 366.14L251.631 360.1H253.551L255.391 366.14C255.484 366.447 255.578 366.773 255.671 367.12C255.778 367.467 255.871 367.807 255.951 368.14C256.031 368.46 256.084 368.747 256.111 369H256.191C256.218 368.773 256.264 368.493 256.331 368.16C256.411 367.813 256.498 367.44 256.591 367.04C256.698 366.627 256.804 366.22 256.911 365.82L258.411 360.1H260.211L257.231 370.82H255.171L253.331 364.78ZM265.894 360.12V370.84H264.134V360.12H265.894ZM265.034 356.1C265.3 356.1 265.534 356.193 265.734 356.38C265.947 356.553 266.054 356.833 266.054 357.22C266.054 357.593 265.947 357.873 265.734 358.06C265.534 358.247 265.3 358.34 265.034 358.34C264.74 358.34 264.494 358.247 264.294 358.06C264.094 357.873 263.994 357.593 263.994 357.22C263.994 356.833 264.094 356.553 264.294 356.38C264.494 356.193 264.74 356.1 265.034 356.1ZM276.39 359.92C277.71 359.92 278.77 360.38 279.57 361.3C280.383 362.22 280.79 363.607 280.79 365.46C280.79 366.673 280.603 367.7 280.23 368.54C279.87 369.367 279.357 369.993 278.69 370.42C278.037 370.833 277.263 371.04 276.37 371.04C275.823 371.04 275.337 370.967 274.91 370.82C274.483 370.673 274.117 370.487 273.81 370.26C273.517 370.02 273.263 369.76 273.05 369.48H272.93C272.957 369.707 272.983 369.993 273.01 370.34C273.037 370.687 273.05 370.987 273.05 371.24V375.64H271.29V360.12H272.73L272.97 361.58H273.05C273.263 361.273 273.517 360.993 273.81 360.74C274.117 360.487 274.477 360.287 274.89 360.14C275.317 359.993 275.817 359.92 276.39 359.92ZM276.07 361.4C275.35 361.4 274.77 361.54 274.33 361.82C273.89 362.087 273.57 362.493 273.37 363.04C273.17 363.587 273.063 364.28 273.05 365.12V365.46C273.05 366.34 273.143 367.087 273.33 367.7C273.517 368.313 273.83 368.78 274.27 369.1C274.723 369.42 275.337 369.58 276.11 369.58C276.1100 369.58 277.297 369.4 277.71 369.04C278.137 368.68 278.45 368.193 278.65 367.58C278.863 366.953 278.97 366.24 278.97 365.44C278.97 364.213 278.73 363.233 278.25 362.5C277.783 361.767 277.057 361.4 276.07 361.4ZM289.735 359.92C290.655 359.92 291.441 360.12 292.095 360.52C292.761 360.92 293.268 361.487 293.615 362.22C293.975 362.94 294.155 363.787 294.155 364.76V365.82H286.815C286.841 367.033 287.148 367.96 287.735 368.6C288.335 369.227 289.168 369.54 290.235 369.54C290.915 369.54 291.515 369.48 292.035 369.36C292.568 369.227 293.115 369.04 293.675 368.8V370.34C293.128 370.58 292.588 370.753 292.055 370.86C291.521 370.98 290.888 371.04 290.155 371.04C289.141 371.04 288.241 370.833 287.455 370.42C286.681 370.007 286.075 369.393 285.635 368.58C285.208 367.753 284.995 366.747 284.995 365.56C284.995 364.387 285.188 363.38 285.575 362.54C285.975 361.7 286.528 361.053 287.235 360.6C287.955 360.147 288.788 359.92 289.735 359.92ZM289.715 361.36C288.875 361.36 288.208 361.633 287.715 362.18C287.235 362.713 286.948 363.46 286.855 364.42H292.315C292.315 363.807 292.221 363.273 292.035 362.82C291.848 362.367 291.561 362.013 291.175 361.76C290.801 361.493 290.315 361.36 289.715 361.36ZM317.639 370.84H315.539L307.899 358.98H307.819C307.832 359.22 307.846 359.487 307.859 359.78C307.886 360.073 307.906 360.393 307.919 360.74C307.932 361.073 307.946 361.42 307.959 361.78C307.972 362.14 307.979 362.5 307.979 362.86V370.84H306.319V356.56H308.399L316.019 368.38H316.099C316.086 368.22 316.072 368 316.059 367.72C316.046 367.427 316.032 367.107 316.019 366.76C316.006 366.4 315.992 366.033 315.979 365.66C315.966 365.287 315.959 364.94 315.959 364.62V356.56H317.639V370.84ZM325.314 370.84H323.514V356.56H331.494V358.14H325.314V363.2H331.114V364.78H325.314V370.84ZM340.405 370.84H338.605V358.14H334.145V356.56H344.845V358.14H340.405V370.84ZM360.254 371.04C359.307 371.04 358.461 370.847 357.714 370.46C356.981 370.073 356.401 369.473 355.974 368.66C355.561 367.847 355.354 366.807 355.354 365.54C355.354 364.22 355.574 363.147 356.014 362.32C356.454 361.493 357.047 360.887 357.794 360.5C358.554 360.113 359.414 359.92 360.374 359.92C360.921 359.92 361.447 359.98 361.954 360.1C362.461 360.207 362.874 360.34 363.194 360.5L362.654 361.96C362.334 361.84 361.961 361.727 361.534 361.62C361.107 361.513 360.707 361.46 360.334 361.46C359.614 361.46 359.021 361.613 358.554 361.92C358.087 362.227 357.741 362.68 357.514 363.28C357.287 363.88 357.174 364.627 357.174 365.52C357.174 366.373 357.287 367.1 357.514 367.7C357.741 368.3 358.081 368.753 358.534 369.06C358.987 369.367 359.554 369.52 360.234 369.52C360.821 369.52 361.334 369.46 361.774 369.34C362.227 369.22 362.641 369.073 363.014 368.9V370.46C362.654 370.647 362.254 370.787 361.814 370.88C361.387 370.987 360.867 371.04 360.254 371.04ZM376.883 365.46C376.883 366.353 376.1100 367.147 376.523 367.84C376.297 368.52 375.963 369.1 375.523 369.58C375.097 370.06 374.57 370.427 373.943 370.68C373.33 370.92 372.643 371.04 371.883 371.04C371.177 371.04 370.523 370.92 369.923 370.68C369.323 370.427 368.803 370.06 368.363 369.58C367.923 369.1 367.577 368.52 367.323 367.84C367.083 367.147 366.963 366.353 366.963 365.46C366.963 364.273 367.163 363.273 367.563 362.46C367.963 361.633 368.537 361.007 369.283 360.58C370.03 360.14 370.917 359.92 371.943 359.92C372.917 359.92 373.77 360.14 374.503 360.58C375.25 361.007 375.83 361.633 376.243 362.46C376.67 363.273 376.883 364.273 376.883 365.46ZM368.783 365.46C368.783 366.3 368.89 367.033 369.103 367.66C369.33 368.273 369.677 368.747 370.143 369.08C370.61 369.413 371.203 369.58 371.923 369.58C372.643 369.58 373.237 369.413 373.703 369.08C374.17 368.747 374.51 368.273 374.723 367.66C374.95 367.033 375.063 366.3 375.063 365.46C375.063 364.607 374.95 363.88 374.723 363.28C374.497 362.68 374.15 362.22 373.683 361.9C373.23 361.567 372.637 361.4 371.903 361.4C370.81 361.4 370.017 361.76 369.523 362.48C369.03 363.2 368.783 364.193 368.783 365.46ZM383.433 370.84H381.673V355.64H383.433V370.84ZM390.589 370.84H388.829V355.64H390.589V370.84ZM400.125 359.92C401.045 359.92 401.832 360.12 402.485 360.52C403.152 360.92 403.658 361.487 404.005 362.22C404.365 362.94 404.545 363.787 404.545 364.76V365.82H397.205C397.232 367.033 397.538 367.96 398.125 368.6C398.725 369.227 399.558 369.54 400.625 369.54C401.305 369.54 401.905 369.48 402.425 369.36C402.958 369.227 403.505 369.04 404.065 368.8V370.34C403.518 370.58 402.978 370.753 402.445 370.86C401.912 370.98 401.278 371.04 400.545 371.04C399.532 371.04 398.632 370.833 397.845 370.42C397.072 370.007 396.465 369.393 396.025 368.58C395.598 367.753 395.385 366.747 395.385 365.56C395.385 364.387 395.578 363.38 395.965 362.54C396.365 361.7 396.918 361.053 397.625 360.6C398.345 360.147 399.178 359.92 400.125 359.92ZM400.105 361.36C399.265 361.36 398.598 361.633 398.105 362.18C397.625 362.713 397.338 363.46 397.245 364.42H402.705C402.705 363.807 402.612 363.273 402.425 362.82C402.238 362.367 401.952 362.013 401.565 361.76C401.192 361.493 400.705 361.36 400.105 361.36ZM413.574 371.04C412.628 371.04 411.781 370.847 411.034 370.46C410.301 370.073 409.721 369.473 409.294 368.66C408.881 367.847 408.674 366.807 408.674 365.54C408.674 364.22 408.894 363.147 409.334 362.32C409.774 361.493 410.368 360.887 411.114 360.5C411.874 360.113 412.734 359.92 413.694 359.92C414.241 359.92 414.768 359.98 415.274 360.1C415.781 360.207 416.194 360.34 416.514 360.5L415.974 361.96C415.654 361.84 415.281 361.727 414.854 361.62C414.428 361.513 414.028 361.46 413.654 361.46C412.934 361.46 412.341 361.613 411.874 361.92C411.408 362.227 411.061 362.68 410.834 363.28C410.608 363.88 410.494 364.627 410.494 365.52C410.494 366.373 410.608 367.1 410.834 367.7C411.061 368.3 411.401 368.753 411.854 369.06C412.308 369.367 412.874 369.52 413.554 369.52C414.141 369.52 414.654 369.46 415.094 369.34C415.548 369.22 415.961 369.073 416.334 368.9V370.46C415.974 370.647 415.574 370.787 415.134 370.88C414.708 370.987 414.188 371.04 413.574 371.04ZM424.464 369.6C424.73 369.6 425.004 369.58 425.284 369.54C425.564 369.487 425.79 369.433 425.964 369.38V370.72C425.777 370.813 425.51 370.887 425.164 370.94C424.817 371.007 424.484 371.04 424.164 371.04C423.604 371.04 423.084 370.947 422.604 370.76C422.137 370.56 421.757 370.22 421.464 369.74C421.17 369.26 421.024 368.587 421.024 367.72V361.48H419.504V360.64L421.044 359.94L421.744 357.66H422.784V360.12H425.884V361.48H422.784V367.68C422.784 368.333 422.937 368.82 423.244 369.14C423.564 369.447 423.97 369.6 424.464 369.6ZM431.87 360.12V370.84H430.11V360.12H431.87ZM431.01 356.1C431.277 356.1 431.51 356.193 431.71 356.38C431.923 356.553 432.03 356.833 432.03 357.22C432.03 357.593 431.923 357.873 431.71 358.06C431.51 358.247 431.277 358.34 431.01 358.34C430.717 358.34 430.47 358.247 430.27 358.06C430.07 357.873 429.97 357.593 429.97 357.22C429.97 356.833 430.07 356.553 430.27 356.38C430.47 356.193 430.717 356.1 431.01 356.1ZM446.586 365.46C446.586 366.353 446.466 367.147 446.226 367.84C446 368.52 445.666 369.1 445.226 369.58C444.8 370.06 444.273 370.427 443.646 370.68C443.033 370.92 442.346 371.04 441.586 371.04C440.88 371.04 440.226 370.92 439.626 370.68C439.026 370.427 438.506 370.06 438.066 369.58C437.626 369.1 437.28 368.52 437.026 367.84C436.786 367.147 436.666 366.353 436.666 365.46C436.666 364.273 436.866 363.273 437.266 362.46C437.666 361.633 438.24 361.007 438.986 360.58C439.733 360.14 440.62 359.92 441.646 359.92C442.62 359.92 443.473 360.14 444.206 360.58C444.953 361.007 445.533 361.633 445.946 362.46C446.373 363.273 446.586 364.273 446.586 365.46ZM438.486 365.46C438.486 366.3 438.593 367.033 438.806 367.66C439.033 368.273 439.38 368.747 439.846 369.08C440.313 369.413 440.906 369.58 441.626 369.58C442.346 369.58 442.94 369.413 443.406 369.08C443.873 368.747 444.213 368.273 444.426 367.66C444.653 367.033 444.766 366.3 444.766 365.46C444.766 364.607 444.653 363.88 444.426 363.28C444.2 362.68 443.853 362.22 443.386 361.9C442.933 361.567 442.34 361.4 441.606 361.4C440.513 361.4 439.72 361.76 439.226 362.48C438.733 363.2 438.486 364.193 438.486 365.46ZM456.536 359.92C457.816 359.92 458.782 360.233 459.436 360.86C460.089 361.473 460.416 362.473 460.416 363.86V370.84H458.676V363.98C458.676 363.113 458.482 362.467 458.096 362.04C457.709 361.613 457.102 361.4 456.276 361.4C455.089 361.4 454.269 361.733 453.816 362.4C453.362 363.067 453.136 364.027 453.136 365.28V370.84H451.376V360.12H452.796L453.056 361.58H453.156C453.396 361.207 453.689 360.9 454.036 360.66C454.396 360.407 454.789 360.22 455.216 360.1C455.642 359.98 456.082 359.92 456.536 359.92ZM12.7802 403.54C12.7802 402.94 12.8736 402.46 13.0602 402.1C13.2602 401.727 13.5269 401.46 13.8602 401.3C14.2069 401.14 14.5869 401.06 15.0002 401.06C15.4136 401.06 15.7869 401.14 16.1202 401.3C16.4536 401.46 16.7202 401.727 16.9202 402.1C17.1202 402.46 17.2202 402.94 17.2202 403.54C17.2202 404.127 17.1202 404.607 16.9202 404.98C16.7202 405.34 16.4536 405.607 16.1202 405.78C15.7869 405.94 15.4136 406.02 15.0002 406.02C14.5869 406.02 14.2069 405.94 13.8602 405.78C13.5269 405.607 13.2602 405.34 13.0602 404.98C12.8736 404.607 12.7802 404.127 12.7802 403.54ZM42.8 405.8C42.8 406.787 42.6 407.68 42.2 408.48C41.8 409.267 41.1867 409.893 40.36 410.36C39.5467 410.813 38.5067 411.04 37.24 411.04C35.4667 411.04 34.1133 410.56 33.18 409.6C32.26 408.627 31.8 407.347 31.8 405.76V396.56H33.6V405.82C33.6 406.98 33.9067 407.88 34.52 408.52C35.1467 409.16 36.0867 409.48 37.34 409.48C38.2067 409.48 38.9067 409.327 39.44 409.02C39.9867 408.7 40.3867 408.267 40.64 407.72C40.8933 407.16 41.02 406.52 41.02 405.8V396.56H42.8V405.8ZM52.5889 410.84H47.4289V409.8L49.1089 409.42V398L47.4289 397.6V396.56H52.5889V397.6L50.9089 398V409.42L52.5889 409.8V410.84ZM62.6463 396.56L57.3263 410.84H55.6063L60.9263 396.56H62.6463ZM77.6477 405.8C77.6477 406.787 77.4477 407.68 77.0477 408.48C76.6477 409.267 76.0343 409.893 75.2077 410.36C74.3943 410.813 73.3543 411.04 72.0877 411.04C70.3143 411.04 68.961 410.56 68.0277 409.6C67.1077 408.627 66.6477 407.347 66.6477 405.76V396.56H68.4477V405.82C68.4477 406.98 68.7543 407.88 69.3677 408.52C69.9943 409.16 70.9343 409.48 72.1877 409.48C73.0543 409.48 73.7543 409.327 74.2877 409.02C74.8343 408.7 75.2343 408.267 75.4877 407.72C75.741 407.16 75.8677 406.52 75.8677 405.8V396.56H77.6477V405.8ZM93.1166 410.84H91.0766L87.2966 404.64L83.4566 410.84H81.5566L86.2966 403.4L81.8566 396.56H83.8566L87.3566 402.16L90.8766 396.56H92.7766L88.3566 403.36L93.1166 410.84ZM108.151 399.94C109.457 399.94 110.424 400.227 111.051 400.8C111.677 401.373 111.991 402.287 111.991 403.54V410.84H110.711L110.371 409.32H110.291C109.984 409.707 109.664 410.033 109.331 410.3C109.011 410.553 108.637 410.74 108.211 410.86C107.797 410.98 107.291 411.04 106.691 411.04C106.051 411.04 105.471 410.927 104.951 410.7C104.444 410.473 104.044 410.127 103.751 409.66C103.457 409.18 103.311 408.58 103.311 407.86C103.311 406.793 103.731 405.973 104.571 405.4C105.411 404.813 106.704 404.493 108.451 404.44L110.271 404.38V403.74C110.271 402.847 110.077 402.227 109.691 401.88C109.304 401.533 108.757 401.36 108.051 401.36C107.491 401.36 106.957 401.447 106.451 401.62C105.944 401.78 105.471 401.967 105.031 402.18L104.491 400.86C104.957 400.607 105.511 400.393 106.151 400.22C106.791 400.033 107.457 399.94 108.151 399.94ZM108.671 405.66C107.337 405.713 106.411 405.927 105.891 406.3C105.384 406.673 105.131 407.2 105.131 407.88C105.131 408.48 105.311 408.92 105.671 409.2C106.044 409.48 106.517 409.62 107.091 409.62C107.997 409.62 108.751 409.373 109.351 408.88C109.951 408.373 110.251 407.6 110.251 406.56V405.6L108.671 405.66ZM122.462 399.92C123.742 399.92 124.708 400.233 125.362 400.86C126.015 401.473 126.342 402.473 126.342 403.86V410.84H124.602V403.98C124.602 403.113 124.408 402.467 124.022 402.04C123.635 401.613 123.028 401.4 122.202 401.4C121.015 401.4 120.195 401.733 119.742 402.4C119.288 403.067 119.062 404.027 119.062 405.28V410.84H117.302V400.12H118.722L118.982 401.58H119.082C119.322 401.207 119.615 400.9 119.962 400.66C120.322 400.407 120.715 400.22 121.142 400.1C121.568 399.98 122.008 399.92 122.462 399.92ZM135.465 411.04C134.132 411.04 133.065 410.58 132.265 409.66C131.465 408.727 131.065 407.34 131.065 405.5C131.065 403.66 131.465 402.273 132.265 401.34C133.078 400.393 134.152 399.92 135.485 399.92C136.045 399.92 136.532 399.993 136.945 400.14C137.358 400.273 137.718 400.46 138.025 400.7C138.332 400.94 138.592 401.207 138.805 401.5H138.925C138.912 401.327 138.885 401.073 138.845 400.74C138.818 400.393 138.805 400.12 138.805 399.92V395.64H140.565V410.84H139.145L138.885 409.4H138.805C138.592 409.707 138.332 409.987 138.025 410.24C137.718 410.48 137.352 410.673 136.925 410.82C136.512 410.967 136.025 411.04 135.465 411.04ZM135.745 409.58C136.878 409.58 137.672 409.273 138.125 408.66C138.592 408.033 138.825 407.093 138.825 405.84V405.52C138.825 404.187 138.605 403.167 138.165 402.46C137.725 401.74 136.912 401.38 135.725 401.38C134.778 401.38 134.065 401.76 133.585 402.52C133.118 403.267 132.885 404.273 132.885 405.54C132.885 406.82 133.118 407.813 133.585 408.52C134.065 409.227 134.785 409.58 135.745 409.58ZM154.925 399.34C154.925 399.793 154.912 400.22 154.885 400.62C154.872 401.007 154.852 401.313 154.825 401.54H154.925C155.232 401.087 155.652 400.707 156.185 400.4C156.718 400.093 157.405 399.94 158.245 399.94C159.578 399.94 160.645 400.407 161.445 401.34C162.258 402.26 162.665 403.64 162.665 405.48C162.665 406.707 162.478 407.733 162.105 408.56C161.745 409.387 161.232 410.007 160.565 410.42C159.898 410.833 159.125 411.04 158.245 411.04C157.405 411.04 156.718 410.887 156.185 410.58C155.652 410.273 155.232 409.907 154.925 409.48H154.785L154.425 410.84H153.165V395.64H154.925V399.34ZM157.945 401.4C157.185 401.4 156.585 401.547 156.145 401.84C155.705 402.12 155.392 402.56 155.205 403.16C155.018 403.747 154.925 404.5 154.925 405.42V405.5C154.925 406.82 155.138 407.833 155.565 408.54C156.005 409.233 156.812 409.58 157.985 409.58C158.945 409.58 159.658 409.227 160.125 408.52C160.605 407.813 160.845 406.793 160.845 405.46C160.845 404.113 160.605 403.1 160.125 402.42C159.658 401.74 158.932 401.4 157.945 401.4ZM171.61 399.92C172.53 399.92 173.316 400.12 173.97 400.52C174.636 400.92 175.143 401.487 175.49 402.22C175.85 402.94 176.03 403.787 176.03 404.76V405.82H168.69C168.716 407.033 169.023 407.96 169.61 408.6C170.21 409.227 171.043 409.54 172.11 409.54C172.79 409.54 173.39 409.48 173.91 409.36C174.443 409.227 174.99 409.04 175.55 408.8V410.34C175.003 410.58 174.463 410.753 173.93 410.86C173.396 410.98 172.1100 411.04 172.03 411.04C171.016 411.04 170.116 410.833 169.33 410.42C168.556 410.007 167.95 409.393 167.51 408.58C167.083 407.753 166.87 406.747 166.87 405.56C166.87 404.387 167.063 403.38 167.45 402.54C167.85 401.7 168.403 401.053 169.11 400.6C169.83 400.147 170.663 399.92 171.61 399.92ZM171.59 401.36C170.75 401.36 170.083 401.633 169.59 402.18C169.11 402.713 168.823 403.46 168.73 404.42H174.19C174.19 403.807 174.096 403.273 173.91 402.82C173.723 402.367 173.436 402.013 173.05 401.76C172.676 401.493 172.19 401.36 171.59 401.36ZM184.339 409.6C184.605 409.6 184.879 409.58 185.159 409.54C185.439 409.487 185.665 409.433 185.839 409.38V410.72C185.652 410.813 185.385 410.887 185.039 410.94C184.692 411.007 184.359 411.04 184.039 411.04C183.479 411.04 182.959 410.947 182.479 410.76C182.012 410.56 181.632 410.22 181.339 409.74C181.045 409.26 180.899 408.587 180.899 407.72V401.48H179.379V400.64L180.919 399.94L181.619 397.66H182.659V400.12H185.759V401.48H182.659V407.68C182.659 408.333 182.812 408.82 183.119 409.14C183.439 409.447 183.845 409.6 184.339 409.6ZM194.045 399.94C195.352 399.94 196.318 400.227 196.945 400.8C197.572 401.373 197.885 402.287 197.885 403.54V410.84H196.605L196.265 409.32H196.185C195.878 409.707 195.558 410.033 195.225 410.3C194.905 410.553 194.532 410.74 194.105 410.86C193.692 410.98 193.185 411.04 192.585 411.04C191.945 411.04 191.365 410.927 190.845 410.7C190.338 410.473 189.938 410.127 189.645 409.66C189.352 409.18 189.205 408.58 189.205 407.86C189.205 406.793 189.625 405.973 190.465 405.4C191.305 404.813 192.598 404.493 194.345 404.44L196.165 404.38V403.74C196.165 402.847 195.972 402.227 195.585 401.88C195.198 401.533 194.652 401.36 193.945 401.36C193.385 401.36 192.852 401.447 192.345 401.62C191.838 401.78 191.365 401.967 190.925 402.18L190.385 400.86C190.852 400.607 191.405 400.393 192.045 400.22C192.685 400.033 193.352 399.94 194.045 399.94ZM194.565 405.66C193.232 405.713 192.305 405.927 191.785 406.3C191.278 406.673 191.025 407.2 191.025 407.88C191.025 408.48 191.205 408.92 191.565 409.2C191.938 409.48 192.412 409.62 192.985 409.62C193.892 409.62 194.645 409.373 195.245 408.88C195.845 408.373 196.145 407.6 196.145 406.56V405.6L194.565 405.66ZM213.971 409.6C214.238 409.6 214.511 409.58 214.791 409.54C215.071 409.487 215.298 409.433 215.471 409.38V410.72C215.285 410.813 215.018 410.887 214.671 410.94C214.325 411.007 213.991 411.04 213.671 411.04C213.111 411.04 212.591 410.947 212.111 410.76C211.645 410.56 211.265 410.22 210.971 409.74C210.678 409.26 210.531 408.587 210.531 407.72V401.48H209.011V400.64L210.551 399.94L211.251 397.66H212.291V400.12H215.391V401.48H212.291V407.68C212.291 408.333 212.445 408.82 212.751 409.14C213.071 409.447 213.478 409.6 213.971 409.6ZM223.758 399.92C224.678 399.92 225.465 400.12 226.118 400.52C226.785 400.92 227.291 401.487 227.638 402.22C227.998 402.94 228.178 403.787 228.178 404.76V405.82H220.838C220.865 407.033 221.171 407.96 221.758 408.6C222.358 409.227 223.191 409.54 224.258 409.54C224.938 409.54 225.538 409.48 226.058 409.36C226.591 409.227 227.138 409.04 227.698 408.8V410.34C227.151 410.58 226.611 410.753 226.078 410.86C225.545 410.98 224.911 411.04 224.178 411.04C223.165 411.04 222.265 410.833 221.478 410.42C220.705 410.007 220.098 409.393 219.658 408.58C219.231 407.753 219.018 406.747 219.018 405.56C219.018 404.387 219.211 403.38 219.598 402.54C219.998 401.7 220.551 401.053 221.258 400.6C221.978 400.147 222.811 399.92 223.758 399.92ZM223.738 401.36C222.898 401.36 222.231 401.633 221.738 402.18C221.258 402.713 220.971 403.46 220.878 404.42H226.338C226.338 403.807 226.245 403.273 226.058 402.82C225.871 402.367 225.585 402.013 225.198 401.76C224.825 401.493 224.338 401.36 223.738 401.36ZM239.887 407.88C239.887 408.573 239.714 409.153 239.367 409.62C239.02 410.087 238.527 410.44 237.887 410.68C237.247 410.92 236.487 411.04 235.607 411.04C234.86 411.04 234.214 410.98 233.667 410.86C233.134 410.74 232.66 410.573 232.247 410.36V408.76C232.674 408.973 233.187 409.173 233.787 409.36C234.4 409.533 235.02 409.62 235.647 409.62C236.54 409.62 237.187 409.48 237.587 409.2C237.987 408.907 238.187 408.52 238.187 408.04C238.187 407.773 238.114 407.533 237.967 407.32C237.82 407.107 237.554 406.893 237.167 406.68C236.794 406.467 236.254 406.227 235.547 405.96C234.854 405.693 234.26 405.427 233.767 405.16C233.274 404.893 232.894 404.573 232.627 404.2C232.36 403.827 232.227 403.347 232.227 402.76C232.227 401.853 232.594 401.153 233.327 400.66C234.074 400.167 235.047 399.92 236.247 399.92C236.9 399.92 237.507 399.987 238.067 400.12C238.64 400.24 239.174 400.413 239.667 400.64L239.067 402.04C238.774 401.907 238.46 401.793 238.127 401.7C237.807 401.593 237.48 401.513 237.147 401.46C236.814 401.393 236.474 401.36 236.127 401.36C235.407 401.36 234.854 401.48 234.467 401.72C234.094 401.947 233.907 402.26 233.907 402.66C233.907 402.953 233.994 403.207 234.167 403.42C234.34 403.62 234.627 403.82 235.027 404.02C235.44 404.207 235.987 404.433 236.667 404.7C237.347 404.953 237.927 405.213 238.407 405.48C238.887 405.747 239.254 406.073 239.507 406.46C239.76 406.833 239.887 407.307 239.887 407.88ZM248.057 409.6C248.324 409.6 248.597 409.58 248.877 409.54C249.157 409.487 249.384 409.433 249.557 409.38V410.72C249.371 410.813 249.104 410.887 248.757 410.94C248.411 411.007 248.077 411.04 247.757 411.04C247.197 411.04 246.677 410.947 246.197 410.76C245.731 410.56 245.351 410.22 245.057 409.74C244.764 409.26 244.617 408.587 244.617 407.72V401.48H243.097V400.64L244.637 399.94L245.337 397.66H246.377V400.12H249.477V401.48H246.377V407.68C246.377 408.333 246.531 408.82 246.837 409.14C247.157 409.447 247.564 409.6 248.057 409.6ZM255.464 400.12V410.84H253.704V400.12H255.464ZM254.604 396.1C254.871 396.1 255.104 396.193 255.304 396.38C255.517 396.553 255.624 396.833 255.624 397.22C255.624 397.593 255.517 397.873 255.304 398.06C255.104 398.247 254.871 398.34 254.604 398.34C254.311 398.34 254.064 398.247 253.864 398.06C253.664 397.873 253.564 397.593 253.564 397.22C253.564 396.833 253.664 396.553 253.864 396.38C254.064 396.193 254.311 396.1 254.604 396.1ZM266.02 399.92C267.3 399.92 268.267 400.233 268.92 400.86C269.573 401.473 269.9 402.473 269.9 403.86V410.84H268.16V403.98C268.16 403.113 267.967 402.467 267.58 402.04C267.193 401.613 266.587 401.4 265.76 401.4C264.573 401.4 263.753 401.733 263.3 402.4C262.847 403.067 262.62 404.027 262.62 405.28V410.84H260.86V400.12H262.28L262.54 401.58H262.64C262.88 401.207 263.173 400.9 263.52 400.66C263.88 400.407 264.273 400.22 264.7 400.1C265.127 399.98 265.567 399.92 266.02 399.92ZM279.023 399.92C279.73 399.92 280.363 400.053 280.923 400.32C281.497 400.587 281.983 400.993 282.383 401.54H282.483L282.723 400.12H284.123V411.02C284.123 412.033 283.95 412.88 283.603 413.56C283.257 414.253 282.73 414.773 282.023 415.12C281.317 415.467 280.417 415.64 279.323 415.64C278.55 415.64 277.837 415.58 277.183 415.46C276.543 415.353 275.97 415.187 275.463 414.96V413.34C275.81 413.513 276.19 413.66 276.603 413.78C277.017 413.913 277.463 414.013 277.943 414.08C278.423 414.147 278.917 414.18 279.423 414.18C280.343 414.18 281.063 413.907 281.583 413.36C282.117 412.827 282.383 412.093 282.383 411.16V410.74C282.383 410.58 282.39 410.353 282.403 410.06C282.417 409.753 282.43 409.54 282.443 409.42H282.363C281.99 409.967 281.523 410.373 280.963 410.64C280.417 410.907 279.777 411.04 279.043 411.04C277.657 411.04 276.57 410.553 275.783 409.58C275.01 408.607 274.623 407.247 274.623 405.5C274.623 404.353 274.797 403.367 275.143 402.54C275.503 401.7 276.01 401.053 276.663 400.6C277.317 400.147 278.103 399.92 279.023 399.92ZM279.263 401.4C278.663 401.4 278.15 401.56 277.723 401.88C277.31 402.2 276.99 402.667 276.1100 403.28C276.55 403.893 276.443 404.64 276.443 405.52C276.443 406.84 276.683 407.853 277.163 408.56C277.657 409.253 278.37 409.6 279.303 409.6C279.85 409.6 280.317 409.533 280.703 409.4C281.09 409.253 281.41 409.033 281.663 408.74C281.917 408.433 282.103 408.047 282.223 407.58C282.343 407.113 282.403 406.56 282.403 405.92V405.5C282.403 404.527 282.29 403.74 282.063 403.14C281.85 402.54 281.51 402.1 281.043 401.82C280.577 401.54 279.983 401.4 279.263 401.4ZM291.668 408.74C291.548 409.207 291.395 409.713 291.208 410.26C291.021 410.807 290.815 411.347 290.588 411.88C290.375 412.427 290.161 412.94 289.948 413.42H288.648C288.781 412.913 288.908 412.367 289.028 411.78C289.161 411.207 289.281 410.64 289.388 410.08C289.495 409.507 289.581 408.987 289.648 408.52H291.528L291.668 408.74ZM307.875 411.04C306.542 411.04 305.475 410.58 304.675 409.66C303.875 408.727 303.475 407.34 303.475 405.5C303.475 403.66 303.875 402.273 304.675 401.34C305.488 400.393 306.562 399.92 307.895 399.92C308.455 399.92 308.942 399.993 309.355 400.14C309.768 400.273 310.128 400.46 310.435 400.7C310.742 400.94 311.002 401.207 311.215 401.5H311.335C311.322 401.327 311.295 401.073 311.255 400.74C311.228 400.393 311.215 400.12 311.215 399.92V395.64H312.975V410.84H311.555L311.295 409.4H311.215C311.002 409.707 310.742 409.987 310.435 410.24C310.128 410.48 309.762 410.673 309.335 410.82C308.922 410.967 308.435 411.04 307.875 411.04ZM308.155 409.58C309.288 409.58 310.082 409.273 310.535 408.66C311.002 408.033 311.235 407.093 311.235 405.84V405.52C311.235 404.187 311.015 403.167 310.575 402.46C310.135 401.74 309.322 401.38 308.135 401.38C307.188 401.38 306.475 401.76 305.995 402.52C305.528 403.267 305.295 404.273 305.295 405.54C305.295 406.82 305.528 407.813 305.995 408.52C306.475 409.227 307.195 409.58 308.155 409.58ZM322.44 399.94C323.746 399.94 324.713 400.227 325.34 400.8C325.966 401.373 326.28 402.287 326.28 403.54V410.84H325L324.66 409.32H324.58C324.273 409.707 323.953 410.033 323.62 410.3C323.3 410.553 322.926 410.74 322.5 410.86C322.086 410.98 321.58 411.04 320.98 411.04C320.34 411.04 319.76 410.927 319.24 410.7C318.733 410.473 318.333 410.127 318.04 409.66C317.746 409.18 317.6 408.58 317.6 407.86C317.6 406.793 318.02 405.973 318.86 405.4C319.7 404.813 320.993 404.493 322.74 404.44L324.56 404.38V403.74C324.56 402.847 324.366 402.227 323.98 401.88C323.593 401.533 323.046 401.36 322.34 401.36C321.78 401.36 321.246 401.447 320.74 401.62C320.233 401.78 319.76 401.967 319.32 402.18L318.78 400.86C319.246 400.607 319.8 400.393 320.44 400.22C321.08 400.033 321.746 399.94 322.44 399.94ZM322.96 405.66C321.626 405.713 320.7 405.927 320.18 406.3C319.673 406.673 319.42 407.2 319.42 407.88C319.42 408.48 319.6 408.92 319.96 409.2C320.333 409.48 320.806 409.62 321.38 409.62C322.286 409.62 323.04 409.373 323.64 408.88C324.24 408.373 324.54 407.6 324.54 406.56V405.6L322.96 405.66ZM338.571 407.88C338.571 408.573 338.397 409.153 338.051 409.62C337.704 410.087 337.211 410.44 336.571 410.68C335.931 410.92 335.171 411.04 334.291 411.04C333.544 411.04 332.897 410.98 332.351 410.86C331.817 410.74 331.344 410.573 330.931 410.36V408.76C331.357 408.973 331.871 409.173 332.471 409.36C333.084 409.533 333.704 409.62 334.331 409.62C335.224 409.62 335.871 409.48 336.271 409.2C336.671 408.907 336.871 408.52 336.871 408.04C336.871 407.773 336.797 407.533 336.651 407.32C336.504 407.107 336.237 406.893 335.851 406.68C335.477 406.467 334.937 406.227 334.231 405.96C333.537 405.693 332.944 405.427 332.451 405.16C331.957 404.893 331.577 404.573 331.311 404.2C331.044 403.827 330.911 403.347 330.911 402.76C330.911 401.853 331.277 401.153 332.011 400.66C332.757 400.167 333.731 399.92 334.931 399.92C335.584 399.92 336.191 399.987 336.751 400.12C337.324 400.24 337.857 400.413 338.351 400.64L337.751 402.04C337.457 401.907 337.144 401.793 336.811 401.7C336.491 401.593 336.164 401.513 335.831 401.46C335.497 401.393 335.157 401.36 334.811 401.36C334.091 401.36 333.537 401.48 333.151 401.72C332.777 401.947 332.591 402.26 332.591 402.66C332.591 402.953 332.677 403.207 332.851 403.42C333.024 403.62 333.311 403.82 333.711 404.02C334.124 404.207 334.671 404.433 335.351 404.7C336.031 404.953 336.611 405.213 337.091 405.48C337.571 405.747 337.937 406.073 338.191 406.46C338.444 406.833 338.571 407.307 338.571 407.88ZM344.921 400.1C344.921 400.353 344.908 400.613 344.881 400.88C344.868 401.147 344.848 401.387 344.821 401.6H344.941C345.168 401.227 345.454 400.92 345.801 400.68C346.148 400.44 346.534 400.26 346.961 400.14C347.388 400.007 347.828 399.94 348.281 399.94C349.148 399.94 349.868 400.08 350.441 400.36C351.028 400.627 351.468 401.047 351.761 401.62C352.054 402.193 352.201 402.94 352.201 403.86V410.84H350.461V403.98C350.461 403.113 350.268 402.467 349.881 402.04C349.494 401.613 348.888 401.4 348.061 401.4C347.261 401.4 346.634 401.553 346.181 401.86C345.728 402.153 345.401 402.593 345.201 403.18C345.014 403.753 344.921 404.46 344.921 405.3V410.84H343.161V395.64H344.921V400.1ZM359.284 399.34C359.284 399.793 359.271 400.22 359.244 400.62C359.231 401.007 359.211 401.313 359.184 401.54H359.284C359.591 401.087 360.011 400.707 360.544 400.4C361.078 400.093 361.764 399.94 362.604 399.94C363.938 399.94 365.004 400.407 365.804 401.34C366.618 402.26 367.024 403.64 367.024 405.48C367.024 406.707 366.838 407.733 366.464 408.56C366.104 409.387 365.591 410.007 364.924 410.42C364.258 410.833 363.484 411.04 362.604 411.04C361.764 411.04 361.078 410.887 360.544 410.58C360.011 410.273 359.591 409.907 359.284 409.48H359.144L358.784 410.84H357.524V395.64H359.284V399.34ZM362.304 401.4C361.544 401.4 360.944 401.547 360.504 401.84C360.064 402.12 359.751 402.56 359.564 403.16C359.378 403.747 359.284 404.5 359.284 405.42V405.5C359.284 406.82 359.498 407.833 359.924 408.54C360.364 409.233 361.171 409.58 362.344 409.58C363.304 409.58 364.018 409.227 364.484 408.52C364.964 407.813 365.204 406.793 365.204 405.46C365.204 404.113 364.964 403.1 364.484 402.42C364.018 401.74 363.291 401.4 362.304 401.4ZM381.149 405.46C381.149 406.353 381.029 407.147 380.789 407.84C380.562 408.52 380.229 409.1 379.789 409.58C379.362 410.06 378.836 410.427 378.209 410.68C377.596 410.92 376.909 411.04 376.149 411.04C375.442 411.04 374.789 410.92 374.189 410.68C373.589 410.427 373.069 410.06 372.629 409.58C372.189 409.1 371.842 408.52 371.589 407.84C371.349 407.147 371.229 406.353 371.229 405.46C371.229 404.273 371.429 403.273 371.829 402.46C372.229 401.633 372.802 401.007 373.549 400.58C374.296 400.14 375.182 399.92 376.209 399.92C377.182 399.92 378.036 400.14 378.769 400.58C379.516 401.007 380.096 401.633 380.509 402.46C380.936 403.273 381.149 404.273 381.149 405.46ZM373.049 405.46C373.049 406.3 373.156 407.033 373.369 407.66C373.596 408.273 373.942 408.747 374.409 409.08C374.876 409.413 375.469 409.58 376.189 409.58C376.909 409.58 377.502 409.413 377.969 409.08C378.436 408.747 378.776 408.273 378.989 407.66C379.216 407.033 379.329 406.3 379.329 405.46C379.329 404.607 379.216 403.88 378.989 403.28C378.762 402.68 378.416 402.22 377.949 401.9C377.496 401.567 376.902 401.4 376.169 401.4C375.076 401.4 374.282 401.76 373.789 402.48C373.296 403.2 373.049 404.193 373.049 405.46ZM389.998 399.94C391.305 399.94 392.272 400.227 392.898 400.8C393.525 401.373 393.838 402.287 393.838 403.54V410.84H392.558L392.218 409.32H392.138C391.832 409.707 391.512 410.033 391.178 410.3C390.858 410.553 390.485 410.74 390.058 410.86C389.645 410.98 389.138 411.04 388.538 411.04C387.898 411.04 387.318 410.927 386.798 410.7C386.292 410.473 385.892 410.127 385.598 409.66C385.305 409.18 385.158 408.58 385.158 407.86C385.158 406.793 385.578 405.973 386.418 405.4C387.258 404.813 388.552 404.493 390.298 404.44L392.118 404.38V403.74C392.118 402.847 391.925 402.227 391.538 401.88C391.152 401.533 390.605 401.36 389.898 401.36C389.338 401.36 388.805 401.447 388.298 401.62C387.792 401.78 387.318 401.967 386.878 402.18L386.338 400.86C386.805 400.607 387.358 400.393 387.998 400.22C388.638 400.033 389.305 399.94 389.998 399.94ZM390.518 405.66C389.185 405.713 388.258 405.927 387.738 406.3C387.232 406.673 386.978 407.2 386.978 407.88C386.978 408.48 387.158 408.92 387.518 409.2C387.892 409.48 388.365 409.62 388.938 409.62C389.845 409.62 390.598 409.373 391.198 408.88C391.798 408.373 392.098 407.6 392.098 406.56V405.6L390.518 405.66ZM404.149 399.92C404.349 399.92 404.563 399.933 404.789 399.96C405.029 399.973 405.236 400 405.409 400.04L405.189 401.66C405.016 401.62 404.823 401.587 404.609 401.56C404.409 401.533 404.216 401.52 404.029 401.52C403.616 401.52 403.223 401.607 402.849 401.78C402.476 401.953 402.143 402.2 401.849 402.52C401.556 402.827 401.323 403.2 401.149 403.64C400.989 404.08 400.909 404.573 400.909 405.12V410.84H399.149V400.12H400.589L400.789 402.08H400.869C401.096 401.68 401.369 401.32 401.689 401C402.009 400.667 402.376 400.407 402.789 400.22C403.203 400.02 403.656 399.92 404.149 399.92ZM412.82 411.04C411.487 411.04 410.42 410.58 409.62 409.66C408.82 408.727 408.42 407.34 408.42 405.5C408.42 403.66 408.82 402.273 409.62 401.34C410.434 400.393 411.507 399.92 412.84 399.92C413.4 399.92 413.887 399.993 414.3 400.14C414.714 400.273 415.074 400.46 415.38 400.7C415.687 400.94 415.947 401.207 416.16 401.5H416.28C416.267 401.327 416.24 401.073 416.2 400.74C416.174 400.393 416.16 400.12 416.16 399.92V395.64H417.92V410.84H416.5L416.24 409.4H416.16C415.947 409.707 415.687 409.987 415.38 410.24C415.074 410.48 414.707 410.673 414.28 410.82C413.867 410.967 413.38 411.04 412.82 411.04ZM413.1 409.58C414.234 409.58 415.027 409.273 415.48 408.66C415.947 408.033 416.18 407.093 416.18 405.84V405.52C416.18 404.187 415.96 403.167 415.52 402.46C415.08 401.74 414.267 401.38 413.08 401.38C412.134 401.38 411.42 401.76 410.94 402.52C410.474 403.267 410.24 404.273 410.24 405.54C410.24 406.82 410.474 407.813 410.94 408.52C411.42 409.227 412.14 409.58 413.1 409.58ZM434.58 399.94C435.887 399.94 436.854 400.227 437.48 400.8C438.107 401.373 438.42 402.287 438.42 403.54V410.84H437.14L436.8 409.32H436.72C436.414 409.707 436.094 410.033 435.76 410.3C435.44 410.553 435.067 410.74 434.64 410.86C434.227 410.98 433.72 411.04 433.12 411.04C432.48 411.04 431.9 410.927 431.38 410.7C430.874 410.473 430.474 410.127 430.18 409.66C429.887 409.18 429.74 408.58 429.74 407.86C429.74 406.793 430.16 405.973 431 405.4C431.84 404.813 433.134 404.493 434.88 404.44L436.7 404.38V403.74C436.7 402.847 436.507 402.227 436.12 401.88C435.734 401.533 435.187 401.36 434.48 401.36C433.92 401.36 433.387 401.447 432.88 401.62C432.374 401.78 431.9 401.967 431.46 402.18L430.92 400.86C431.387 400.607 431.94 400.393 432.58 400.22C433.22 400.033 433.887 399.94 434.58 399.94ZM435.1 405.66C433.767 405.713 432.84 405.927 432.32 406.3C431.814 406.673 431.56 407.2 431.56 407.88C431.56 408.48 431.74 408.92 432.1 409.2C432.474 409.48 432.947 409.62 433.52 409.62C434.427 409.62 435.18 409.373 435.78 408.88C436.38 408.373 436.68 407.6 436.68 406.56V405.6L435.1 405.66ZM448.891 399.92C450.171 399.92 451.138 400.233 451.791 400.86C452.445 401.473 452.771 402.473 452.771 403.86V410.84H451.031V403.98C451.031 403.113 450.838 402.467 450.451 402.04C450.065 401.613 449.458 401.4 448.631 401.4C447.445 401.4 446.625 401.733 446.171 402.4C445.718 403.067 445.491 404.027 445.491 405.28V410.84H443.731V400.12H445.151L445.411 401.58H445.511C445.751 401.207 446.045 400.9 446.391 400.66C446.751 400.407 447.145 400.22 447.571 400.1C447.998 399.98 448.438 399.92 448.891 399.92ZM461.895 411.04C460.561 411.04 459.495 410.58 458.695 409.66C457.895 408.727 457.495 407.34 457.495 405.5C457.495 403.66 457.895 402.273 458.695 401.34C459.508 400.393 460.581 399.92 461.915 399.92C462.475 399.92 462.961 399.993 463.375 400.14C463.788 400.273 464.148 400.46 464.455 400.7C464.761 400.94 465.021 401.207 465.235 401.5H465.355C465.341 401.327 465.315 401.073 465.275 400.74C465.248 400.393 465.235 400.12 465.235 399.92V395.64H466.995V410.84H465.575L465.315 409.4H465.235C465.021 409.707 464.761 409.987 464.455 410.24C464.148 410.48 463.781 410.673 463.355 410.82C462.941 410.967 462.455 411.04 461.895 411.04ZM462.175 409.58C463.308 409.58 464.101 409.273 464.555 408.66C465.021 408.033 465.255 407.093 465.255 405.84V405.52C465.255 404.187 465.035 403.167 464.595 402.46C464.155 401.74 463.341 401.38 462.155 401.38C461.208 401.38 460.495 401.76 460.015 402.52C459.548 403.267 459.315 404.273 459.315 405.54C459.315 406.82 459.548 407.813 460.015 408.52C460.495 409.227 461.215 409.58 462.175 409.58ZM40.9 450.84L39.18 446.42H33.52L31.82 450.84H30L35.58 436.5H37.2L42.76 450.84H40.9ZM37.04 440.5C37 440.393 36.9333 440.2 36.84 439.92C36.7467 439.64 36.6533 439.353 36.56 439.06C36.48 438.753 36.4133 438.52 36.36 438.36C36.2933 438.627 36.22 438.9 36.14 439.18C36.0733 439.447 36 439.693 35.92 439.92C35.8533 440.147 35.7933 440.34 35.74 440.5L34.12 444.82H38.64L37.04 440.5ZM50.4934 436.56C52.3601 436.56 53.7201 436.927 54.5734 437.66C55.4268 438.393 55.8534 439.427 55.8534 440.76C55.8534 441.347 55.7534 441.913 55.5534 442.46C55.3668 442.993 55.0534 443.473 54.6134 443.9C54.1734 444.327 53.5868 444.667 52.8534 444.92C52.1201 445.16 51.2201 445.28 50.1534 445.28H48.5134V450.84H46.7134V436.56H50.4934ZM50.3334 438.1H48.5134V443.74H49.9534C50.8601 443.74 51.6134 443.647 52.2134 443.46C52.8134 443.26 53.2601 442.947 53.5534 442.52C53.8468 442.093 53.9934 441.533 53.9934 440.84C53.9934 439.92 53.7001 439.233 53.1134 438.78C52.5268 438.327 51.6001 438.1 50.3334 438.1ZM64.8428 450.84H59.6828V449.8L61.3628 449.42V438L59.6828 437.6V436.56H64.8428V437.6L63.1628 438V449.42L64.8428 449.8V450.84ZM78.3155 440.12V450.84H76.5555V440.12H78.3155ZM77.4555 436.1C77.7221 436.1 77.9555 436.193 78.1555 436.38C78.3688 436.553 78.4755 436.833 78.4755 437.22C78.4755 437.593 78.3688 437.873 78.1555 438.06C77.9555 438.247 77.7221 438.34 77.4555 438.34C77.1621 438.34 76.9155 438.247 76.7155 438.06C76.5155 437.873 76.4155 437.593 76.4155 437.22C76.4155 436.833 76.5155 436.553 76.7155 436.38C76.9155 436.193 77.1621 436.1 77.4555 436.1ZM88.8717 439.92C90.1517 439.92 91.1184 440.233 91.7717 440.86C92.4251 441.473 92.7517 442.473 92.7517 443.86V450.84H91.0117V443.98C91.0117 443.113 90.8184 442.467 90.4317 442.04C90.0451 441.613 89.4384 441.4 88.6117 441.4C87.4251 441.4 86.6051 441.733 86.1517 442.4C85.6984 443.067 85.4717 444.027 85.4717 445.28V450.84H83.7117V440.12H85.1317L85.3917 441.58H85.4917C85.7317 441.207 86.0251 440.9 86.3717 440.66C86.7317 440.407 87.1251 440.22 87.5517 440.1C87.9784 439.98 88.4184 439.92 88.8717 439.92ZM101.655 449.6C101.922 449.6 102.195 449.58 102.475 449.54C102.755 449.487 102.982 449.433 103.155 449.38V450.72C102.968 450.813 102.702 450.887 102.355 450.94C102.008 451.007 101.675 451.04 101.355 451.04C100.795 451.04 100.275 450.947 99.795 450.76C99.3283 450.56 98.9483 450.22 98.655 449.74C98.3617 449.26 98.215 448.587 98.215 447.72V441.48H96.695V440.64L98.235 439.94L98.935 437.66H99.975V440.12H103.075V441.48H99.975V447.68C99.975 448.333 100.128 448.82 100.435 449.14C100.755 449.447 101.162 449.6 101.655 449.6ZM111.442 439.92C112.362 439.92 113.148 440.12 113.802 440.52C114.468 440.92 114.975 441.487 115.322 442.22C115.682 442.94 115.862 443.787 115.862 444.76V445.82H108.522C108.548 447.033 108.855 447.96 109.442 448.6C110.042 449.227 110.875 449.54 111.942 449.54C112.622 449.54 113.222 449.48 113.742 449.36C114.275 449.227 114.822 449.04 115.382 448.8V450.34C114.835 450.58 114.295 450.753 113.762 450.86C113.228 450.98 112.595 451.04 111.862 451.04C110.848 451.04 109.948 450.833 109.162 450.42C108.388 450.007 107.782 449.393 107.342 448.58C106.915 447.753 106.702 446.747 106.702 445.56C106.702 444.387 106.895 443.38 107.282 442.54C107.682 441.7 108.235 441.053 108.942 440.6C109.662 440.147 110.495 439.92 111.442 439.92ZM111.422 441.36C110.582 441.36 109.915 441.633 109.422 442.18C108.942 442.713 108.655 443.46 108.562 444.42H114.022C114.022 443.807 113.928 443.273 113.742 442.82C113.555 442.367 113.268 442.013 112.882 441.76C112.508 441.493 112.022 441.36 111.422 441.36ZM124.391 439.92C125.097 439.92 125.731 440.053 126.291 440.32C126.864 440.587 127.351 440.993 127.751 441.54H127.851L128.091 440.12H129.491V451.02C129.491 452.033 129.317 452.88 128.971 453.56C128.624 454.253 128.097 454.773 127.391 455.12C126.684 455.467 125.784 455.64 124.691 455.64C123.917 455.64 123.204 455.58 122.551 455.46C121.911 455.353 121.337 455.187 120.831 454.96V453.34C121.177 453.513 121.557 453.66 121.971 453.78C122.384 453.913 122.831 454.013 123.311 454.08C123.791 454.147 124.284 454.18 124.791 454.18C125.711 454.18 126.431 453.907 126.951 453.36C127.484 452.827 127.751 452.093 127.751 451.16V450.74C127.751 450.58 127.757 450.353 127.771 450.06C127.784 449.753 127.797 449.54 127.811 449.42H127.731C127.357 449.967 126.891 450.373 126.331 450.64C125.784 450.907 125.144 451.04 124.411 451.04C123.024 451.04 121.937 450.553 121.151 449.58C120.377 448.607 119.991 447.247 119.991 445.5C119.991 444.353 120.164 443.367 120.511 442.54C120.871 441.7 121.377 441.053 122.031 440.6C122.684 440.147 123.471 439.92 124.391 439.92ZM124.631 441.4C124.031 441.4 123.517 441.56 123.091 441.88C122.677 442.2 122.357 442.667 122.131 443.28C121.917 443.893 121.811 444.64 121.811 445.52C121.811 446.84 122.051 447.853 122.531 448.56C123.024 449.253 123.737 449.6 124.671 449.6C125.217 449.6 125.684 449.533 126.071 449.4C126.457 449.253 126.777 449.033 127.031 448.74C127.284 448.433 127.471 448.047 127.591 447.58C127.711 447.113 127.771 446.56 127.771 445.92V445.5C127.771 444.527 127.657 443.74 127.431 443.14C127.217 442.54 126.877 442.1 126.411 441.82C125.944 441.54 125.351 441.4 124.631 441.4ZM139.895 439.92C140.095 439.92 140.309 439.933 140.535 439.96C140.775 439.973 140.982 440 141.155 440.04L140.935 441.66C140.762 441.62 140.569 441.587 140.355 441.56C140.155 441.533 139.962 441.52 139.775 441.52C139.362 441.52 138.969 441.607 138.595 441.78C138.222 441.953 137.889 442.2 137.595 442.52C137.302 442.827 137.069 443.2 136.895 443.64C136.735 444.08 136.655 444.573 136.655 445.12V450.84H134.895V440.12H136.335L136.535 442.08H136.615C136.842 441.68 137.115 441.32 137.435 441C137.755 440.667 138.122 440.407 138.535 440.22C138.949 440.02 139.402 439.92 139.895 439.92ZM148.826 439.94C150.133 439.94 151.1 440.227 151.726 440.8C152.353 441.373 152.666 442.287 152.666 443.54V450.84H151.386L151.046 449.32H150.966C150.66 449.707 150.34 450.033 150.006 450.3C149.686 450.553 149.313 450.74 148.886 450.86C148.473 450.98 147.966 451.04 147.366 451.04C146.726 451.04 146.146 450.927 145.626 450.7C145.12 450.473 144.72 450.127 144.426 449.66C144.133 449.18 143.986 448.58 143.986 447.86C143.986 446.793 144.406 445.973 145.246 445.4C146.086 444.813 147.38 444.493 149.126 444.44L150.946 444.38V443.74C150.946 442.847 150.753 442.227 150.366 441.88C149.98 441.533 149.433 441.36 148.726 441.36C148.166 441.36 147.633 441.447 147.126 441.62C146.62 441.78 146.146 441.967 145.706 442.18L145.166 440.86C145.633 440.607 146.186 440.393 146.826 440.22C147.466 440.033 148.133 439.94 148.826 439.94ZM149.346 445.66C148.013 445.713 147.086 445.927 146.566 446.3C146.06 446.673 145.806 447.2 145.806 447.88C145.806 448.48 145.986 448.92 146.346 449.2C146.72 449.48 147.193 449.62 147.766 449.62C148.673 449.62 149.426 449.373 150.026 448.88C150.626 448.373 150.926 447.6 150.926 446.56V445.6L149.346 445.66ZM161.557 449.6C161.824 449.6 162.097 449.58 162.377 449.54C162.657 449.487 162.884 449.433 163.057 449.38V450.72C162.871 450.813 162.604 450.887 162.257 450.94C161.911 451.007 161.577 451.04 161.257 451.04C160.697 451.04 160.177 450.947 159.697 450.76C159.231 450.56 158.851 450.22 158.557 449.74C158.264 449.26 158.117 448.587 158.117 447.72V441.48H156.597V440.64L158.137 439.94L158.837 437.66H159.877V440.12H162.977V441.48H159.877V447.68C159.877 448.333 160.031 448.82 160.337 449.14C160.657 449.447 161.064 449.6 161.557 449.6ZM168.964 440.12V450.84H167.204V440.12H168.964ZM168.104 436.1C168.371 436.1 168.604 436.193 168.804 436.38C169.017 436.553 169.124 436.833 169.124 437.22C169.124 437.593 169.017 437.873 168.804 438.06C168.604 438.247 168.371 438.34 168.104 438.34C167.811 438.34 167.564 438.247 167.364 438.06C167.164 437.873 167.064 437.593 167.064 437.22C167.064 436.833 167.164 436.553 167.364 436.38C167.564 436.193 167.811 436.1 168.104 436.1ZM183.68 445.46C183.68 446.353 183.56 447.147 183.32 447.84C183.093 448.52 182.76 449.1 182.32 449.58C181.893 450.06 181.367 450.427 180.74 450.68C180.127 450.92 179.44 451.04 178.68 451.04C177.973 451.04 177.32 450.92 176.72 450.68C176.12 450.427 175.6 450.06 175.16 449.58C174.72 449.1 174.373 448.52 174.12 447.84C173.88 447.147 173.76 446.353 173.76 445.46C173.76 444.273 173.96 443.273 174.36 442.46C174.76 441.633 175.333 441.007 176.08 440.58C176.827 440.14 177.713 439.92 178.74 439.92C179.713 439.92 180.567 440.14 181.3 440.58C182.047 441.007 182.627 441.633 183.04 442.46C183.467 443.273 183.68 444.273 183.68 445.46ZM175.58 445.46C175.58 446.3 175.687 447.033 175.9 447.66C176.127 448.273 176.473 448.747 176.94 449.08C177.407 449.413 178 449.58 178.72 449.58C179.44 449.58 180.033 449.413 180.5 449.08C180.967 448.747 181.307 448.273 181.52 447.66C181.747 447.033 181.86 446.3 181.86 445.46C181.86 444.607 181.747 443.88 181.52 443.28C181.293 442.68 180.947 442.22 180.48 441.9C180.027 441.567 179.433 441.4 178.7 441.4C177.607 441.4 176.813 441.76 176.32 442.48C175.827 443.2 175.58 444.193 175.58 445.46ZM193.63 439.92C194.91 439.92 195.876 440.233 196.53 440.86C197.183 441.473 197.51 442.473 197.51 443.86V450.84H195.77V443.98C195.77 443.113 195.576 442.467 195.19 442.04C194.803 441.613 194.196 441.4 193.37 441.4C192.183 441.4 191.363 441.733 190.91 442.4C190.456 443.067 190.23 444.027 190.23 445.28V450.84H188.47V440.12H189.89L190.15 441.58H190.25C190.49 441.207 190.783 440.9 191.13 440.66C191.49 440.407 191.883 440.22 192.31 440.1C192.736 439.98 193.176 439.92 193.63 439.92Z" fill="white"/>
<path d="M213.945 296.84L212.281 291.4H203.961L202.297 296.84H197.081L205.145 273.896H211.065L219.161 296.84H213.945ZM209.465 282.024C209.359 281.661 209.22 281.203 209.049 280.648C208.879 280.093 208.708 279.528 208.537 278.952C208.367 278.376 208.228 277.875 208.121 277.448C208.015 277.875 207.865 278.408 207.673 279.048C207.503 279.667 207.332 280.264 207.161 280.84C207.012 281.395 206.895 281.789 206.809 282.024L205.177 287.336H211.129L209.465 282.024ZM243.847 288.776C243.847 290.355 243.495 291.784 242.791 293.064C242.108 294.323 241.063 295.325 239.655 296.072C238.268 296.797 236.508 297.16 234.375 297.16C231.346 297.16 229.042 296.392 227.463 294.856C225.884 293.299 225.095 291.251 225.095 288.712V273.992H229.927V287.976C229.927 289.853 230.311 291.176 231.079 291.944C231.847 292.712 232.988 293.096 234.503 293.096C235.57 293.096 236.434 292.915 237.095 292.552C237.756 292.189 238.236 291.624 238.535 290.856C238.855 290.088 239.015 289.117 239.015 287.944V273.992H243.847V288.776ZM261.315 284.008H270.371V295.848C269.176 296.253 267.928 296.573 266.627 296.808C265.347 297.043 263.885 297.16 262.243 297.16C259.981 297.16 258.051 296.712 256.451 295.816C254.872 294.92 253.667 293.597 252.835 291.848C252.024 290.099 251.619 287.944 251.619 285.384C251.619 282.995 252.077 280.925 252.995 279.176C253.933 277.427 255.288 276.072 257.059 275.112C258.829 274.152 260.995 273.672 263.555 273.672C264.771 273.672 265.965 273.8 267.139 274.056C268.312 274.312 269.379 274.653 270.339 275.08L268.739 278.952C268.035 278.589 267.235 278.291 266.339 278.056C265.443 277.821 264.504 277.704 263.523 277.704C262.115 277.704 260.888 278.024 259.843 278.664C258.819 279.304 258.019 280.211 257.443 281.384C256.888 282.536 256.611 283.901 256.611 285.48C256.611 286.973 256.813 288.296 257.219 289.448C257.624 290.6 258.264 291.507 259.139 292.168C260.013 292.808 261.155 293.128 262.563 293.128C263.032 293.128 263.437 293.117 263.779 293.096C264.141 293.053 264.472 293.011 264.771 292.968C265.069 292.904 265.357 292.851 265.635 292.808V288.04H261.315V284.008Z" fill="white"/>
<g filter="url(#filter0_f_243_6729)">
<circle cx="235" cy="112.84" r="97.5" stroke="url(#paint0_linear_243_6729)" stroke-width="5"/>
</g>
<circle cx="235" cy="112.84" r="97.5" stroke="url(#paint1_linear_243_6729)" stroke-width="5"/>
<path d="M214.749 130.84C213.533 130.84 212.429 130.52 211.437 129.88C210.445 129.208 209.645 128.344 209.037 127.288C208.429 126.232 208.125 125.112 208.125 123.928V103.048C208.125 101.8 208.429 100.68 209.037 99.6878C209.645 98.6638 210.445 97.8478 211.437 97.2398C212.429 96.5998 213.533 96.2798 214.749 96.2798H235.725C236.941 96.2798 238.045 96.5998 239.037 97.2398C240.029 97.8478 240.829 98.6638 241.437 99.6878C242.045 100.68 242.349 101.8 242.349 103.048V123.928C242.349 125.112 242.045 126.232 241.437 127.288C240.829 128.344 240.029 129.208 239.037 129.88C238.045 130.52 236.941 130.84 235.725 130.84H214.749ZM217.293 124.216H235.485C235.645 124.216 235.773 124.168 235.869 124.072C235.997 123.944 236.061 123.8 236.061 123.64V108.568L217.293 124.216ZM214.413 118.36L233.181 102.712H214.989C214.829 102.712 214.685 102.776 214.557 102.904C214.461 103 214.413 103.128 214.413 103.288V118.36ZM257.949 130.84V105.352L255.213 108.712H246.909L257.325 96.2798H264.285V130.84H257.949Z" fill="#9164FB"/>
<defs>
<filter id="filter0_f_243_6729" x="123" y="0.839844" width="224" height="224" filterUnits="userSpaceOnUse" color-interpolation-filters="sRGB">
<feFlood flood-opacity="0" result="BackgroundImageFix"/>
<feBlend mode="normal" in="SourceGraphic" in2="BackgroundImageFix" result="shape"/>
<feGaussianBlur stdDeviation="6" result="effect1_foregroundBlur_243_6729"/>
</filter>
<linearGradient id="paint0_linear_243_6729" x1="235" y1="12.8398" x2="235" y2="212.84" gradientUnits="userSpaceOnUse">
<stop stop-color="#FF77FA"/>
<stop offset="1" stop-color="#7075FF"/>
</linearGradient>
<linearGradient id="paint1_linear_243_6729" x1="235" y1="12.8398" x2="235" y2="212.84" gradientUnits="userSpaceOnUse">
<stop stop-color="#FF77FA"/>
<stop offset="1" stop-color="#7075FF"/>
</linearGradient>
</defs>
</svg>
