<svg width="470" height="545" viewBox="0 0 470 545" fill="none" xmlns="http://www.w3.org/2000/svg">
<path d="M223.229 284.544C223.229 286.315 223.005 287.925 222.557 289.376C222.13 290.805 221.469 292.043 220.573 293.088C219.698 294.133 218.567 294.933 217.181 295.488C215.815 296.043 214.205 296.32 212.349 296.32C210.493 296.32 208.871 296.043 207.485 295.488C206.119 294.912 204.989 294.112 204.093 293.088C203.218 292.043 202.557 290.795 202.109 289.344C201.682 287.893 201.469 286.283 201.469 284.512C201.469 282.144 201.853 280.085 202.621 278.336C203.41 276.587 204.605 275.232 206.205 274.272C207.826 273.291 209.885 272.8 212.381 272.8C214.855 272.8 216.893 273.291 218.493 274.272C220.093 275.232 221.277 276.597 222.045 278.368C222.834 280.117 223.229 282.176 223.229 284.544ZM206.557 284.544C206.557 286.144 206.759 287.52 207.165 288.672C207.57 289.824 208.199 290.709 209.053 291.328C209.906 291.947 211.005 292.256 212.349 292.256C213.735 292.256 214.845 291.947 215.677 291.328C216.53 290.709 217.149 289.824 217.533 288.672C217.938 287.52 218.141 286.144 218.141 284.544C218.141 282.133 217.693 280.245 216.797 278.88C215.901 277.515 214.429 276.832 212.381 276.832C211.015 276.832 209.906 277.141 209.053 277.76C208.199 278.379 207.57 279.264 207.165 280.416C206.759 281.568 206.557 282.944 206.557 284.544ZM240.857 276.864C239.94 276.864 239.119 277.045 238.393 277.408C237.689 277.771 237.092 278.293 236.601 278.976C236.111 279.637 235.737 280.448 235.481 281.408C235.247 282.368 235.129 283.445 235.129 284.64C235.129 286.261 235.321 287.648 235.705 288.8C236.111 289.931 236.74 290.795 237.593 291.392C238.447 291.989 239.535 292.288 240.857 292.288C241.796 292.288 242.724 292.181 243.641 291.968C244.58 291.755 245.593 291.456 246.681 291.072V295.136C245.679 295.541 244.687 295.84 243.705 296.032C242.724 296.224 241.625 296.32 240.409 296.32C238.063 296.32 236.121 295.84 234.585 294.88C233.071 293.899 231.951 292.533 231.225 290.784C230.5 289.013 230.137 286.955 230.137 284.608C230.137 282.88 230.372 281.301 230.841 279.872C231.311 278.421 231.993 277.173 232.889 276.128C233.807 275.083 234.927 274.272 236.249 273.696C237.593 273.12 239.129 272.832 240.857 272.832C241.988 272.832 243.119 272.981 244.249 273.28C245.401 273.557 246.5 273.941 247.545 274.432L245.977 278.368C245.124 277.963 244.26 277.611 243.385 277.312C242.532 277.013 241.689 276.864 240.857 276.864ZM263.536 296H258.704V277.184H252.496V273.152H269.744V277.184H263.536V296Z" fill="white"/>
<path d="M12.7802 362.7C12.7802 362.1 12.8736 361.62 13.0602 361.26C13.2602 360.887 13.5269 360.62 13.8602 360.46C14.2069 360.3 14.5869 360.22 15.0002 360.22C15.4136 360.22 15.7869 360.3 16.1202 360.46C16.4536 360.62 16.7202 360.887 16.9202 361.26C17.1202 361.62 17.2202 362.1 17.2202 362.7C17.2202 363.287 17.1202 363.767 16.9202 364.14C16.7202 364.5 16.4536 364.767 16.1202 364.94C15.7869 365.1 15.4136 365.18 15.0002 365.18C14.5869 365.18 14.2069 365.1 13.8602 364.94C13.5269 364.767 13.2602 364.5 13.0602 364.14C12.8736 363.767 12.7802 363.287 12.7802 362.7ZM35.72 355.72C37.5867 355.72 38.9467 356.087 39.8 356.82C40.6533 357.553 41.08 358.587 41.08 359.92C41.08 360.507 40.98 361.073 40.78 361.62C40.5933 362.153 40.28 362.633 39.84 363.06C39.4 363.487 38.8133 363.827 38.08 364.08C37.3467 364.32 36.4467 364.44 35.38 364.44H33.74V370H31.94V355.72H35.72ZM35.56 357.26H33.74V362.9H35.18C36.0867 362.9 36.84 362.807 37.44 362.62C38.04 362.42 38.4867 362.107 38.78 361.68C39.0733 361.253 39.22 360.693 39.22 360C39.22 359.08 38.9267 358.393 38.34 357.94C37.7533 357.487 36.8267 357.26 35.56 357.26ZM49.8694 359.1C51.176 359.1 52.1427 359.387 52.7694 359.96C53.396 360.533 53.7094 361.447 53.7094 362.7V370H52.4294L52.0894 368.48H52.0094C51.7027 368.867 51.3827 369.193 51.0494 369.46C50.7294 369.713 50.356 369.9 49.9294 370.02C49.516 370.14 49.0094 370.2 48.4094 370.2C47.7694 370.2 47.1894 370.087 46.6694 369.86C46.1627 369.633 45.7627 369.287 45.4694 368.82C45.176 368.34 45.0294 367.74 45.0294 367.02C45.0294 365.953 45.4494 365.133 46.2894 364.56C47.1294 363.973 48.4227 363.653 50.1694 363.6L51.9894 363.54V362.9C51.9894 362.007 51.796 361.387 51.4094 361.04C51.0227 360.693 50.476 360.52 49.7694 360.52C49.2094 360.52 48.676 360.607 48.1694 360.78C47.6627 360.94 47.1894 361.127 46.7494 361.34L46.2094 360.02C46.676 359.767 47.2294 359.553 47.8694 359.38C48.5094 359.193 49.176 359.1 49.8694 359.1ZM50.3894 364.82C49.056 364.873 48.1294 365.087 47.6094 365.46C47.1027 365.833 46.8494 366.36 46.8494 367.04C46.8494 367.64 47.0294 368.08 47.3894 368.36C47.7627 368.64 48.236 368.78 48.8094 368.78C49.716 368.78 50.4694 368.533 51.0694 368.04C51.6694 367.533 51.9694 366.76 51.9694 365.72V364.76L50.3894 364.82ZM64.0203 359.08C64.2203 359.08 64.4336 359.093 64.6603 359.12C64.9003 359.133 65.107 359.16 65.2803 359.2L65.0603 360.82C64.887 360.78 64.6936 360.747 64.4803 360.72C64.2803 360.693 64.087 360.68 63.9003 360.68C63.487 360.68 63.0936 360.767 62.7203 360.94C62.347 361.113 62.0136 361.36 61.7203 361.68C61.427 361.987 61.1936 362.36 61.0203 362.8C60.8603 363.24 60.7803 363.733 60.7803 364.28V370H59.0203V359.28H60.4603L60.6603 361.24H60.7403C60.967 360.84 61.2403 360.48 61.5603 360.16C61.8803 359.827 62.247 359.567 62.6603 359.38C63.0736 359.18 63.527 359.08 64.0203 359.08ZM72.862 368.76C73.1287 368.76 73.402 368.74 73.682 368.7C73.962 368.647 74.1887 368.593 74.362 368.54V369.88C74.1754 369.973 73.9087 370.047 73.562 370.1C73.2154 370.167 72.882 370.2 72.562 370.2C72.002 370.2 71.482 370.107 71.002 369.92C70.5354 369.72 70.1554 369.38 69.862 368.9C69.5687 368.42 69.422 367.747 69.422 366.88V360.64H67.902V359.8L69.442 359.1L70.142 356.82H71.182V359.28H74.282V360.64H71.182V366.84C71.182 367.493 71.3354 367.98 71.642 368.3C71.962 368.607 72.3687 368.76 72.862 368.76ZM83.6686 359.08C84.9486 359.08 85.9153 359.393 86.5686 360.02C87.2219 360.633 87.5486 361.633 87.5486 363.02V370H85.8086V363.14C85.8086 362.273 85.6153 361.627 85.2286 361.2C84.8419 360.773 84.2353 360.56 83.4086 360.56C82.2219 360.56 81.4019 360.893 80.9486 361.56C80.4953 362.227 80.2686 363.187 80.2686 364.44V370H78.5086V359.28H79.9286L80.1886 360.74H80.2886C80.5286 360.367 80.8219 360.06 81.1686 359.82C81.5286 359.567 81.9219 359.38 82.3486 359.26C82.7753 359.14 83.2153 359.08 83.6686 359.08ZM97.0119 359.08C97.9319 359.08 98.7185 359.28 99.3719 359.68C100.039 360.08 100.545 360.647 100.892 361.38C101.252 362.1 101.432 362.947 101.432 363.92V364.98H94.0919C94.1185 366.193 94.4252 367.12 95.0119 367.76C95.6119 368.387 96.4452 368.7 97.5119 368.7C98.1919 368.7 98.7919 368.64 99.3119 368.52C99.8452 368.387 100.392 368.2 100.952 367.96V369.5C100.405 369.74 99.8652 369.913 99.3319 370.02C98.7985 370.14 98.1652 370.2 97.4319 370.2C96.4185 370.2 95.5185 369.993 94.7319 369.58C93.9585 369.167 93.3519 368.553 92.9119 367.74C92.4852 366.913 92.2719 365.907 92.2719 364.72C92.2719 363.547 92.4652 362.54 92.8519 361.7C93.2519 360.86 93.8052 360.213 94.5119 359.76C95.2319 359.307 96.0652 359.08 97.0119 359.08ZM96.9919 360.52C96.1519 360.52 95.4852 360.793 94.9919 361.34C94.5119 361.873 94.2252 362.62 94.1319 363.58H99.5919C99.5919 362.967 99.4985 362.433 99.3119 361.98C99.1252 361.527 98.8385 361.173 98.4519 360.92C98.0785 360.653 97.5919 360.52 96.9919 360.52ZM111.161 359.08C111.361 359.08 111.574 359.093 111.801 359.12C112.041 359.133 112.248 359.16 112.421 359.2L112.201 360.82C112.028 360.78 111.834 360.747 111.621 360.72C111.421 360.693 111.228 360.68 111.041 360.68C110.628 360.68 110.234 360.767 109.861 360.94C109.488 361.113 109.154 361.36 108.861 361.68C108.568 361.987 108.334 362.36 108.161 362.8C108.001 363.24 107.921 363.733 107.921 364.28V370H106.161V359.28H107.601L107.801 361.24H107.881C108.108 360.84 108.381 360.48 108.701 360.16C109.021 359.827 109.388 359.567 109.801 359.38C110.214 359.18 110.668 359.08 111.161 359.08ZM130.538 363.94C130.458 363.66 130.378 363.387 130.298 363.12C130.218 362.84 130.145 362.58 130.078 362.34C130.025 362.087 129.971 361.853 129.918 361.64C129.865 361.427 129.825 361.247 129.798 361.1H129.718C129.691 361.247 129.651 361.427 129.598 361.64C129.558 361.853 129.505 362.087 129.438 362.34C129.385 362.593 129.318 362.86 129.238 363.14C129.171 363.407 129.091 363.68 128.998 363.96L127.078 369.98H125.078L122.138 359.26H123.958L125.438 364.98C125.545 365.367 125.645 365.76 125.738 366.16C125.831 366.547 125.911 366.92 125.978 367.28C126.058 367.627 126.111 367.927 126.138 368.18H126.218C126.258 368.02 126.305 367.82 126.358 367.58C126.411 367.34 126.465 367.087 126.518 366.82C126.585 366.553 126.651 366.287 126.718 366.02C126.798 365.753 126.871 365.513 126.938 365.3L128.838 359.26H130.758L132.598 365.3C132.691 365.607 132.785 365.933 132.878 366.28C132.985 366.627 133.078 366.967 133.158 367.3C133.238 367.62 133.291 367.907 133.318 368.16H133.398C133.425 367.933 133.471 367.653 133.538 367.32C133.618 366.973 133.705 366.6 133.798 366.2C133.905 365.787 134.011 365.38 134.118 364.98L135.618 359.26H137.418L134.438 369.98H132.378L130.538 363.94ZM143.101 359.28V370H141.341V359.28H143.101ZM142.241 355.26C142.507 355.26 142.741 355.353 142.941 355.54C143.154 355.713 143.261 355.993 143.261 356.38C143.261 356.753 143.154 357.033 142.941 357.22C142.741 357.407 142.507 357.5 142.241 357.5C141.947 357.5 141.701 357.407 141.501 357.22C141.301 357.033 141.201 356.753 141.201 356.38C141.201 355.993 141.301 355.713 141.501 355.54C141.701 355.353 141.947 355.26 142.241 355.26ZM152.077 368.76C152.344 368.76 152.617 368.74 152.897 368.7C153.177 368.647 153.404 368.593 153.577 368.54V369.88C153.39 369.973 153.124 370.047 152.777 370.1C152.43 370.167 152.097 370.2 151.777 370.2C151.217 370.2 150.697 370.107 150.217 369.92C149.75 369.72 149.37 369.38 149.077 368.9C148.784 368.42 148.637 367.747 148.637 366.88V360.64H147.117V359.8L148.657 359.1L149.357 356.82H150.397V359.28H153.497V360.64H150.397V366.84C150.397 367.493 150.55 367.98 150.857 368.3C151.177 368.607 151.584 368.76 152.077 368.76ZM159.483 359.26C159.483 359.513 159.47 359.773 159.443 360.04C159.43 360.307 159.41 360.547 159.383 360.76H159.503C159.73 360.387 160.017 360.08 160.363 359.84C160.71 359.6 161.097 359.42 161.523 359.3C161.95 359.167 162.39 359.1 162.843 359.1C163.71 359.1 164.43 359.24 165.003 359.52C165.59 359.787 166.03 360.207 166.323 360.78C166.617 361.353 166.1100 362.1 166.1100 363.02V370H165.023V363.14C165.023 362.273 164.83 361.627 164.443 361.2C164.057 360.773 163.45 360.56 162.623 360.56C161.823 360.56 161.197 360.713 160.743 361.02C160.29 361.313 159.963 361.753 159.1100 362.34C159.577 362.913 159.483 363.62 159.483 364.46V370H157.723V354.8H159.483V359.26ZM185.822 370L181.122 357.48H181.042C181.069 357.747 181.089 358.087 181.102 358.5C181.129 358.913 181.149 359.367 181.162 359.86C181.175 360.34 181.182 360.833 181.182 361.34V370H179.522V355.72H182.182L186.582 367.42H186.662L191.142 355.72H193.782V370H192.002V361.22C192.002 360.753 192.009 360.293 192.022 359.84C192.035 359.373 192.055 358.94 192.082 358.54C192.109 358.127 192.129 357.78 192.142 357.5H192.062L187.302 370H185.822ZM203.487 359.1C204.793 359.1 205.76 359.387 206.387 359.96C207.013 360.533 207.327 361.447 207.327 362.7V370H206.047L205.707 368.48H205.627C205.32 368.867 205 369.193 204.667 369.46C204.347 369.713 203.973 369.9 203.547 370.02C203.133 370.14 202.627 370.2 202.027 370.2C201.387 370.2 200.807 370.087 200.287 369.86C199.78 369.633 199.38 369.287 199.087 368.82C198.793 368.34 198.647 367.74 198.647 367.02C198.647 365.953 199.067 365.133 199.907 364.56C200.747 363.973 202.04 363.653 203.787 363.6L205.607 363.54V362.9C205.607 362.007 205.413 361.387 205.027 361.04C204.64 360.693 204.093 360.52 203.387 360.52C202.827 360.52 202.293 360.607 201.787 360.78C201.28 360.94 200.807 361.127 200.367 361.34L199.827 360.02C200.293 359.767 200.847 359.553 201.487 359.38C202.127 359.193 202.793 359.1 203.487 359.1ZM204.007 364.82C202.673 364.873 201.747 365.087 201.227 365.46C200.72 365.833 200.467 366.36 200.467 367.04C200.467 367.64 200.647 368.08 201.007 368.36C201.38 368.64 201.853 368.78 202.427 368.78C203.333 368.78 204.087 368.533 204.687 368.04C205.287 367.533 205.587 366.76 205.587 365.72V364.76L204.007 364.82ZM216.438 359.08C217.144 359.08 217.778 359.213 218.338 359.48C218.911 359.747 219.398 360.153 219.798 360.7H219.898L220.138 359.28H221.538V370.18C221.538 371.193 221.364 372.04 221.018 372.72C220.671 373.413 220.144 373.933 219.438 374.28C218.731 374.627 217.831 374.8 216.738 374.8C215.964 374.8 215.251 374.74 214.598 374.62C213.958 374.513 213.384 374.347 212.878 374.12V372.5C213.224 372.673 213.604 372.82 214.018 372.94C214.431 373.073 214.878 373.173 215.358 373.24C215.838 373.307 216.331 373.34 216.838 373.34C217.758 373.34 218.478 373.067 218.998 372.52C219.531 371.987 219.798 371.253 219.798 370.32V369.9C219.798 369.74 219.804 369.513 219.818 369.22C219.831 368.913 219.844 368.7 219.858 368.58H219.778C219.404 369.127 218.938 369.533 218.378 369.8C217.831 370.067 217.191 370.2 216.458 370.2C215.071 370.2 213.984 369.713 213.198 368.74C212.424 367.767 212.038 366.407 212.038 364.66C212.038 363.513 212.211 362.527 212.558 361.7C212.918 360.86 213.424 360.213 214.078 359.76C214.731 359.307 215.518 359.08 216.438 359.08ZM216.678 360.56C216.078 360.56 215.564 360.72 215.138 361.04C214.724 361.36 214.404 361.827 214.178 362.44C213.964 363.053 213.858 363.8 213.858 364.68C213.858 366 214.098 367.013 214.578 367.72C215.071 368.413 215.784 368.76 216.718 368.76C217.264 368.76 217.731 368.693 218.118 368.56C218.504 368.413 218.824 368.193 219.078 367.9C219.331 367.593 219.518 367.207 219.638 366.74C219.758 366.273 219.818 365.72 219.818 365.08V364.66C219.818 363.687 219.704 362.9 219.478 362.3C219.264 361.7 218.924 361.26 218.458 360.98C217.991 360.7 217.398 360.56 216.678 360.56ZM228.702 359.28V370H226.942V359.28H228.702ZM227.842 355.26C228.109 355.26 228.342 355.353 228.542 355.54C228.756 355.713 228.862 355.993 228.862 356.38C228.862 356.753 228.756 357.033 228.542 357.22C228.342 357.407 228.109 357.5 227.842 357.5C227.549 357.5 227.302 357.407 227.102 357.22C226.902 357.033 226.802 356.753 226.802 356.38C226.802 355.993 226.902 355.713 227.102 355.54C227.302 355.353 227.549 355.26 227.842 355.26ZM238.398 370.2C237.452 370.2 236.605 370.007 235.858 369.62C235.125 369.233 234.545 368.633 234.118 367.82C233.705 367.007 233.498 365.967 233.498 364.7C233.498 363.38 233.718 362.307 234.158 361.48C234.598 360.653 235.192 360.047 235.938 359.66C236.698 359.273 237.558 359.08 238.518 359.08C239.065 359.08 239.592 359.14 240.098 359.26C240.605 359.367 241.018 359.5 241.338 359.66L240.798 361.12C240.478 361 240.105 360.887 239.678 360.78C239.252 360.673 238.852 360.62 238.478 360.62C237.758 360.62 237.165 360.773 236.698 361.08C236.232 361.387 235.885 361.84 235.658 362.44C235.432 363.04 235.318 363.787 235.318 364.68C235.318 365.533 235.432 366.26 235.658 366.86C235.885 367.46 236.225 367.913 236.678 368.22C237.132 368.527 237.698 368.68 238.378 368.68C238.965 368.68 239.478 368.62 239.918 368.5C240.372 368.38 240.785 368.233 241.158 368.06V369.62C240.798 369.807 240.398 369.947 239.958 370.04C239.532 370.147 239.012 370.2 238.398 370.2ZM261.123 370H253.143V355.72H261.123V357.3H254.943V361.76H260.1100V363.32H254.943V368.42H261.123V370ZM269.816 370.2C268.483 370.2 267.416 369.74 266.616 368.82C265.816 367.887 265.416 366.5 265.416 364.66C265.416 362.82 265.816 361.433 266.616 360.5C267.43 359.553 268.503 359.08 269.836 359.08C270.396 359.08 270.883 359.153 271.296 359.3C271.71 359.433 272.07 359.62 272.376 359.86C272.683 360.1 272.943 360.367 273.156 360.66H273.276C273.263 360.487 273.236 360.233 273.196 359.9C273.17 359.553 273.156 359.28 273.156 359.08V354.8H274.916V370H273.496L273.236 368.56H273.156C272.943 368.867 272.683 369.147 272.376 369.4C272.07 369.64 271.703 369.833 271.276 369.98C270.863 370.127 270.376 370.2 269.816 370.2ZM270.096 368.74C271.23 368.74 272.023 368.433 272.476 367.82C272.943 367.193 273.176 366.253 273.176 365V364.68C273.176 363.347 272.956 362.327 272.516 361.62C272.076 360.9 271.263 360.54 270.076 360.54C269.13 360.54 268.416 360.92 267.936 361.68C267.47 362.427 267.236 363.433 267.236 364.7C267.236 365.98 267.47 366.973 267.936 367.68C268.416 368.387 269.136 368.74 270.096 368.74ZM284.461 359.08C285.381 359.08 286.168 359.28 286.821 359.68C287.488 360.08 287.994 360.647 288.341 361.38C288.701 362.1 288.881 362.947 288.881 363.92V364.98H281.541C281.568 366.193 281.874 367.12 282.461 367.76C283.061 368.387 283.894 368.7 284.961 368.7C285.641 368.7 286.241 368.64 286.761 368.52C287.294 368.387 287.841 368.2 288.401 367.96V369.5C287.854 369.74 287.314 369.913 286.781 370.02C286.248 370.14 285.614 370.2 284.881 370.2C283.868 370.2 282.968 369.993 282.181 369.58C281.408 369.167 280.801 368.553 280.361 367.74C279.934 366.913 279.721 365.907 279.721 364.72C279.721 363.547 279.914 362.54 280.301 361.7C280.701 360.86 281.254 360.213 281.961 359.76C282.681 359.307 283.514 359.08 284.461 359.08ZM284.441 360.52C283.601 360.52 282.934 360.793 282.441 361.34C281.961 361.873 281.674 362.62 281.581 363.58H287.041C287.041 362.967 286.948 362.433 286.761 361.98C286.574 361.527 286.288 361.173 285.901 360.92C285.528 360.653 285.041 360.52 284.441 360.52ZM298.77 359.08C300.05 359.08 301.017 359.393 301.67 360.02C302.323 360.633 302.65 361.633 302.65 363.02V370H300.91V363.14C300.91 362.273 300.717 361.627 300.33 361.2C299.943 360.773 299.337 360.56 298.51 360.56C297.323 360.56 296.503 360.893 296.05 361.56C295.597 362.227 295.37 363.187 295.37 364.44V370H293.61V359.28H295.03L295.29 360.74H295.39C295.63 360.367 295.923 360.06 296.27 359.82C296.63 359.567 297.023 359.38 297.45 359.26C297.877 359.14 298.317 359.08 298.77 359.08ZM319.889 362.24H323.869V363.66H319.889V367.78H318.449V363.66H314.469V362.24H318.449V358.1H319.889V362.24ZM340.909 359.08C342.229 359.08 343.289 359.54 344.089 360.46C344.903 361.38 345.309 362.767 345.309 364.62C345.309 365.833 345.123 366.86 344.749 367.7C344.389 368.527 343.876 369.153 343.209 369.58C342.556 369.993 341.783 370.2 340.889 370.2C340.343 370.2 339.856 370.127 339.429 369.98C339.003 369.833 338.636 369.647 338.329 369.42C338.036 369.18 337.783 368.92 337.569 368.64H337.449C337.476 368.867 337.503 369.153 337.529 369.5C337.556 369.847 337.569 370.147 337.569 370.4V374.8H335.809V359.28H337.249L337.489 360.74H337.569C337.783 360.433 338.036 360.153 338.329 359.9C338.636 359.647 338.996 359.447 339.409 359.3C339.836 359.153 340.336 359.08 340.909 359.08ZM340.589 360.56C339.869 360.56 339.289 360.7 338.849 360.98C338.409 361.247 338.089 361.653 337.889 362.2C337.689 362.747 337.583 363.44 337.569 364.28V364.62C337.569 365.5 337.663 366.247 337.849 366.86C338.036 367.473 338.349 367.94 338.789 368.26C339.243 368.58 339.856 368.74 340.629 368.74C341.283 368.74 341.816 368.56 342.229 368.2C342.656 367.84 342.969 367.353 343.169 366.74C343.383 366.113 343.489 365.4 343.489 364.6C343.489 363.373 343.249 362.393 342.769 361.66C342.303 360.927 341.576 360.56 340.589 360.56ZM355.114 359.08C355.314 359.08 355.527 359.093 355.754 359.12C355.994 359.133 356.201 359.16 356.374 359.2L356.154 360.82C355.981 360.78 355.787 360.747 355.574 360.72C355.374 360.693 355.181 360.68 354.994 360.68C354.581 360.68 354.187 360.767 353.814 360.94C353.441 361.113 353.107 361.36 352.814 361.68C352.521 361.987 352.287 362.36 352.114 362.8C351.954 363.24 351.874 363.733 351.874 364.28V370H350.114V359.28H351.554L351.754 361.24H351.834C352.061 360.84 352.334 360.48 352.654 360.16C352.974 359.827 353.341 359.567 353.754 359.38C354.167 359.18 354.621 359.08 355.114 359.08ZM369.305 364.62C369.305 365.513 369.185 366.307 368.945 367C368.718 367.68 368.385 368.26 367.945 368.74C367.518 369.22 366.992 369.587 366.365 369.84C365.752 370.08 365.065 370.2 364.305 370.2C363.598 370.2 362.945 370.08 362.345 369.84C361.745 369.587 361.225 369.22 360.785 368.74C360.345 368.26 359.998 367.68 359.745 367C359.505 366.307 359.385 365.513 359.385 364.62C359.385 363.433 359.585 362.433 359.985 361.62C360.385 360.793 360.958 360.167 361.705 359.74C362.452 359.3 363.338 359.08 364.365 359.08C365.338 359.08 366.192 359.3 366.925 359.74C367.672 360.167 368.252 360.793 368.665 361.62C369.092 362.433 369.305 363.433 369.305 364.62ZM361.205 364.62C361.205 365.46 361.312 366.193 361.525 366.82C361.752 367.433 362.098 367.907 362.565 368.24C363.032 368.573 363.625 368.74 364.345 368.74C365.065 368.74 365.658 368.573 366.125 368.24C366.592 367.907 366.932 367.433 367.145 366.82C367.372 366.193 367.485 365.46 367.485 364.62C367.485 363.767 367.372 363.04 367.145 362.44C366.918 361.84 366.572 361.38 366.105 361.06C365.652 360.727 365.058 360.56 364.325 360.56C363.232 360.56 362.438 360.92 361.945 361.64C361.452 362.36 361.205 363.353 361.205 364.62ZM372.835 374.8C372.501 374.8 372.208 374.773 371.955 374.72C371.701 374.68 371.481 374.627 371.295 374.56V373.14C371.495 373.193 371.701 373.24 371.915 373.28C372.128 373.32 372.361 373.34 372.615 373.34C373.041 373.34 373.395 373.22 373.675 372.98C373.955 372.753 374.095 372.313 374.095 371.66V359.28H375.855V371.6C375.855 372.267 375.748 372.84 375.535 373.32C375.321 373.8 374.995 374.167 374.555 374.42C374.115 374.673 373.541 374.8 372.835 374.8ZM373.955 356.38C373.955 355.993 374.055 355.713 374.255 355.54C374.455 355.353 374.701 355.26 374.995 355.26C375.261 355.26 375.495 355.353 375.695 355.54C375.908 355.713 376.015 355.993 376.015 356.38C376.015 356.753 375.908 357.033 375.695 357.22C375.495 357.407 375.261 357.5 374.995 357.5C374.701 357.5 374.455 357.407 374.255 357.22C374.055 357.033 373.955 356.753 373.955 356.38ZM385.391 359.08C386.311 359.08 387.097 359.28 387.751 359.68C388.417 360.08 388.924 360.647 389.271 361.38C389.631 362.1 389.811 362.947 389.811 363.92V364.98H382.471C382.497 366.193 382.804 367.12 383.391 367.76C383.991 368.387 384.824 368.7 385.891 368.7C386.571 368.7 387.171 368.64 387.691 368.52C388.224 368.387 388.771 368.2 389.331 367.96V369.5C388.784 369.74 388.244 369.913 387.711 370.02C387.177 370.14 386.544 370.2 385.811 370.2C384.797 370.2 383.897 369.993 383.111 369.58C382.337 369.167 381.731 368.553 381.291 367.74C380.864 366.913 380.651 365.907 380.651 364.72C380.651 363.547 380.844 362.54 381.231 361.7C381.631 360.86 382.184 360.213 382.891 359.76C383.611 359.307 384.444 359.08 385.391 359.08ZM385.371 360.52C384.531 360.52 383.864 360.793 383.371 361.34C382.891 361.873 382.604 362.62 382.511 363.58H387.971C387.971 362.967 387.877 362.433 387.691 361.98C387.504 361.527 387.217 361.173 386.831 360.92C386.457 360.653 385.971 360.52 385.371 360.52ZM398.84 370.2C397.893 370.2 397.047 370.007 396.3 369.62C395.567 369.233 394.987 368.633 394.56 367.82C394.147 367.007 393.94 365.967 393.94 364.7C393.94 363.38 394.16 362.307 394.6 361.48C395.04 360.653 395.633 360.047 396.38 359.66C397.14 359.273 398 359.08 398.96 359.08C399.507 359.08 400.033 359.14 400.54 359.26C401.047 359.367 401.46 359.5 401.78 359.66L401.24 361.12C400.92 361 400.547 360.887 400.12 360.78C399.693 360.673 399.293 360.62 398.92 360.62C398.2 360.62 397.607 360.773 397.14 361.08C396.673 361.387 396.327 361.84 396.1 362.44C395.873 363.04 395.76 363.787 395.76 364.68C395.76 365.533 395.873 366.26 396.1 366.86C396.327 367.46 396.667 367.913 397.12 368.22C397.573 368.527 398.14 368.68 398.82 368.68C399.407 368.68 399.92 368.62 400.36 368.5C400.813 368.38 401.227 368.233 401.6 368.06V369.62C401.24 369.807 400.84 369.947 400.4 370.04C399.973 370.147 399.453 370.2 398.84 370.2ZM409.729 368.76C409.996 368.76 410.269 368.74 410.549 368.7C410.829 368.647 411.056 368.593 411.229 368.54V369.88C411.043 369.973 410.776 370.047 410.429 370.1C410.083 370.167 409.749 370.2 409.429 370.2C408.869 370.2 408.349 370.107 407.869 369.92C407.403 369.72 407.023 369.38 406.729 368.9C406.436 368.42 406.289 367.747 406.289 366.88V360.64H404.769V359.8L406.309 359.1L407.009 356.82H408.049V359.28H411.149V360.64H408.049V366.84C408.049 367.493 408.203 367.98 408.509 368.3C408.829 368.607 409.236 368.76 409.729 368.76ZM422.356 367.04C422.356 367.733 422.182 368.313 421.836 368.78C421.489 369.247 420.996 369.6 420.356 369.84C419.716 370.08 418.956 370.2 418.076 370.2C417.329 370.2 416.682 370.14 416.136 370.02C415.602 369.9 415.129 369.733 414.716 369.52V367.92C415.142 368.133 415.656 368.333 416.256 368.52C416.869 368.693 417.489 368.78 418.116 368.78C419.009 368.78 419.656 368.64 420.056 368.36C420.456 368.067 420.656 367.68 420.656 367.2C420.656 366.933 420.582 366.693 420.436 366.48C420.289 366.267 420.022 366.053 419.636 365.84C419.262 365.627 418.722 365.387 418.016 365.12C417.322 364.853 416.729 364.587 416.236 364.32C415.742 364.053 415.362 363.733 415.096 363.36C414.829 362.987 414.696 362.507 414.696 361.92C414.696 361.013 415.062 360.313 415.796 359.82C416.542 359.327 417.516 359.08 418.716 359.08C419.369 359.08 419.976 359.147 420.536 359.28C421.109 359.4 421.642 359.573 422.136 359.8L421.536 361.2C421.242 361.067 420.929 360.953 420.596 360.86C420.276 360.753 419.949 360.673 419.616 360.62C419.282 360.553 418.942 360.52 418.596 360.52C417.876 360.52 417.322 360.64 416.936 360.88C416.562 361.107 416.376 361.42 416.376 361.82C416.376 362.113 416.462 362.367 416.636 362.58C416.809 362.78 417.096 362.98 417.496 363.18C417.909 363.367 418.456 363.593 419.136 363.86C419.816 364.113 420.396 364.373 420.876 364.64C421.356 364.907 421.722 365.233 421.976 365.62C422.229 365.993 422.356 366.467 422.356 367.04ZM43.46 399.08C44.6733 399.08 45.58 399.393 46.18 400.02C46.78 400.633 47.08 401.633 47.08 403.02V410H45.34V403.1C45.34 402.26 45.16 401.627 44.8 401.2C44.4533 400.773 43.9067 400.56 43.16 400.56C42.12 400.56 41.3733 400.86 40.92 401.46C40.48 402.06 40.26 402.933 40.26 404.08V410H38.52V403.1C38.52 402.54 38.44 402.073 38.28 401.7C38.12 401.313 37.88 401.027 37.56 400.84C37.24 400.653 36.8267 400.56 36.32 400.56C35.6 400.56 35.0333 400.713 34.62 401.02C34.2067 401.313 33.9067 401.747 33.72 402.32C33.5467 402.893 33.46 403.6 33.46 404.44V410H31.7V399.28H33.12L33.38 400.74H33.48C33.7067 400.367 33.98 400.06 34.3 399.82C34.6333 399.567 35 399.38 35.4 399.26C35.8 399.14 36.2133 399.08 36.64 399.08C37.4667 399.08 38.1533 399.227 38.7 399.52C39.26 399.813 39.6667 400.267 39.92 400.88H40.02C40.38 400.267 40.8667 399.813 41.48 399.52C42.1067 399.227 42.7667 399.08 43.46 399.08ZM61.3514 399.28V410H59.9114L59.6514 408.58H59.5714C59.3447 408.953 59.0514 409.26 58.6914 409.5C58.3314 409.74 57.9381 409.913 57.5114 410.02C57.0847 410.14 56.6381 410.2 56.1714 410.2C55.3181 410.2 54.5981 410.067 54.0114 409.8C53.4381 409.52 53.0047 409.093 52.7114 408.52C52.4181 407.947 52.2714 407.207 52.2714 406.3V399.28H54.0514V406.18C54.0514 407.033 54.2447 407.673 54.6314 408.1C55.0181 408.527 55.6181 408.74 56.4314 408.74C57.2314 408.74 57.8581 408.593 58.3114 408.3C58.7781 407.993 59.1047 407.553 59.2914 406.98C59.4914 406.393 59.5914 405.687 59.5914 404.86V399.28H61.3514ZM68.5147 410H66.7547V394.8H68.5147V410ZM77.4909 408.76C77.7576 408.76 78.0309 408.74 78.3109 408.7C78.5909 408.647 78.8176 408.593 78.9909 408.54V409.88C78.8043 409.973 78.5376 410.047 78.1909 410.1C77.8443 410.167 77.5109 410.2 77.1909 410.2C76.6309 410.2 76.1109 410.107 75.6309 409.92C75.1643 409.72 74.7843 409.38 74.4909 408.9C74.1976 408.42 74.0509 407.747 74.0509 406.88V400.64H72.5309V399.8L74.0709 399.1L74.7709 396.82H75.8109V399.28H78.9109V400.64H75.8109V406.84C75.8109 407.493 75.9643 407.98 76.2709 408.3C76.5909 408.607 76.9976 408.76 77.4909 408.76ZM84.8975 399.28V410H83.1375V399.28H84.8975ZM84.0375 395.26C84.3042 395.26 84.5375 395.353 84.7375 395.54C84.9508 395.713 85.0575 395.993 85.0575 396.38C85.0575 396.753 84.9508 397.033 84.7375 397.22C84.5375 397.407 84.3042 397.5 84.0375 397.5C83.7442 397.5 83.4975 397.407 83.2975 397.22C83.0975 397.033 82.9975 396.753 82.9975 396.38C82.9975 395.993 83.0975 395.713 83.2975 395.54C83.4975 395.353 83.7442 395.26 84.0375 395.26ZM94.5938 410.2C93.6471 410.2 92.8004 410.007 92.0538 409.62C91.3204 409.233 90.7404 408.633 90.3138 407.82C89.9004 407.007 89.6938 405.967 89.6938 404.7C89.6938 403.38 89.9138 402.307 90.3538 401.48C90.7938 400.653 91.3871 400.047 92.1338 399.66C92.8938 399.273 93.7538 399.08 94.7138 399.08C95.2604 399.08 95.7871 399.14 96.2938 399.26C96.8004 399.367 97.2138 399.5 97.5338 399.66L96.9938 401.12C96.6738 401 96.3004 400.887 95.8738 400.78C95.4471 400.673 95.0471 400.62 94.6738 400.62C93.9538 400.62 93.3604 400.773 92.8938 401.08C92.4271 401.387 92.0804 401.84 91.8538 402.44C91.6271 403.04 91.5138 403.787 91.5138 404.68C91.5138 405.533 91.6271 406.26 91.8538 406.86C92.0804 407.46 92.4204 407.913 92.8738 408.22C93.3271 408.527 93.8938 408.68 94.5738 408.68C95.1604 408.68 95.6738 408.62 96.1138 408.5C96.5671 408.38 96.9804 408.233 97.3538 408.06V409.62C96.9938 409.807 96.5938 409.947 96.1538 410.04C95.7271 410.147 95.2071 410.2 94.5938 410.2ZM103.663 399.26C103.663 399.513 103.65 399.773 103.623 400.04C103.61 400.307 103.59 400.547 103.563 400.76H103.683C103.91 400.387 104.196 400.08 104.543 399.84C104.89 399.6 105.276 399.42 105.703 399.3C106.13 399.167 106.57 399.1 107.023 399.1C107.89 399.1 108.61 399.24 109.183 399.52C109.77 399.787 110.21 400.207 110.503 400.78C110.796 401.353 110.943 402.1 110.943 403.02V410H109.203V403.14C109.203 402.273 109.01 401.627 108.623 401.2C108.236 400.773 107.63 400.56 106.803 400.56C106.003 400.56 105.376 400.713 104.923 401.02C104.47 401.313 104.143 401.753 103.943 402.34C103.756 402.913 103.663 403.62 103.663 404.46V410H101.903V394.8H103.663V399.26ZM120.326 399.1C121.633 399.1 122.6 399.387 123.226 399.96C123.853 400.533 124.166 401.447 124.166 402.7V410H122.886L122.546 408.48H122.466C122.16 408.867 121.84 409.193 121.506 409.46C121.186 409.713 120.813 409.9 120.386 410.02C119.973 410.14 119.466 410.2 118.866 410.2C118.226 410.2 117.646 410.087 117.126 409.86C116.62 409.633 116.22 409.287 115.926 408.82C115.633 408.34 115.486 407.74 115.486 407.02C115.486 405.953 115.906 405.133 116.746 404.56C117.586 403.973 118.88 403.653 120.626 403.6L122.446 403.54V402.9C122.446 402.007 122.253 401.387 121.866 401.04C121.48 400.693 120.933 400.52 120.226 400.52C119.666 400.52 119.133 400.607 118.626 400.78C118.12 400.94 117.646 401.127 117.206 401.34L116.666 400.02C117.133 399.767 117.686 399.553 118.326 399.38C118.966 399.193 119.633 399.1 120.326 399.1ZM120.846 404.82C119.513 404.873 118.586 405.087 118.066 405.46C117.56 405.833 117.306 406.36 117.306 407.04C117.306 407.64 117.486 408.08 117.846 408.36C118.22 408.64 118.693 408.78 119.266 408.78C120.173 408.78 120.926 408.533 121.526 408.04C122.126 407.533 122.426 406.76 122.426 405.72V404.76L120.846 404.82ZM131.237 399.28V410H129.477V399.28H131.237ZM130.377 395.26C130.644 395.26 130.877 395.353 131.077 395.54C131.291 395.713 131.397 395.993 131.397 396.38C131.397 396.753 131.291 397.033 131.077 397.22C130.877 397.407 130.644 397.5 130.377 397.5C130.084 397.5 129.837 397.407 129.637 397.22C129.437 397.033 129.337 396.753 129.337 396.38C129.337 395.993 129.437 395.713 129.637 395.54C129.837 395.353 130.084 395.26 130.377 395.26ZM141.794 399.08C143.074 399.08 144.04 399.393 144.694 400.02C145.347 400.633 145.674 401.633 145.674 403.02V410H143.934V403.14C143.934 402.273 143.74 401.627 143.354 401.2C142.967 400.773 142.36 400.56 141.534 400.56C140.347 400.56 139.527 400.893 139.074 401.56C138.62 402.227 138.394 403.187 138.394 404.44V410H136.634V399.28H138.054L138.314 400.74H138.414C138.654 400.367 138.947 400.06 139.294 399.82C139.654 399.567 140.047 399.38 140.474 399.26C140.9 399.14 141.34 399.08 141.794 399.08ZM12.7802 442.7C12.7802 442.1 12.8736 441.62 13.0602 441.26C13.2602 440.887 13.5269 440.62 13.8602 440.46C14.2069 440.3 14.5869 440.22 15.0002 440.22C15.4136 440.22 15.7869 440.3 16.1202 440.46C16.4536 440.62 16.7202 440.887 16.9202 441.26C17.1202 441.62 17.2202 442.1 17.2202 442.7C17.2202 443.287 17.1202 443.767 16.9202 444.14C16.7202 444.5 16.4536 444.767 16.1202 444.94C15.7869 445.1 15.4136 445.18 15.0002 445.18C14.5869 445.18 14.2069 445.1 13.8602 444.94C13.5269 444.767 13.2602 444.5 13.0602 444.14C12.8736 443.767 12.7802 443.287 12.7802 442.7ZM48.34 435.72L44.54 450H42.72L39.94 440.64C39.86 440.36 39.78 440.073 39.7 439.78C39.62 439.487 39.5467 439.207 39.48 438.94C39.4133 438.673 39.3533 438.447 39.3 438.26C39.26 438.06 39.2333 437.913 39.22 437.82C39.2067 437.913 39.18 438.06 39.14 438.26C39.1133 438.447 39.0667 438.673 39 438.94C38.9333 439.207 38.86 439.493 38.78 439.8C38.7133 440.093 38.6333 440.393 38.54 440.7L35.84 450H34.02L30.24 435.72H32.12L34.34 444.44C34.42 444.747 34.4933 445.053 34.56 445.36C34.6267 445.653 34.6867 445.947 34.74 446.24C34.8067 446.52 34.86 446.793 34.9 447.06C34.94 447.327 34.98 447.587 35.02 447.84C35.06 447.573 35.1 447.3 35.14 447.02C35.1933 446.74 35.2533 446.453 35.32 446.16C35.3867 445.853 35.46 445.547 35.54 445.24C35.62 444.933 35.7 444.633 35.78 444.34L38.3 435.72H40.16L42.78 444.4C42.8733 444.707 42.96 445.02 43.04 445.34C43.12 445.647 43.1933 445.947 43.26 446.24C43.3267 446.533 43.38 446.82 43.42 447.1C43.4733 447.367 43.52 447.613 43.56 447.84C43.6 447.507 43.6533 447.16 43.72 446.8C43.7867 446.427 43.8667 446.04 43.96 445.64C44.0533 445.24 44.1533 444.833 44.26 444.42L46.46 435.72H48.34ZM54.0538 439.26C54.0538 439.513 54.0404 439.773 54.0138 440.04C54.0004 440.307 53.9804 440.547 53.9538 440.76H54.0738C54.3004 440.387 54.5871 440.08 54.9338 439.84C55.2804 439.6 55.6671 439.42 56.0938 439.3C56.5204 439.167 56.9604 439.1 57.4138 439.1C58.2804 439.1 59.0004 439.24 59.5738 439.52C60.1604 439.787 60.6004 440.207 60.8938 440.78C61.1871 441.353 61.3338 442.1 61.3338 443.02V450H59.5938V443.14C59.5938 442.273 59.4004 441.627 59.0138 441.2C58.6271 440.773 58.0204 440.56 57.1938 440.56C56.3938 440.56 55.7671 440.713 55.3138 441.02C54.8604 441.313 54.5338 441.753 54.3338 442.34C54.1471 442.913 54.0538 443.62 54.0538 444.46V450H52.2938V434.8H54.0538V439.26ZM68.417 439.28V450H66.657V439.28H68.417ZM67.557 435.26C67.8237 435.26 68.057 435.353 68.257 435.54C68.4704 435.713 68.577 435.993 68.577 436.38C68.577 436.753 68.4704 437.033 68.257 437.22C68.057 437.407 67.8237 437.5 67.557 437.5C67.2637 437.5 67.017 437.407 66.817 437.22C66.617 437.033 66.517 436.753 66.517 436.38C66.517 435.993 66.617 435.713 66.817 435.54C67.017 435.353 67.2637 435.26 67.557 435.26ZM77.3933 448.76C77.6599 448.76 77.9333 448.74 78.2133 448.7C78.4933 448.647 78.7199 448.593 78.8933 448.54V449.88C78.7066 449.973 78.4399 450.047 78.0933 450.1C77.7466 450.167 77.4133 450.2 77.0933 450.2C76.5333 450.2 76.0133 450.107 75.5333 449.92C75.0666 449.72 74.6866 449.38 74.3933 448.9C74.0999 448.42 73.9533 447.747 73.9533 446.88V440.64H72.4333V439.8L73.9733 439.1L74.6733 436.82H75.7133V439.28H78.8133V440.64H75.7133V446.84C75.7133 447.493 75.8666 447.98 76.1733 448.3C76.4933 448.607 76.8999 448.76 77.3933 448.76ZM87.1798 439.08C88.0998 439.08 88.8865 439.28 89.5398 439.68C90.2065 440.08 90.7132 440.647 91.0598 441.38C91.4198 442.1 91.5998 442.947 91.5998 443.92V444.98H84.2598C84.2865 446.193 84.5932 447.12 85.1798 447.76C85.7798 448.387 86.6132 448.7 87.6798 448.7C88.3598 448.7 88.9598 448.64 89.4798 448.52C90.0132 448.387 90.5598 448.2 91.1198 447.96V449.5C90.5732 449.74 90.0332 449.913 89.4998 450.02C88.9665 450.14 88.3332 450.2 87.5998 450.2C86.5865 450.2 85.6865 449.993 84.8998 449.58C84.1265 449.167 83.5198 448.553 83.0798 447.74C82.6532 446.913 82.4398 445.907 82.4398 444.72C82.4398 443.547 82.6332 442.54 83.0198 441.7C83.4198 440.86 83.9732 440.213 84.6798 439.76C85.3998 439.307 86.2332 439.08 87.1798 439.08ZM87.1598 440.52C86.3198 440.52 85.6532 440.793 85.1598 441.34C84.6798 441.873 84.3932 442.62 84.2998 443.58H89.7598C89.7598 442.967 89.6665 442.433 89.4798 441.98C89.2932 441.527 89.0065 441.173 88.6198 440.92C88.2465 440.653 87.7598 440.52 87.1598 440.52ZM98.0889 450H96.3289V434.8H98.0889V450ZM107.545 439.1C108.852 439.1 109.818 439.387 110.445 439.96C111.072 440.533 111.385 441.447 111.385 442.7V450H110.105L109.765 448.48H109.685C109.378 448.867 109.058 449.193 108.725 449.46C108.405 449.713 108.032 449.9 107.605 450.02C107.192 450.14 106.685 450.2 106.085 450.2C105.445 450.2 104.865 450.087 104.345 449.86C103.838 449.633 103.438 449.287 103.145 448.82C102.852 448.34 102.705 447.74 102.705 447.02C102.705 445.953 103.125 445.133 103.965 444.56C104.805 443.973 106.098 443.653 107.845 443.6L109.665 443.54V442.9C109.665 442.007 109.472 441.387 109.085 441.04C108.698 440.693 108.152 440.52 107.445 440.52C106.885 440.52 106.352 440.607 105.845 440.78C105.338 440.94 104.865 441.127 104.425 441.34L103.885 440.02C104.352 439.767 104.905 439.553 105.545 439.38C106.185 439.193 106.852 439.1 107.545 439.1ZM108.065 444.82C106.732 444.873 105.805 445.087 105.285 445.46C104.778 445.833 104.525 446.36 104.525 447.04C104.525 447.64 104.705 448.08 105.065 448.36C105.438 448.64 105.912 448.78 106.485 448.78C107.392 448.78 108.145 448.533 108.745 448.04C109.345 447.533 109.645 446.76 109.645 445.72V444.76L108.065 444.82ZM118.456 438.5C118.456 438.953 118.443 439.38 118.416 439.78C118.403 440.167 118.383 440.473 118.356 440.7H118.456C118.1100 440.247 119.183 439.867 119.716 439.56C120.249 439.253 120.936 439.1 121.776 439.1C123.109 439.1 124.176 439.567 124.976 440.5C125.789 441.42 126.196 442.8 126.196 444.64C126.196 445.867 126.009 446.893 125.636 447.72C125.276 448.547 124.1100 449.167 124.096 449.58C123.429 449.993 122.656 450.2 121.776 450.2C120.936 450.2 120.249 450.047 119.716 449.74C119.183 449.433 118.1100 449.067 118.456 448.64H118.316L117.956 450H116.696V434.8H118.456V438.5ZM121.476 440.56C120.716 440.56 120.116 440.707 119.676 441C119.236 441.28 118.923 441.72 118.736 442.32C118.549 442.907 118.456 443.66 118.456 444.58V444.66C118.456 445.98 118.669 446.993 119.096 447.7C119.536 448.393 120.343 448.74 121.516 448.74C122.476 448.74 123.189 448.387 123.656 447.68C124.136 446.973 124.376 445.953 124.376 444.62C124.376 443.273 124.136 442.26 123.656 441.58C123.189 440.9 122.463 440.56 121.476 440.56ZM135.141 439.08C136.061 439.08 136.847 439.28 137.501 439.68C138.167 440.08 138.674 440.647 139.021 441.38C139.381 442.1 139.561 442.947 139.561 443.92V444.98H132.221C132.247 446.193 132.554 447.12 133.141 447.76C133.741 448.387 134.574 448.7 135.641 448.7C136.321 448.7 136.921 448.64 137.441 448.52C137.974 448.387 138.521 448.2 139.081 447.96V449.5C138.534 449.74 137.994 449.913 137.461 450.02C136.927 450.14 136.294 450.2 135.561 450.2C134.547 450.2 133.647 449.993 132.861 449.58C132.087 449.167 131.481 448.553 131.041 447.74C130.614 446.913 130.401 445.907 130.401 444.72C130.401 443.547 130.594 442.54 130.981 441.7C131.381 440.86 131.934 440.213 132.641 439.76C133.361 439.307 134.194 439.08 135.141 439.08ZM135.121 440.52C134.281 440.52 133.614 440.793 133.121 441.34C132.641 441.873 132.354 442.62 132.261 443.58H137.721C137.721 442.967 137.627 442.433 137.441 441.98C137.254 441.527 136.967 441.173 136.581 440.92C136.207 440.653 135.721 440.52 135.121 440.52ZM146.05 450H144.29V434.8H146.05V450ZM153.206 450H151.446V434.8H153.206V450ZM160.362 439.28V450H158.602V439.28H160.362ZM159.502 435.26C159.769 435.26 160.002 435.353 160.202 435.54C160.416 435.713 160.522 435.993 160.522 436.38C160.522 436.753 160.416 437.033 160.202 437.22C160.002 437.407 159.769 437.5 159.502 437.5C159.209 437.5 158.962 437.407 158.762 437.22C158.562 437.033 158.462 436.753 158.462 436.38C158.462 435.993 158.562 435.713 158.762 435.54C158.962 435.353 159.209 435.26 159.502 435.26ZM170.919 439.08C172.199 439.08 173.165 439.393 173.819 440.02C174.472 440.633 174.799 441.633 174.799 443.02V450H173.059V443.14C173.059 442.273 172.865 441.627 172.479 441.2C172.092 440.773 171.485 440.56 170.659 440.56C169.472 440.56 168.652 440.893 168.199 441.56C167.745 442.227 167.519 443.187 167.519 444.44V450H165.759V439.28H167.179L167.439 440.74H167.539C167.779 440.367 168.072 440.06 168.419 439.82C168.779 439.567 169.172 439.38 169.599 439.26C170.025 439.14 170.465 439.08 170.919 439.08ZM183.922 439.08C184.629 439.08 185.262 439.213 185.822 439.48C186.395 439.747 186.882 440.153 187.282 440.7H187.382L187.622 439.28H189.022V450.18C189.022 451.193 188.849 452.04 188.502 452.72C188.155 453.413 187.629 453.933 186.922 454.28C186.215 454.627 185.315 454.8 184.222 454.8C183.449 454.8 182.735 454.74 182.082 454.62C181.442 454.513 180.869 454.347 180.362 454.12V452.5C180.709 452.673 181.089 452.82 181.502 452.94C181.915 453.073 182.362 453.173 182.842 453.24C183.322 453.307 183.815 453.34 184.322 453.34C185.242 453.34 185.962 453.067 186.482 452.52C187.015 451.987 187.282 451.253 187.282 450.32V449.9C187.282 449.74 187.289 449.513 187.302 449.22C187.315 448.913 187.329 448.7 187.342 448.58H187.262C186.889 449.127 186.422 449.533 185.862 449.8C185.315 450.067 184.675 450.2 183.942 450.2C182.555 450.2 181.469 449.713 180.682 448.74C179.909 447.767 179.522 446.407 179.522 444.66C179.522 443.513 179.695 442.527 180.042 441.7C180.402 440.86 180.909 440.213 181.562 439.76C182.215 439.307 183.002 439.08 183.922 439.08ZM184.162 440.56C183.562 440.56 183.049 440.72 182.622 441.04C182.209 441.36 181.889 441.827 181.662 442.44C181.449 443.053 181.342 443.8 181.342 444.68C181.342 446 181.582 447.013 182.062 447.72C182.555 448.413 183.269 448.76 184.202 448.76C184.749 448.76 185.215 448.693 185.602 448.56C185.989 448.413 186.309 448.193 186.562 447.9C186.815 447.593 187.002 447.207 187.122 446.74C187.242 446.273 187.302 445.72 187.302 445.08V444.66C187.302 443.687 187.189 442.9 186.962 442.3C186.749 441.7 186.409 441.26 185.942 440.98C185.475 440.7 184.882 440.56 184.162 440.56ZM206.722 439.08C208.042 439.08 209.102 439.54 209.902 440.46C210.715 441.38 211.122 442.767 211.122 444.62C211.122 445.833 210.935 446.86 210.562 447.7C210.202 448.527 209.689 449.153 209.022 449.58C208.369 449.993 207.595 450.2 206.702 450.2C206.155 450.2 205.669 450.127 205.242 449.98C204.815 449.833 204.449 449.647 204.142 449.42C203.849 449.18 203.595 448.92 203.382 448.64H203.262C203.289 448.867 203.315 449.153 203.342 449.5C203.369 449.847 203.382 450.147 203.382 450.4V454.8H201.622V439.28H203.062L203.302 440.74H203.382C203.595 440.433 203.849 440.153 204.142 439.9C204.449 439.647 204.809 439.447 205.222 439.3C205.649 439.153 206.149 439.08 206.722 439.08ZM206.402 440.56C205.682 440.56 205.102 440.7 204.662 440.98C204.222 441.247 203.902 441.653 203.702 442.2C203.502 442.747 203.395 443.44 203.382 444.28V444.62C203.382 445.5 203.475 446.247 203.662 446.86C203.849 447.473 204.162 447.94 204.602 448.26C205.055 448.58 205.669 448.74 206.442 448.74C207.095 448.74 207.629 448.56 208.042 448.2C208.469 447.84 208.782 447.353 208.982 446.74C209.195 446.113 209.302 445.4 209.302 444.6C209.302 443.373 209.062 442.393 208.582 441.66C208.115 440.927 207.389 440.56 206.402 440.56ZM219.987 439.1C221.293 439.1 222.26 439.387 222.887 439.96C223.513 440.533 223.827 441.447 223.827 442.7V450H222.547L222.207 448.48H222.127C221.82 448.867 221.5 449.193 221.167 449.46C220.847 449.713 220.473 449.9 220.047 450.02C219.633 450.14 219.127 450.2 218.527 450.2C217.887 450.2 217.307 450.087 216.787 449.86C216.28 449.633 215.88 449.287 215.587 448.82C215.293 448.34 215.147 447.74 215.147 447.02C215.147 445.953 215.567 445.133 216.407 444.56C217.247 443.973 218.54 443.653 220.287 443.6L222.107 443.54V442.9C222.107 442.007 221.913 441.387 221.527 441.04C221.14 440.693 220.593 440.52 219.887 440.52C219.327 440.52 218.793 440.607 218.287 440.78C217.78 440.94 217.307 441.127 216.867 441.34L216.327 440.02C216.793 439.767 217.347 439.553 217.987 439.38C218.627 439.193 219.293 439.1 219.987 439.1ZM220.507 444.82C219.173 444.873 218.247 445.087 217.727 445.46C217.22 445.833 216.967 446.36 216.967 447.04C216.967 447.64 217.147 448.08 217.507 448.36C217.88 448.64 218.353 448.78 218.927 448.78C219.833 448.78 220.587 448.533 221.187 448.04C221.787 447.533 222.087 446.76 222.087 445.72V444.76L220.507 444.82ZM234.138 439.08C234.338 439.08 234.551 439.093 234.778 439.12C235.018 439.133 235.224 439.16 235.398 439.2L235.178 440.82C235.004 440.78 234.811 440.747 234.598 440.72C234.398 440.693 234.204 440.68 234.018 440.68C233.604 440.68 233.211 440.767 232.838 440.94C232.464 441.113 232.131 441.36 231.838 441.68C231.544 441.987 231.311 442.36 231.138 442.8C230.978 443.24 230.898 443.733 230.898 444.28V450H229.138V439.28H230.578L230.778 441.24H230.858C231.084 440.84 231.358 440.48 231.678 440.16C231.998 439.827 232.364 439.567 232.778 439.38C233.191 439.18 233.644 439.08 234.138 439.08ZM242.979 448.76C243.246 448.76 243.519 448.74 243.799 448.7C244.079 448.647 244.306 448.593 244.479 448.54V449.88C244.293 449.973 244.026 450.047 243.679 450.1C243.333 450.167 242.999 450.2 242.679 450.2C242.119 450.2 241.599 450.107 241.119 449.92C240.653 449.72 240.273 449.38 239.979 448.9C239.686 448.42 239.539 447.747 239.539 446.88V440.64H238.019V439.8L239.559 439.1L240.259 436.82H241.299V439.28H244.399V440.64H241.299V446.84C241.299 447.493 241.453 447.98 241.759 448.3C242.079 448.607 242.486 448.76 242.979 448.76ZM253.786 439.08C255.066 439.08 256.032 439.393 256.686 440.02C257.339 440.633 257.666 441.633 257.666 443.02V450H255.926V443.14C255.926 442.273 255.732 441.627 255.346 441.2C254.959 440.773 254.352 440.56 253.526 440.56C252.339 440.56 251.519 440.893 251.066 441.56C250.612 442.227 250.386 443.187 250.386 444.44V450H248.626V439.28H250.046L250.306 440.74H250.406C250.646 440.367 250.939 440.06 251.286 439.82C251.646 439.567 252.039 439.38 252.466 439.26C252.892 439.14 253.332 439.08 253.786 439.08ZM267.129 439.08C268.049 439.08 268.836 439.28 269.489 439.68C270.156 440.08 270.662 440.647 271.009 441.38C271.369 442.1 271.549 442.947 271.549 443.92V444.98H264.209C264.236 446.193 264.542 447.12 265.129 447.76C265.729 448.387 266.562 448.7 267.629 448.7C268.309 448.7 268.909 448.64 269.429 448.52C269.962 448.387 270.509 448.2 271.069 447.96V449.5C270.522 449.74 269.982 449.913 269.449 450.02C268.916 450.14 268.282 450.2 267.549 450.2C266.536 450.2 265.636 449.993 264.849 449.58C264.076 449.167 263.469 448.553 263.029 447.74C262.602 446.913 262.389 445.907 262.389 444.72C262.389 443.547 262.582 442.54 262.969 441.7C263.369 440.86 263.922 440.213 264.629 439.76C265.349 439.307 266.182 439.08 267.129 439.08ZM267.109 440.52C266.269 440.52 265.602 440.793 265.109 441.34C264.629 441.873 264.342 442.62 264.249 443.58H269.709C269.709 442.967 269.616 442.433 269.429 441.98C269.242 441.527 268.956 441.173 268.569 440.92C268.196 440.653 267.709 440.52 267.109 440.52ZM281.278 439.08C281.478 439.08 281.691 439.093 281.918 439.12C282.158 439.133 282.365 439.16 282.538 439.2L282.318 440.82C282.145 440.78 281.951 440.747 281.738 440.72C281.538 440.693 281.345 440.68 281.158 440.68C280.745 440.68 280.351 440.767 279.978 440.94C279.605 441.113 279.271 441.36 278.978 441.68C278.685 441.987 278.451 442.36 278.278 442.8C278.118 443.24 278.038 443.733 278.038 444.28V450H276.278V439.28H277.718L277.918 441.24H277.998C278.225 440.84 278.498 440.48 278.818 440.16C279.138 439.827 279.505 439.567 279.918 439.38C280.331 439.18 280.785 439.08 281.278 439.08ZM293.52 447.04C293.52 447.733 293.347 448.313 293 448.78C292.653 449.247 292.16 449.6 291.52 449.84C290.88 450.08 290.12 450.2 289.24 450.2C288.493 450.2 287.847 450.14 287.3 450.02C286.767 449.9 286.293 449.733 285.88 449.52V447.92C286.307 448.133 286.82 448.333 287.42 448.52C288.033 448.693 288.653 448.78 289.28 448.78C290.173 448.78 290.82 448.64 291.22 448.36C291.62 448.067 291.82 447.68 291.82 447.2C291.82 446.933 291.747 446.693 291.6 446.48C291.453 446.267 291.187 446.053 290.8 445.84C290.427 445.627 289.887 445.387 289.18 445.12C288.487 444.853 287.893 444.587 287.4 444.32C286.907 444.053 286.527 443.733 286.26 443.36C285.993 442.987 285.86 442.507 285.86 441.92C285.86 441.013 286.227 440.313 286.96 439.82C287.707 439.327 288.68 439.08 289.88 439.08C290.533 439.08 291.14 439.147 291.7 439.28C292.273 439.4 292.807 439.573 293.3 439.8L292.7 441.2C292.407 441.067 292.093 440.953 291.76 440.86C291.44 440.753 291.113 440.673 290.78 440.62C290.447 440.553 290.107 440.52 289.76 440.52C289.04 440.52 288.487 440.64 288.1 440.88C287.727 441.107 287.54 441.42 287.54 441.82C287.54 442.113 287.627 442.367 287.8 442.58C287.973 442.78 288.26 442.98 288.66 443.18C289.073 443.367 289.62 443.593 290.3 443.86C290.98 444.113 291.56 444.373 292.04 444.64C292.52 444.907 292.887 445.233 293.14 445.62C293.393 445.993 293.52 446.467 293.52 447.04ZM299.87 439.26C299.87 439.513 299.857 439.773 299.83 440.04C299.817 440.307 299.797 440.547 299.77 440.76H299.89C300.117 440.387 300.403 440.08 300.75 439.84C301.097 439.6 301.483 439.42 301.91 439.3C302.337 439.167 302.777 439.1 303.23 439.1C304.097 439.1 304.817 439.24 305.39 439.52C305.977 439.787 306.417 440.207 306.71 440.78C307.003 441.353 307.15 442.1 307.15 443.02V450H305.41V443.14C305.41 442.273 305.217 441.627 304.83 441.2C304.443 440.773 303.837 440.56 303.01 440.56C302.21 440.56 301.583 440.713 301.13 441.02C300.677 441.313 300.35 441.753 300.15 442.34C299.963 442.913 299.87 443.62 299.87 444.46V450H298.11V434.8H299.87V439.26ZM314.233 439.28V450H312.473V439.28H314.233ZM313.373 435.26C313.64 435.26 313.873 435.353 314.073 435.54C314.287 435.713 314.393 435.993 314.393 436.38C314.393 436.753 314.287 437.033 314.073 437.22C313.873 437.407 313.64 437.5 313.373 437.5C313.08 437.5 312.833 437.407 312.633 437.22C312.433 437.033 312.333 436.753 312.333 436.38C312.333 435.993 312.433 435.713 312.633 435.54C312.833 435.353 313.08 435.26 313.373 435.26ZM324.73 439.08C326.05 439.08 327.11 439.54 327.91 440.46C328.723 441.38 329.13 442.767 329.13 444.62C329.13 445.833 328.943 446.86 328.57 447.7C328.21 448.527 327.696 449.153 327.03 449.58C326.376 449.993 325.603 450.2 324.71 450.2C324.163 450.2 323.676 450.127 323.25 449.98C322.823 449.833 322.456 449.647 322.15 449.42C321.856 449.18 321.603 448.92 321.39 448.64H321.27C321.296 448.867 321.323 449.153 321.35 449.5C321.376 449.847 321.39 450.147 321.39 450.4V454.8H319.63V439.28H321.07L321.31 440.74H321.39C321.603 440.433 321.856 440.153 322.15 439.9C322.456 439.647 322.816 439.447 323.23 439.3C323.656 439.153 324.156 439.08 324.73 439.08ZM324.41 440.56C323.69 440.56 323.11 440.7 322.67 440.98C322.23 441.247 321.91 441.653 321.71 442.2C321.51 442.747 321.403 443.44 321.39 444.28V444.62C321.39 445.5 321.483 446.247 321.67 446.86C321.856 447.473 322.17 447.94 322.61 448.26C323.063 448.58 323.676 448.74 324.45 448.74C325.103 448.74 325.636 448.56 326.05 448.2C326.476 447.84 326.79 447.353 326.99 446.74C327.203 446.113 327.31 445.4 327.31 444.6C327.31 443.373 327.07 442.393 326.59 441.66C326.123 440.927 325.396 440.56 324.41 440.56ZM340.914 447.04C340.914 447.733 340.741 448.313 340.394 448.78C340.048 449.247 339.554 449.6 338.914 449.84C338.274 450.08 337.514 450.2 336.634 450.2C335.888 450.2 335.241 450.14 334.694 450.02C334.161 449.9 333.688 449.733 333.274 449.52V447.92C333.701 448.133 334.214 448.333 334.814 448.52C335.428 448.693 336.048 448.78 336.674 448.78C337.568 448.78 338.214 448.64 338.614 448.36C339.014 448.067 339.214 447.68 339.214 447.2C339.214 446.933 339.141 446.693 338.994 446.48C338.848 446.267 338.581 446.053 338.194 445.84C337.821 445.627 337.281 445.387 336.574 445.12C335.881 444.853 335.288 444.587 334.794 444.32C334.301 444.053 333.921 443.733 333.654 443.36C333.388 442.987 333.254 442.507 333.254 441.92C333.254 441.013 333.621 440.313 334.354 439.82C335.101 439.327 336.074 439.08 337.274 439.08C337.928 439.08 338.534 439.147 339.094 439.28C339.668 439.4 340.201 439.573 340.694 439.8L340.094 441.2C339.801 441.067 339.488 440.953 339.154 440.86C338.834 440.753 338.508 440.673 338.174 440.62C337.841 440.553 337.501 440.52 337.154 440.52C336.434 440.52 335.881 440.64 335.494 440.88C335.121 441.107 334.934 441.42 334.934 441.82C334.934 442.113 335.021 442.367 335.194 442.58C335.368 442.78 335.654 442.98 336.054 443.18C336.468 443.367 337.014 443.593 337.694 443.86C338.374 444.113 338.954 444.373 339.434 444.64C339.914 444.907 340.281 445.233 340.534 445.62C340.788 445.993 340.914 446.467 340.914 447.04ZM359.62 443.94C359.54 443.66 359.46 443.387 359.38 443.12C359.3 442.84 359.227 442.58 359.16 442.34C359.107 442.087 359.053 441.853 359 441.64C358.947 441.427 358.907 441.247 358.88 441.1H358.8C358.773 441.247 358.733 441.427 358.68 441.64C358.64 441.853 358.587 442.087 358.52 442.34C358.467 442.593 358.4 442.86 358.32 443.14C358.253 443.407 358.173 443.68 358.08 443.96L356.16 449.98H354.16L351.22 439.26H353.04L354.52 444.98C354.627 445.367 354.727 445.76 354.82 446.16C354.913 446.547 354.993 446.92 355.06 447.28C355.14 447.627 355.193 447.927 355.22 448.18H355.3C355.34 448.02 355.387 447.82 355.44 447.58C355.493 447.34 355.547 447.087 355.6 446.82C355.667 446.553 355.733 446.287 355.8 446.02C355.88 445.753 355.953 445.513 356.02 445.3L357.92 439.26H359.84L361.68 445.3C361.773 445.607 361.867 445.933 361.96 446.28C362.067 446.627 362.16 446.967 362.24 447.3C362.32 447.62 362.373 447.907 362.4 448.16H362.48C362.507 447.933 362.553 447.653 362.62 447.32C362.7 446.973 362.787 446.6 362.88 446.2C362.987 445.787 363.093 445.38 363.2 444.98L364.7 439.26H366.5L363.52 449.98H361.46L359.62 443.94ZM372.183 439.28V450H370.423V439.28H372.183ZM371.323 435.26C371.589 435.26 371.823 435.353 372.023 435.54C372.236 435.713 372.343 435.993 372.343 436.38C372.343 436.753 372.236 437.033 372.023 437.22C371.823 437.407 371.589 437.5 371.323 437.5C371.029 437.5 370.783 437.407 370.583 437.22C370.383 437.033 370.283 436.753 370.283 436.38C370.283 435.993 370.383 435.713 370.583 435.54C370.783 435.353 371.029 435.26 371.323 435.26ZM381.159 448.76C381.426 448.76 381.699 448.74 381.979 448.7C382.259 448.647 382.486 448.593 382.659 448.54V449.88C382.472 449.973 382.206 450.047 381.859 450.1C381.512 450.167 381.179 450.2 380.859 450.2C380.299 450.2 379.779 450.107 379.299 449.92C378.832 449.72 378.452 449.38 378.159 448.9C377.866 448.42 377.719 447.747 377.719 446.88V440.64H376.199V439.8L377.739 439.1L378.439 436.82H379.479V439.28H382.579V440.64H379.479V446.84C379.479 447.493 379.632 447.98 379.939 448.3C380.259 448.607 380.666 448.76 381.159 448.76ZM388.565 439.26C388.565 439.513 388.552 439.773 388.525 440.04C388.512 440.307 388.492 440.547 388.465 440.76H388.585C388.812 440.387 389.099 440.08 389.445 439.84C389.792 439.6 390.179 439.42 390.605 439.3C391.032 439.167 391.472 439.1 391.925 439.1C392.792 439.1 393.512 439.24 394.085 439.52C394.672 439.787 395.112 440.207 395.405 440.78C395.699 441.353 395.845 442.1 395.845 443.02V450H394.105V443.14C394.105 442.273 393.912 441.627 393.525 441.2C393.139 440.773 392.532 440.56 391.705 440.56C390.905 440.56 390.279 440.713 389.825 441.02C389.372 441.313 389.045 441.753 388.845 442.34C388.659 442.913 388.565 443.62 388.565 444.46V450H386.805V434.8H388.565V439.26ZM417.684 444.62C417.684 445.513 417.564 446.307 417.324 447C417.097 447.68 416.764 448.26 416.324 448.74C415.897 449.22 415.371 449.587 414.744 449.84C414.131 450.08 413.444 450.2 412.684 450.2C411.977 450.2 411.324 450.08 410.724 449.84C410.124 449.587 409.604 449.22 409.164 448.74C408.724 448.26 408.377 447.68 408.124 447C407.884 446.307 407.764 445.513 407.764 444.62C407.764 443.433 407.964 442.433 408.364 441.62C408.764 440.793 409.337 440.167 410.084 439.74C410.831 439.3 411.717 439.08 412.744 439.08C413.717 439.08 414.571 439.3 415.304 439.74C416.051 440.167 416.631 440.793 417.044 441.62C417.471 442.433 417.684 443.433 417.684 444.62ZM409.584 444.62C409.584 445.46 409.691 446.193 409.904 446.82C410.131 447.433 410.477 447.907 410.944 448.24C411.411 448.573 412.004 448.74 412.724 448.74C413.444 448.74 414.037 448.573 414.504 448.24C414.971 447.907 415.311 447.433 415.524 446.82C415.751 446.193 415.864 445.46 415.864 444.62C415.864 443.767 415.751 443.04 415.524 442.44C415.297 441.84 414.951 441.38 414.484 441.06C414.031 440.727 413.437 440.56 412.704 440.56C411.611 440.56 410.817 440.92 410.324 441.64C409.831 442.36 409.584 443.353 409.584 444.62ZM426.053 448.76C426.32 448.76 426.593 448.74 426.873 448.7C427.153 448.647 427.38 448.593 427.553 448.54V449.88C427.367 449.973 427.1 450.047 426.753 450.1C426.407 450.167 426.073 450.2 425.753 450.2C425.193 450.2 424.673 450.107 424.193 449.92C423.727 449.72 423.347 449.38 423.053 448.9C422.76 448.42 422.613 447.747 422.613 446.88V440.64H421.093V439.8L422.633 439.1L423.333 436.82H424.373V439.28H427.473V440.64H424.373V446.84C424.373 447.493 424.527 447.98 424.833 448.3C425.153 448.607 425.56 448.76 426.053 448.76ZM433.46 439.26C433.46 439.513 433.447 439.773 433.42 440.04C433.407 440.307 433.387 440.547 433.36 440.76H433.48C433.707 440.387 433.993 440.08 434.34 439.84C434.687 439.6 435.073 439.42 435.5 439.3C435.927 439.167 436.367 439.1 436.82 439.1C437.687 439.1 438.407 439.24 438.98 439.52C439.567 439.787 440.007 440.207 440.3 440.78C440.593 441.353 440.74 442.1 440.74 443.02V450H439V443.14C439 442.273 438.807 441.627 438.42 441.2C438.033 440.773 437.427 440.56 436.6 440.56C435.8 440.56 435.173 440.713 434.72 441.02C434.267 441.313 433.94 441.753 433.74 442.34C433.553 442.913 433.46 443.62 433.46 444.46V450H431.7V434.8H433.46V439.26ZM450.203 439.08C451.123 439.08 451.91 439.28 452.563 439.68C453.23 440.08 453.737 440.647 454.083 441.38C454.443 442.1 454.623 442.947 454.623 443.92V444.98H447.283C447.31 446.193 447.617 447.12 448.203 447.76C448.803 448.387 449.637 448.7 450.703 448.7C451.383 448.7 451.983 448.64 452.503 448.52C453.037 448.387 453.583 448.2 454.143 447.96V449.5C453.597 449.74 453.057 449.913 452.523 450.02C451.99 450.14 451.357 450.2 450.623 450.2C449.61 450.2 448.71 449.993 447.923 449.58C447.15 449.167 446.543 448.553 446.103 447.74C445.677 446.913 445.463 445.907 445.463 444.72C445.463 443.547 445.657 442.54 446.043 441.7C446.443 440.86 446.997 440.213 447.703 439.76C448.423 439.307 449.257 439.08 450.203 439.08ZM450.183 440.52C449.343 440.52 448.677 440.793 448.183 441.34C447.703 441.873 447.417 442.62 447.323 443.58H452.783C452.783 442.967 452.69 442.433 452.503 441.98C452.317 441.527 452.03 441.173 451.643 440.92C451.27 440.653 450.783 440.52 450.183 440.52ZM464.352 439.08C464.552 439.08 464.766 439.093 464.992 439.12C465.232 439.133 465.439 439.16 465.612 439.2L465.392 440.82C465.219 440.78 465.026 440.747 464.812 440.72C464.612 440.693 464.419 440.68 464.232 440.68C463.819 440.68 463.426 440.767 463.052 440.94C462.679 441.113 462.346 441.36 462.052 441.68C461.759 441.987 461.526 442.36 461.352 442.8C461.192 443.24 461.112 443.733 461.112 444.28V450H459.352V439.28H460.792L460.992 441.24H461.072C461.299 440.84 461.572 440.48 461.892 440.16C462.212 439.827 462.579 439.567 462.992 439.38C463.406 439.18 463.859 439.08 464.352 439.08ZM36.8 479.08C38.12 479.08 39.18 479.54 39.98 480.46C40.7933 481.38 41.2 482.767 41.2 484.62C41.2 485.833 41.0133 486.86 40.64 487.7C40.28 488.527 39.7667 489.153 39.1 489.58C38.4467 489.993 37.6733 490.2 36.78 490.2C36.2333 490.2 35.7467 490.127 35.32 489.98C34.8933 489.833 34.5267 489.647 34.22 489.42C33.9267 489.18 33.6733 488.92 33.46 488.64H33.34C33.3667 488.867 33.3933 489.153 33.42 489.5C33.4467 489.847 33.46 490.147 33.46 490.4V494.8H31.7V479.28H33.14L33.38 480.74H33.46C33.6733 480.433 33.9267 480.153 34.22 479.9C34.5267 479.647 34.8867 479.447 35.3 479.3C35.7267 479.153 36.2267 479.08 36.8 479.08ZM36.48 480.56C35.76 480.56 35.18 480.7 34.74 480.98C34.3 481.247 33.98 481.653 33.78 482.2C33.58 482.747 33.4733 483.44 33.46 484.28V484.62C33.46 485.5 33.5533 486.247 33.74 486.86C33.9267 487.473 34.24 487.94 34.68 488.26C35.1333 488.58 35.7467 488.74 36.52 488.74C37.1733 488.74 37.7067 488.56 38.12 488.2C38.5467 487.84 38.86 487.353 39.06 486.74C39.2733 486.113 39.38 485.4 39.38 484.6C39.38 483.373 39.14 482.393 38.66 481.66C38.1933 480.927 37.4667 480.56 36.48 480.56ZM51.0047 479.08C51.2047 479.08 51.418 479.093 51.6447 479.12C51.8847 479.133 52.0914 479.16 52.2647 479.2L52.0447 480.82C51.8714 480.78 51.678 480.747 51.4647 480.72C51.2647 480.693 51.0714 480.68 50.8847 480.68C50.4714 480.68 50.078 480.767 49.7047 480.94C49.3314 481.113 48.998 481.36 48.7047 481.68C48.4114 481.987 48.178 482.36 48.0047 482.8C47.8447 483.24 47.7647 483.733 47.7647 484.28V490H46.0047V479.28H47.4447L47.6447 481.24H47.7247C47.9514 480.84 48.2247 480.48 48.5447 480.16C48.8647 479.827 49.2314 479.567 49.6447 479.38C50.058 479.18 50.5114 479.08 51.0047 479.08ZM65.1958 484.62C65.1958 485.513 65.0758 486.307 64.8358 487C64.6091 487.68 64.2758 488.26 63.8358 488.74C63.4091 489.22 62.8824 489.587 62.2558 489.84C61.6424 490.08 60.9558 490.2 60.1958 490.2C59.4891 490.2 58.8358 490.08 58.2358 489.84C57.6358 489.587 57.1158 489.22 56.6758 488.74C56.2358 488.26 55.8891 487.68 55.6358 487C55.3958 486.307 55.2758 485.513 55.2758 484.62C55.2758 483.433 55.4758 482.433 55.8758 481.62C56.2758 480.793 56.8491 480.167 57.5958 479.74C58.3424 479.3 59.2291 479.08 60.2558 479.08C61.2291 479.08 62.0824 479.3 62.8158 479.74C63.5624 480.167 64.1424 480.793 64.5558 481.62C64.9824 482.433 65.1958 483.433 65.1958 484.62ZM57.0958 484.62C57.0958 485.46 57.2024 486.193 57.4158 486.82C57.6424 487.433 57.9891 487.907 58.4558 488.24C58.9224 488.573 59.5158 488.74 60.2358 488.74C60.9558 488.74 61.5491 488.573 62.0158 488.24C62.4824 487.907 62.8224 487.433 63.0358 486.82C63.2624 486.193 63.3758 485.46 63.3758 484.62C63.3758 483.767 63.2624 483.04 63.0358 482.44C62.8091 481.84 62.4624 481.38 61.9958 481.06C61.5424 480.727 60.9491 480.56 60.2158 480.56C59.1224 480.56 58.3291 480.92 57.8358 481.64C57.3424 482.36 57.0958 483.353 57.0958 484.62ZM68.7252 494.8C68.3918 494.8 68.0985 494.773 67.8452 494.72C67.5918 494.68 67.3718 494.627 67.1852 494.56V493.14C67.3852 493.193 67.5918 493.24 67.8052 493.28C68.0185 493.32 68.2518 493.34 68.5052 493.34C68.9318 493.34 69.2852 493.22 69.5652 492.98C69.8452 492.753 69.9852 492.313 69.9852 491.66V479.28H71.7452V491.6C71.7452 492.267 71.6385 492.84 71.4252 493.32C71.2118 493.8 70.8852 494.167 70.4452 494.42C70.0052 494.673 69.4318 494.8 68.7252 494.8ZM69.8452 476.38C69.8452 475.993 69.9452 475.713 70.1452 475.54C70.3452 475.353 70.5918 475.26 70.8852 475.26C71.1518 475.26 71.3852 475.353 71.5852 475.54C71.7985 475.713 71.9052 475.993 71.9052 476.38C71.9052 476.753 71.7985 477.033 71.5852 477.22C71.3852 477.407 71.1518 477.5 70.8852 477.5C70.5918 477.5 70.3452 477.407 70.1452 477.22C69.9452 477.033 69.8452 476.753 69.8452 476.38ZM81.2814 479.08C82.2014 479.08 82.9881 479.28 83.6414 479.68C84.3081 480.08 84.8147 480.647 85.1614 481.38C85.5214 482.1 85.7014 482.947 85.7014 483.92V484.98H78.3614C78.3881 486.193 78.6947 487.12 79.2814 487.76C79.8814 488.387 80.7147 488.7 81.7814 488.7C82.4614 488.7 83.0614 488.64 83.5814 488.52C84.1147 488.387 84.6614 488.2 85.2214 487.96V489.5C84.6747 489.74 84.1347 489.913 83.6014 490.02C83.0681 490.14 82.4347 490.2 81.7014 490.2C80.6881 490.2 79.7881 489.993 79.0014 489.58C78.2281 489.167 77.6214 488.553 77.1814 487.74C76.7547 486.913 76.5414 485.907 76.5414 484.72C76.5414 483.547 76.7347 482.54 77.1214 481.7C77.5214 480.86 78.0747 480.213 78.7814 479.76C79.5014 479.307 80.3347 479.08 81.2814 479.08ZM81.2614 480.52C80.4214 480.52 79.7547 480.793 79.2614 481.34C78.7814 481.873 78.4947 482.62 78.4014 483.58H83.8614C83.8614 482.967 83.7681 482.433 83.5814 481.98C83.3947 481.527 83.1081 481.173 82.7214 480.92C82.3481 480.653 81.8614 480.52 81.2614 480.52ZM94.7305 490.2C93.7838 490.2 92.9371 490.007 92.1905 489.62C91.4571 489.233 90.8771 488.633 90.4505 487.82C90.0371 487.007 89.8305 485.967 89.8305 484.7C89.8305 483.38 90.0505 482.307 90.4905 481.48C90.9305 480.653 91.5238 480.047 92.2705 479.66C93.0305 479.273 93.8905 479.08 94.8505 479.08C95.3971 479.08 95.9238 479.14 96.4305 479.26C96.9371 479.367 97.3505 479.5 97.6705 479.66L97.1305 481.12C96.8105 481 96.4371 480.887 96.0105 480.78C95.5838 480.673 95.1838 480.62 94.8105 480.62C94.0905 480.62 93.4971 480.773 93.0305 481.08C92.5638 481.387 92.2171 481.84 91.9905 482.44C91.11008 483.04 91.6505 483.787 91.6505 484.68C91.6505 485.533 91.11008 486.26 91.9905 486.86C92.2171 487.46 92.5571 487.913 93.0105 488.22C93.4638 488.527 94.0305 488.68 94.7105 488.68C95.2971 488.68 95.8105 488.62 96.2505 488.5C96.7038 488.38 97.1171 488.233 97.4905 488.06V489.62C97.1305 489.807 96.7305 489.947 96.2905 490.04C95.8638 490.147 95.3438 490.2 94.7305 490.2ZM105.62 488.76C105.887 488.76 106.16 488.74 106.44 488.7C106.72 488.647 106.947 488.593 107.12 488.54V489.88C106.933 489.973 106.667 490.047 106.32 490.1C105.973 490.167 105.64 490.2 105.32 490.2C104.76 490.2 104.24 490.107 103.76 489.92C103.293 489.72 102.913 489.38 102.62 488.9C102.327 488.42 102.18 487.747 102.18 486.88V480.64H100.66V479.8L102.2 479.1L102.9 476.82H103.94V479.28H107.04V480.64H103.94V486.84C103.94 487.493 104.093 487.98 104.4 488.3C104.72 488.607 105.127 488.76 105.62 488.76ZM118.246 487.04C118.246 487.733 118.073 488.313 117.726 488.78C117.38 489.247 116.886 489.6 116.246 489.84C115.606 490.08 114.846 490.2 113.966 490.2C113.22 490.2 112.573 490.14 112.026 490.02C111.493 489.9 111.02 489.733 110.606 489.52V487.92C111.033 488.133 111.546 488.333 112.146 488.52C112.76 488.693 113.38 488.78 114.006 488.78C114.9 488.78 115.546 488.64 115.946 488.36C116.346 488.067 116.546 487.68 116.546 487.2C116.546 486.933 116.473 486.693 116.326 486.48C116.18 486.267 115.913 486.053 115.526 485.84C115.153 485.627 114.613 485.387 113.906 485.12C113.213 484.853 112.62 484.587 112.126 484.32C111.633 484.053 111.253 483.733 110.986 483.36C110.72 482.987 110.586 482.507 110.586 481.92C110.586 481.013 110.953 480.313 111.686 479.82C112.433 479.327 113.406 479.08 114.606 479.08C115.26 479.08 115.866 479.147 116.426 479.28C117 479.4 117.533 479.573 118.026 479.8L117.426 481.2C117.133 481.067 116.82 480.953 116.486 480.86C116.166 480.753 115.84 480.673 115.506 480.62C115.173 480.553 114.833 480.52 114.486 480.52C113.766 480.52 113.213 480.64 112.826 480.88C112.453 481.107 112.266 481.42 112.266 481.82C112.266 482.113 112.353 482.367 112.526 482.58C112.7 482.78 112.986 482.98 113.386 483.18C113.8 483.367 114.346 483.593 115.026 483.86C115.706 484.113 116.286 484.373 116.766 484.64C117.246 484.907 117.613 485.233 117.866 485.62C118.12 485.993 118.246 486.467 118.246 487.04ZM12.7802 522.7C12.7802 522.1 12.8736 521.62 13.0602 521.26C13.2602 520.887 13.5269 520.62 13.8602 520.46C14.2069 520.3 14.5869 520.22 15.0002 520.22C15.4136 520.22 15.7869 520.3 16.1202 520.46C16.4536 520.62 16.7202 520.887 16.9202 521.26C17.1202 521.62 17.2202 522.1 17.2202 522.7C17.2202 523.287 17.1202 523.767 16.9202 524.14C16.7202 524.5 16.4536 524.767 16.1202 524.94C15.7869 525.1 15.4136 525.18 15.0002 525.18C14.5869 525.18 14.2069 525.1 13.8602 524.94C13.5269 524.767 13.2602 524.5 13.0602 524.14C12.8736 523.767 12.7802 523.287 12.7802 522.7ZM38.24 530L33.54 517.48H33.46C33.4867 517.747 33.5067 518.087 33.52 518.5C33.5467 518.913 33.5667 519.367 33.58 519.86C33.5933 520.34 33.6 520.833 33.6 521.34V530H31.94V515.72H34.6L39 527.42H39.08L43.56 515.72H46.2V530H44.42V521.22C44.42 520.753 44.4267 520.293 44.44 519.84C44.4533 519.373 44.4733 518.94 44.5 518.54C44.5267 518.127 44.5467 517.78 44.56 517.5H44.48L39.72 530H38.24ZM55.9845 519.08C56.9045 519.08 57.6912 519.28 58.3445 519.68C59.0112 520.08 59.5179 520.647 59.8645 521.38C60.2245 522.1 60.4045 522.947 60.4045 523.92V524.98H53.0645C53.0912 526.193 53.3979 527.12 53.9845 527.76C54.5845 528.387 55.4179 528.7 56.4845 528.7C57.1645 528.7 57.7645 528.64 58.2845 528.52C58.8179 528.387 59.3645 528.2 59.9245 527.96V529.5C59.3779 529.74 58.8379 529.913 58.3045 530.02C57.7712 530.14 57.1379 530.2 56.4045 530.2C55.3912 530.2 54.4912 529.993 53.7045 529.58C52.9312 529.167 52.3245 528.553 51.8845 527.74C51.4579 526.913 51.2445 525.907 51.2445 524.72C51.2445 523.547 51.4379 522.54 51.8245 521.7C52.2245 520.86 52.7779 520.213 53.4845 519.76C54.2045 519.307 55.0379 519.08 55.9845 519.08ZM55.9645 520.52C55.1245 520.52 54.4579 520.793 53.9645 521.34C53.4845 521.873 53.1979 522.62 53.1045 523.58H58.5645C58.5645 522.967 58.4712 522.433 58.2845 521.98C58.0979 521.527 57.8112 521.173 57.4245 520.92C57.0512 520.653 56.5645 520.52 55.9645 520.52ZM70.1336 519.08C70.3336 519.08 70.5469 519.093 70.7736 519.12C71.0136 519.133 71.2203 519.16 71.3936 519.2L71.1736 520.82C71.0003 520.78 70.8069 520.747 70.5936 520.72C70.3936 520.693 70.2003 520.68 70.0136 520.68C69.6003 520.68 69.2069 520.767 68.8336 520.94C68.4603 521.113 68.1269 521.36 67.8336 521.68C67.5403 521.987 67.3069 522.36 67.1336 522.8C66.9736 523.24 66.8936 523.733 66.8936 524.28V530H65.1336V519.28H66.5736L66.7736 521.24H66.8536C67.0803 520.84 67.3536 520.48 67.6736 520.16C67.9936 519.827 68.3603 519.567 68.7736 519.38C69.1869 519.18 69.6403 519.08 70.1336 519.08ZM79.3047 530.2C78.358 530.2 77.5114 530.007 76.7647 529.62C76.0314 529.233 75.4514 528.633 75.0247 527.82C74.6114 527.007 74.4047 525.967 74.4047 524.7C74.4047 523.38 74.6247 522.307 75.0647 521.48C75.5047 520.653 76.098 520.047 76.8447 519.66C77.6047 519.273 78.4647 519.08 79.4247 519.08C79.9714 519.08 80.498 519.14 81.0047 519.26C81.5114 519.367 81.9247 519.5 82.2447 519.66L81.7047 521.12C81.3847 521 81.0114 520.887 80.5847 520.78C80.158 520.673 79.758 520.62 79.3847 520.62C78.6647 520.62 78.0714 520.773 77.6047 521.08C77.138 521.387 76.7914 521.84 76.5647 522.44C76.338 523.04 76.2247 523.787 76.2247 524.68C76.2247 525.533 76.338 526.26 76.5647 526.86C76.7914 527.46 77.1314 527.913 77.5847 528.22C78.038 528.527 78.6047 528.68 79.2847 528.68C79.8714 528.68 80.3847 528.62 80.8247 528.5C81.278 528.38 81.6914 528.233 82.0647 528.06V529.62C81.7047 529.807 81.3047 529.947 80.8647 530.04C80.438 530.147 79.918 530.2 79.3047 530.2ZM88.3741 519.26C88.3741 519.513 88.3607 519.773 88.3341 520.04C88.3207 520.307 88.3007 520.547 88.2741 520.76H88.3941C88.6207 520.387 88.9074 520.08 89.2541 519.84C89.6007 519.6 89.9874 519.42 90.4141 519.3C90.8407 519.167 91.2807 519.1 91.7341 519.1C92.6007 519.1 93.3207 519.24 93.8941 519.52C94.4807 519.787 94.9207 520.207 95.2141 520.78C95.5074 521.353 95.6541 522.1 95.6541 523.02V530H93.9141V523.14C93.9141 522.273 93.7207 521.627 93.3341 521.2C92.9474 520.773 92.3407 520.56 91.5141 520.56C90.7141 520.56 90.0874 520.713 89.6341 521.02C89.1807 521.313 88.8541 521.753 88.6541 522.34C88.4674 522.913 88.3741 523.62 88.3741 524.46V530H86.6141V514.8H88.3741V519.26ZM105.037 519.1C106.344 519.1 107.311 519.387 107.937 519.96C108.564 520.533 108.877 521.447 108.877 522.7V530H107.597L107.257 528.48H107.177C106.871 528.867 106.551 529.193 106.217 529.46C105.897 529.713 105.524 529.9 105.097 530.02C104.684 530.14 104.177 530.2 103.577 530.2C102.937 530.2 102.357 530.087 101.837 529.86C101.331 529.633 100.931 529.287 100.637 528.82C100.344 528.34 100.197 527.74 100.197 527.02C100.197 525.953 100.617 525.133 101.457 524.56C102.297 523.973 103.591 523.653 105.337 523.6L107.157 523.54V522.9C107.157 522.007 106.964 521.387 106.577 521.04C106.191 520.693 105.644 520.52 104.937 520.52C104.377 520.52 103.844 520.607 103.337 520.78C102.831 520.94 102.357 521.127 101.917 521.34L101.377 520.02C101.844 519.767 102.397 519.553 103.037 519.38C103.677 519.193 104.344 519.1 105.037 519.1ZM105.557 524.82C104.224 524.873 103.297 525.087 102.777 525.46C102.271 525.833 102.017 526.36 102.017 527.04C102.017 527.64 102.197 528.08 102.557 528.36C102.931 528.64 103.404 528.78 103.977 528.78C104.884 528.78 105.637 528.533 106.237 528.04C106.837 527.533 107.137 526.76 107.137 525.72V524.76L105.557 524.82ZM119.348 519.08C120.628 519.08 121.595 519.393 122.248 520.02C122.902 520.633 123.228 521.633 123.228 523.02V530H121.488V523.14C121.488 522.273 121.295 521.627 120.908 521.2C120.522 520.773 119.915 520.56 119.088 520.56C117.902 520.56 117.082 520.893 116.628 521.56C116.175 522.227 115.948 523.187 115.948 524.44V530H114.188V519.28H115.608L115.868 520.74H115.968C116.208 520.367 116.502 520.06 116.848 519.82C117.208 519.567 117.602 519.38 118.028 519.26C118.455 519.14 118.895 519.08 119.348 519.08ZM132.352 530.2C131.018 530.2 129.952 529.74 129.152 528.82C128.352 527.887 127.952 526.5 127.952 524.66C127.952 522.82 128.352 521.433 129.152 520.5C129.965 519.553 131.038 519.08 132.372 519.08C132.932 519.08 133.418 519.153 133.832 519.3C134.245 519.433 134.605 519.62 134.912 519.86C135.218 520.1 135.478 520.367 135.692 520.66H135.812C135.798 520.487 135.772 520.233 135.732 519.9C135.705 519.553 135.692 519.28 135.692 519.08V514.8H137.452V530H136.032L135.772 528.56H135.692C135.478 528.867 135.218 529.147 134.912 529.4C134.605 529.64 134.238 529.833 133.812 529.98C133.398 530.127 132.912 530.2 132.352 530.2ZM132.632 528.74C133.765 528.74 134.558 528.433 135.012 527.82C135.478 527.193 135.712 526.253 135.712 525V524.68C135.712 523.347 135.492 522.327 135.052 521.62C134.612 520.9 133.798 520.54 132.612 520.54C131.665 520.54 130.952 520.92 130.472 521.68C130.005 522.427 129.772 523.433 129.772 524.7C129.772 525.98 130.005 526.973 130.472 527.68C130.952 528.387 131.672 528.74 132.632 528.74ZM144.616 519.28V530H142.856V519.28H144.616ZM143.756 515.26C144.023 515.26 144.256 515.353 144.456 515.54C144.67 515.713 144.776 515.993 144.776 516.38C144.776 516.753 144.67 517.033 144.456 517.22C144.256 517.407 144.023 517.5 143.756 517.5C143.463 517.5 143.216 517.407 143.016 517.22C142.816 517.033 142.716 516.753 142.716 516.38C142.716 515.993 142.816 515.713 143.016 515.54C143.216 515.353 143.463 515.26 143.756 515.26ZM156.993 527.04C156.993 527.733 156.819 528.313 156.473 528.78C156.126 529.247 155.633 529.6 154.993 529.84C154.353 530.08 153.593 530.2 152.713 530.2C151.966 530.2 151.319 530.14 150.773 530.02C150.239 529.9 149.766 529.733 149.353 529.52V527.92C149.779 528.133 150.293 528.333 150.893 528.52C151.506 528.693 152.126 528.78 152.753 528.78C153.646 528.78 154.293 528.64 154.693 528.36C155.093 528.067 155.293 527.68 155.293 527.2C155.293 526.933 155.219 526.693 155.073 526.48C154.926 526.267 154.659 526.053 154.273 525.84C153.899 525.627 153.359 525.387 152.653 525.12C151.959 524.853 151.366 524.587 150.873 524.32C150.379 524.053 149.999 523.733 149.733 523.36C149.466 522.987 149.333 522.507 149.333 521.92C149.333 521.013 149.699 520.313 150.433 519.82C151.179 519.327 152.153 519.08 153.353 519.08C154.006 519.08 154.613 519.147 155.173 519.28C155.746 519.4 156.279 519.573 156.773 519.8L156.173 521.2C155.879 521.067 155.566 520.953 155.233 520.86C154.913 520.753 154.586 520.673 154.253 520.62C153.919 520.553 153.579 520.52 153.233 520.52C152.513 520.52 151.959 520.64 151.573 520.88C151.199 521.107 151.013 521.42 151.013 521.82C151.013 522.113 151.099 522.367 151.273 522.58C151.446 522.78 151.733 522.98 152.133 523.18C152.546 523.367 153.093 523.593 153.773 523.86C154.453 524.113 155.033 524.373 155.513 524.64C155.993 524.907 156.359 525.233 156.613 525.62C156.866 525.993 156.993 526.467 156.993 527.04ZM165.723 519.08C166.643 519.08 167.429 519.28 168.083 519.68C168.749 520.08 169.256 520.647 169.603 521.38C169.963 522.1 170.143 522.947 170.143 523.92V524.98H162.803C162.829 526.193 163.136 527.12 163.723 527.76C164.323 528.387 165.156 528.7 166.223 528.7C166.903 528.7 167.503 528.64 168.023 528.52C168.556 528.387 169.103 528.2 169.663 527.96V529.5C169.116 529.74 168.576 529.913 168.043 530.02C167.509 530.14 166.876 530.2 166.143 530.2C165.129 530.2 164.229 529.993 163.443 529.58C162.669 529.167 162.063 528.553 161.623 527.74C161.196 526.913 160.983 525.907 160.983 524.72C160.983 523.547 161.176 522.54 161.563 521.7C161.963 520.86 162.516 520.213 163.223 519.76C163.943 519.307 164.776 519.08 165.723 519.08ZM165.703 520.52C164.863 520.52 164.196 520.793 163.703 521.34C163.223 521.873 162.936 522.62 162.843 523.58H168.303C168.303 522.967 168.209 522.433 168.023 521.98C167.836 521.527 167.549 521.173 167.163 520.92C166.789 520.653 166.303 520.52 165.703 520.52Z" fill="white"/>
<g filter="url(#filter0_f_243_6977)">
<circle cx="235" cy="112" r="97.5" stroke="url(#paint0_linear_243_6977)" stroke-width="5"/>
</g>
<circle cx="235" cy="112" r="97.5" stroke="url(#paint1_linear_243_6977)" stroke-width="5"/>
<path d="M203.796 130C202.58 130 201.476 129.68 200.484 129.04C199.492 128.368 198.692 127.504 198.084 126.448C197.476 125.392 197.172 124.272 197.172 123.088V102.208C197.172 100.96 197.476 99.84 198.084 98.848C198.692 97.824 199.492 97.008 200.484 96.4C201.476 95.76 202.58 95.44 203.796 95.44H224.772C225.988 95.44 227.092 95.76 228.084 96.4C229.076 97.008 229.876 97.824 230.484 98.848C231.092 99.84 231.396 100.96 231.396 102.208V123.088C231.396 124.272 231.092 125.392 230.484 126.448C229.876 127.504 229.076 128.368 228.084 129.04C227.092 129.68 225.988 130 224.772 130H203.796ZM206.34 123.376H224.532C224.692 123.376 224.82 123.328 224.916 123.232C225.044 123.104 225.108 122.96 225.108 122.8V107.728L206.34 123.376ZM203.46 117.52L222.228 101.872H204.036C203.876 101.872 203.732 101.936 203.604 102.064C203.508 102.16 203.46 102.288 203.46 102.448V117.52ZM245.123 130C243.875 130 242.755 129.696 241.1100 129.088C240.771 128.48 239.971 127.68 239.363 126.688C238.755 125.696 238.451 124.592 238.451 123.376V121.312H244.739V123.136C244.739 123.296 244.787 123.44 244.883 123.568C245.011 123.664 245.155 123.712 245.315 123.712H265.811C265.971 123.712 266.115 123.664 266.243 123.568C266.371 123.44 266.435 123.296 266.435 123.136V116.224C266.435 116.064 266.371 115.936 266.243 115.84C266.115 115.712 265.971 115.648 265.811 115.648H244.403V109.36H264.467C264.627 109.36 264.755 109.312 264.851 109.216C264.979 109.088 265.043 108.944 265.043 108.784V102.304C265.043 102.144 264.979 102.016 264.851 101.92C264.755 101.792 264.627 101.728 264.467 101.728H245.315C245.155 101.728 245.011 101.792 244.883 101.92C244.787 102.016 244.739 102.144 244.739 102.304V104.56H238.451V102.064C238.451 100.816 238.755 99.696 239.363 98.704C239.971 97.712 240.771 96.928 241.1100 96.352C242.755 95.744 243.875 95.44 245.123 95.44H264.707C265.955 95.44 267.075 95.744 268.067 96.352C269.059 96.928 269.843 97.712 270.419 98.704C271.027 99.696 271.331 100.816 271.331 102.064V109.072C271.331 109.456 271.299 109.856 271.236 110.272C271.171 110.656 271.075 111.024 270.947 111.376C271.523 111.984 271.955 112.704 272.243 113.536C272.563 114.336 272.723 115.152 272.723 115.984V123.376C272.723 124.592 272.419 125.696 271.811 126.688C271.203 127.68 270.403 128.48 269.411 129.088C268.419 129.696 267.315 130 266.099 130H245.123Z" fill="#9164FB"/>
<defs>
<filter id="filter0_f_243_6977" x="123" y="0" width="224" height="224" filterUnits="userSpaceOnUse" color-interpolation-filters="sRGB">
<feFlood flood-opacity="0" result="BackgroundImageFix"/>
<feBlend mode="normal" in="SourceGraphic" in2="BackgroundImageFix" result="shape"/>
<feGaussianBlur stdDeviation="6" result="effect1_foregroundBlur_243_6977"/>
</filter>
<linearGradient id="paint0_linear_243_6977" x1="235" y1="12" x2="235" y2="212" gradientUnits="userSpaceOnUse">
<stop stop-color="#FF77FA"/>
<stop offset="1" stop-color="#7075FF"/>
</linearGradient>
<linearGradient id="paint1_linear_243_6977" x1="235" y1="12" x2="235" y2="212" gradientUnits="userSpaceOnUse">
<stop stop-color="#FF77FA"/>
<stop offset="1" stop-color="#7075FF"/>
</linearGradient>
</defs>
</svg>
