<svg width="470" height="546" viewBox="0 0 470 546" fill="none" xmlns="http://www.w3.org/2000/svg">
<path d="M223.229 285.384C223.229 287.155 223.005 288.765 222.557 290.216C222.13 291.645 221.469 292.883 220.573 293.928C219.698 294.973 218.567 295.773 217.181 296.328C215.815 296.883 214.205 297.16 212.349 297.16C210.493 297.16 208.871 296.883 207.485 296.328C206.119 295.752 204.989 294.952 204.093 293.928C203.218 292.883 202.557 291.635 202.109 290.184C201.682 288.733 201.469 287.123 201.469 285.352C201.469 282.984 201.853 280.925 202.621 279.176C203.41 277.427 204.605 276.072 206.205 275.112C207.826 274.131 209.885 273.64 212.381 273.64C214.855 273.64 216.893 274.131 218.493 275.112C220.093 276.072 221.277 277.437 222.045 279.208C222.834 280.957 223.229 283.016 223.229 285.384ZM206.557 285.384C206.557 286.984 206.759 288.36 207.165 289.512C207.57 290.664 208.199 291.549 209.053 292.168C209.906 292.787 211.005 293.096 212.349 293.096C213.735 293.096 214.845 292.787 215.677 292.168C216.53 291.549 217.149 290.664 217.533 289.512C217.938 288.36 218.141 286.984 218.141 285.384C218.141 282.973 217.693 281.085 216.797 279.72C215.901 278.355 214.429 277.672 212.381 277.672C211.015 277.672 209.906 277.981 209.053 278.6C208.199 279.219 207.57 280.104 207.165 281.256C206.759 282.408 206.557 283.784 206.557 285.384ZM240.857 277.704C239.94 277.704 239.119 277.885 238.393 278.248C237.689 278.611 237.092 279.133 236.601 279.816C236.111 280.477 235.737 281.288 235.481 282.248C235.247 283.208 235.129 284.285 235.129 285.48C235.129 287.101 235.321 288.488 235.705 289.64C236.111 290.771 236.74 291.635 237.593 292.232C238.447 292.829 239.535 293.128 240.857 293.128C241.796 293.128 242.724 293.021 243.641 292.808C244.58 292.595 245.593 292.296 246.681 291.912V295.976C245.679 296.381 244.687 296.68 243.705 296.872C242.724 297.064 241.625 297.16 240.409 297.16C238.063 297.16 236.121 296.68 234.585 295.72C233.071 294.739 231.951 293.373 231.225 291.624C230.5 289.853 230.137 287.795 230.137 285.448C230.137 283.72 230.372 282.141 230.841 280.712C231.311 279.261 231.993 278.013 232.889 276.968C233.807 275.923 234.927 275.112 236.249 274.536C237.593 273.96 239.129 273.672 240.857 273.672C241.988 273.672 243.119 273.821 244.249 274.12C245.401 274.397 246.5 274.781 247.545 275.272L245.977 279.208C245.124 278.803 244.26 278.451 243.385 278.152C242.532 277.853 241.689 277.704 240.857 277.704ZM263.536 296.84H258.704V278.024H252.496V273.992H269.744V278.024H263.536V296.84Z" fill="white"/>
<path d="M12.7802 363.54C12.7802 362.94 12.8736 362.46 13.0602 362.1C13.2602 361.727 13.5269 361.46 13.8602 361.3C14.2069 361.14 14.5869 361.06 15.0002 361.06C15.4136 361.06 15.7869 361.14 16.1202 361.3C16.4536 361.46 16.7202 361.727 16.9202 362.1C17.1202 362.46 17.2202 362.94 17.2202 363.54C17.2202 364.127 17.1202 364.607 16.9202 364.98C16.7202 365.34 16.4536 365.607 16.1202 365.78C15.7869 365.94 15.4136 366.02 15.0002 366.02C14.5869 366.02 14.2069 365.94 13.8602 365.78C13.5269 365.607 13.2602 365.34 13.0602 364.98C12.8736 364.607 12.7802 364.127 12.7802 363.54ZM35.72 356.56C37.5867 356.56 38.9467 356.927 39.8 357.66C40.6533 358.393 41.08 359.427 41.08 360.76C41.08 361.347 40.98 361.913 40.78 362.46C40.5933 362.993 40.28 363.473 39.84 363.9C39.4 364.327 38.8133 364.667 38.08 364.92C37.3467 365.16 36.4467 365.28 35.38 365.28H33.74V370.84H31.94V356.56H35.72ZM35.56 358.1H33.74V363.74H35.18C36.0867 363.74 36.84 363.647 37.44 363.46C38.04 363.26 38.4867 362.947 38.78 362.52C39.0733 362.093 39.22 361.533 39.22 360.84C39.22 359.92 38.9267 359.233 38.34 358.78C37.7533 358.327 36.8267 358.1 35.56 358.1ZM49.8694 359.94C51.176 359.94 52.1427 360.227 52.7694 360.8C53.396 361.373 53.7094 362.287 53.7094 363.54V370.84H52.4294L52.0894 369.32H52.0094C51.7027 369.707 51.3827 370.033 51.0494 370.3C50.7294 370.553 50.356 370.74 49.9294 370.86C49.516 370.98 49.0094 371.04 48.4094 371.04C47.7694 371.04 47.1894 370.927 46.6694 370.7C46.1627 370.473 45.7627 370.127 45.4694 369.66C45.176 369.18 45.0294 368.58 45.0294 367.86C45.0294 366.793 45.4494 365.973 46.2894 365.4C47.1294 364.813 48.4227 364.493 50.1694 364.44L51.9894 364.38V363.74C51.9894 362.847 51.796 362.227 51.4094 361.88C51.0227 361.533 50.476 361.36 49.7694 361.36C49.2094 361.36 48.676 361.447 48.1694 361.62C47.6627 361.78 47.1894 361.967 46.7494 362.18L46.2094 360.86C46.676 360.607 47.2294 360.393 47.8694 360.22C48.5094 360.033 49.176 359.94 49.8694 359.94ZM50.3894 365.66C49.056 365.713 48.1294 365.927 47.6094 366.3C47.1027 366.673 46.8494 367.2 46.8494 367.88C46.8494 368.48 47.0294 368.92 47.3894 369.2C47.7627 369.48 48.236 369.62 48.8094 369.62C49.716 369.62 50.4694 369.373 51.0694 368.88C51.6694 368.373 51.9694 367.6 51.9694 366.56V365.6L50.3894 365.66ZM64.0203 359.92C64.2203 359.92 64.4336 359.933 64.6603 359.96C64.9003 359.973 65.107 360 65.2803 360.04L65.0603 361.66C64.887 361.62 64.6936 361.587 64.4803 361.56C64.2803 361.533 64.087 361.52 63.9003 361.52C63.487 361.52 63.0936 361.607 62.7203 361.78C62.347 361.953 62.0136 362.2 61.7203 362.52C61.427 362.827 61.1936 363.2 61.0203 363.64C60.8603 364.08 60.7803 364.573 60.7803 365.12V370.84H59.0203V360.12H60.4603L60.6603 362.08H60.7403C60.967 361.68 61.2403 361.32 61.5603 361C61.8803 360.667 62.247 360.407 62.6603 360.22C63.0736 360.02 63.527 359.92 64.0203 359.92ZM72.862 369.6C73.1287 369.6 73.402 369.58 73.682 369.54C73.962 369.487 74.1887 369.433 74.362 369.38V370.72C74.1754 370.813 73.9087 370.887 73.562 370.94C73.2154 371.007 72.882 371.04 72.562 371.04C72.002 371.04 71.482 370.947 71.002 370.76C70.5354 370.56 70.1554 370.22 69.862 369.74C69.5687 369.26 69.422 368.587 69.422 367.72V361.48H67.902V360.64L69.442 359.94L70.142 357.66H71.182V360.12H74.282V361.48H71.182V367.68C71.182 368.333 71.3354 368.82 71.642 369.14C71.962 369.447 72.3687 369.6 72.862 369.6ZM83.6686 359.92C84.9486 359.92 85.9153 360.233 86.5686 360.86C87.2219 361.473 87.5486 362.473 87.5486 363.86V370.84H85.8086V363.98C85.8086 363.113 85.6153 362.467 85.2286 362.04C84.8419 361.613 84.2353 361.4 83.4086 361.4C82.2219 361.4 81.4019 361.733 80.9486 362.4C80.4953 363.067 80.2686 364.027 80.2686 365.28V370.84H78.5086V360.12H79.9286L80.1886 361.58H80.2886C80.5286 361.207 80.8219 360.9 81.1686 360.66C81.5286 360.407 81.9219 360.22 82.3486 360.1C82.7753 359.98 83.2153 359.92 83.6686 359.92ZM97.0119 359.92C97.9319 359.92 98.7185 360.12 99.3719 360.52C100.039 360.92 100.545 361.487 100.892 362.22C101.252 362.94 101.432 363.787 101.432 364.76V365.82H94.0919C94.1185 367.033 94.4252 367.96 95.0119 368.6C95.6119 369.227 96.4452 369.54 97.5119 369.54C98.1919 369.54 98.7919 369.48 99.3119 369.36C99.8452 369.227 100.392 369.04 100.952 368.8V370.34C100.405 370.58 99.8652 370.753 99.3319 370.86C98.7985 370.98 98.1652 371.04 97.4319 371.04C96.4185 371.04 95.5185 370.833 94.7319 370.42C93.9585 370.007 93.3519 369.393 92.9119 368.58C92.4852 367.753 92.2719 366.747 92.2719 365.56C92.2719 364.387 92.4652 363.38 92.8519 362.54C93.2519 361.7 93.8052 361.053 94.5119 360.6C95.2319 360.147 96.0652 359.92 97.0119 359.92ZM96.9919 361.36C96.1519 361.36 95.4852 361.633 94.9919 362.18C94.5119 362.713 94.2252 363.46 94.1319 364.42H99.5919C99.5919 363.807 99.4985 363.273 99.3119 362.82C99.1252 362.367 98.8385 362.013 98.4519 361.76C98.0785 361.493 97.5919 361.36 96.9919 361.36ZM111.161 359.92C111.361 359.92 111.574 359.933 111.801 359.96C112.041 359.973 112.248 360 112.421 360.04L112.201 361.66C112.028 361.62 111.834 361.587 111.621 361.56C111.421 361.533 111.228 361.52 111.041 361.52C110.628 361.52 110.234 361.607 109.861 361.78C109.488 361.953 109.154 362.2 108.861 362.52C108.568 362.827 108.334 363.2 108.161 363.64C108.001 364.08 107.921 364.573 107.921 365.12V370.84H106.161V360.12H107.601L107.801 362.08H107.881C108.108 361.68 108.381 361.32 108.701 361C109.021 360.667 109.388 360.407 109.801 360.22C110.214 360.02 110.668 359.92 111.161 359.92ZM130.538 364.78C130.458 364.5 130.378 364.227 130.298 363.96C130.218 363.68 130.145 363.42 130.078 363.18C130.025 362.927 129.971 362.693 129.918 362.48C129.865 362.267 129.825 362.087 129.798 361.94H129.718C129.691 362.087 129.651 362.267 129.598 362.48C129.558 362.693 129.505 362.927 129.438 363.18C129.385 363.433 129.318 363.7 129.238 363.98C129.171 364.247 129.091 364.52 128.998 364.8L127.078 370.82H125.078L122.138 360.1H123.958L125.438 365.82C125.545 366.207 125.645 366.6 125.738 367C125.831 367.387 125.911 367.76 125.978 368.12C126.058 368.467 126.111 368.767 126.138 369.02H126.218C126.258 368.86 126.305 368.66 126.358 368.42C126.411 368.18 126.465 367.927 126.518 367.66C126.585 367.393 126.651 367.127 126.718 366.86C126.798 366.593 126.871 366.353 126.938 366.14L128.838 360.1H130.758L132.598 366.14C132.691 366.447 132.785 366.773 132.878 367.12C132.985 367.467 133.078 367.807 133.158 368.14C133.238 368.46 133.291 368.747 133.318 369H133.398C133.425 368.773 133.471 368.493 133.538 368.16C133.618 367.813 133.705 367.44 133.798 367.04C133.905 366.627 134.011 366.22 134.118 365.82L135.618 360.1H137.418L134.438 370.82H132.378L130.538 364.78ZM143.101 360.12V370.84H141.341V360.12H143.101ZM142.241 356.1C142.507 356.1 142.741 356.193 142.941 356.38C143.154 356.553 143.261 356.833 143.261 357.22C143.261 357.593 143.154 357.873 142.941 358.06C142.741 358.247 142.507 358.34 142.241 358.34C141.947 358.34 141.701 358.247 141.501 358.06C141.301 357.873 141.201 357.593 141.201 357.22C141.201 356.833 141.301 356.553 141.501 356.38C141.701 356.193 141.947 356.1 142.241 356.1ZM152.077 369.6C152.344 369.6 152.617 369.58 152.897 369.54C153.177 369.487 153.404 369.433 153.577 369.38V370.72C153.39 370.813 153.124 370.887 152.777 370.94C152.43 371.007 152.097 371.04 151.777 371.04C151.217 371.04 150.697 370.947 150.217 370.76C149.75 370.56 149.37 370.22 149.077 369.74C148.784 369.26 148.637 368.587 148.637 367.72V361.48H147.117V360.64L148.657 359.94L149.357 357.66H150.397V360.12H153.497V361.48H150.397V367.68C150.397 368.333 150.55 368.82 150.857 369.14C151.177 369.447 151.584 369.6 152.077 369.6ZM159.483 360.1C159.483 360.353 159.47 360.613 159.443 360.88C159.43 361.147 159.41 361.387 159.383 361.6H159.503C159.73 361.227 160.017 360.92 160.363 360.68C160.71 360.44 161.097 360.26 161.523 360.14C161.95 360.007 162.39 359.94 162.843 359.94C163.71 359.94 164.43 360.08 165.003 360.36C165.59 360.627 166.03 361.047 166.323 361.62C166.617 362.193 166.763 362.94 166.763 363.86V370.84H165.023V363.98C165.023 363.113 164.83 362.467 164.443 362.04C164.057 361.613 163.45 361.4 162.623 361.4C161.823 361.4 161.197 361.553 160.743 361.86C160.29 362.153 159.963 362.593 159.763 363.18C159.577 363.753 159.483 364.46 159.483 365.3V370.84H157.723V355.64H159.483V360.1ZM185.822 370.84L181.122 358.32H181.042C181.069 358.587 181.089 358.927 181.102 359.34C181.129 359.753 181.149 360.207 181.162 360.7C181.175 361.18 181.182 361.673 181.182 362.18V370.84H179.522V356.56H182.182L186.582 368.26H186.662L191.142 356.56H193.782V370.84H192.002V362.06C192.002 361.593 192.009 361.133 192.022 360.68C192.035 360.213 192.055 359.78 192.082 359.38C192.109 358.967 192.129 358.62 192.142 358.34H192.062L187.302 370.84H185.822ZM203.487 359.94C204.793 359.94 205.76 360.227 206.387 360.8C207.013 361.373 207.327 362.287 207.327 363.54V370.84H206.047L205.707 369.32H205.627C205.32 369.707 205 370.033 204.667 370.3C204.347 370.553 203.973 370.74 203.547 370.86C203.133 370.98 202.627 371.04 202.027 371.04C201.387 371.04 200.807 370.927 200.287 370.7C199.78 370.473 199.38 370.127 199.087 369.66C198.793 369.18 198.647 368.58 198.647 367.86C198.647 366.793 199.067 365.973 199.907 365.4C200.747 364.813 202.04 364.493 203.787 364.44L205.607 364.38V363.74C205.607 362.847 205.413 362.227 205.027 361.88C204.64 361.533 204.093 361.36 203.387 361.36C202.827 361.36 202.293 361.447 201.787 361.62C201.28 361.78 200.807 361.967 200.367 362.18L199.827 360.86C200.293 360.607 200.847 360.393 201.487 360.22C202.127 360.033 202.793 359.94 203.487 359.94ZM204.007 365.66C202.673 365.713 201.747 365.927 201.227 366.3C200.72 366.673 200.467 367.2 200.467 367.88C200.467 368.48 200.647 368.92 201.007 369.2C201.38 369.48 201.853 369.62 202.427 369.62C203.333 369.62 204.087 369.373 204.687 368.88C205.287 368.373 205.587 367.6 205.587 366.56V365.6L204.007 365.66ZM216.438 359.92C217.144 359.92 217.778 360.053 218.338 360.32C218.911 360.587 219.398 360.993 219.798 361.54H219.898L220.138 360.12H221.538V371.02C221.538 372.033 221.364 372.88 221.018 373.56C220.671 374.253 220.144 374.773 219.438 375.12C218.731 375.467 217.831 375.64 216.738 375.64C215.964 375.64 215.251 375.58 214.598 375.46C213.958 375.353 213.384 375.187 212.878 374.96V373.34C213.224 373.513 213.604 373.66 214.018 373.78C214.431 373.913 214.878 374.013 215.358 374.08C215.838 374.147 216.331 374.18 216.838 374.18C217.758 374.18 218.478 373.907 218.998 373.36C219.531 372.827 219.798 372.093 219.798 371.16V370.74C219.798 370.58 219.804 370.353 219.818 370.06C219.831 369.753 219.844 369.54 219.858 369.42H219.778C219.404 369.967 218.938 370.373 218.378 370.64C217.831 370.907 217.191 371.04 216.458 371.04C215.071 371.04 213.984 370.553 213.198 369.58C212.424 368.607 212.038 367.247 212.038 365.5C212.038 364.353 212.211 363.367 212.558 362.54C212.918 361.7 213.424 361.053 214.078 360.6C214.731 360.147 215.518 359.92 216.438 359.92ZM216.678 361.4C216.078 361.4 215.564 361.56 215.138 361.88C214.724 362.2 214.404 362.667 214.178 363.28C213.964 363.893 213.858 364.64 213.858 365.52C213.858 366.84 214.098 367.853 214.578 368.56C215.071 369.253 215.784 369.6 216.718 369.6C217.264 369.6 217.731 369.533 218.118 369.4C218.504 369.253 218.824 369.033 219.078 368.74C219.331 368.433 219.518 368.047 219.638 367.58C219.758 367.113 219.818 366.56 219.818 365.92V365.5C219.818 364.527 219.704 363.74 219.478 363.14C219.264 362.54 218.924 362.1 218.458 361.82C217.991 361.54 217.398 361.4 216.678 361.4ZM228.702 360.12V370.84H226.942V360.12H228.702ZM227.842 356.1C228.109 356.1 228.342 356.193 228.542 356.38C228.756 356.553 228.862 356.833 228.862 357.22C228.862 357.593 228.756 357.873 228.542 358.06C228.342 358.247 228.109 358.34 227.842 358.34C227.549 358.34 227.302 358.247 227.102 358.06C226.902 357.873 226.802 357.593 226.802 357.22C226.802 356.833 226.902 356.553 227.102 356.38C227.302 356.193 227.549 356.1 227.842 356.1ZM238.398 371.04C237.452 371.04 236.605 370.847 235.858 370.46C235.125 370.073 234.545 369.473 234.118 368.66C233.705 367.847 233.498 366.807 233.498 365.54C233.498 364.22 233.718 363.147 234.158 362.32C234.598 361.493 235.192 360.887 235.938 360.5C236.698 360.113 237.558 359.92 238.518 359.92C239.065 359.92 239.592 359.98 240.098 360.1C240.605 360.207 241.018 360.34 241.338 360.5L240.798 361.96C240.478 361.84 240.105 361.727 239.678 361.62C239.252 361.513 238.852 361.46 238.478 361.46C237.758 361.46 237.165 361.613 236.698 361.92C236.232 362.227 235.885 362.68 235.658 363.28C235.432 363.88 235.318 364.627 235.318 365.52C235.318 366.373 235.432 367.1 235.658 367.7C235.885 368.3 236.225 368.753 236.678 369.06C237.132 369.367 237.698 369.52 238.378 369.52C238.965 369.52 239.478 369.46 239.918 369.34C240.372 369.22 240.785 369.073 241.158 368.9V370.46C240.798 370.647 240.398 370.787 239.958 370.88C239.532 370.987 239.012 371.04 238.398 371.04ZM261.123 370.84H253.143V356.56H261.123V358.14H254.943V362.6H260.763V364.16H254.943V369.26H261.123V370.84ZM269.816 371.04C268.483 371.04 267.416 370.58 266.616 369.66C265.816 368.727 265.416 367.34 265.416 365.5C265.416 363.66 265.816 362.273 266.616 361.34C267.43 360.393 268.503 359.92 269.836 359.92C270.396 359.92 270.883 359.993 271.296 360.14C271.71 360.273 272.07 360.46 272.376 360.7C272.683 360.94 272.943 361.207 273.156 361.5H273.276C273.263 361.327 273.236 361.073 273.196 360.74C273.17 360.393 273.156 360.12 273.156 359.92V355.64H274.916V370.84H273.496L273.236 369.4H273.156C272.943 369.707 272.683 369.987 272.376 370.24C272.07 370.48 271.703 370.673 271.276 370.82C270.863 370.967 270.376 371.04 269.816 371.04ZM270.096 369.58C271.23 369.58 272.023 369.273 272.476 368.66C272.943 368.033 273.176 367.093 273.176 365.84V365.52C273.176 364.187 272.956 363.167 272.516 362.46C272.076 361.74 271.263 361.38 270.076 361.38C269.13 361.38 268.416 361.76 267.936 362.52C267.47 363.267 267.236 364.273 267.236 365.54C267.236 366.82 267.47 367.813 267.936 368.52C268.416 369.227 269.136 369.58 270.096 369.58ZM284.461 359.92C285.381 359.92 286.168 360.12 286.821 360.52C287.488 360.92 287.994 361.487 288.341 362.22C288.701 362.94 288.881 363.787 288.881 364.76V365.82H281.541C281.568 367.033 281.874 367.96 282.461 368.6C283.061 369.227 283.894 369.54 284.961 369.54C285.641 369.54 286.241 369.48 286.761 369.36C287.294 369.227 287.841 369.04 288.401 368.8V370.34C287.854 370.58 287.314 370.753 286.781 370.86C286.248 370.98 285.614 371.04 284.881 371.04C283.868 371.04 282.968 370.833 282.181 370.42C281.408 370.007 280.801 369.393 280.361 368.58C279.934 367.753 279.721 366.747 279.721 365.56C279.721 364.387 279.914 363.38 280.301 362.54C280.701 361.7 281.254 361.053 281.961 360.6C282.681 360.147 283.514 359.92 284.461 359.92ZM284.441 361.36C283.601 361.36 282.934 361.633 282.441 362.18C281.961 362.713 281.674 363.46 281.581 364.42H287.041C287.041 363.807 286.948 363.273 286.761 362.82C286.574 362.367 286.288 362.013 285.901 361.76C285.528 361.493 285.041 361.36 284.441 361.36ZM298.77 359.92C300.05 359.92 301.017 360.233 301.67 360.86C302.323 361.473 302.65 362.473 302.65 363.86V370.84H300.91V363.98C300.91 363.113 300.717 362.467 300.33 362.04C299.943 361.613 299.337 361.4 298.51 361.4C297.323 361.4 296.503 361.733 296.05 362.4C295.597 363.067 295.37 364.027 295.37 365.28V370.84H293.61V360.12H295.03L295.29 361.58H295.39C295.63 361.207 295.923 360.9 296.27 360.66C296.63 360.407 297.023 360.22 297.45 360.1C297.877 359.98 298.317 359.92 298.77 359.92ZM319.889 363.08H323.869V364.5H319.889V368.62H318.449V364.5H314.469V363.08H318.449V358.94H319.889V363.08ZM340.909 359.92C342.229 359.92 343.289 360.38 344.089 361.3C344.903 362.22 345.309 363.607 345.309 365.46C345.309 366.673 345.123 367.7 344.749 368.54C344.389 369.367 343.876 369.993 343.209 370.42C342.556 370.833 341.783 371.04 340.889 371.04C340.343 371.04 339.856 370.967 339.429 370.82C339.003 370.673 338.636 370.487 338.329 370.26C338.036 370.02 337.783 369.76 337.569 369.48H337.449C337.476 369.707 337.503 369.993 337.529 370.34C337.556 370.687 337.569 370.987 337.569 371.24V375.64H335.809V360.12H337.249L337.489 361.58H337.569C337.783 361.273 338.036 360.993 338.329 360.74C338.636 360.487 338.996 360.287 339.409 360.14C339.836 359.993 340.336 359.92 340.909 359.92ZM340.589 361.4C339.869 361.4 339.289 361.54 338.849 361.82C338.409 362.087 338.089 362.493 337.889 363.04C337.689 363.587 337.583 364.28 337.569 365.12V365.46C337.569 366.34 337.663 367.087 337.849 367.7C338.036 368.313 338.349 368.78 338.789 369.1C339.243 369.42 339.856 369.58 340.629 369.58C341.283 369.58 341.816 369.4 342.229 369.04C342.656 368.68 342.969 368.193 343.169 367.58C343.383 366.953 343.489 366.24 343.489 365.44C343.489 364.213 343.249 363.233 342.769 362.5C342.303 361.767 341.576 361.4 340.589 361.4ZM355.114 359.92C355.314 359.92 355.527 359.933 355.754 359.96C355.994 359.973 356.201 360 356.374 360.04L356.154 361.66C355.981 361.62 355.787 361.587 355.574 361.56C355.374 361.533 355.181 361.52 354.994 361.52C354.581 361.52 354.187 361.607 353.814 361.78C353.441 361.953 353.107 362.2 352.814 362.52C352.521 362.827 352.287 363.2 352.114 363.64C351.954 364.08 351.874 364.573 351.874 365.12V370.84H350.114V360.12H351.554L351.754 362.08H351.834C352.061 361.68 352.334 361.32 352.654 361C352.974 360.667 353.341 360.407 353.754 360.22C354.167 360.02 354.621 359.92 355.114 359.92ZM369.305 365.46C369.305 366.353 369.185 367.147 368.945 367.84C368.718 368.52 368.385 369.1 367.945 369.58C367.518 370.06 366.992 370.427 366.365 370.68C365.752 370.92 365.065 371.04 364.305 371.04C363.598 371.04 362.945 370.92 362.345 370.68C361.745 370.427 361.225 370.06 360.785 369.58C360.345 369.1 359.998 368.52 359.745 367.84C359.505 367.147 359.385 366.353 359.385 365.46C359.385 364.273 359.585 363.273 359.985 362.46C360.385 361.633 360.958 361.007 361.705 360.58C362.452 360.14 363.338 359.92 364.365 359.92C365.338 359.92 366.192 360.14 366.925 360.58C367.672 361.007 368.252 361.633 368.665 362.46C369.092 363.273 369.305 364.273 369.305 365.46ZM361.205 365.46C361.205 366.3 361.312 367.033 361.525 367.66C361.752 368.273 362.098 368.747 362.565 369.08C363.032 369.413 363.625 369.58 364.345 369.58C365.065 369.58 365.658 369.413 366.125 369.08C366.592 368.747 366.932 368.273 367.145 367.66C367.372 367.033 367.485 366.3 367.485 365.46C367.485 364.607 367.372 363.88 367.145 363.28C366.918 362.68 366.572 362.22 366.105 361.9C365.652 361.567 365.058 361.4 364.325 361.4C363.232 361.4 362.438 361.76 361.945 362.48C361.452 363.2 361.205 364.193 361.205 365.46ZM372.835 375.64C372.501 375.64 372.208 375.613 371.955 375.56C371.701 375.52 371.481 375.467 371.295 375.4V373.98C371.495 374.033 371.701 374.08 371.915 374.12C372.128 374.16 372.361 374.18 372.615 374.18C373.041 374.18 373.395 374.06 373.675 373.82C373.955 373.593 374.095 373.153 374.095 372.5V360.12H375.855V372.44C375.855 373.107 375.748 373.68 375.535 374.16C375.321 374.64 374.995 375.007 374.555 375.26C374.115 375.513 373.541 375.64 372.835 375.64ZM373.955 357.22C373.955 356.833 374.055 356.553 374.255 356.38C374.455 356.193 374.701 356.1 374.995 356.1C375.261 356.1 375.495 356.193 375.695 356.38C375.908 356.553 376.015 356.833 376.015 357.22C376.015 357.593 375.908 357.873 375.695 358.06C375.495 358.247 375.261 358.34 374.995 358.34C374.701 358.34 374.455 358.247 374.255 358.06C374.055 357.873 373.955 357.593 373.955 357.22ZM385.391 359.92C386.311 359.92 387.097 360.12 387.751 360.52C388.417 360.92 388.924 361.487 389.271 362.22C389.631 362.94 389.811 363.787 389.811 364.76V365.82H382.471C382.497 367.033 382.804 367.96 383.391 368.6C383.991 369.227 384.824 369.54 385.891 369.54C386.571 369.54 387.171 369.48 387.691 369.36C388.224 369.227 388.771 369.04 389.331 368.8V370.34C388.784 370.58 388.244 370.753 387.711 370.86C387.177 370.98 386.544 371.04 385.811 371.04C384.797 371.04 383.897 370.833 383.111 370.42C382.337 370.007 381.731 369.393 381.291 368.58C380.864 367.753 380.651 366.747 380.651 365.56C380.651 364.387 380.844 363.38 381.231 362.54C381.631 361.7 382.184 361.053 382.891 360.6C383.611 360.147 384.444 359.92 385.391 359.92ZM385.371 361.36C384.531 361.36 383.864 361.633 383.371 362.18C382.891 362.713 382.604 363.46 382.511 364.42H387.971C387.971 363.807 387.877 363.273 387.691 362.82C387.504 362.367 387.217 362.013 386.831 361.76C386.457 361.493 385.971 361.36 385.371 361.36ZM398.84 371.04C397.893 371.04 397.047 370.847 396.3 370.46C395.567 370.073 394.987 369.473 394.56 368.66C394.147 367.847 393.94 366.807 393.94 365.54C393.94 364.22 394.16 363.147 394.6 362.32C395.04 361.493 395.633 360.887 396.38 360.5C397.14 360.113 398 359.92 398.96 359.92C399.507 359.92 400.033 359.98 400.54 360.1C401.047 360.207 401.46 360.34 401.78 360.5L401.24 361.96C400.92 361.84 400.547 361.727 400.12 361.62C399.693 361.513 399.293 361.46 398.92 361.46C398.2 361.46 397.607 361.613 397.14 361.92C396.673 362.227 396.327 362.68 396.1 363.28C395.873 363.88 395.76 364.627 395.76 365.52C395.76 366.373 395.873 367.1 396.1 367.7C396.327 368.3 396.667 368.753 397.12 369.06C397.573 369.367 398.14 369.52 398.82 369.52C399.407 369.52 399.92 369.46 400.36 369.34C400.813 369.22 401.227 369.073 401.6 368.9V370.46C401.24 370.647 400.84 370.787 400.4 370.88C399.973 370.987 399.453 371.04 398.84 371.04ZM409.729 369.6C409.996 369.6 410.269 369.58 410.549 369.54C410.829 369.487 411.056 369.433 411.229 369.38V370.72C411.043 370.813 410.776 370.887 410.429 370.94C410.083 371.007 409.749 371.04 409.429 371.04C408.869 371.04 408.349 370.947 407.869 370.76C407.403 370.56 407.023 370.22 406.729 369.74C406.436 369.26 406.289 368.587 406.289 367.72V361.48H404.769V360.64L406.309 359.94L407.009 357.66H408.049V360.12H411.149V361.48H408.049V367.68C408.049 368.333 408.203 368.82 408.509 369.14C408.829 369.447 409.236 369.6 409.729 369.6ZM422.356 367.88C422.356 368.573 422.182 369.153 421.836 369.62C421.489 370.087 420.996 370.44 420.356 370.68C419.716 370.92 418.956 371.04 418.076 371.04C417.329 371.04 416.682 370.98 416.136 370.86C415.602 370.74 415.129 370.573 414.716 370.36V368.76C415.142 368.973 415.656 369.173 416.256 369.36C416.869 369.533 417.489 369.62 418.116 369.62C419.009 369.62 419.656 369.48 420.056 369.2C420.456 368.907 420.656 368.52 420.656 368.04C420.656 367.773 420.582 367.533 420.436 367.32C420.289 367.107 420.022 366.893 419.636 366.68C419.262 366.467 418.722 366.227 418.016 365.96C417.322 365.693 416.729 365.427 416.236 365.16C415.742 364.893 415.362 364.573 415.096 364.2C414.829 363.827 414.696 363.347 414.696 362.76C414.696 361.853 415.062 361.153 415.796 360.66C416.542 360.167 417.516 359.92 418.716 359.92C419.369 359.92 419.976 359.987 420.536 360.12C421.109 360.24 421.642 360.413 422.136 360.64L421.536 362.04C421.242 361.907 420.929 361.793 420.596 361.7C420.276 361.593 419.949 361.513 419.616 361.46C419.282 361.393 418.942 361.36 418.596 361.36C417.876 361.36 417.322 361.48 416.936 361.72C416.562 361.947 416.376 362.26 416.376 362.66C416.376 362.953 416.462 363.207 416.636 363.42C416.809 363.62 417.096 363.82 417.496 364.02C417.909 364.207 418.456 364.433 419.136 364.7C419.816 364.953 420.396 365.213 420.876 365.48C421.356 365.747 421.722 366.073 421.976 366.46C422.229 366.833 422.356 367.307 422.356 367.88ZM43.46 399.92C44.6733 399.92 45.58 400.233 46.18 400.86C46.78 401.473 47.08 402.473 47.08 403.86V410.84H45.34V403.94C45.34 403.1 45.16 402.467 44.8 402.04C44.4533 401.613 43.9067 401.4 43.16 401.4C42.12 401.4 41.3733 401.7 40.92 402.3C40.48 402.9 40.26 403.773 40.26 404.92V410.84H38.52V403.94C38.52 403.38 38.44 402.913 38.28 402.54C38.12 402.153 37.88 401.867 37.56 401.68C37.24 401.493 36.8267 401.4 36.32 401.4C35.6 401.4 35.0333 401.553 34.62 401.86C34.2067 402.153 33.9067 402.587 33.72 403.16C33.5467 403.733 33.46 404.44 33.46 405.28V410.84H31.7V400.12H33.12L33.38 401.58H33.48C33.7067 401.207 33.98 400.9 34.3 400.66C34.6333 400.407 35 400.22 35.4 400.1C35.8 399.98 36.2133 399.92 36.64 399.92C37.4667 399.92 38.1533 400.067 38.7 400.36C39.26 400.653 39.6667 401.107 39.92 401.72H40.02C40.38 401.107 40.8667 400.653 41.48 400.36C42.1067 400.067 42.7667 399.92 43.46 399.92ZM61.3514 400.12V410.84H59.9114L59.6514 409.42H59.5714C59.3447 409.793 59.0514 410.1 58.6914 410.34C58.3314 410.58 57.9381 410.753 57.5114 410.86C57.0847 410.98 56.6381 411.04 56.1714 411.04C55.3181 411.04 54.5981 410.907 54.0114 410.64C53.4381 410.36 53.0047 409.933 52.7114 409.36C52.4181 408.787 52.2714 408.047 52.2714 407.14V400.12H54.0514V407.02C54.0514 407.873 54.2447 408.513 54.6314 408.94C55.0181 409.367 55.6181 409.58 56.4314 409.58C57.2314 409.58 57.8581 409.433 58.3114 409.14C58.7781 408.833 59.1047 408.393 59.2914 407.82C59.4914 407.233 59.5914 406.527 59.5914 405.7V400.12H61.3514ZM68.5147 410.84H66.7547V395.64H68.5147V410.84ZM77.4909 409.6C77.7576 409.6 78.0309 409.58 78.3109 409.54C78.5909 409.487 78.8176 409.433 78.9909 409.38V410.72C78.8043 410.813 78.5376 410.887 78.1909 410.94C77.8443 411.007 77.5109 411.04 77.1909 411.04C76.6309 411.04 76.1109 410.947 75.6309 410.76C75.1643 410.56 74.7843 410.22 74.4909 409.74C74.1976 409.26 74.0509 408.587 74.0509 407.72V401.48H72.5309V400.64L74.0709 399.94L74.7709 397.66H75.8109V400.12H78.9109V401.48H75.8109V407.68C75.8109 408.333 75.9643 408.82 76.2709 409.14C76.5909 409.447 76.9976 409.6 77.4909 409.6ZM84.8975 400.12V410.84H83.1375V400.12H84.8975ZM84.0375 396.1C84.3042 396.1 84.5375 396.193 84.7375 396.38C84.9508 396.553 85.0575 396.833 85.0575 397.22C85.0575 397.593 84.9508 397.873 84.7375 398.06C84.5375 398.247 84.3042 398.34 84.0375 398.34C83.7442 398.34 83.4975 398.247 83.2975 398.06C83.0975 397.873 82.9975 397.593 82.9975 397.22C82.9975 396.833 83.0975 396.553 83.2975 396.38C83.4975 396.193 83.7442 396.1 84.0375 396.1ZM94.5938 411.04C93.6471 411.04 92.8004 410.847 92.0538 410.46C91.3204 410.073 90.7404 409.473 90.3138 408.66C89.9004 407.847 89.6938 406.807 89.6938 405.54C89.6938 404.22 89.9138 403.147 90.3538 402.32C90.7938 401.493 91.3871 400.887 92.1338 400.5C92.8938 400.113 93.7538 399.92 94.7138 399.92C95.2604 399.92 95.7871 399.98 96.2938 400.1C96.8004 400.207 97.2138 400.34 97.5338 400.5L96.9938 401.96C96.6738 401.84 96.3004 401.727 95.8738 401.62C95.4471 401.513 95.0471 401.46 94.6738 401.46C93.9538 401.46 93.3604 401.613 92.8938 401.92C92.4271 402.227 92.0804 402.68 91.8538 403.28C91.6271 403.88 91.5138 404.627 91.5138 405.52C91.5138 406.373 91.6271 407.1 91.8538 407.7C92.0804 408.3 92.4204 408.753 92.8738 409.06C93.3271 409.367 93.8938 409.52 94.5738 409.52C95.1604 409.52 95.6738 409.46 96.1138 409.34C96.5671 409.22 96.9804 409.073 97.3538 408.9V410.46C96.9938 410.647 96.5938 410.787 96.1538 410.88C95.7271 410.987 95.2071 411.04 94.5938 411.04ZM103.663 400.1C103.663 400.353 103.65 400.613 103.623 400.88C103.61 401.147 103.59 401.387 103.563 401.6H103.683C103.91 401.227 104.196 400.92 104.543 400.68C104.89 400.44 105.276 400.26 105.703 400.14C106.13 400.007 106.57 399.94 107.023 399.94C107.89 399.94 108.61 400.08 109.183 400.36C109.77 400.627 110.21 401.047 110.503 401.62C110.796 402.193 110.943 402.94 110.943 403.86V410.84H109.203V403.98C109.203 403.113 109.01 402.467 108.623 402.04C108.236 401.613 107.63 401.4 106.803 401.4C106.003 401.4 105.376 401.553 104.923 401.86C104.47 402.153 104.143 402.593 103.943 403.18C103.756 403.753 103.663 404.46 103.663 405.3V410.84H101.903V395.64H103.663V400.1ZM120.326 399.94C121.633 399.94 122.6 400.227 123.226 400.8C123.853 401.373 124.166 402.287 124.166 403.54V410.84H122.886L122.546 409.32H122.466C122.16 409.707 121.84 410.033 121.506 410.3C121.186 410.553 120.813 410.74 120.386 410.86C119.973 410.98 119.466 411.04 118.866 411.04C118.226 411.04 117.646 410.927 117.126 410.7C116.62 410.473 116.22 410.127 115.926 409.66C115.633 409.18 115.486 408.58 115.486 407.86C115.486 406.793 115.906 405.973 116.746 405.4C117.586 404.813 118.88 404.493 120.626 404.44L122.446 404.38V403.74C122.446 402.847 122.253 402.227 121.866 401.88C121.48 401.533 120.933 401.36 120.226 401.36C119.666 401.36 119.133 401.447 118.626 401.62C118.12 401.78 117.646 401.967 117.206 402.18L116.666 400.86C117.133 400.607 117.686 400.393 118.326 400.22C118.966 400.033 119.633 399.94 120.326 399.94ZM120.846 405.66C119.513 405.713 118.586 405.927 118.066 406.3C117.56 406.673 117.306 407.2 117.306 407.88C117.306 408.48 117.486 408.92 117.846 409.2C118.22 409.48 118.693 409.62 119.266 409.62C120.173 409.62 120.926 409.373 121.526 408.88C122.126 408.373 122.426 407.6 122.426 406.56V405.6L120.846 405.66ZM131.237 400.12V410.84H129.477V400.12H131.237ZM130.377 396.1C130.644 396.1 130.877 396.193 131.077 396.38C131.291 396.553 131.397 396.833 131.397 397.22C131.397 397.593 131.291 397.873 131.077 398.06C130.877 398.247 130.644 398.34 130.377 398.34C130.084 398.34 129.837 398.247 129.637 398.06C129.437 397.873 129.337 397.593 129.337 397.22C129.337 396.833 129.437 396.553 129.637 396.38C129.837 396.193 130.084 396.1 130.377 396.1ZM141.794 399.92C143.074 399.92 144.04 400.233 144.694 400.86C145.347 401.473 145.674 402.473 145.674 403.86V410.84H143.934V403.98C143.934 403.113 143.74 402.467 143.354 402.04C142.967 401.613 142.36 401.4 141.534 401.4C140.347 401.4 139.527 401.733 139.074 402.4C138.62 403.067 138.394 404.027 138.394 405.28V410.84H136.634V400.12H138.054L138.314 401.58H138.414C138.654 401.207 138.947 400.9 139.294 400.66C139.654 400.407 140.047 400.22 140.474 400.1C140.9 399.98 141.34 399.92 141.794 399.92ZM12.7802 443.54C12.7802 442.94 12.8736 442.46 13.0602 442.1C13.2602 441.727 13.5269 441.46 13.8602 441.3C14.2069 441.14 14.5869 441.06 15.0002 441.06C15.4136 441.06 15.7869 441.14 16.1202 441.3C16.4536 441.46 16.7202 441.727 16.9202 442.1C17.1202 442.46 17.2202 442.94 17.2202 443.54C17.2202 444.127 17.1202 444.607 16.9202 444.98C16.7202 445.34 16.4536 445.607 16.1202 445.78C15.7869 445.94 15.4136 446.02 15.0002 446.02C14.5869 446.02 14.2069 445.94 13.8602 445.78C13.5269 445.607 13.2602 445.34 13.0602 444.98C12.8736 444.607 12.7802 444.127 12.7802 443.54ZM48.34 436.56L44.54 450.84H42.72L39.94 441.48C39.86 441.2 39.78 440.913 39.7 440.62C39.62 440.327 39.5467 440.047 39.48 439.78C39.4133 439.513 39.3533 439.287 39.3 439.1C39.26 438.9 39.2333 438.753 39.22 438.66C39.2067 438.753 39.18 438.9 39.14 439.1C39.1133 439.287 39.0667 439.513 39 439.78C38.9333 440.047 38.86 440.333 38.78 440.64C38.7133 440.933 38.6333 441.233 38.54 441.54L35.84 450.84H34.02L30.24 436.56H32.12L34.34 445.28C34.42 445.587 34.4933 445.893 34.56 446.2C34.6267 446.493 34.6867 446.787 34.74 447.08C34.8067 447.36 34.86 447.633 34.9 447.9C34.94 448.167 34.98 448.427 35.02 448.68C35.06 448.413 35.1 448.14 35.14 447.86C35.1933 447.58 35.2533 447.293 35.32 447C35.3867 446.693 35.46 446.387 35.54 446.08C35.62 445.773 35.7 445.473 35.78 445.18L38.3 436.56H40.16L42.78 445.24C42.8733 445.547 42.96 445.86 43.04 446.18C43.12 446.487 43.1933 446.787 43.26 447.08C43.3267 447.373 43.38 447.66 43.42 447.94C43.4733 448.207 43.52 448.453 43.56 448.68C43.6 448.347 43.6533 448 43.72 447.64C43.7867 447.267 43.8667 446.88 43.96 446.48C44.0533 446.08 44.1533 445.673 44.26 445.26L46.46 436.56H48.34ZM54.0538 440.1C54.0538 440.353 54.0404 440.613 54.0138 440.88C54.0004 441.147 53.9804 441.387 53.9538 441.6H54.0738C54.3004 441.227 54.5871 440.92 54.9338 440.68C55.2804 440.44 55.6671 440.26 56.0938 440.14C56.5204 440.007 56.9604 439.94 57.4138 439.94C58.2804 439.94 59.0004 440.08 59.5738 440.36C60.1604 440.627 60.6004 441.047 60.8938 441.62C61.1871 442.193 61.3338 442.94 61.3338 443.86V450.84H59.5938V443.98C59.5938 443.113 59.4004 442.467 59.0138 442.04C58.6271 441.613 58.0204 441.4 57.1938 441.4C56.3938 441.4 55.7671 441.553 55.3138 441.86C54.8604 442.153 54.5338 442.593 54.3338 443.18C54.1471 443.753 54.0538 444.46 54.0538 445.3V450.84H52.2938V435.64H54.0538V440.1ZM68.417 440.12V450.84H66.657V440.12H68.417ZM67.557 436.1C67.8237 436.1 68.057 436.193 68.257 436.38C68.4704 436.553 68.577 436.833 68.577 437.22C68.577 437.593 68.4704 437.873 68.257 438.06C68.057 438.247 67.8237 438.34 67.557 438.34C67.2637 438.34 67.017 438.247 66.817 438.06C66.617 437.873 66.517 437.593 66.517 437.22C66.517 436.833 66.617 436.553 66.817 436.38C67.017 436.193 67.2637 436.1 67.557 436.1ZM77.3933 449.6C77.6599 449.6 77.9333 449.58 78.2133 449.54C78.4933 449.487 78.7199 449.433 78.8933 449.38V450.72C78.7066 450.813 78.4399 450.887 78.0933 450.94C77.7466 451.007 77.4133 451.04 77.0933 451.04C76.5333 451.04 76.0133 450.947 75.5333 450.76C75.0666 450.56 74.6866 450.22 74.3933 449.74C74.0999 449.26 73.9533 448.587 73.9533 447.72V441.48H72.4333V440.64L73.9733 439.94L74.6733 437.66H75.7133V440.12H78.8133V441.48H75.7133V447.68C75.7133 448.333 75.8666 448.82 76.1733 449.14C76.4933 449.447 76.8999 449.6 77.3933 449.6ZM87.1798 439.92C88.0998 439.92 88.8865 440.12 89.5398 440.52C90.2065 440.92 90.7132 441.487 91.0598 442.22C91.4198 442.94 91.5998 443.787 91.5998 444.76V445.82H84.2598C84.2865 447.033 84.5932 447.96 85.1798 448.6C85.7798 449.227 86.6132 449.54 87.6798 449.54C88.3598 449.54 88.9598 449.48 89.4798 449.36C90.0132 449.227 90.5598 449.04 91.1198 448.8V450.34C90.5732 450.58 90.0332 450.753 89.4998 450.86C88.9665 450.98 88.3332 451.04 87.5998 451.04C86.5865 451.04 85.6865 450.833 84.8998 450.42C84.1265 450.007 83.5198 449.393 83.0798 448.58C82.6532 447.753 82.4398 446.747 82.4398 445.56C82.4398 444.387 82.6332 443.38 83.0198 442.54C83.4198 441.7 83.9732 441.053 84.6798 440.6C85.3998 440.147 86.2332 439.92 87.1798 439.92ZM87.1598 441.36C86.3198 441.36 85.6532 441.633 85.1598 442.18C84.6798 442.713 84.3932 443.46 84.2998 444.42H89.7598C89.7598 443.807 89.6665 443.273 89.4798 442.82C89.2932 442.367 89.0065 442.013 88.6198 441.76C88.2465 441.493 87.7598 441.36 87.1598 441.36ZM103.764 450.84V436.56H105.564V449.24H111.804V450.84H103.764ZM120.073 439.94C121.379 439.94 122.346 440.227 122.973 440.8C123.599 441.373 123.913 442.287 123.913 443.54V450.84H122.633L122.293 449.32H122.213C121.906 449.707 121.586 450.033 121.253 450.3C120.933 450.553 120.559 450.74 120.133 450.86C119.719 450.98 119.213 451.04 118.613 451.04C117.973 451.04 117.393 450.927 116.873 450.7C116.366 450.473 115.966 450.127 115.673 449.66C115.379 449.18 115.233 448.58 115.233 447.86C115.233 446.793 115.653 445.973 116.493 445.4C117.333 444.813 118.626 444.493 120.373 444.44L122.193 444.38V443.74C122.193 442.847 121.999 442.227 121.613 441.88C121.226 441.533 120.679 441.36 119.973 441.36C119.413 441.36 118.879 441.447 118.373 441.62C117.866 441.78 117.393 441.967 116.952 442.18L116.413 440.86C116.879 440.607 117.433 440.393 118.073 440.22C118.713 440.033 119.379 439.94 120.073 439.94ZM120.593 445.66C119.259 445.713 118.333 445.927 117.813 446.3C117.306 446.673 117.053 447.2 117.053 447.88C117.053 448.48 117.233 448.92 117.593 449.2C117.966 449.48 118.439 449.62 119.013 449.62C119.919 449.62 120.673 449.373 121.273 448.88C121.873 448.373 122.173 447.6 122.173 446.56V445.6L120.593 445.66ZM130.983 439.34C130.983 439.793 130.97 440.22 130.943 440.62C130.93 441.007 130.91 441.313 130.883 441.54H130.983C131.29 441.087 131.71 440.707 132.243 440.4C132.777 440.093 133.463 439.94 134.303 439.94C135.637 439.94 136.703 440.407 137.503 441.34C138.317 442.26 138.723 443.64 138.723 445.48C138.723 446.707 138.537 447.733 138.163 448.56C137.803 449.387 137.29 450.007 136.623 450.42C135.957 450.833 135.183 451.04 134.303 451.04C133.463 451.04 132.777 450.887 132.243 450.58C131.71 450.273 131.29 449.907 130.983 449.48H130.843L130.483 450.84H129.223V435.64H130.983V439.34ZM134.003 441.4C133.243 441.4 132.643 441.547 132.203 441.84C131.763 442.12 131.45 442.56 131.263 443.16C131.077 443.747 130.983 444.5 130.983 445.42V445.5C130.983 446.82 131.197 447.833 131.623 448.54C132.063 449.233 132.87 449.58 134.043 449.58C135.003 449.58 135.717 449.227 136.183 448.52C136.663 447.813 136.903 446.793 136.903 445.46C136.903 444.113 136.663 443.1 136.183 442.42C135.717 441.74 134.99 441.4 134.003 441.4ZM147.668 439.92C148.588 439.92 149.375 440.12 150.028 440.52C150.695 440.92 151.201 441.487 151.548 442.22C151.908 442.94 152.088 443.787 152.088 444.76V445.82H144.748C144.775 447.033 145.081 447.96 145.668 448.6C146.268 449.227 147.101 449.54 148.168 449.54C148.848 449.54 149.448 449.48 149.968 449.36C150.501 449.227 151.048 449.04 151.608 448.8V450.34C151.061 450.58 150.521 450.753 149.988 450.86C149.455 450.98 148.821 451.04 148.088 451.04C147.075 451.04 146.175 450.833 145.388 450.42C144.615 450.007 144.008 449.393 143.568 448.58C143.141 447.753 142.928 446.747 142.928 445.56C142.928 444.387 143.121 443.38 143.508 442.54C143.908 441.7 144.461 441.053 145.168 440.6C145.888 440.147 146.721 439.92 147.668 439.92ZM147.648 441.36C146.808 441.36 146.141 441.633 145.648 442.18C145.168 442.713 144.881 443.46 144.788 444.42H150.248C150.248 443.807 150.155 443.273 149.968 442.82C149.781 442.367 149.495 442.013 149.108 441.76C148.735 441.493 148.248 441.36 147.648 441.36ZM158.577 450.84H156.817V435.64H158.577V450.84ZM176.269 439.92C177.589 439.92 178.649 440.38 179.449 441.3C180.262 442.22 180.669 443.607 180.669 445.46C180.669 446.673 180.482 447.7 180.109 448.54C179.749 449.367 179.235 449.993 178.569 450.42C177.915 450.833 177.142 451.04 176.249 451.04C175.702 451.04 175.215 450.967 174.789 450.82C174.362 450.673 173.995 450.487 173.689 450.26C173.395 450.02 173.142 449.76 172.929 449.48H172.809C172.835 449.707 172.862 449.993 172.889 450.34C172.915 450.687 172.929 450.987 172.929 451.24V455.64H171.169V440.12H172.609L172.849 441.58H172.929C173.142 441.273 173.395 440.993 173.689 440.74C173.995 440.487 174.355 440.287 174.769 440.14C175.195 439.993 175.695 439.92 176.269 439.92ZM175.949 441.4C175.229 441.4 174.649 441.54 174.209 441.82C173.769 442.087 173.449 442.493 173.249 443.04C173.049 443.587 172.942 444.28 172.929 445.12V445.46C172.929 446.34 173.022 447.087 173.209 447.7C173.395 448.313 173.709 448.78 174.149 449.1C174.602 449.42 175.215 449.58 175.989 449.58C176.642 449.58 177.175 449.4 177.589 449.04C178.015 448.68 178.329 448.193 178.529 447.58C178.742 446.953 178.849 446.24 178.849 445.44C178.849 444.213 178.609 443.233 178.129 442.5C177.662 441.767 176.935 441.4 175.949 441.4ZM189.533 439.94C190.84 439.94 191.807 440.227 192.433 440.8C193.06 441.373 193.373 442.287 193.373 443.54V450.84H192.093L191.753 449.32H191.673C191.367 449.707 191.047 450.033 190.713 450.3C190.393 450.553 190.02 450.74 189.593 450.86C189.18 450.98 188.673 451.04 188.073 451.04C187.433 451.04 186.853 450.927 186.333 450.7C185.827 450.473 185.427 450.127 185.133 449.66C184.84 449.18 184.693 448.58 184.693 447.86C184.693 446.793 185.113 445.973 185.953 445.4C186.793 444.813 188.087 444.493 189.833 444.44L191.653 444.38V443.74C191.653 442.847 191.46 442.227 191.073 441.88C190.687 441.533 190.14 441.36 189.433 441.36C188.873 441.36 188.34 441.447 187.833 441.62C187.327 441.78 186.853 441.967 186.413 442.18L185.873 440.86C186.34 440.607 186.893 440.393 187.533 440.22C188.173 440.033 188.84 439.94 189.533 439.94ZM190.053 445.66C188.72 445.713 187.793 445.927 187.273 446.3C186.767 446.673 186.513 447.2 186.513 447.88C186.513 448.48 186.693 448.92 187.053 449.2C187.427 449.48 187.9 449.62 188.473 449.62C189.38 449.62 190.133 449.373 190.733 448.88C191.333 448.373 191.633 447.6 191.633 446.56V445.6L190.053 445.66ZM203.684 439.92C203.884 439.92 204.098 439.933 204.324 439.96C204.564 439.973 204.771 440 204.944 440.04L204.724 441.66C204.551 441.62 204.358 441.587 204.144 441.56C203.944 441.533 203.751 441.52 203.564 441.52C203.151 441.52 202.758 441.607 202.384 441.78C202.011 441.953 201.678 442.2 201.384 442.52C201.091 442.827 200.858 443.2 200.684 443.64C200.524 444.08 200.444 444.573 200.444 445.12V450.84H198.684V440.12H200.124L200.324 442.08H200.404C200.631 441.68 200.904 441.32 201.224 441C201.544 440.667 201.911 440.407 202.324 440.22C202.738 440.02 203.191 439.92 203.684 439.92ZM212.526 449.6C212.793 449.6 213.066 449.58 213.346 449.54C213.626 449.487 213.853 449.433 214.026 449.38V450.72C213.839 450.813 213.573 450.887 213.226 450.94C212.879 451.007 212.546 451.04 212.226 451.04C211.666 451.04 211.146 450.947 210.666 450.76C210.199 450.56 209.819 450.22 209.526 449.74C209.233 449.26 209.086 448.587 209.086 447.72V441.48H207.566V440.64L209.106 439.94L209.806 437.66H210.846V440.12H213.946V441.48H210.846V447.68C210.846 448.333 210.999 448.82 211.306 449.14C211.626 449.447 212.033 449.6 212.526 449.6ZM223.333 439.92C224.613 439.92 225.579 440.233 226.233 440.86C226.886 441.473 227.213 442.473 227.213 443.86V450.84H225.473V443.98C225.473 443.113 225.279 442.467 224.893 442.04C224.506 441.613 223.899 441.4 223.073 441.4C221.886 441.4 221.066 441.733 220.613 442.4C220.159 443.067 219.933 444.027 219.933 445.28V450.84H218.173V440.12H219.593L219.853 441.58H219.953C220.193 441.207 220.486 440.9 220.833 440.66C221.193 440.407 221.586 440.22 222.013 440.1C222.439 439.98 222.879 439.92 223.333 439.92ZM236.676 439.92C237.596 439.92 238.383 440.12 239.036 440.52C239.703 440.92 240.209 441.487 240.556 442.22C240.916 442.94 241.096 443.787 241.096 444.76V445.82H233.756C233.783 447.033 234.089 447.96 234.676 448.6C235.276 449.227 236.109 449.54 237.176 449.54C237.856 449.54 238.456 449.48 238.976 449.36C239.509 449.227 240.056 449.04 240.616 448.8V450.34C240.069 450.58 239.529 450.753 238.996 450.86C238.463 450.98 237.829 451.04 237.096 451.04C236.083 451.04 235.183 450.833 234.396 450.42C233.623 450.007 233.016 449.393 232.576 448.58C232.149 447.753 231.936 446.747 231.936 445.56C231.936 444.387 232.129 443.38 232.516 442.54C232.916 441.7 233.469 441.053 234.176 440.6C234.896 440.147 235.729 439.92 236.676 439.92ZM236.656 441.36C235.816 441.36 235.149 441.633 234.656 442.18C234.176 442.713 233.889 443.46 233.796 444.42H239.256C239.256 443.807 239.163 443.273 238.976 442.82C238.789 442.367 238.503 442.013 238.116 441.76C237.743 441.493 237.256 441.36 236.656 441.36ZM250.825 439.92C251.025 439.92 251.238 439.933 251.465 439.96C251.705 439.973 251.912 440 252.085 440.04L251.865 441.66C251.692 441.62 251.498 441.587 251.285 441.56C251.085 441.533 250.892 441.52 250.705 441.52C250.292 441.52 249.898 441.607 249.525 441.78C249.152 441.953 248.818 442.2 248.525 442.52C248.232 442.827 247.998 443.2 247.825 443.64C247.665 444.08 247.585 444.573 247.585 445.12V450.84H245.825V440.12H247.265L247.465 442.08H247.545C247.772 441.68 248.045 441.32 248.365 441C248.685 440.667 249.052 440.407 249.465 440.22C249.878 440.02 250.332 439.92 250.825 439.92ZM263.067 447.88C263.067 448.573 262.893 449.153 262.547 449.62C262.2 450.087 261.707 450.44 261.067 450.68C260.427 450.92 259.667 451.04 258.787 451.04C258.04 451.04 257.393 450.98 256.847 450.86C256.313 450.74 255.84 450.573 255.427 450.36V448.76C255.853 448.973 256.367 449.173 256.967 449.36C257.58 449.533 258.2 449.62 258.827 449.62C259.72 449.62 260.367 449.48 260.767 449.2C261.167 448.907 261.367 448.52 261.367 448.04C261.367 447.773 261.293 447.533 261.147 447.32C261 447.107 260.733 446.893 260.347 446.68C259.973 446.467 259.433 446.227 258.727 445.96C258.033 445.693 257.44 445.427 256.947 445.16C256.453 444.893 256.073 444.573 255.807 444.2C255.54 443.827 255.407 443.347 255.407 442.76C255.407 441.853 255.773 441.153 256.507 440.66C257.253 440.167 258.227 439.92 259.427 439.92C260.08 439.92 260.687 439.987 261.247 440.12C261.82 440.24 262.353 440.413 262.847 440.64L262.247 442.04C261.953 441.907 261.64 441.793 261.307 441.7C260.987 441.593 260.66 441.513 260.327 441.46C259.993 441.393 259.653 441.36 259.307 441.36C258.587 441.36 258.033 441.48 257.647 441.72C257.273 441.947 257.087 442.26 257.087 442.66C257.087 442.953 257.173 443.207 257.347 443.42C257.52 443.62 257.807 443.82 258.207 444.02C258.62 444.207 259.167 444.433 259.847 444.7C260.527 444.953 261.107 445.213 261.587 445.48C262.067 445.747 262.433 446.073 262.687 446.46C262.94 446.833 263.067 447.307 263.067 447.88ZM269.417 440.1C269.417 440.353 269.404 440.613 269.377 440.88C269.364 441.147 269.344 441.387 269.317 441.6H269.437C269.664 441.227 269.95 440.92 270.297 440.68C270.644 440.44 271.03 440.26 271.457 440.14C271.884 440.007 272.324 439.94 272.777 439.94C273.644 439.94 274.364 440.08 274.937 440.36C275.524 440.627 275.964 441.047 276.257 441.62C276.55 442.193 276.697 442.94 276.697 443.86V450.84H274.957V443.98C274.957 443.113 274.764 442.467 274.377 442.04C273.99 441.613 273.384 441.4 272.557 441.4C271.757 441.4 271.13 441.553 270.677 441.86C270.224 442.153 269.897 442.593 269.697 443.18C269.51 443.753 269.417 444.46 269.417 445.3V450.84H267.657V435.64H269.417V440.1ZM283.78 440.12V450.84H282.02V440.12H283.78ZM282.92 436.1C283.187 436.1 283.42 436.193 283.62 436.38C283.834 436.553 283.94 436.833 283.94 437.22C283.94 437.593 283.834 437.873 283.62 438.06C283.42 438.247 283.187 438.34 282.92 438.34C282.627 438.34 282.38 438.247 282.18 438.06C281.98 437.873 281.88 437.593 281.88 437.22C281.88 436.833 281.98 436.553 282.18 436.38C282.38 436.193 282.627 436.1 282.92 436.1ZM294.277 439.92C295.597 439.92 296.657 440.38 297.457 441.3C298.27 442.22 298.677 443.607 298.677 445.46C298.677 446.673 298.49 447.7 298.117 448.54C297.757 449.367 297.243 449.993 296.577 450.42C295.923 450.833 295.15 451.04 294.257 451.04C293.71 451.04 293.223 450.967 292.797 450.82C292.37 450.673 292.003 450.487 291.697 450.26C291.403 450.02 291.15 449.76 290.937 449.48H290.817C290.843 449.707 290.87 449.993 290.897 450.34C290.923 450.687 290.937 450.987 290.937 451.24V455.64H289.177V440.12H290.617L290.857 441.58H290.937C291.15 441.273 291.403 440.993 291.697 440.74C292.003 440.487 292.363 440.287 292.777 440.14C293.203 439.993 293.703 439.92 294.277 439.92ZM293.957 441.4C293.237 441.4 292.657 441.54 292.217 441.82C291.777 442.087 291.457 442.493 291.257 443.04C291.057 443.587 290.95 444.28 290.937 445.12V445.46C290.937 446.34 291.03 447.087 291.217 447.7C291.403 448.313 291.717 448.78 292.157 449.1C292.61 449.42 293.223 449.58 293.997 449.58C294.65 449.58 295.183 449.4 295.597 449.04C296.023 448.68 296.337 448.193 296.537 447.58C296.75 446.953 296.857 446.24 296.857 445.44C296.857 444.213 296.617 443.233 296.137 442.5C295.67 441.767 294.943 441.4 293.957 441.4ZM310.461 447.88C310.461 448.573 310.288 449.153 309.941 449.62C309.595 450.087 309.101 450.44 308.461 450.68C307.821 450.92 307.061 451.04 306.181 451.04C305.435 451.04 304.788 450.98 304.241 450.86C303.708 450.74 303.235 450.573 302.821 450.36V448.76C303.248 448.973 303.761 449.173 304.361 449.36C304.975 449.533 305.595 449.62 306.221 449.62C307.115 449.62 307.761 449.48 308.161 449.2C308.561 448.907 308.761 448.52 308.761 448.04C308.761 447.773 308.688 447.533 308.541 447.32C308.395 447.107 308.128 446.893 307.741 446.68C307.368 446.467 306.828 446.227 306.121 445.96C305.428 445.693 304.835 445.427 304.341 445.16C303.848 444.893 303.468 444.573 303.201 444.2C302.935 443.827 302.801 443.347 302.801 442.76C302.801 441.853 303.168 441.153 303.901 440.66C304.648 440.167 305.621 439.92 306.821 439.92C307.475 439.92 308.081 439.987 308.641 440.12C309.215 440.24 309.748 440.413 310.241 440.64L309.641 442.04C309.348 441.907 309.035 441.793 308.701 441.7C308.381 441.593 308.055 441.513 307.721 441.46C307.388 441.393 307.048 441.36 306.701 441.36C305.981 441.36 305.428 441.48 305.041 441.72C304.668 441.947 304.481 442.26 304.481 442.66C304.481 442.953 304.568 443.207 304.741 443.42C304.915 443.62 305.201 443.82 305.601 444.02C306.015 444.207 306.561 444.433 307.241 444.7C307.921 444.953 308.501 445.213 308.981 445.48C309.461 445.747 309.828 446.073 310.081 446.46C310.335 446.833 310.461 447.307 310.461 447.88ZM329.167 444.78C329.087 444.5 329.007 444.227 328.927 443.96C328.847 443.68 328.774 443.42 328.707 443.18C328.654 442.927 328.6 442.693 328.547 442.48C328.494 442.267 328.454 442.087 328.427 441.94H328.347C328.32 442.087 328.28 442.267 328.227 442.48C328.187 442.693 328.134 442.927 328.067 443.18C328.014 443.433 327.947 443.7 327.867 443.98C327.8 444.247 327.72 444.52 327.627 444.8L325.707 450.82H323.707L320.767 440.1H322.587L324.067 445.82C324.174 446.207 324.274 446.6 324.367 447C324.46 447.387 324.54 447.76 324.607 448.12C324.687 448.467 324.74 448.767 324.767 449.02H324.847C324.887 448.86 324.934 448.66 324.987 448.42C325.04 448.18 325.094 447.927 325.147 447.66C325.214 447.393 325.28 447.127 325.347 446.86C325.427 446.593 325.5 446.353 325.567 446.14L327.467 440.1H329.387L331.227 446.14C331.32 446.447 331.414 446.773 331.507 447.12C331.614 447.467 331.707 447.807 331.787 448.14C331.867 448.46 331.92 448.747 331.947 449H332.027C332.054 448.773 332.1 448.493 332.167 448.16C332.247 447.813 332.334 447.44 332.427 447.04C332.534 446.627 332.64 446.22 332.747 445.82L334.247 440.1H336.047L333.067 450.82H331.007L329.167 444.78ZM341.73 440.12V450.84H339.97V440.12H341.73ZM340.87 436.1C341.136 436.1 341.37 436.193 341.57 436.38C341.783 436.553 341.89 436.833 341.89 437.22C341.89 437.593 341.783 437.873 341.57 438.06C341.37 438.247 341.136 438.34 340.87 438.34C340.576 438.34 340.33 438.247 340.13 438.06C339.93 437.873 339.83 437.593 339.83 437.22C339.83 436.833 339.93 436.553 340.13 436.38C340.33 436.193 340.576 436.1 340.87 436.1ZM350.706 449.6C350.972 449.6 351.246 449.58 351.526 449.54C351.806 449.487 352.032 449.433 352.206 449.38V450.72C352.019 450.813 351.752 450.887 351.406 450.94C351.059 451.007 350.726 451.04 350.406 451.04C349.846 451.04 349.326 450.947 348.846 450.76C348.379 450.56 347.999 450.22 347.706 449.74C347.412 449.26 347.266 448.587 347.266 447.72V441.48H345.746V440.64L347.286 439.94L347.986 437.66H349.026V440.12H352.126V441.48H349.026V447.68C349.026 448.333 349.179 448.82 349.486 449.14C349.806 449.447 350.212 449.6 350.706 449.6ZM358.112 440.1C358.112 440.353 358.099 440.613 358.072 440.88C358.059 441.147 358.039 441.387 358.012 441.6H358.132C358.359 441.227 358.646 440.92 358.992 440.68C359.339 440.44 359.726 440.26 360.152 440.14C360.579 440.007 361.019 439.94 361.472 439.94C362.339 439.94 363.059 440.08 363.632 440.36C364.219 440.627 364.659 441.047 364.952 441.62C365.246 442.193 365.392 442.94 365.392 443.86V450.84H363.652V443.98C363.652 443.113 363.459 442.467 363.072 442.04C362.686 441.613 362.079 441.4 361.252 441.4C360.452 441.4 359.826 441.553 359.372 441.86C358.919 442.153 358.592 442.593 358.392 443.18C358.206 443.753 358.112 444.46 358.112 445.3V450.84H356.352V435.64H358.112V440.1ZM387.231 445.46C387.231 446.353 387.111 447.147 386.871 447.84C386.644 448.52 386.311 449.1 385.871 449.58C385.444 450.06 384.918 450.427 384.291 450.68C383.678 450.92 382.991 451.04 382.231 451.04C381.524 451.04 380.871 450.92 380.271 450.68C379.671 450.427 379.151 450.06 378.711 449.58C378.271 449.1 377.924 448.52 377.671 447.84C377.431 447.147 377.311 446.353 377.311 445.46C377.311 444.273 377.511 443.273 377.911 442.46C378.311 441.633 378.884 441.007 379.631 440.58C380.378 440.14 381.264 439.92 382.291 439.92C383.264 439.92 384.118 440.14 384.851 440.58C385.598 441.007 386.178 441.633 386.591 442.46C387.018 443.273 387.231 444.273 387.231 445.46ZM379.131 445.46C379.131 446.3 379.238 447.033 379.451 447.66C379.678 448.273 380.024 448.747 380.491 449.08C380.958 449.413 381.551 449.58 382.271 449.58C382.991 449.58 383.584 449.413 384.051 449.08C384.518 448.747 384.858 448.273 385.071 447.66C385.298 447.033 385.411 446.3 385.411 445.46C385.411 444.607 385.298 443.88 385.071 443.28C384.844 442.68 384.498 442.22 384.031 441.9C383.578 441.567 382.984 441.4 382.251 441.4C381.158 441.4 380.364 441.76 379.871 442.48C379.378 443.2 379.131 444.193 379.131 445.46ZM395.6 449.6C395.867 449.6 396.14 449.58 396.42 449.54C396.7 449.487 396.927 449.433 397.1 449.38V450.72C396.914 450.813 396.647 450.887 396.3 450.94C395.954 451.007 395.62 451.04 395.3 451.04C394.74 451.04 394.22 450.947 393.74 450.76C393.274 450.56 392.894 450.22 392.6 449.74C392.307 449.26 392.16 448.587 392.16 447.72V441.48H390.64V440.64L392.18 439.94L392.88 437.66H393.92V440.12H397.02V441.48H393.92V447.68C393.92 448.333 394.074 448.82 394.38 449.14C394.7 449.447 395.107 449.6 395.6 449.6ZM403.007 440.1C403.007 440.353 402.994 440.613 402.967 440.88C402.954 441.147 402.934 441.387 402.907 441.6H403.027C403.254 441.227 403.54 440.92 403.887 440.68C404.234 440.44 404.62 440.26 405.047 440.14C405.474 440.007 405.914 439.94 406.367 439.94C407.234 439.94 407.954 440.08 408.527 440.36C409.114 440.627 409.554 441.047 409.847 441.62C410.14 442.193 410.287 442.94 410.287 443.86V450.84H408.547V443.98C408.547 443.113 408.354 442.467 407.967 442.04C407.58 441.613 406.974 441.4 406.147 441.4C405.347 441.4 404.72 441.553 404.267 441.86C403.814 442.153 403.487 442.593 403.287 443.18C403.1 443.753 403.007 444.46 403.007 445.3V450.84H401.247V435.64H403.007V440.1ZM419.75 439.92C420.67 439.92 421.457 440.12 422.11 440.52C422.777 440.92 423.283 441.487 423.63 442.22C423.99 442.94 424.17 443.787 424.17 444.76V445.82H416.83C416.857 447.033 417.163 447.96 417.75 448.6C418.35 449.227 419.183 449.54 420.25 449.54C420.93 449.54 421.53 449.48 422.05 449.36C422.583 449.227 423.13 449.04 423.69 448.8V450.34C423.143 450.58 422.603 450.753 422.07 450.86C421.537 450.98 420.903 451.04 420.17 451.04C419.157 451.04 418.257 450.833 417.47 450.42C416.697 450.007 416.09 449.393 415.65 448.58C415.223 447.753 415.01 446.747 415.01 445.56C415.01 444.387 415.203 443.38 415.59 442.54C415.99 441.7 416.543 441.053 417.25 440.6C417.97 440.147 418.803 439.92 419.75 439.92ZM419.73 441.36C418.89 441.36 418.223 441.633 417.73 442.18C417.25 442.713 416.963 443.46 416.87 444.42H422.33C422.33 443.807 422.237 443.273 422.05 442.82C421.863 442.367 421.577 442.013 421.19 441.76C420.817 441.493 420.33 441.36 419.73 441.36ZM433.899 439.92C434.099 439.92 434.313 439.933 434.539 439.96C434.779 439.973 434.986 440 435.159 440.04L434.939 441.66C434.766 441.62 434.573 441.587 434.359 441.56C434.159 441.533 433.966 441.52 433.779 441.52C433.366 441.52 432.973 441.607 432.599 441.78C432.226 441.953 431.893 442.2 431.599 442.52C431.306 442.827 431.073 443.2 430.899 443.64C430.739 444.08 430.659 444.573 430.659 445.12V450.84H428.899V440.12H430.339L430.539 442.08H430.619C430.846 441.68 431.119 441.32 431.439 441C431.759 440.667 432.126 440.407 432.539 440.22C432.953 440.02 433.406 439.92 433.899 439.92ZM36.8 479.92C38.12 479.92 39.18 480.38 39.98 481.3C40.7933 482.22 41.2 483.607 41.2 485.46C41.2 486.673 41.0133 487.7 40.64 488.54C40.28 489.367 39.7667 489.993 39.1 490.42C38.4467 490.833 37.6733 491.04 36.78 491.04C36.2333 491.04 35.7467 490.967 35.32 490.82C34.8933 490.673 34.5267 490.487 34.22 490.26C33.9267 490.02 33.6733 489.76 33.46 489.48H33.34C33.3667 489.707 33.3933 489.993 33.42 490.34C33.4467 490.687 33.46 490.987 33.46 491.24V495.64H31.7V480.12H33.14L33.38 481.58H33.46C33.6733 481.273 33.9267 480.993 34.22 480.74C34.5267 480.487 34.8867 480.287 35.3 480.14C35.7267 479.993 36.2267 479.92 36.8 479.92ZM36.48 481.4C35.76 481.4 35.18 481.54 34.74 481.82C34.3 482.087 33.98 482.493 33.78 483.04C33.58 483.587 33.4733 484.28 33.46 485.12V485.46C33.46 486.34 33.5533 487.087 33.74 487.7C33.9267 488.313 34.24 488.78 34.68 489.1C35.1333 489.42 35.7467 489.58 36.52 489.58C37.1733 489.58 37.7067 489.4 38.12 489.04C38.5467 488.68 38.86 488.193 39.06 487.58C39.2733 486.953 39.38 486.24 39.38 485.44C39.38 484.213 39.14 483.233 38.66 482.5C38.1933 481.767 37.4667 481.4 36.48 481.4ZM51.0047 479.92C51.2047 479.92 51.418 479.933 51.6447 479.96C51.8847 479.973 52.0914 480 52.2647 480.04L52.0447 481.66C51.8714 481.62 51.678 481.587 51.4647 481.56C51.2647 481.533 51.0714 481.52 50.8847 481.52C50.4714 481.52 50.078 481.607 49.7047 481.78C49.3314 481.953 48.998 482.2 48.7047 482.52C48.4114 482.827 48.178 483.2 48.0047 483.64C47.8447 484.08 47.7647 484.573 47.7647 485.12V490.84H46.0047V480.12H47.4447L47.6447 482.08H47.7247C47.9514 481.68 48.2247 481.32 48.5447 481C48.8647 480.667 49.2314 480.407 49.6447 480.22C50.058 480.02 50.5114 479.92 51.0047 479.92ZM65.1958 485.46C65.1958 486.353 65.0758 487.147 64.8358 487.84C64.6091 488.52 64.2758 489.1 63.8358 489.58C63.4091 490.06 62.8824 490.427 62.2558 490.68C61.6424 490.92 60.9558 491.04 60.1958 491.04C59.4891 491.04 58.8358 490.92 58.2358 490.68C57.6358 490.427 57.1158 490.06 56.6758 489.58C56.2358 489.1 55.8891 488.52 55.6358 487.84C55.3958 487.147 55.2758 486.353 55.2758 485.46C55.2758 484.273 55.4758 483.273 55.8758 482.46C56.2758 481.633 56.8491 481.007 57.5958 480.58C58.3424 480.14 59.2291 479.92 60.2558 479.92C61.2291 479.92 62.0824 480.14 62.8158 480.58C63.5624 481.007 64.1424 481.633 64.5558 482.46C64.9824 483.273 65.1958 484.273 65.1958 485.46ZM57.0958 485.46C57.0958 486.3 57.2024 487.033 57.4158 487.66C57.6424 488.273 57.9891 488.747 58.4558 489.08C58.9224 489.413 59.5158 489.58 60.2358 489.58C60.9558 489.58 61.5491 489.413 62.0158 489.08C62.4824 488.747 62.8224 488.273 63.0358 487.66C63.2624 487.033 63.3758 486.3 63.3758 485.46C63.3758 484.607 63.2624 483.88 63.0358 483.28C62.8091 482.68 62.4624 482.22 61.9958 481.9C61.5424 481.567 60.9491 481.4 60.2158 481.4C59.1224 481.4 58.3291 481.76 57.8358 482.48C57.3424 483.2 57.0958 484.193 57.0958 485.46ZM68.7252 495.64C68.3918 495.64 68.0985 495.613 67.8452 495.56C67.5918 495.52 67.3718 495.467 67.1852 495.4V493.98C67.3852 494.033 67.5918 494.08 67.8052 494.12C68.0185 494.16 68.2518 494.18 68.5052 494.18C68.9318 494.18 69.2852 494.06 69.5652 493.82C69.8452 493.593 69.9852 493.153 69.9852 492.5V480.12H71.7452V492.44C71.7452 493.107 71.6385 493.68 71.4252 494.16C71.2118 494.64 70.8852 495.007 70.4452 495.26C70.0052 495.513 69.4318 495.64 68.7252 495.64ZM69.8452 477.22C69.8452 476.833 69.9452 476.553 70.1452 476.38C70.3452 476.193 70.5918 476.1 70.8852 476.1C71.1518 476.1 71.3852 476.193 71.5852 476.38C71.7985 476.553 71.9052 476.833 71.9052 477.22C71.9052 477.593 71.7985 477.873 71.5852 478.06C71.3852 478.247 71.1518 478.34 70.8852 478.34C70.5918 478.34 70.3452 478.247 70.1452 478.06C69.9452 477.873 69.8452 477.593 69.8452 477.22ZM81.2814 479.92C82.2014 479.92 82.9881 480.12 83.6414 480.52C84.3081 480.92 84.8147 481.487 85.1614 482.22C85.5214 482.94 85.7014 483.787 85.7014 484.76V485.82H78.3614C78.3881 487.033 78.6947 487.96 79.2814 488.6C79.8814 489.227 80.7147 489.54 81.7814 489.54C82.4614 489.54 83.0614 489.48 83.5814 489.36C84.1147 489.227 84.6614 489.04 85.2214 488.8V490.34C84.6747 490.58 84.1347 490.753 83.6014 490.86C83.0681 490.98 82.4347 491.04 81.7014 491.04C80.6881 491.04 79.7881 490.833 79.0014 490.42C78.2281 490.007 77.6214 489.393 77.1814 488.58C76.7547 487.753 76.5414 486.747 76.5414 485.56C76.5414 484.387 76.7347 483.38 77.1214 482.54C77.5214 481.7 78.0747 481.053 78.7814 480.6C79.5014 480.147 80.3347 479.92 81.2814 479.92ZM81.2614 481.36C80.4214 481.36 79.7547 481.633 79.2614 482.18C78.7814 482.713 78.4947 483.46 78.4014 484.42H83.8614C83.8614 483.807 83.7681 483.273 83.5814 482.82C83.3947 482.367 83.1081 482.013 82.7214 481.76C82.3481 481.493 81.8614 481.36 81.2614 481.36ZM94.7305 491.04C93.7838 491.04 92.9371 490.847 92.1905 490.46C91.4571 490.073 90.8771 489.473 90.4505 488.66C90.0371 487.847 89.8305 486.807 89.8305 485.54C89.8305 484.22 90.0505 483.147 90.4905 482.32C90.9305 481.493 91.5238 480.887 92.2705 480.5C93.0305 480.113 93.8905 479.92 94.8505 479.92C95.3971 479.92 95.9238 479.98 96.4305 480.1C96.9371 480.207 97.3505 480.34 97.6705 480.5L97.1305 481.96C96.8105 481.84 96.4371 481.727 96.0105 481.62C95.5838 481.513 95.1838 481.46 94.8105 481.46C94.0905 481.46 93.4971 481.613 93.0305 481.92C92.5638 482.227 92.2171 482.68 91.9905 483.28C91.7638 483.88 91.6505 484.627 91.6505 485.52C91.6505 486.373 91.7638 487.1 91.9905 487.7C92.2171 488.3 92.5571 488.753 93.0105 489.06C93.4638 489.367 94.0305 489.52 94.7105 489.52C95.2971 489.52 95.8105 489.46 96.2505 489.34C96.7038 489.22 97.1171 489.073 97.4905 488.9V490.46C97.1305 490.647 96.7305 490.787 96.2905 490.88C95.8638 490.987 95.3438 491.04 94.7305 491.04ZM105.62 489.6C105.887 489.6 106.16 489.58 106.44 489.54C106.72 489.487 106.947 489.433 107.12 489.38V490.72C106.933 490.813 106.667 490.887 106.32 490.94C105.973 491.007 105.64 491.04 105.32 491.04C104.76 491.04 104.24 490.947 103.76 490.76C103.293 490.56 102.913 490.22 102.62 489.74C102.327 489.26 102.18 488.587 102.18 487.72V481.48H100.66V480.64L102.2 479.94L102.9 477.66H103.94V480.12H107.04V481.48H103.94V487.68C103.94 488.333 104.093 488.82 104.4 489.14C104.72 489.447 105.127 489.6 105.62 489.6ZM118.246 487.88C118.246 488.573 118.073 489.153 117.726 489.62C117.38 490.087 116.886 490.44 116.246 490.68C115.606 490.92 114.846 491.04 113.966 491.04C113.22 491.04 112.573 490.98 112.026 490.86C111.493 490.74 111.02 490.573 110.606 490.36V488.76C111.033 488.973 111.546 489.173 112.146 489.36C112.76 489.533 113.38 489.62 114.006 489.62C114.9 489.62 115.546 489.48 115.946 489.2C116.346 488.907 116.546 488.52 116.546 488.04C116.546 487.773 116.473 487.533 116.326 487.32C116.18 487.107 115.913 486.893 115.526 486.68C115.153 486.467 114.613 486.227 113.906 485.96C113.213 485.693 112.62 485.427 112.126 485.16C111.633 484.893 111.253 484.573 110.986 484.2C110.72 483.827 110.586 483.347 110.586 482.76C110.586 481.853 110.953 481.153 111.686 480.66C112.433 480.167 113.406 479.92 114.606 479.92C115.26 479.92 115.866 479.987 116.426 480.12C117 480.24 117.533 480.413 118.026 480.64L117.426 482.04C117.133 481.907 116.82 481.793 116.486 481.7C116.166 481.593 115.84 481.513 115.506 481.46C115.173 481.393 114.833 481.36 114.486 481.36C113.766 481.36 113.213 481.48 112.826 481.72C112.453 481.947 112.266 482.26 112.266 482.66C112.266 482.953 112.353 483.207 112.526 483.42C112.7 483.62 112.986 483.82 113.386 484.02C113.8 484.207 114.346 484.433 115.026 484.7C115.706 484.953 116.286 485.213 116.766 485.48C117.246 485.747 117.613 486.073 117.866 486.46C118.12 486.833 118.246 487.307 118.246 487.88ZM12.7802 523.54C12.7802 522.94 12.8736 522.46 13.0602 522.1C13.2602 521.727 13.5269 521.46 13.8602 521.3C14.2069 521.14 14.5869 521.06 15.0002 521.06C15.4136 521.06 15.7869 521.14 16.1202 521.3C16.4536 521.46 16.7202 521.727 16.9202 522.1C17.1202 522.46 17.2202 522.94 17.2202 523.54C17.2202 524.127 17.1202 524.607 16.9202 524.98C16.7202 525.34 16.4536 525.607 16.1202 525.78C15.7869 525.94 15.4136 526.02 15.0002 526.02C14.5869 526.02 14.2069 525.94 13.8602 525.78C13.5269 525.607 13.2602 525.34 13.0602 524.98C12.8736 524.607 12.7802 524.127 12.7802 523.54ZM38.24 530.84L33.54 518.32H33.46C33.4867 518.587 33.5067 518.927 33.52 519.34C33.5467 519.753 33.5667 520.207 33.58 520.7C33.5933 521.18 33.6 521.673 33.6 522.18V530.84H31.94V516.56H34.6L39 528.26H39.08L43.56 516.56H46.2V530.84H44.42V522.06C44.42 521.593 44.4267 521.133 44.44 520.68C44.4533 520.213 44.4733 519.78 44.5 519.38C44.5267 518.967 44.5467 518.62 44.56 518.34H44.48L39.72 530.84H38.24ZM55.9845 519.92C56.9045 519.92 57.6912 520.12 58.3445 520.52C59.0112 520.92 59.5179 521.487 59.8645 522.22C60.2245 522.94 60.4045 523.787 60.4045 524.76V525.82H53.0645C53.0912 527.033 53.3979 527.96 53.9845 528.6C54.5845 529.227 55.4179 529.54 56.4845 529.54C57.1645 529.54 57.7645 529.48 58.2845 529.36C58.8179 529.227 59.3645 529.04 59.9245 528.8V530.34C59.3779 530.58 58.8379 530.753 58.3045 530.86C57.7712 530.98 57.1379 531.04 56.4045 531.04C55.3912 531.04 54.4912 530.833 53.7045 530.42C52.9312 530.007 52.3245 529.393 51.8845 528.58C51.4579 527.753 51.2445 526.747 51.2445 525.56C51.2445 524.387 51.4379 523.38 51.8245 522.54C52.2245 521.7 52.7779 521.053 53.4845 520.6C54.2045 520.147 55.0379 519.92 55.9845 519.92ZM55.9645 521.36C55.1245 521.36 54.4579 521.633 53.9645 522.18C53.4845 522.713 53.1979 523.46 53.1045 524.42H58.5645C58.5645 523.807 58.4712 523.273 58.2845 522.82C58.0979 522.367 57.8112 522.013 57.4245 521.76C57.0512 521.493 56.5645 521.36 55.9645 521.36ZM70.1336 519.92C70.3336 519.92 70.5469 519.933 70.7736 519.96C71.0136 519.973 71.2203 520 71.3936 520.04L71.1736 521.66C71.0003 521.62 70.8069 521.587 70.5936 521.56C70.3936 521.533 70.2003 521.52 70.0136 521.52C69.6003 521.52 69.2069 521.607 68.8336 521.78C68.4603 521.953 68.1269 522.2 67.8336 522.52C67.5403 522.827 67.3069 523.2 67.1336 523.64C66.9736 524.08 66.8936 524.573 66.8936 525.12V530.84H65.1336V520.12H66.5736L66.7736 522.08H66.8536C67.0803 521.68 67.3536 521.32 67.6736 521C67.9936 520.667 68.3603 520.407 68.7736 520.22C69.1869 520.02 69.6403 519.92 70.1336 519.92ZM79.3047 531.04C78.358 531.04 77.5114 530.847 76.7647 530.46C76.0314 530.073 75.4514 529.473 75.0247 528.66C74.6114 527.847 74.4047 526.807 74.4047 525.54C74.4047 524.22 74.6247 523.147 75.0647 522.32C75.5047 521.493 76.098 520.887 76.8447 520.5C77.6047 520.113 78.4647 519.92 79.4247 519.92C79.9714 519.92 80.498 519.98 81.0047 520.1C81.5114 520.207 81.9247 520.34 82.2447 520.5L81.7047 521.96C81.3847 521.84 81.0114 521.727 80.5847 521.62C80.158 521.513 79.758 521.46 79.3847 521.46C78.6647 521.46 78.0714 521.613 77.6047 521.92C77.138 522.227 76.7914 522.68 76.5647 523.28C76.338 523.88 76.2247 524.627 76.2247 525.52C76.2247 526.373 76.338 527.1 76.5647 527.7C76.7914 528.3 77.1314 528.753 77.5847 529.06C78.038 529.367 78.6047 529.52 79.2847 529.52C79.8714 529.52 80.3847 529.46 80.8247 529.34C81.278 529.22 81.6914 529.073 82.0647 528.9V530.46C81.7047 530.647 81.3047 530.787 80.8647 530.88C80.438 530.987 79.918 531.04 79.3047 531.04ZM88.3741 520.1C88.3741 520.353 88.3607 520.613 88.3341 520.88C88.3207 521.147 88.3007 521.387 88.2741 521.6H88.3941C88.6207 521.227 88.9074 520.92 89.2541 520.68C89.6007 520.44 89.9874 520.26 90.4141 520.14C90.8407 520.007 91.2807 519.94 91.7341 519.94C92.6007 519.94 93.3207 520.08 93.8941 520.36C94.4807 520.627 94.9207 521.047 95.2141 521.62C95.5074 522.193 95.6541 522.94 95.6541 523.86V530.84H93.9141V523.98C93.9141 523.113 93.7207 522.467 93.3341 522.04C92.9474 521.613 92.3407 521.4 91.5141 521.4C90.7141 521.4 90.0874 521.553 89.6341 521.86C89.1807 522.153 88.8541 522.593 88.6541 523.18C88.4674 523.753 88.3741 524.46 88.3741 525.3V530.84H86.6141V515.64H88.3741V520.1ZM105.037 519.94C106.344 519.94 107.311 520.227 107.937 520.8C108.564 521.373 108.877 522.287 108.877 523.54V530.84H107.597L107.257 529.32H107.177C106.871 529.707 106.551 530.033 106.217 530.3C105.897 530.553 105.524 530.74 105.097 530.86C104.684 530.98 104.177 531.04 103.577 531.04C102.937 531.04 102.357 530.927 101.837 530.7C101.331 530.473 100.931 530.127 100.637 529.66C100.344 529.18 100.197 528.58 100.197 527.86C100.197 526.793 100.617 525.973 101.457 525.4C102.297 524.813 103.591 524.493 105.337 524.44L107.157 524.38V523.74C107.157 522.847 106.964 522.227 106.577 521.88C106.191 521.533 105.644 521.36 104.937 521.36C104.377 521.36 103.844 521.447 103.337 521.62C102.831 521.78 102.357 521.967 101.917 522.18L101.377 520.86C101.844 520.607 102.397 520.393 103.037 520.22C103.677 520.033 104.344 519.94 105.037 519.94ZM105.557 525.66C104.224 525.713 103.297 525.927 102.777 526.3C102.271 526.673 102.017 527.2 102.017 527.88C102.017 528.48 102.197 528.92 102.557 529.2C102.931 529.48 103.404 529.62 103.977 529.62C104.884 529.62 105.637 529.373 106.237 528.88C106.837 528.373 107.137 527.6 107.137 526.56V525.6L105.557 525.66ZM119.348 519.92C120.628 519.92 121.595 520.233 122.248 520.86C122.902 521.473 123.228 522.473 123.228 523.86V530.84H121.488V523.98C121.488 523.113 121.295 522.467 120.908 522.04C120.522 521.613 119.915 521.4 119.088 521.4C117.902 521.4 117.082 521.733 116.628 522.4C116.175 523.067 115.948 524.027 115.948 525.28V530.84H114.188V520.12H115.608L115.868 521.58H115.968C116.208 521.207 116.502 520.9 116.848 520.66C117.208 520.407 117.602 520.22 118.028 520.1C118.455 519.98 118.895 519.92 119.348 519.92ZM132.352 531.04C131.018 531.04 129.952 530.58 129.152 529.66C128.352 528.727 127.952 527.34 127.952 525.5C127.952 523.66 128.352 522.273 129.152 521.34C129.965 520.393 131.038 519.92 132.372 519.92C132.932 519.92 133.418 519.993 133.832 520.14C134.245 520.273 134.605 520.46 134.912 520.7C135.218 520.94 135.478 521.207 135.692 521.5H135.812C135.798 521.327 135.772 521.073 135.732 520.74C135.705 520.393 135.692 520.12 135.692 519.92V515.64H137.452V530.84H136.032L135.772 529.4H135.692C135.478 529.707 135.218 529.987 134.912 530.24C134.605 530.48 134.238 530.673 133.812 530.82C133.398 530.967 132.912 531.04 132.352 531.04ZM132.632 529.58C133.765 529.58 134.558 529.273 135.012 528.66C135.478 528.033 135.712 527.093 135.712 525.84V525.52C135.712 524.187 135.492 523.167 135.052 522.46C134.612 521.74 133.798 521.38 132.612 521.38C131.665 521.38 130.952 521.76 130.472 522.52C130.005 523.267 129.772 524.273 129.772 525.54C129.772 526.82 130.005 527.813 130.472 528.52C130.952 529.227 131.672 529.58 132.632 529.58ZM144.616 520.12V530.84H142.856V520.12H144.616ZM143.756 516.1C144.023 516.1 144.256 516.193 144.456 516.38C144.67 516.553 144.776 516.833 144.776 517.22C144.776 517.593 144.67 517.873 144.456 518.06C144.256 518.247 144.023 518.34 143.756 518.34C143.463 518.34 143.216 518.247 143.016 518.06C142.816 517.873 142.716 517.593 142.716 517.22C142.716 516.833 142.816 516.553 143.016 516.38C143.216 516.193 143.463 516.1 143.756 516.1ZM156.993 527.88C156.993 528.573 156.819 529.153 156.473 529.62C156.126 530.087 155.633 530.44 154.993 530.68C154.353 530.92 153.593 531.04 152.713 531.04C151.966 531.04 151.319 530.98 150.773 530.86C150.239 530.74 149.766 530.573 149.353 530.36V528.76C149.779 528.973 150.293 529.173 150.893 529.36C151.506 529.533 152.126 529.62 152.753 529.62C153.646 529.62 154.293 529.48 154.693 529.2C155.093 528.907 155.293 528.52 155.293 528.04C155.293 527.773 155.219 527.533 155.073 527.32C154.926 527.107 154.659 526.893 154.273 526.68C153.899 526.467 153.359 526.227 152.653 525.96C151.959 525.693 151.366 525.427 150.873 525.16C150.379 524.893 149.999 524.573 149.733 524.2C149.466 523.827 149.333 523.347 149.333 522.76C149.333 521.853 149.699 521.153 150.433 520.66C151.179 520.167 152.153 519.92 153.353 519.92C154.006 519.92 154.613 519.987 155.173 520.12C155.746 520.24 156.279 520.413 156.773 520.64L156.173 522.04C155.879 521.907 155.566 521.793 155.233 521.7C154.913 521.593 154.586 521.513 154.253 521.46C153.919 521.393 153.579 521.36 153.233 521.36C152.513 521.36 151.959 521.48 151.573 521.72C151.199 521.947 151.013 522.26 151.013 522.66C151.013 522.953 151.099 523.207 151.273 523.42C151.446 523.62 151.733 523.82 152.133 524.02C152.546 524.207 153.093 524.433 153.773 524.7C154.453 524.953 155.033 525.213 155.513 525.48C155.993 525.747 156.359 526.073 156.613 526.46C156.866 526.833 156.993 527.307 156.993 527.88ZM165.723 519.92C166.643 519.92 167.429 520.12 168.083 520.52C168.749 520.92 169.256 521.487 169.603 522.22C169.963 522.94 170.143 523.787 170.143 524.76V525.82H162.803C162.829 527.033 163.136 527.96 163.723 528.6C164.323 529.227 165.156 529.54 166.223 529.54C166.903 529.54 167.503 529.48 168.023 529.36C168.556 529.227 169.103 529.04 169.663 528.8V530.34C169.116 530.58 168.576 530.753 168.043 530.86C167.509 530.98 166.876 531.04 166.143 531.04C165.129 531.04 164.229 530.833 163.443 530.42C162.669 530.007 162.063 529.393 161.623 528.58C161.196 527.753 160.983 526.747 160.983 525.56C160.983 524.387 161.176 523.38 161.563 522.54C161.963 521.7 162.516 521.053 163.223 520.6C163.943 520.147 164.776 519.92 165.723 519.92ZM165.703 521.36C164.863 521.36 164.196 521.633 163.703 522.18C163.223 522.713 162.936 523.46 162.843 524.42H168.303C168.303 523.807 168.209 523.273 168.023 522.82C167.836 522.367 167.549 522.013 167.163 521.76C166.789 521.493 166.303 521.36 165.703 521.36Z" fill="white"/>
<g filter="url(#filter0_f_243_6759)">
<circle cx="235" cy="112.84" r="97.5" stroke="url(#paint0_linear_243_6759)" stroke-width="5"/>
</g>
<circle cx="235" cy="112.84" r="97.5" stroke="url(#paint1_linear_243_6759)" stroke-width="5"/>
<path d="M203.796 130.84C202.58 130.84 201.476 130.52 200.484 129.88C199.492 129.208 198.692 128.344 198.084 127.288C197.476 126.232 197.172 125.112 197.172 123.928V103.048C197.172 101.8 197.476 100.68 198.084 99.6878C198.692 98.6638 199.492 97.8478 200.484 97.2398C201.476 96.5998 202.58 96.2798 203.796 96.2798H224.772C225.988 96.2798 227.092 96.5998 228.084 97.2398C229.076 97.8478 229.876 98.6638 230.484 99.6878C231.092 100.68 231.396 101.8 231.396 103.048V123.928C231.396 125.112 231.092 126.232 230.484 127.288C229.876 128.344 229.076 129.208 228.084 129.88C227.092 130.52 225.988 130.84 224.772 130.84H203.796ZM206.34 124.216H224.532C224.692 124.216 224.82 124.168 224.916 124.072C225.044 123.944 225.108 123.8 225.108 123.64V108.568L206.34 124.216ZM203.46 118.36L222.228 102.712H204.036C203.876 102.712 203.732 102.776 203.604 102.904C203.508 103 203.46 103.128 203.46 103.288V118.36ZM245.123 130.84C243.875 130.84 242.755 130.536 241.763 129.928C240.771 129.32 239.971 128.52 239.363 127.528C238.755 126.536 238.451 125.432 238.451 124.216V122.152H244.739V123.976C244.739 124.136 244.787 124.28 244.883 124.408C245.011 124.504 245.155 124.552 245.315 124.552H265.811C265.971 124.552 266.115 124.504 266.243 124.408C266.371 124.28 266.435 124.136 266.435 123.976V117.064C266.435 116.904 266.371 116.776 266.243 116.68C266.115 116.552 265.971 116.488 265.811 116.488H244.403V110.2H264.467C264.627 110.2 264.755 110.152 264.851 110.056C264.979 109.928 265.043 109.784 265.043 109.624V103.144C265.043 102.984 264.979 102.856 264.851 102.76C264.755 102.632 264.627 102.568 264.467 102.568H245.315C245.155 102.568 245.011 102.632 244.883 102.76C244.787 102.856 244.739 102.984 244.739 103.144V105.4H238.451V102.904C238.451 101.656 238.755 100.536 239.363 99.5438C239.971 98.5518 240.771 97.7678 241.763 97.1918C242.755 96.5838 243.875 96.2798 245.123 96.2798H264.707C265.955 96.2798 267.075 96.5838 268.067 97.1918C269.059 97.7678 269.843 98.5518 270.419 99.5438C271.027 100.536 271.331 101.656 271.331 102.904V109.912C271.331 110.296 271.299 110.696 271.236 111.112C271.171 111.496 271.075 111.864 270.947 112.216C271.523 112.824 271.955 113.544 272.243 114.376C272.563 115.176 272.723 115.992 272.723 116.824V124.216C272.723 125.432 272.419 126.536 271.811 127.528C271.203 128.52 270.403 129.32 269.411 129.928C268.419 130.536 267.315 130.84 266.099 130.84H245.123Z" fill="#9164FB"/>
<defs>
<filter id="filter0_f_243_6759" x="123" y="0.839844" width="224" height="224" filterUnits="userSpaceOnUse" color-interpolation-filters="sRGB">
<feFlood flood-opacity="0" result="BackgroundImageFix"/>
<feBlend mode="normal" in="SourceGraphic" in2="BackgroundImageFix" result="shape"/>
<feGaussianBlur stdDeviation="6" result="effect1_foregroundBlur_243_6759"/>
</filter>
<linearGradient id="paint0_linear_243_6759" x1="235" y1="12.8398" x2="235" y2="212.84" gradientUnits="userSpaceOnUse">
<stop stop-color="#FF77FA"/>
<stop offset="1" stop-color="#7075FF"/>
</linearGradient>
<linearGradient id="paint1_linear_243_6759" x1="235" y1="12.8398" x2="235" y2="212.84" gradientUnits="userSpaceOnUse">
<stop stop-color="#FF77FA"/>
<stop offset="1" stop-color="#7075FF"/>
</linearGradient>
</defs>
</svg>
