<svg width="155" height="157" viewBox="0 0 155 157" fill="none" xmlns="http://www.w3.org/2000/svg">
<path d="M29.5143 79.9385C29.4982 79.8618 29.483 79.7846 29.4688 79.7068C29.4838 79.7845 29.499 79.8616 29.5143 79.9385ZM29.5143 79.9385C32.5509 94.3852 63.0086 96.7777 63.0086 96.7777C63.0086 96.7777 39.1762 45.9841 93.2823 44.8798C93.2677 44.8742 93.2531 44.8686 93.2385 44.863C85.9656 43.3835 77.0338 42.939 64.665 45.8922C38.4584 52.1494 30.3118 71.1662 29.5143 79.9385Z" stroke="white" stroke-width="2.60345"/>
<path d="M55.3699 38.0708L153 2C153 35.4943 137.781 46.777 123.647 50.033C106.071 54.0817 97.4218 38.0708 64.6637 45.8922C38.4571 52.1494 30.3106 71.1663 29.5131 79.9386C28.4089 74.4176 28.1088 66.7802 31.9055 57.8545C37.1505 45.5242 47.7325 41.2914 55.3699 38.0708Z" stroke="white" stroke-width="2.60345"/>
<path d="M125.488 76.8089C124.813 84.2275 118.883 99.036 101.222 107.215C132.609 67.6274 63.6806 44.3878 67.977 95.7657C45.157 36.7833 120.631 38.4497 125.488 76.8089Z" stroke="white" stroke-width="2.60345"/>
<path d="M99.63 118.77L1.99974 154.841C1.99974 121.347 17.2194 110.064 31.3532 106.808C48.9285 102.759 57.5782 118.77 90.3363 110.949C116.543 104.691 124.689 85.5825 125.487 76.8102C126.591 83.7115 127.811 88.2203 124.015 97.146C118.77 109.476 107.267 115.549 99.63 118.77Z" stroke="white" stroke-width="2.60345"/>
</svg>
