<svg width="32" height="33" viewBox="0 0 32 33" fill="none" xmlns="http://www.w3.org/2000/svg">
<path fill-rule="evenodd" clip-rule="evenodd" d="M3.42222 7.02344C3.13932 7.02344 2.86801 7.13582 2.66797 7.33586C2.46793 7.5359 2.35555 7.80721 2.35555 8.0901C2.35555 8.373 2.46793 8.64431 2.66797 8.84435C2.86801 9.04439 3.13932 9.15677 3.42222 9.15677H28.8034C29.0863 9.15677 29.3576 9.04439 29.5576 8.84435C29.7577 8.64431 29.8701 8.373 29.8701 8.0901C29.8701 7.80721 29.7577 7.5359 29.5576 7.33586C29.3576 7.13582 29.0863 7.02344 28.8034 7.02344H3.42222ZM9 16.6234C9 16.3405 9.11238 16.0692 9.31242 15.8692C9.51246 15.6692 9.78377 15.5568 10.0667 15.5568H28.8034C29.0863 15.5568 29.3576 15.6692 29.5576 15.8692C29.7577 16.0692 29.8701 16.3405 29.8701 16.6234C29.8701 16.9063 29.7577 17.1776 29.5576 17.3777C29.3576 17.5777 29.0863 17.6901 28.8034 17.6901H10.0667C9.78377 17.6901 9.51246 17.5777 9.31242 17.3777C9.11238 17.1776 9 16.9063 9 16.6234ZM2.13672 25.1568C2.13672 24.8739 2.2491 24.6026 2.44914 24.4025C2.64918 24.2025 2.92049 24.0901 3.20339 24.0901H28.8034C29.0863 24.0901 29.3576 24.2025 29.5576 24.4025C29.7577 24.6026 29.8701 24.8739 29.8701 25.1568C29.8701 25.4397 29.7577 25.711 29.5576 25.911C29.3576 26.1111 29.0863 26.2234 28.8034 26.2234H3.20339C2.92049 26.2234 2.64918 26.1111 2.44914 25.911C2.2491 25.711 2.13672 25.4397 2.13672 25.1568Z" fill="#F1EAFF"/>
</svg>
