<svg width="298" height="60" viewBox="0 0 298 60" fill="none" xmlns="http://www.w3.org/2000/svg">
<path d="M10.7832 30.5049C10.7888 30.5355 10.7948 30.5658 10.8011 30.5959C11.9932 36.2672 23.9498 37.2064 23.9498 37.2064C23.9498 37.2064 14.594 17.2666 35.8342 16.833C35.8285 16.8308 35.8227 16.8286 35.817 16.8264C32.9619 16.2457 29.4556 16.0712 24.6 17.2305C14.3122 19.6868 11.1142 27.1522 10.8011 30.5959C10.7951 30.5657 10.7891 30.5354 10.7832 30.5049Z" fill="url(#paint0_linear_243_6530)"/>
<path d="M20.9507 14.1601L59.277 0C59.277 13.1487 53.3023 17.5779 47.7538 18.8561C40.8544 20.4455 37.4588 14.1601 24.5991 17.2306C14.3113 19.6869 11.1133 27.1523 10.8002 30.596C10.3667 28.4287 10.2489 25.4305 11.7394 21.9266C13.7984 17.0861 17.9525 15.4244 20.9507 14.1601Z" fill="url(#paint1_radial_243_6530)"/>
<path d="M48.4767 29.3674C48.2117 32.2797 45.8838 38.093 38.9508 41.3037C51.2721 25.1100 24.2133 16.6399 25.8999 36.8092C16.9416 13.6547 46.5699 14.3089 48.4767 29.3674Z" fill="url(#paint2_linear_243_6530)"/>
<path d="M38.3267 45.8399L0.000358582 60C0.000358582 46.8513 5.97507 42.4221 11.5235 41.1439C18.423 39.5545 21.8185 45.8399 34.6783 42.7694C44.966 40.3131 48.1641 32.8116 48.4772 29.3678C48.9107 32.0771 49.3897 33.8471 47.8992 37.351C45.8402 42.1914 41.3249 44.5756 38.3267 45.8399Z" fill="url(#paint3_radial_243_6530)"/>
<path d="M102.149 35.7215C101.886 36.6926 101.517 37.5692 101.043 38.3512C100.585 39.1206 100.067 39.8017 99.4867 40.3945C98.9067 40.9873 98.2785 41.4918 97.6021 41.9081C96.9257 42.3243 96.2502 42.6648 95.5755 42.9297C94.9008 43.1946 94.2318 43.3901 93.5685 43.5162C92.9183 43.6423 92.318 43.7054 91.7675 43.7054H72.0482L73.381 38.7864H93.1003C94.0833 38.7864 94.9187 38.5089 95.6064 37.9539C96.3073 37.399 96.7842 36.6548 97.037 35.7215C97.1601 35.2674 97.2008 34.8512 97.1591 34.4728C97.1174 34.0944 96.9966 33.7665 96.7965 33.489C96.6096 33.2115 96.34 32.9971 95.9878 32.8457C95.6487 32.6944 95.2432 32.6187 94.7714 32.6187H83.0145C82.1888 32.6187 81.3351 32.48 80.4535 32.2025C79.5753 31.9124 78.8088 31.452 78.1539 30.8214C77.5122 30.1907 77.0544 29.3646 76.7808 28.3429C76.5202 27.3213 76.5898 26.0726 76.9897 24.5969C77.3895 23.1212 77.9948 21.8789 78.8056 20.8698C79.6329 19.8482 80.5382 19.0221 81.5217 18.3914C82.5218 17.7482 83.5378 17.2878 84.5697 17.0103C85.6051 16.7202 86.5357 16.5752 87.3614 16.5752H104.761L103.428 21.4942H86.0287C85.0588 21.4942 84.2217 21.778 83.5174 22.3455C82.8262 22.9131 82.3542 23.6636 82.1013 24.5969C81.845 25.5429 81.9104 26.2934 82.2974 26.8483C82.7009 27.3907 83.3877 27.6619 84.3576 27.6619H96.1537C96.7008 27.6745 97.2636 27.7501 97.842 27.8889C98.4238 28.015 98.9786 28.2168 99.5064 28.4943C100.047 28.7718 100.535 29.1249 100.969 29.5538C101.407 29.97 101.755 30.4745 102.014 31.0673C102.286 31.6601 102.442 32.3412 102.483 33.1106C102.523 33.88 102.412 34.7503 102.149 35.7215Z" fill="white"/>
<path d="M134.781 32.7322C134.333 34.3845 133.626 35.9043 132.661 37.2918C131.695 38.6792 130.551 39.8774 129.229 40.8864C127.907 41.8954 126.449 42.6837 124.853 43.2513C123.274 43.8063 121.639 44.0838 119.948 44.0838H113.028C111.337 44.0838 109.846 43.8063 108.555 43.2513C107.267 42.6837 106.235 41.8954 105.46 40.8864C104.685 39.8774 104.184 38.6792 103.957 37.2918C103.743 35.9043 103.86 34.3845 104.307 32.7322L105.712 27.5483C106.156 25.9087 106.861 24.3951 107.827 23.0077C108.809 21.6077 109.959 20.4095 111.278 19.4131C112.6 18.404 114.059 17.6157 115.654 17.0481C117.25 16.4806 118.893 16.1968 120.584 16.1968H127.504C129.195 16.1968 130.678 16.4806 131.953 17.0481C133.241 17.6157 134.272 18.404 135.047 19.4131C135.826 20.4095 136.32 21.6077 136.531 23.0077C136.745 24.3951 136.63 25.9087 136.185 27.5483L134.781 32.7322ZM131.074 27.5483C131.337 26.5771 131.41 25.7006 131.295 24.9186C131.195 24.1239 130.926 23.4492 130.487 22.8942C130.064 22.3266 129.48 21.8915 128.737 21.5888C128.009 21.2734 127.154 21.1158 126.171 21.1158H119.251C118.255 21.1158 117.301 21.2734 116.39 21.5888C115.495 21.8915 114.676 22.3266 113.933 22.8942C113.192 23.4492 112.551 24.1239 112.008 24.9186C111.481 25.7006 111.087 26.5771 110.824 27.5483L109.419 32.7322C109.156 33.7034 109.074 34.5863 109.173 35.3809C109.289 36.1629 109.565 36.8377 110.001 37.4053C110.44 37.9602 111.024 38.3954 111.751 38.7107C112.495 39.0134 113.365 39.1648 114.361 39.1648H121.242C122.238 39.1648 123.183 39.0134 124.078 38.7107C124.989 38.3954 125.815 37.9602 126.555 37.4053C127.298 36.8377 127.934 36.1629 128.46 35.3809C129.003 34.5863 129.406 33.7034 129.669 32.7322L131.074 27.5483Z" fill="white"/>
<path d="M157.523 43.7054H137.423C137.056 43.7054 136.732 43.6423 136.452 43.5162C136.171 43.3901 135.942 43.2198 135.764 43.0054C135.603 42.7783 135.498 42.5135 135.449 42.2108C135.4 41.9081 135.423 41.5801 135.519 41.227L142.198 16.5752H147.31L141.292 38.7864H158.856L157.523 43.7054Z" fill="white"/>
<path d="M187.053 35.7215C186.79 36.6926 186.422 37.5692 185.948 38.3512C185.49 39.1206 184.971 39.8017 184.391 40.3945C183.811 40.9873 183.183 41.4918 182.507 41.9081C181.83 42.3243 181.155 42.6648 180.48 42.9297C179.805 43.1946 179.137 43.3901 178.473 43.5162C177.823 43.6423 177.223 43.7054 176.672 43.7054H156.953L158.286 38.7864H178.005C178.988 38.7864 179.823 38.5089 180.511 37.9539C181.212 37.399 181.689 36.6548 181.942 35.7215C182.065 35.2674 182.105 34.8512 182.064 34.4728C182.022 34.0944 181.901 33.7665 181.701 33.489C181.514 33.2115 181.245 32.9971 180.892 32.8457C180.553 32.6944 180.148 32.6187 179.676 32.6187H167.919C167.093 32.6187 166.24 32.48 165.358 32.2025C164.48 31.9124 163.713 31.452 163.059 30.8214C162.417 30.1907 161.959 29.3646 161.685 28.3429C161.425 27.3213 161.494 26.0726 161.894 24.5969C162.294 23.1212 162.899 21.8789 163.71 20.8698C164.538 19.8482 165.443 19.0221 166.426 18.3914C167.426 17.7482 168.442 17.2878 169.474 17.0103C170.51 16.7202 171.44 16.5752 172.266 16.5752H194.593L193.26 21.4942H170.933C169.963 21.4942 169.126 21.778 168.422 22.3455C167.731 22.9131 167.259 23.6636 167.006 24.5969C166.75 25.5429 166.815 26.2934 167.202 26.8483C167.606 27.3907 168.292 27.6619 169.262 27.6619H181.058C181.605 27.6745 182.168 27.7501 182.747 27.8889C183.329 28.015 183.883 28.2168 184.411 28.4943C184.952 28.7718 185.439 29.1249 185.874 29.5538C186.311 29.97 186.66 30.4745 186.919 31.0673C187.19 31.6601 187.347 32.3412 187.387 33.1106C187.428 33.88 187.317 34.7503 187.053 35.7215Z" fill="white"/>
<path d="M230.197 16.5752L218.589 42.0027C218.348 42.5072 217.994 42.9423 217.528 43.3081C217.062 43.6739 216.553 43.9072 216.001 44.0081C215.44 44.0964 214.944 44.0396 214.514 43.8378C214.097 43.636 213.809 43.3207 213.649 42.8919L208.3 28.097L194.913 42.8919C194.591 43.2576 194.206 43.5414 193.759 43.7432C193.324 43.945 192.884 44.0459 192.438 44.0459C191.822 44.0459 191.329 43.8567 190.96 43.4784C190.591 43.1 190.435 42.6081 190.495 42.0027L192.626 16.5752H197.817L196.344 34.4917L207.757 22.1185C208.079 21.7527 208.457 21.4689 208.892 21.2671C209.34 21.0653 209.787 20.9644 210.232 20.9644C210.678 20.9644 211.063 21.0653 211.389 21.2671C211.714 21.4689 211.952 21.7527 212.102 22.1185L216.771 34.4917L225.007 16.5752H230.197Z" fill="white"/>
<path d="M230.368 43.7054H225.257L232.607 16.5752H237.719L230.368 43.7054Z" fill="white"/>
<path d="M266.702 27.9267C266.397 29.0493 265.982 30.052 265.454 30.9349C264.926 31.8178 264.321 32.5998 263.639 33.2809C262.973 33.9494 262.254 34.5232 261.482 35.0025C260.709 35.4818 259.928 35.8728 259.139 36.1755C258.362 36.4782 257.594 36.699 256.836 36.8377C256.091 36.9764 255.403 37.0458 254.774 37.0458H245.685L247.018 32.1268H256.107C256.776 32.01100 257.4 31.9502 257.979 31.7484C258.574 31.534 259.11 31.2502 259.586 30.897C260.062 30.5439 260.471 30.1214 260.814 29.6295C261.16 29.1249 261.419 28.5574 261.59 27.9267L262.195 25.6942C262.297 25.0762 262.313 24.5086 262.243 23.9915C262.174 23.4744 262.005 23.0329 261.737 22.6672C261.482 22.3014 261.127 22.0176 260.67 21.8158C260.217 21.6014 259.656 21.4942 258.988 21.4942H247.467C246.785 21.4942 246.221 21.6644 245.775 22.005C245.329 22.3455 245.019 22.8374 244.845 23.4807L239.365 43.7054H234.253L239.733 23.4807C240.075 22.2194 240.601 21.1473 241.312 20.2644C242.036 19.3815 242.826 18.6689 243.681 18.1265C244.548 17.5842 245.434 17.1932 246.338 16.9535C247.245 16.7013 248.053 16.5752 248.76 16.5752H260.321C261.474 16.5752 262.47 16.7202 263.309 17.0103C264.151 17.2878 264.855 17.6662 265.42 18.1455C266.001 18.6121 266.45 19.1545 266.768 19.7725C267.099 20.3905 267.329 21.0401 267.459 21.7212C267.605 22.3897 267.657 23.0708 267.613 23.7645C267.573 24.4456 267.47 25.0888 267.306 25.6942L266.702 27.9267Z" fill="white"/>
<path d="M290.981 32.6187H277.62L278.963 27.6619H292.324L290.981 32.6187ZM290.277 43.7054H271.836C271.128 43.7054 270.387 43.5856 269.613 43.3459C268.839 43.1063 268.166 42.7153 267.592 42.1729C267.034 41.618 266.631 40.9053 266.382 40.035C266.149 39.1521 266.205 38.0738 266.551 36.7999L271.359 19.0536C271.451 18.713 271.604 18.3914 271.817 18.0887C272.03 17.786 272.279 17.5211 272.563 17.2941C272.86 17.0671 273.183 16.8905 273.532 16.7644C273.881 16.6382 274.239 16.5752 274.606 16.5752H297.628L296.295 21.4942H275.809L271.662 36.7999C271.488 37.4431 271.532 37.935 271.793 38.2756C272.055 38.6161 272.526 38.7864 273.208 38.7864H291.61L290.277 43.7054Z" fill="white"/>
<defs>
<linearGradient id="paint0_linear_243_6530" x1="10.6862" y1="18.5852" x2="35.9019" y2="44.1679" gradientUnits="userSpaceOnUse">
<stop stop-color="#0F7886"/>
<stop offset="1" stop-color="#8D21A0"/>
</linearGradient>
<radialGradient id="paint1_radial_243_6530" cx="0" cy="0" r="1" gradientUnits="userSpaceOnUse" gradientTransform="translate(60.0845 -7.15231) rotate(141.207) scale(60.3092 90.403)">
<stop offset="0.140651" stop-color="#DE36E1"/>
<stop offset="0.515625" stop-color="#8248BD"/>
<stop offset="0.855618" stop-color="#43D8EC"/>
<stop offset="1" stop-color="#37CA95"/>
</radialGradient>
<linearGradient id="paint2_linear_243_6530" x1="52.4934" y1="40.5821" x2="14.5678" y2="24.1313" gradientUnits="userSpaceOnUse">
<stop stop-color="#0F7886"/>
<stop offset="1" stop-color="#8D21A0"/>
</linearGradient>
<radialGradient id="paint3_radial_243_6530" cx="0" cy="0" r="1" gradientUnits="userSpaceOnUse" gradientTransform="translate(0.000349865 63.1798) rotate(-35.4343) scale(65.1716 97.6916)">
<stop stop-color="#37CA95"/>
<stop offset="0.161718" stop-color="#43D8EC"/>
<stop offset="0.561454" stop-color="#8248BD"/>
<stop offset="1" stop-color="#DE36E1"/>
</radialGradient>
</defs>
</svg>
