<svg width="293" height="39" viewBox="0 0 293 39" fill="none" xmlns="http://www.w3.org/2000/svg">
<path d="M62.3107 24.0476V24.1449C62.3107 27.941 59.1959 29.8391 54.5238 29.7904H44.6441V9.05778H54.2804C58.5146 9.05778 61.1426 11.1505 61.1426 14.4113V14.4599C61.1426 16.796 59.8773 18.11 58.4172 18.9374C60.802 19.9108 62.3107 21.2735 62.3107 24.0476ZM53.3071 17.4287C55.3511 17.4287 56.6165 16.796 56.6165 15.2386V15.1413C56.6165 13.7786 55.5458 12.9999 53.5991 12.9999H49.0729V17.38H53.3071V17.4287ZM54.5238 25.8483C56.5192 25.8483 57.7359 25.1669 57.7359 23.6095V23.5122C57.7359 22.1008 56.7138 21.2735 54.3778 21.2735H49.0729V25.8483H54.5238ZM71.8983 9.10645V29.8391H67.3235V9.10645H71.8983ZM96.4757 9.10645V29.8391H92.5823L82.5079 16.65V29.8391H77.9818V9.10645H82.2159L91.9496 21.9062V9.10645H96.4757ZM112.828 8.96044L121.734 29.8391H116.868L114.97 25.1669H106.209L104.311 29.8391H99.7365L108.643 8.96044H112.828ZM107.913 21.1275H113.412L110.687 14.4113L107.913 21.1275ZM143.538 9.10645V29.8391H139.644L129.57 16.65V29.8391H125.044V9.10645H129.278L139.012 21.9062V9.10645H143.538ZM164.222 23.5609L167.142 26.481C165 28.7684 162.616 30.1797 158.625 30.1797C152.541 30.1797 147.967 25.4589 147.967 19.4728V19.3754C147.967 13.4866 152.444 8.66844 158.82 8.66844C162.762 8.66844 165.098 9.98247 166.996 11.8805L164.076 15.2386C162.47 13.7786 160.815 12.9026 158.771 12.9026C155.267 12.9026 152.736 15.8227 152.736 19.3754V19.4728C152.736 23.0255 155.218 25.9943 158.771 25.9943C161.156 25.9943 162.616 25.0209 164.222 23.5609ZM186.658 25.7509V29.7904H170.841V9.05778H186.512V13.1459H175.367V17.38H185.198V21.4682H175.367V25.8483L186.658 25.7509ZM16.8546 0.492188L6.78035 6.2837L10.4791 8.4251L16.8546 4.77498L23.2302 8.4251L26.929 6.2837L16.8546 0.492188ZM23.2302 11.4912L26.929 13.6326V17.9154L20.5534 21.5655V28.8657L16.8546 31.0071L13.1559 28.8657V21.5655L6.78035 17.9154V13.6326L10.4791 11.4912L16.8546 15.1413L23.2302 11.4912ZM26.929 20.9815V25.2643L23.2302 27.4057V23.1229L26.929 20.9815ZM23.1815 30.4231L29.557 26.773V19.4728L33.2558 17.3314V28.963L23.1815 34.7545V30.4231ZM29.557 12.1239L25.8583 9.98247L29.557 7.84108L33.2558 9.98247V14.2653L29.557 16.4067V12.1239ZM13.1559 36.2633V31.9805L16.8546 34.1219L20.5534 31.9805V36.2633L16.8546 38.4047L13.1559 36.2633ZM10.4791 27.4057L6.78035 25.2643V20.9815L10.4791 23.1229V27.4057ZM16.8546 12.1239L13.1559 9.98247L16.8546 7.84108L20.5534 9.98247L16.8546 12.1239ZM7.85104 9.98247L4.15227 12.1239V16.4067L0.453491 14.2653V9.98247L4.15227 7.84108L7.85104 9.98247ZM0.453491 17.2827L4.15227 19.4241V26.7243L10.5278 30.3744V34.6572L0.453491 28.8657V17.2827ZM198.63 19.6674C198.63 25.6536 203.156 30.3744 209.191 30.3744C213.133 30.3744 215.469 28.9144 217.611 26.6756L215.275 24.2909C213.474 25.9456 211.868 26.9676 209.337 26.9676C205.395 26.9676 202.475 23.6582 202.475 19.5214C202.475 15.4333 205.346 12.1725 209.337 12.1725C211.722 12.1725 213.474 13.1946 215.129 14.752L217.465 12.0752C215.469 10.1772 213.182 8.86311 209.337 8.86311C203.059 8.91178 198.63 13.7299 198.63 19.6674ZM224.473 30.0337V21.2735H234.401V30.0337H238.051V9.25245H234.401V17.9154H224.473V9.25245H220.823V30.0337H224.473ZM258.784 30.0337H262.629L253.43 9.10645H250.072L240.923 30.0337H244.67L246.812 25.0209H256.643L258.784 30.0337ZM248.174 21.7602L251.727 13.4379L255.328 21.7602H248.174ZM269.248 30.0337V9.25245H265.597V30.0337H269.248ZM292.462 9.25245H288.812V23.6095L277.667 9.25245H274.309V30.0337H277.91V15.2386L289.396 30.0337H292.462V9.25245Z" fill="white"/>
</svg>
