<?xml version="1.0" encoding="utf-8"?>
<!-- Generator: Adobe Illustrator 25.2.1, SVG Export Plug-In . SVG Version: 6.00 Build 0)  -->
<svg version="1.1" id="Layer_1" xmlns="http://www.w3.org/2000/svg" xmlns:xlink="http://www.w3.org/1999/xlink" x="0px" y="0px"
	 viewBox="0 0 631.77 628.91" style="enable-background:new 0 0 631.77 628.91;" xml:space="preserve">
<style type="text/css">
	.st0{fill:#FFFFFF;}
</style>
<g>
	<path class="st0" d="M441.73,17.07c-11.59-7.13-28.85-3.56-35.79,8.4c-3.6,6.86-4.59,15.32-2.12,22.72
		c1.76,5.33,6.19,8.96,10.07,12.73c3.05,2.78,3.02,7.18,3.07,11c-0.15,25.48,0.21,50.96-0.47,76.43c-0.2,3.95-2.24,7.48-4.5,10.59
		c-4.04,5.57-8.54,10.78-12.81,16.16c-22.56-13.82-48.25-22.26-74.58-24.81c-0.09-29.01-0.58-58.03-0.63-87.04
		c4.62-3.95,9.61-7.93,11.99-13.72c3.71-8.67,2.83-19.56-3.46-26.84c-6.46-8.07-17.86-10.97-27.66-8.35
		c-9.73,2.34-17.55,11.14-18.65,21.11c-0.86,7.3,1.19,15.14,6.3,20.57c2.34,2.73,5.6,4.71,7.41,7.83c0.54,11.6,0.07,23.25,0.2,34.88
		c-0.77,17.2,0.17,34.42-0.72,51.61c-26.27,2.52-51.89,11.04-74.41,24.78c-4.62-5.93-9.65-11.56-13.87-17.79
		c-2.34-3.38-3.72-7.41-3.62-11.55c-0.03-25.05,0.05-50.12-0.04-75.18c0.09-3.11-0.13-6.77,2.38-9.09
		c3.92-4.11,8.83-7.71,10.59-13.39c2.26-7.41,1.48-15.83-2.17-22.66c-8.14-14.22-30.88-16.34-41.35-3.64
		c-7.95,8.62-9.2,22.88-1.84,32.25c3.32,4.47,9.72,7.41,9.55,13.76c0.23,20.56,0.66,41.11,0.31,61.66
		c-0.36,11.32-1.79,23.2,2.85,33.9c3.67,9.75,12.73,15.79,17.78,24.68c-5.73,6.03-11.3,12.19-16.96,18.29
		c-6.9-5.46-13.94-10.77-20.65-16.46c-3.71-3.22-8.43-5.26-13.39-5.2c-29.16-0.13-58.34,0.13-87.5-0.12
		c-4.67,0.12-7.25-4.23-10.19-7.12c-6.16-6.73-16.3-8.63-24.92-6.46c-10.46,2.9-17.79,13.1-18.45,23.78v2.44
		c0.42,13.25,12.15,24.78,25.5,24.41c9.92,0.36,18.53-6.03,23.67-14.06c27.03,0.12,54.07,0.67,81.09-0.13
		c13.21-0.67,21.67,10.86,31.44,17.76c-13.9,22.56-22.5,48.35-24.6,74.78c-7.6,1.24-15.31,0.77-22.96,0.82
		c-19.71-0.05-39.43,0.08-59.14-0.04c-4.22,0.36-7.56-2.3-9.94-5.46c-8.14-10.42-24.85-12.2-35.12-3.99
		c-7.84,5.88-11.36,16.7-8.58,26.09c2.6,8.94,10.66,16.16,19.94,17.43c8.26,1.19,17.36-1.37,22.89-7.84
		c2.58-2.79,5.14-6.61,9.44-6.31c20.61-0.17,41.23-0.01,61.84-0.07c7.21,0.04,14.46-0.35,21.62,0.68
		c2.13,26.45,10.74,52.27,24.65,74.85c-7.2,4.9-12.98,11.76-20.88,15.6c-7.09,3.5-15.17,1.72-22.73,1.85
		c-22.96-0.77-45.9,0.34-68.87-0.01c-2.63-3.25-5.21-6.63-8.63-9.09c-9.47-7.08-23.92-6.22-32.52,1.89
		c-4.98,4.55-7.59,11.17-8.11,17.82v1.64c0.4,8.66,4.82,17.29,12.41,21.74c7.88,4.97,18.42,4.66,26.37,0.04
		c3.61-2.11,5.96-5.68,8.91-8.54c2.62-2.63,6.61-2.55,10.07-2.69c18.33,0.04,36.65,0,54.99,0.03c9.44,0.27,18.89,0.55,28.34,0.23
		c4.97-0.31,10.53-1.84,13.26-6.38c9.55-14.61,19.21-29.13,28.7-43.77c-17.82-26.76-26.85-59.81-22.58-91.86
		c3.34-27.44,15.28-53.66,33.51-74.41c24.02-27.62,59.36-45.07,95.94-47.06c36.89-2.55,74.41,10.58,101.81,35.38l30.02-42.4
		c4.74-9.1,4.93-19.67,4.31-29.7c-0.94-22.45,0.12-44.9-0.11-67.36c-0.66-8.55,9.1-11.52,11.95-18.53
		C457.49,39.08,452.71,23.75,441.73,17.07z M50.29,201.4c-3.91,8.22-16.49,9.06-21.47,1.48c-5.14-6.46-0.75-16.62,6.86-18.65
		C45.17,180.88,55.27,192.47,50.29,201.4z M38.98,322c-6.18,0.03-11.49-5.29-12.41-11.22c0.47-4.4,3.52-8.3,7.37-10.31
		c7.46-3.71,17.05,2.23,17.76,10.32C50.95,316.97,45.15,321.91,38.98,322z M40.29,437.56c-7.08,0.83-13.69-5.61-13.76-12.58
		c0.17-5.21,4.01-9.91,8.98-11.32c6.87-2.26,15.1,2.67,15.88,9.96C52.42,430.34,46.88,436.79,40.29,437.56z M188.61,48.61
		c-7.17-4.74-6.26-16.39,1.45-20.07c7.84-5.06,19.06,2.17,18.11,11.29C208.03,49.14,195.65,55.11,188.61,48.61z M306.51,50.1
		c-9.29-4.04-8.83-19.78,1.26-22.45c7.28-2.86,16.86,2.47,16.55,10.73C325.45,47.55,314.43,54.56,306.51,50.1z M440.4,41.15
		c-1.58,8.49-12.9,13.56-19.68,7.52c-7.29-5.13-5.72-17.48,2.56-20.68C431.5,23.81,442.44,32.13,440.4,41.15z"/>
	<path class="st0" d="M610.71,414.52c-7.08-7.17-18.55-9.14-27.79-5.32c-5.88,2.27-10.12,7.17-13.77,12.1
		c-27.24,0.2-54.5-1.03-81.72,0.3c-12.96,0.19-20.96-11.21-30.77-17.74c13.8-22.65,22.5-48.41,24.61-74.89
		c3.37-0.48,6.77-0.71,10.18-0.66c24.65,0.11,49.31-0.08,73.96,0.08c3.93-0.16,6.25,3.32,8.5,5.93c5.46,6.34,14.24,9.13,22.41,8.24
		c10.26-1.11,19.11-9.44,21.15-19.52c1.69-8.39-1.47-17.33-7.8-23.04c-10.22-9.22-27.69-7.75-36.34,2.89
		c-2,2.45-4.28,5.37-7.81,5.24c-23.76,0.34-47.55-0.38-71.32,0.44c-4.34,0.13-8.67-0.28-12.93-1.09
		c-2.08-26.45-10.85-52.16-24.61-74.8c9.8-6.55,17.83-17.87,30.77-17.74c27.23,1.32,54.48,0.13,81.72,0.28
		c2.78,3.69,5.75,7.35,9.65,9.92c8.89,5.85,21.4,5.32,29.81-1.28c7.58-5.95,11.11-16.33,9.1-25.71c-1.8-8.41-7.85-15.91-15.91-18.93
		c-9.87-3.7-22.23-0.74-28.65,7.88c-2.17,2.95-5.33,5.33-9.16,5.22c-29.09,0.13-58.2-0.01-87.29,0.07
		c-8.79,0.01-15.17,7.06-21.31,12.41c-7.25,11.79-13.88,23.98-20.96,35.89c19.87,28.95,28.84,65.64,22.46,100.36
		c-5.84,33.79-24.82,65.03-52.01,85.91c-24.13,18.84-54.71,29.32-85.35,28.93c-33.15,0.36-66.01-12.26-90.97-33.98l-23.5,29.54
		c-9.64,8.96-13.88,22.41-12.98,35.35c1.3,24.58,0.15,49.18,0.27,73.77c0.36,8.04-8.93,10.69-11.68,17.33
		c-6.77,12.26-1.03,29.13,11.52,35.11c7.71,3.49,17.16,3.22,24.61-0.85c14.38-7.41,17.21-30.26,4.77-40.75
		c-2.75-2.54-6.42-5.2-6.31-9.37c-0.11-26.45,0-52.91-0.05-79.36c-0.19-4.28,1.56-8.35,3.99-11.77c4.15-5.97,9.01-11.41,13.47-17.14
		c22.53,13.8,48.2,22.33,74.51,24.78c0.23,29.01,0.67,58.01,0.66,87.04c-3.36,3.1-7.02,5.99-9.71,9.75
		c-6.23,9.13-6.07,22.52,1.34,30.96c9.91,12.45,31.59,12.16,41.1-0.63c6.35-7.8,6.86-19.33,2.17-28.07
		c-2.55-4.93-7.08-8.31-11.05-12c0.01-29.03,0.32-58.04,0.68-87.05c26.3-2.4,51.89-11.04,74.46-24.72
		c4.69,5.83,9.61,11.49,13.83,17.68c2.28,3.28,3.84,7.13,3.67,11.18c-0.05,26.48,0.09,52.96-0.07,79.44
		c-0.09,5.3-5.36,7.85-8.44,11.39c-7.14,7.73-7.12,19.88-2.75,28.92c6.31,13.05,24.87,16.71,36.77,9.13
		c11.03-7.03,14.76-22.48,8.69-34.21c-3.16-6.11-11.67-8.97-11.34-16.7c0.05-23.78-1.01-47.55,0.13-71.33
		c0.58-8.66-0.19-17.65-3.96-25.59c-3.93-8.85-12.34-14.45-16.96-22.86c5.6-6.12,11.26-12.19,16.89-18.3
		c6.19,4.89,12.54,9.57,18.53,14.7c2.9,2.44,5.95,4.87,9.63,6.03c5.18,1.64,10.66,0.7,15.99,0.82c25.48,0.04,50.96-0.07,76.45,0.04
		c4.27-0.2,7.52,2.78,9.89,5.96c5.2,6.66,14.19,9.41,22.38,8.51c10.59-1.1,19.56-9.91,21.56-20.26
		C619.58,429.95,616.94,420.56,610.71,414.52z M588.72,307.69c7.44-2.96,17.08,3.42,16.46,11.14c-0.45,5.65-5.9,10.42-11.67,10.79
		c-6.6,0.43-13.74-5.13-13.44-11.69C580.28,313.24,584.37,309.42,588.72,307.69z M589.76,191.72c9.76-2.66,19.22,9.01,13.83,17.88
		c-4.58,7.55-16.09,8.1-21.16,0.79C577.67,203.53,582.01,193.83,589.76,191.72z M214.55,595.16c-3.64,8.3-16.07,8.96-21.02,1.57
		c-5.3-6.44-0.74-16.47,6.78-18.61C209.81,574.81,219.67,586.4,214.55,595.16z M331.93,591.53c-0.59,9.6-13.32,13.51-20.29,7.85
		c-6.77-5.38-5.06-17.6,3.02-20.82C323.11,574.56,333.64,582.22,331.93,591.53z M430.32,578.96c8.82-4.64,19.98,4.29,17.53,13.79
		c-2.17,8.44-13.58,12.08-20.17,6.04C421.56,593.17,423.07,582.77,430.32,578.96z M592.01,445.17c-6.18-0.34-11.69-5.92-11.67-12.16
		c-0.23-5.5,4.01-10.59,9.29-11.87c6.57-1.93,13.95,2.75,15.4,9.36C606.63,438,599.63,445.84,592.01,445.17z"/>
	<path class="st0" d="M525.95,70.01c11.4-14.59,22.41-29.51,34.02-43.93c-17.08,27.15-35.01,53.76-52.43,80.69
		c-66.83,102.14-133.37,204.48-200.38,306.5c-3.88-28.95-7.4-57.95-11.29-86.91C234.22,397.21,173,468.44,111.27,539.21
		c46.61-66.85,90.4-135.63,134.23-204.31c24.03-37.9,48.05-75.8,71.73-113.9c0.82-0.9,1.22-2.69,2.7-2.64
		c4.3,34.36,8.22,68.75,12.38,103.12C397,237.76,461.39,153.82,525.95,70.01z"/>
</g>
</svg>
