<svg id="Layer_1" data-name="Layer 1" xmlns="http://www.w3.org/2000/svg" viewBox="0 0 287 176"><defs><style>.cls-1{fill:#fff;}</style></defs><path class="cls-1" d="M57,33.34c12.51-.88,25.48,3.41,34.48,12.25a44.65,44.65,0,0,1,14.39,33,45.18,45.18,0,0,1-15.6,34.78A45.68,45.68,0,0,1,15.77,68.7C19.77,49.55,37.49,34.36,57,33.34Zm2.59,16.8c-2.73,8.09-7.86,15-11.91,22.45-3.95-7.47-13-8.9-19-14a42.53,42.53,0,0,0-.58,31.13c2.91,7.79,10,14.07,18.42,15,4.48,1,8.94-.3,13.21-1.57,3,.31,5.75,1.89,8.8,1.88a23.2,23.2,0,0,0,22.39-13.1c4.86-10.34,4.77-22.8.49-33.31-6.32,5.16-15.79,6.67-19.37,14.77C68,65.6,62.66,58.45,59.63,50.14Z"/><path class="cls-1" d="M129.65,51.13c6.12-.16,12.24,0,18.36-.13-.13,13.86,0,27.72-.06,41.58-.13,4.68-.32,9.87-3.49,13.63-5.29,5.07-13.09,5.61-20,5.92,0-.83,0-2.49-.06-3.32,3.11-1,7-1.62,8.64-4.81,1.54-3.57,1.23-7.59,1.37-11.4-.18-11.37.14-22.76-.15-34.14C134.31,55.27,131.76,53.11,129.65,51.13Z"/><path class="cls-1" d="M219.69,51.16c8.59-.28,17.19,0,25.79-.11,5.54,0,11.43.35,16.28,3.3,5.19,2.88,6.6,9.91,4.9,15.22s-7.1,7.86-12.09,8.77c3.52.83,7.15,1.8,10,4.15,5.88,4.66,6.49,13.87,2.79,20.05-3.71,5.45-10.81,6.79-17,7.21-8.69.31-17.4,0-26.1.14-.07-16.45.06-32.91,0-49.36.05-3.19-.93-6.51-3.78-8.28Zm19.41,4.18c-1.54.83-1.13,2.77-1.29,4.22,0,13,0,26.07,0,39.11a17.84,17.84,0,0,0,1.07,6.26c3.74,1.23,8.17,1.77,11.54-.72,4.5-3.07,4.78-9.3,3.76-14.15-1.25-5.54-5.66-9.78-10.91-11.66,7.07-1.59,11.89-9.11,9.85-16.19C252.05,55.91,244.57,53.68,239.1,55.34Z"/><path class="cls-1" d="M59.74,62c2.71,7.34,8.19,13.27,10.76,20.65,2.4,7-3.79,14.86-11.07,14.43-7.16.11-13-7.84-10.44-14.61C51.68,75.2,56.92,69.22,59.74,62Z"/><path class="cls-1" d="M73.27,74.85c4-4.44,9.92-6,15.47-7.64,1.41,9.74.71,21.48-7.29,28.36-3.78,3.56-9,4.7-14.06,4.61,3.74-3.05,7.49-6.69,8.41-11.64C77,83.82,75,79.17,73.27,74.85Z"/><path class="cls-1" d="M37.07,94c-6.65-7.09-7-17.73-5.8-26.85,5.31,1.76,11.12,3,15.09,7.27-2.12,4.62-4,9.84-2.55,15,1.15,4.68,4.92,8,8.46,10.94C46.63,100.26,40.86,98.4,37.07,94Z"/><path class="cls-1" d="M158.13,51q15.45,0,30.91,0c6,.57,12.13,1.85,17,5.56a27.86,27.86,0,0,1,6,7.21,33.26,33.26,0,0,1,2.93,10.52c.39,6.44.6,13.2-2,19.28a21.18,21.18,0,0,1-8.88,11.11c-4.36,3.07-9.76,4.14-15,4.7-8.6.62-17.23.58-25.86.54-.92.2-1.55-1.2-1-1.93q0-23.36,0-46.69a11.77,11.77,0,0,0-2.29-8C159.06,52.7,157.67,52.35,158.13,51Zm21,4c-1.59.1-4,.86-3.31,3.08,0,14,0,27.91,0,41.87a11.77,11.77,0,0,0,.43,4.09c1.45,2.08,4.46,1.66,6.66,1.72a15.63,15.63,0,0,0,11.2-3.95c1.15-1.66,2.58-3.16,3.28-5.09,3.11-7.63,3.23-16.08,2.3-24.14-.73-6.36-3.28-13.51-9.58-16.24C186.73,54.62,182.82,54.63,179.15,55Z"/></svg>