<svg width="151" height="47" viewBox="0 0 151 47" fill="none" xmlns="http://www.w3.org/2000/svg">
<path d="M53.4071 46.031L61.014 1.25426H73.181L65.5687 46.031H53.4071ZM109.525 2.21951C107.114 1.31235 103.337 0.338867 98.6203 0.338867C86.5981 0.338867 78.1295 6.41172 78.0577 15.1157C77.9895 21.5499 84.1033 25.1392 88.718 27.2811C93.4541 29.4757 95.0459 30.8754 95.0236 32.8354C94.9937 35.8366 91.2417 37.2078 87.7448 37.2078C82.875 37.2078 80.2879 36.5292 76.2921 34.8574L74.7243 34.146L73.0167 44.1698C75.8584 45.4196 81.1136 46.5024 86.5696 46.5584C99.3591 46.5584 107.661 40.5551 107.756 31.2603C107.801 26.1667 104.56 22.2903 97.5407 19.0945C93.2881 17.0233 90.6837 15.6409 90.7113 13.5436C90.7113 11.6824 92.9158 9.69197 97.6788 9.69197C101.658 9.63022 104.54 10.5005 106.785 11.4075L107.876 11.9244L109.525 2.21951V2.21951ZM140.834 1.25357H131.432C128.52 1.25357 126.34 2.05116 125.061 4.96682L106.992 46.0015H119.768C119.768 46.0015 121.857 40.4837 122.329 39.2726C123.726 39.2726 136.137 39.2918 137.911 39.2918C138.275 40.8593 139.391 46.0015 139.391 46.0015H150.681L140.834 1.2522V1.25357ZM125.917 30.1677C126.923 27.5878 130.765 17.6507 130.765 17.6507C130.693 17.7701 131.1100 15.0583 132.378 13.3771L133.2 17.2379C133.2 17.2379 135.53 27.9263 136.017 30.1677H125.917ZM43.0783 1.25357L31.1667 31.7894L29.8973 25.5839C27.6798 18.4307 20.7709 10.6808 13.0472 6.80079L23.9387 45.9598L36.8117 45.9452L55.9662 1.25311H43.0783" fill="white"/>
<path d="M20.0558 1.25824H0.436896L0.281616 2.18987C15.5447 5.89626 25.6441 14.8532 29.8373 25.6144L25.5711 5.03759C24.8346 2.20245 22.6988 1.35637 20.0563 1.25732" fill="#F2AE14"/>
</svg>
