<svg width="48" height="48" viewBox="0 0 48 48" fill="none" xmlns="http://www.w3.org/2000/svg">
<path d="M0 12C0 10.4087 0.632141 8.88258 1.75736 7.75736C2.88258 6.63214 4.4087 6 6 6H42C43.5913 6 45.1174 6.63214 46.2426 7.75736C47.3679 8.88258 48 10.4087 48 12V36C48 37.5913 47.3679 39.1174 46.2426 40.2426C45.1174 41.3679 43.5913 42 42 42H6C4.4087 42 2.88258 41.3679 1.75736 40.2426C0.632141 39.1174 0 37.5913 0 36V12ZM6 9C5.20435 9 4.44129 9.31607 3.87868 9.87868C3.31607 10.4413 3 11.2044 3 12V15H45V12C45 11.2044 44.6839 10.4413 44.1213 9.87868C43.5587 9.31607 42.7957 9 42 9H6ZM45 21H3V36C3 36.7956 3.31607 37.5587 3.87868 38.1213C4.44129 38.6839 5.20435 39 6 39H42C42.7957 39 43.5587 38.6839 44.1213 38.1213C44.6839 37.5587 45 36.7956 45 36V21Z" fill="#6C6C6C"/>
</svg>
