<svg width="48" height="48" viewBox="0 0 48 48" fill="none" xmlns="http://www.w3.org/2000/svg">
<path fill-rule="evenodd" clip-rule="evenodd" d="M1.75736 7.75736C0.632141 8.88258 0 10.4087 0 12V36C0 37.5913 0.632141 39.1174 1.75736 40.2426C2.88258 41.3679 4.4087 42 6 42H42C43.5913 42 45.1174 41.3679 46.2426 40.2426C47.3679 39.1174 48 37.5913 48 36V12C48 10.4087 47.3679 8.88258 46.2426 7.75736C45.1174 6.63214 43.5913 6 42 6H6C4.4087 6 2.88258 6.63214 1.75736 7.75736ZM3.87868 9.87868C4.44129 9.31607 5.20435 9 6 9H42C42.7957 9 43.5587 9.31607 44.1213 9.87868C44.6839 10.4413 45 11.2044 45 12V15V17.5V21V36C45 36.7957 44.6839 37.5587 44.1213 38.1213C43.5587 38.6839 42.7957 39 42 39H6C5.20435 39 4.44129 38.6839 3.87868 38.1213C3.31607 37.5587 3 36.7957 3 36V21V15V12C3 11.2044 3.31607 10.4413 3.87868 9.87868Z" fill="white"/>
<circle cx="30" cy="31" r="4" fill="white"/>
<circle cx="36" cy="31" r="4" fill="white"/>
</svg>
