<svg width="48" height="44" viewBox="0 0 48 44" fill="none" xmlns="http://www.w3.org/2000/svg">
<path fill-rule="evenodd" clip-rule="evenodd" d="M32.2556 23.7476C27.6961 23.7476 26.7518 27.4437 26.7518 32.0032V43.5611H21.248V32.0032C21.248 24.4041 24.6565 18.2438 32.2556 18.2438H39.1353V12.4648L47.6661 20.9957L39.1353 29.5265V23.7476H32.2556Z" fill="url(#paint0_linear_243_6699)"/>
<path d="M23.0835 21.0765C21.3184 19.2997 18.8906 18.2438 15.7445 18.2438H8.86482V12.4648L0.333984 20.9957L8.86482 29.5265V23.7476H15.7445C18.3833 23.7476 19.8112 24.9856 20.5459 26.9124C20.9958 24.6542 21.8323 22.6526 23.0835 21.0765Z" fill="url(#paint1_linear_243_6699)"/>
<path d="M26.7582 17.9311L26.7582 8.97029L32.5371 8.97029L24.0063 0.439453L15.4754 8.97029L21.2544 8.97029L21.2544 17.9311L24.0063 19.8487L26.7582 17.9311Z" fill="url(#paint2_linear_243_6699)"/>
<defs>
<linearGradient id="paint0_linear_243_6699" x1="34.4571" y1="12.4648" x2="34.4571" y2="43.5611" gradientUnits="userSpaceOnUse">
<stop stop-color="#9164FB"/>
<stop offset="1" stop-color="#FFF1CC"/>
</linearGradient>
<linearGradient id="paint1_linear_243_6699" x1="11.7087" y1="12.4648" x2="11.7087" y2="29.5265" gradientUnits="userSpaceOnUse">
<stop stop-color="#9164FB"/>
<stop offset="1" stop-color="#FFF1CC"/>
</linearGradient>
<linearGradient id="paint2_linear_243_6699" x1="32.5371" y1="10.1441" x2="15.4754" y2="10.1441" gradientUnits="userSpaceOnUse">
<stop stop-color="#9164FB"/>
<stop offset="1" stop-color="#FFF1CC"/>
</linearGradient>
</defs>
</svg>
