<svg width="60" height="60" viewBox="0 0 60 60" fill="none" xmlns="http://www.w3.org/2000/svg">
<path fill-rule="evenodd" clip-rule="evenodd" d="M46.8574 13.3274C47.3243 13.7164 47.3874 14.4103 46.9983 14.8772L39.2177 24.214C39.0198 24.4515 38.7311 24.5948 38.4222 24.6088C38.1133 24.6228 37.8128 24.5062 37.5942 24.2876L32.9258 19.6193C32.4961 19.1895 32.4961 18.4927 32.9258 18.063C33.3556 17.6332 34.0524 17.6332 34.4821 18.063L38.2984 21.8792L45.3075 13.4683C45.6966 13.0014 46.3905 12.9383 46.8574 13.3274Z" fill="url(#paint0_linear_243_6708)"/>
<path fill-rule="evenodd" clip-rule="evenodd" d="M11.8287 27.5732C11.8277 26.2455 11.9943 24.923 12.3247 23.6371H17.9297C17.6644 26.2544 17.6644 28.8919 17.9297 31.5093H12.3247C12.0019 30.2498 11.8287 28.9312 11.8287 27.5732ZM18.5516 19.7009H13.9345C15.5232 16.956 17.9005 14.7521 20.7578 13.3756C19.8308 15.1606 19.0751 17.3058 18.5516 19.7009ZM37.402 28.6069C37.31100 29.5758 37.3146 30.5439 37.2167 31.5093H42.8217C43.1373 30.2795 43.3025 29.0213 43.3175 27.7617C44.8383 26.978 46.1108 25.7801 46.9857 24.3171C47.162 25.3762 47.2538 26.464 47.2538 27.5732C47.2538 38.4428 38.4428 47.2538 27.5732 47.2538C16.7036 47.2538 7.89258 38.4428 7.89258 27.5732C7.89258 16.7036 16.7036 7.89258 27.5732 7.89258C31.2299 7.89258 34.6537 8.88978 37.5873 10.6271C34.7228 11.1167 32.3133 12.9395 31.0201 15.4343C31.0172 15.4284 31.0143 15.4224 31.0114 15.4165C29.7754 12.9466 28.4529 11.8287 27.5732 11.8287C26.6915 11.8287 25.3709 12.9466 24.135 15.4165C23.515 16.6603 22.9935 18.1068 22.594 19.7009H30.0002C30.0104 21.112 30.3404 22.447 30.9213 23.6371H21.8894C21.742 24.9439 21.6684 26.258 21.669 27.5732C21.669 28.9213 21.7438 30.2399 21.8894 31.5093H33.2569C33.4341 29.9458 33.5054 28.3733 33.4707 26.8025C34.5965 27.6936 35.937 28.3252 37.402 28.6069ZM20.7578 41.7708C17.9005 40.3943 15.5232 38.1904 13.9345 35.4454H18.5516C19.0751 37.8406 19.8289 39.9858 20.7578 41.7708ZM36.5948 35.4454H41.2119C39.6232 38.1904 37.2459 40.3943 34.3886 41.7708C35.3155 39.9858 36.0713 37.8406 36.5948 35.4454ZM24.135 39.7299C23.515 38.4861 22.9935 37.0396 22.594 35.4454H32.5524C32.1529 37.0396 31.6313 38.4861 31.0114 39.7299C29.7754 42.1998 28.4549 43.3177 27.5732 43.3177C26.6935 43.3177 25.3709 42.1998 24.135 39.7299Z" fill="url(#paint1_linear_243_6708)"/>
<defs>
<linearGradient id="paint0_linear_243_6708" x1="39.9285" y1="13.0723" x2="39.9285" y2="24.6099" gradientUnits="userSpaceOnUse">
<stop stop-color="#9164FB"/>
<stop offset="1" stop-color="#FFF2D0"/>
</linearGradient>
<linearGradient id="paint1_linear_243_6708" x1="27.5732" y1="7.89258" x2="27.5732" y2="47.2538" gradientUnits="userSpaceOnUse">
<stop stop-color="#9164FB"/>
<stop offset="1" stop-color="#FFF2D0"/>
</linearGradient>
</defs>
</svg>
