<svg width="60" height="60" viewBox="0 0 60 60" fill="none" xmlns="http://www.w3.org/2000/svg">
<path d="M9.08984 50.9622V24.1033L28.5788 31.6539V58.8725L9.08984 50.9622Z" fill="url(#paint0_linear_243_6869)"/>
<path d="M29.8732 58.8725V31.6539L50.9074 24.2111V50.9982L29.8732 58.8725Z" fill="url(#paint1_linear_243_6869)"/>
<path d="M29.262 30.3236L20.8124 27.1954L40.4083 19.7526L49.6489 23.2043L29.262 30.3236Z" fill="url(#paint2_linear_243_6869)"/>
<path d="M10.2413 23.0245L18.9067 26.4403L38.5386 18.9615L29.262 15.5098L10.2413 23.0245Z" fill="url(#paint3_linear_243_6869)"/>
<path d="M29.3545 10.2959L28.6968 2.93621" stroke="url(#paint4_linear_243_6869)" stroke-width="2" stroke-linecap="round"/>
<path d="M22.2412 13.6953L17.3446 7.73265" stroke="url(#paint5_linear_243_6869)" stroke-width="2" stroke-linecap="round"/>
<path d="M36.3818 12.4316L40.1437 5.69523" stroke="url(#paint6_linear_243_6869)" stroke-width="2" stroke-linecap="round"/>
<defs>
<linearGradient id="paint0_linear_243_6869" x1="29.9986" y1="15.5098" x2="34.0841" y2="81.7479" gradientUnits="userSpaceOnUse">
<stop stop-color="#9164FB"/>
<stop offset="1" stop-color="#FFEAB5"/>
</linearGradient>
<linearGradient id="paint1_linear_243_6869" x1="29.9986" y1="15.5098" x2="34.0841" y2="81.7479" gradientUnits="userSpaceOnUse">
<stop stop-color="#9164FB"/>
<stop offset="1" stop-color="#FFEAB5"/>
</linearGradient>
<linearGradient id="paint2_linear_243_6869" x1="29.9986" y1="15.5098" x2="34.0841" y2="81.7479" gradientUnits="userSpaceOnUse">
<stop stop-color="#9164FB"/>
<stop offset="1" stop-color="#FFEAB5"/>
</linearGradient>
<linearGradient id="paint3_linear_243_6869" x1="29.9986" y1="15.5098" x2="34.0841" y2="81.7479" gradientUnits="userSpaceOnUse">
<stop stop-color="#9164FB"/>
<stop offset="1" stop-color="#FFEAB5"/>
</linearGradient>
<linearGradient id="paint4_linear_243_6869" x1="29.8525" y1="10.2514" x2="29.1948" y2="2.8917" gradientUnits="userSpaceOnUse">
<stop stop-color="#9164FB"/>
<stop offset="1" stop-color="#FFF1CC"/>
</linearGradient>
<linearGradient id="paint5_linear_243_6869" x1="22.6276" y1="13.378" x2="17.731" y2="7.41533" gradientUnits="userSpaceOnUse">
<stop stop-color="#9164FB"/>
<stop offset="1" stop-color="#FFF1CC"/>
</linearGradient>
<linearGradient id="paint6_linear_243_6869" x1="35.9453" y1="12.1879" x2="39.7071" y2="5.45145" gradientUnits="userSpaceOnUse">
<stop stop-color="#9164FB"/>
<stop offset="1" stop-color="#FFF1CC"/>
</linearGradient>
</defs>
</svg>
