<svg width="60" height="60" viewBox="0 0 60 60" fill="none" xmlns="http://www.w3.org/2000/svg">
<path fill-rule="evenodd" clip-rule="evenodd" d="M34.5218 34.0224C33.3011 34.9934 31.9755 34.731 30.9659 34.27L30.4337 35.0702C30.3454 35.2028 30.2052 35.2998 30.0438 35.3399C29.8825 35.3799 29.7132 35.3597 29.5732 35.2837C29.4332 35.2077 29.334 35.0821 29.2974 34.9346C29.2608 34.787 29.2898 34.6296 29.378 34.497L29.9102 33.6968C28.9978 33.0842 28.3183 32.2237 27.9602 31.2276C27.9394 31.1552 27.9344 31.079 27.9455 31.0035C27.9566 30.928 27.9836 30.8547 28.025 30.7876C28.0664 30.7206 28.1213 30.6612 28.1867 30.6128C28.252 30.5645 28.3265 30.5281 28.4059 30.5058C28.4853 30.4834 28.568 30.4756 28.6494 30.4827C28.7307 30.4898 28.809 30.5117 28.8799 30.5471C28.9508 30.5826 29.0129 30.6309 29.0625 30.6893C29.1122 30.7477 29.1485 30.8151 29.1693 30.8876C29.4415 31.6093 29.9278 32.2389 30.5744 32.7069L32.2456 30.1944C31.7392 29.8081 31.3305 29.3246 31.0457 28.7751C30.8029 28.3184 30.7447 27.7908 30.8812 27.2839C31.0178 26.777 31.3406 26.323 31.7933 26.0007C32.4443 25.5319 33.6748 25.2633 35.109 25.8896L35.5933 25.1614C35.6815 25.0288 35.8218 24.9318 35.9831 24.8917C36.1445 24.8517 36.3138 24.8719 36.4538 24.9479C36.5938 25.0239 36.693 25.1495 36.7296 25.297C36.7662 25.4446 36.7372 25.602 36.649 25.7346L36.154 26.4788C36.8562 26.9678 37.3884 27.634 37.6909 28.4024C37.7123 28.5397 37.6787 28.6816 37.5962 28.8018C37.5137 28.922 37.388 29.0122 37.2424 29.0556C37.0968 29.0991 36.9414 29.0929 36.8049 29.0381C36.6684 28.9834 36.5601 28.8838 36.5003 28.7579C36.283 28.2596 35.9326 27.8243 35.4808 27.491L33.8495 29.9434C34.0682 30.133 34.3012 30.3358 34.5283 30.5734C34.8041 30.8284 35.0181 31.1351 35.157 31.4747C35.2959 31.8142 35.3568 32.1794 35.336 32.5476C35.2813 33.1111 34.9887 33.6411 34.5218 34.0224ZM31.5169 33.4758L33.3138 30.7124C33.9631 31.1503 34.8248 31.9362 34.099 33.0983C33.3732 34.2604 32.287 33.8382 31.5169 33.4758ZM34.703 26.6354L32.8608 29.2477C32.136 28.756 31.3659 27.934 32.0001 26.9374C32.6343 25.9407 34.1528 26.277 34.703 26.6354Z" fill="url(#paint0_linear_243_6881)"/>
<path fill-rule="evenodd" clip-rule="evenodd" d="M11.9062 33.5946C9.4496 30.4831 5.08 24.8701 2.68369 21.5248C1.9869 20.552 1.99082 20.498 2.83198 19.6445C7.10691 15.3068 15.3411 8.22812 19.7423 4.54644C20.3667 4.02413 20.403 3.83003 20.8314 4.54644C22.5415 7.40555 26.073 12.6626 29.0276 14.9107C30.9467 16.3708 36.553 19.5808 41.3834 21.7397C48.9131 25.1049 54.5566 28.8601 57.5866 36.8356C57.9943 37.9085 57.9039 38.039 57.1088 38.8502L41.0464 55.2374C40.271 56.0284 40.2417 56.2615 39.7152 55.2374C38.5157 52.9038 37.1416 50.3301 32.8608 45.9672C28.363 42.5489 20.9801 38.8345 17.6364 37.6473C16.1100 37.5086 16.3618 37.027 17.2029 36.187L27.2848 20.7011L13.1686 33.5946C12.4927 34.2152 12.4827 34.3248 11.9062 33.5946ZM37.0368 23.6307C35.7005 22.9052 34.1445 22.5714 32.5656 22.6715C30.9866 22.7716 29.4557 23.3012 28.1663 24.1932C26.8769 25.0852 25.887 26.2997 25.3218 27.6829C24.7565 29.0662 24.6413 30.5562 24.9907 31.9645C25.3402 33.3727 26.1385 34.636 27.2848 35.5946C28.4311 36.5532 29.8739 37.1641 31.4308 37.3499C32.9876 37.5357 34.5885 37.2881 36.0311 36.6385C37.4737 35.9889 38.6932 34.9665 39.5353 33.7004C40.6646 32.0027 41.0357 29.988 40.5672 28.0996C40.0986 26.2112 38.8287 24.6037 37.0368 23.6307Z" fill="url(#paint1_linear_243_6881)"/>
<path d="M16.0889 41.5508L15.2661 45.9443" stroke="url(#paint2_linear_243_6881)" stroke-width="2" stroke-linecap="round"/>
<path d="M10.5811 40.5776L6.852 42.5236" stroke="url(#paint3_linear_243_6881)" stroke-width="2" stroke-linecap="round"/>
<path d="M9.21387 34.6479L4.48762 34.3194" stroke="url(#paint4_linear_243_6881)" stroke-width="2" stroke-linecap="round"/>
<defs>
<linearGradient id="paint0_linear_243_6881" x1="30.2804" y1="3.93688" x2="30.2804" y2="56.1271" gradientUnits="userSpaceOnUse">
<stop stop-color="#9164FB"/>
<stop offset="1" stop-color="#FFF1CC"/>
</linearGradient>
<linearGradient id="paint1_linear_243_6881" x1="30.2804" y1="3.93688" x2="30.2804" y2="56.1271" gradientUnits="userSpaceOnUse">
<stop stop-color="#9164FB"/>
<stop offset="1" stop-color="#FFF1CC"/>
</linearGradient>
<linearGradient id="paint2_linear_243_6881" x1="16.5803" y1="41.6428" x2="15.7575" y2="46.0363" gradientUnits="userSpaceOnUse">
<stop stop-color="#9164FB"/>
<stop offset="1" stop-color="#FFF1CC"/>
</linearGradient>
<linearGradient id="paint3_linear_243_6881" x1="10.8124" y1="41.0209" x2="7.08332" y2="42.9669" gradientUnits="userSpaceOnUse">
<stop stop-color="#9164FB"/>
<stop offset="1" stop-color="#FFF1CC"/>
</linearGradient>
<linearGradient id="paint4_linear_243_6881" x1="9.17919" y1="35.1467" x2="4.45294" y2="34.8182" gradientUnits="userSpaceOnUse">
<stop stop-color="#9164FB"/>
<stop offset="1" stop-color="#FFF1CC"/>
</linearGradient>
</defs>
</svg>
