<svg width="60" height="60" viewBox="0 0 60 60" fill="none" xmlns="http://www.w3.org/2000/svg">
<path fill-rule="evenodd" clip-rule="evenodd" d="M14.9979 16.5215V21.0211H7.01172V25.4265C7.01172 32.8002 9.20263 36.9111 14.4679 39.4672C16.4253 40.5196 18.232 41.831 19.8392 43.366C21.1309 44.7439 22.7063 45.825 24.4566 46.5346L26.4472 47.1471V52.4831H23.4082C19.7331 52.4831 18.4963 53.3194 18.4963 55.8048V57.4774H41.4656V55.9814C41.4656 53.5432 39.9578 52.4477 36.4712 52.4477H33.5147V47.1471L35.5407 46.5464C37.2935 45.836 38.8695 44.7505 40.1581 43.366C41.8347 41.768 43.7115 40.3941 45.7414 39.2787C47.3175 38.5202 48.7252 37.4526 49.8806 36.1393C51.036 34.8261 51.9156 33.294 52.4672 31.6341C52.8422 29.5788 53.0158 27.4919 52.9855 25.4029V21.0329H44.964V16.5215H14.9979ZM14.9273 25.5207H11.2051L11.4878 28.1475C11.619 29.4744 11.9403 30.7755 12.4419 32.011C13.3253 33.6247 14.5386 35.0382 14.9273 34.8026V25.5207ZM49.0866 25.5207H45.0346L44.9993 35.0618C45.5111 34.7627 45.9561 34.3618 46.3068 33.8839C47.7974 32.3225 48.6648 30.2693 48.745 28.1121L49.0866 25.5207Z" fill="url(#paint0_linear_243_6893)"/>
<path fill-rule="evenodd" clip-rule="evenodd" d="M47.0273 2.81124C47.4942 3.20033 47.5573 3.89424 47.1683 4.36113L39.3877 13.6979C39.1897 13.9354 38.901 14.0787 38.5921 14.0927C38.2833 14.1067 37.9827 13.9901 37.7641 13.7715L33.0958 9.10314C32.666 8.67338 32.666 7.97661 33.0958 7.54686C33.5255 7.1171 34.2223 7.1171 34.652 7.54686L38.4683 11.3631L45.4775 2.95214C45.8665 2.48524 46.5605 2.42216 47.0273 2.81124Z" fill="url(#paint1_linear_243_6893)"/>
<defs>
<linearGradient id="paint0_linear_243_6893" x1="30.0003" y1="16.5215" x2="33.3184" y2="79.1453" gradientUnits="userSpaceOnUse">
<stop stop-color="#9164FB"/>
<stop offset="1" stop-color="#FFEAB5"/>
</linearGradient>
<linearGradient id="paint1_linear_243_6893" x1="40.0984" y1="2.55615" x2="40.0984" y2="14.0938" gradientUnits="userSpaceOnUse">
<stop stop-color="#9164FB"/>
<stop offset="1" stop-color="#FFF2D0"/>
</linearGradient>
</defs>
</svg>
